<?xml version="1.0" encoding="UTF-8"?>
<svg width="89.663mm" height="51.061mm" version="1.1" viewBox="0 0 89.663 51.061" xmlns="http://www.w3.org/2000/svg" xmlns:cc="http://creativecommons.org/ns#" xmlns:dc="http://purl.org/dc/elements/1.1/" xmlns:rdf="http://www.w3.org/1999/02/22-rdf-syntax-ns#">
 <metadata>
  <rdf:RDF>
   <cc:Work rdf:about="">
    <dc:format>image/svg+xml</dc:format>
    <dc:type rdf:resource="http://purl.org/dc/dcmitype/StillImage"/>
    <dc:title/>
   </cc:Work>
  </rdf:RDF>
 </metadata>
 <g transform="translate(-238.34 -.37845)">
  <g id="find" transform="matrix(.5 0 0 .5 78.092 -57.542)" stroke-width=".0061727">
   <path d="m492.21 139.52c-4.2691-4.2908-4.2691-4.2908-5.6726-3.7745-9.7442 3.5846-15.726-10.535-6.3126-14.901 6.8514-3.1777 13.935 4.3241 10.494 11.114-0.76497 1.5097-0.76497 1.5097 3.3734 5.7866 4.1145 4.2522 4.5944 4.9742 3.8209 5.7477-0.77012 0.77012-1.4667 0.28481-5.7033-3.9733zm5.3593 3.2067c0-0.39088-7.7025-8.7055-8.0646-8.7055-0.0927 0-0.39974 0.17255-0.68221 0.38345-0.48598 0.36283-0.28593 0.61213 3.7197 4.6357 3.9386 3.9562 5.0271 4.7544 5.0271 3.6864zm-11.409-7.438c1.5414-0.45346 3.9051-2.8554 4.4833-4.5558 2.1327-6.2713-4.3593-12.184-10.226-9.3136-8.6298 4.2222-3.5083 16.591 5.7428 13.869zm-3.7991-1.8217c-0.36081-0.14709-0.86943-0.46058-1.1303-0.69663-0.43762-0.39605-0.546-0.39497-1.4035 0.0139-1.0866 0.51817-1.1759 0.53146-1.1759 0.1751 0-0.14741 0.54503-0.53282 1.2112-0.85645 1.1598-0.56347 1.2226-0.56792 1.4818-0.10492 0.7011 1.2528 2.5637 1.3174 3.8285 0.13268 0.53646-0.50246 0.61433-0.50851 1.3891-0.10788 1.217 0.62933 1.1601 1.2038-0.0639 0.64613-0.53251-0.24263-0.77692-0.19867-1.4015 0.2521-0.96596 0.69714-1.9049 0.88453-2.7354 0.54594zm-0.37402-2.6458c-1.3238-1.0413-2.1869-3.4076-1.8662-5.1166 0.55584-2.9629 4.3819-3.7008 5.9398-1.1456 1.8861 3.0935-1.4947 8.2908-4.0736 6.2623zm2.6167-0.8473c2.068-2.068 1.8101-5.4997-0.46976-6.2521-2.6593-0.87766-4.363 2.2806-2.8403 5.2654 1.0119 1.9834 2.0145 2.2823 3.31 0.98672z" fill="#333" stroke-width=".0061727"/>
  </g>
  <g fill="#999999" font-family="sans-serif" font-size="1.7639px" stroke-width="7.97e-6">
   <text x="247.28676" y="31.732868" style="line-height:1.25" xml:space="preserve"><tspan x="247.28676" y="31.732868" fill="#999999" font-size="1.7639px" stroke-width="7.97e-6">Book Appointments</tspan></text>
   <text x="297.37396" y="12.974064" style="line-height:1.25" xml:space="preserve"><tspan x="297.37396" y="12.974064" fill="#999999" font-size="1.7639px" stroke-width="7.97e-6">Find Professionals</tspan></text>
   <text x="264.01624" y="21.308437" style="line-height:1.25" xml:space="preserve"><tspan x="264.01624" y="21.308437" fill="#999999" font-size="1.7639px" stroke-width="7.97e-6">Online Consultation</tspan></text>
  </g>
  <g>
   <g id="stethoscope" transform="matrix(.098438 0 0 .098438 285.34 22.939)" stroke-width="2735">
    <path d="m313.01 79.08c0.191-0.07643 0.4192-0.06703 0.50712 0.02088 0.0879 0.08792-0.0684 0.15045-0.34726 0.13896l-0.50712-0.02088zm-7.1438-4.7625c0.191-0.07643 0.4192-0.06703 0.50712 0.02088 0.0879 0.08792-0.0683 0.15045-0.34726 0.13896l-0.50712-0.02088zm-32.759-25.484c0-0.19403 0.0794-0.2734 0.17639-0.17639 0.097 0.09701 0.097 0.25576 0 0.35278-0.097 0.09701-0.17639 0.01764-0.17639-0.17639zm4.7625-1.8521c0-0.19403 0.0794-0.2734 0.17639-0.17639 0.097 0.09701 0.097 0.25576 0 0.35278-0.097 0.09701-0.17639 0.01764-0.17639-0.17639zm49.849-1.0992-0.18878-0.30546 0.30546 0.18879c0.305 0.1885 0.40949 0.42214 0.18879 0.42214-0.0642 0-0.20163-0.13746-0.30547-0.30546zm-48.261-1.3819c0-0.05494 0.20836-0.2633 0.46302-0.46302l0.46302-0.36312-0.36312 0.46302c-0.34565 0.44073-0.56292 0.58089-0.56292 0.36312zm59.862-3.2575c0.25466-0.06655 0.67138-0.06655 0.92604 0s0.0463 0.121-0.46302 0.121-0.71768-0.05445-0.46302-0.121zm-4.8624-2.1327-0.36312-0.46302 0.46302 0.36312c0.44073 0.34564 0.58089 0.56292 0.36312 0.56292-0.0549 0-0.2633-0.20836-0.46302-0.46302zm-62.193-9.5073c0.191-0.07643 0.4192-0.06703 0.50712 0.02088 0.0879 0.08792-0.0684 0.15045-0.34727 0.13896l-0.50712-0.02088zm4.6187-0.0026c0.25743-0.06708 0.61462-0.06267 0.79375 0.0098 0.17913 0.07248-0.0315 0.12736-0.46806 0.12197-0.43656-0.0054-0.58312-0.06469-0.32569-0.13177zm54.036-3.2562c0.0899-0.14552 0.22305-0.26458 0.29581-0.26458 0.0728 0 0.0587 0.11906-0.0312 0.26458s-0.22305 0.26458-0.29581 0.26458c-0.0728 0-0.0587-0.11906 0.0312-0.26458zm17.032-0.46302-0.36312-0.46302 0.46302 0.36312c0.44073 0.34564 0.58089 0.56292 0.36312 0.56292-0.0549 0-0.2633-0.20836-0.46302-0.46302zm-16.238-0.33073c0.0899-0.14552 0.22305-0.26458 0.29581-0.26458 0.0728 0 0.0587 0.11906-0.0312 0.26458s-0.22305 0.26458-0.29581 0.26458c-0.0728 0-0.0587-0.11906 0.0312-0.26458zm-46.17-1.9844c0.34177-0.3638 0.68094-0.66146 0.7537-0.66146 0.0728 0-0.14734 0.29766-0.48912 0.66146s-0.68094 0.66146-0.7537 0.66146c-0.0728 0 0.14734-0.29766 0.48912-0.66146zm65.724-1.2315-0.18879-0.30546 0.30547 0.18879c0.168 0.10383 0.30546 0.24129 0.30546 0.30546 0 0.2207-0.23364 0.11621-0.42214-0.18879zm-22.729-0.48829c0.0899-0.14552 0.22305-0.26458 0.29581-0.26458 0.0728 0 0.0587 0.11906-0.0312 0.26458s-0.22305 0.26458-0.29581 0.26458c-0.0728 0-0.0587-0.11906 0.0312-0.26458z" fill="#b9b9b9"/>
    <path d="m303.48 79.08c0.191-0.07643 0.4192-0.06703 0.50712 0.02088 0.0879 0.08792-0.0684 0.15045-0.34726 0.13896l-0.50712-0.02088zm8.8691 0.0043c0.097-0.09701 0.25576-0.09701 0.35278 0 0.097 0.09703 0.0176 0.1764-0.17639 0.1764-0.19403 0-0.27341-0.07937-0.17639-0.17639zm-7.1438-4.7625c0.097-0.09701 0.25576-0.09701 0.35278 0 0.097 0.09703 0.0176 0.1764-0.17639 0.1764-0.19403 0-0.27341-0.07937-0.17639-0.17639zm5.8208 0c0.097-0.09701 0.25576-0.09701 0.35278 0 0.097 0.09703 0.0176 0.1764-0.17639 0.1764-0.19403 0-0.2734-0.07937-0.17639-0.17639zm-33.161-26.811c0-0.19403 0.0794-0.2734 0.17639-0.17639 0.097 0.09701 0.097 0.25576 0 0.35278-0.097 0.09701-0.17639 0.01764-0.17639-0.17639zm69.718-4.7625c0.0899-0.14552 0.22305-0.26458 0.29581-0.26458 0.0728 0 0.0587 0.11906-0.0312 0.26458-0.0899 0.14552-0.22305 0.26458-0.29581 0.26458-0.0728 0-0.0587-0.11906 0.0312-0.26458zm0.79375-0.79375c0.0899-0.14552 0.22305-0.26458 0.29581-0.26458 0.0728 0 0.0587 0.11906-0.0312 0.26458-0.0899 0.14552-0.22305 0.26458-0.29581 0.26458-0.0728 0-0.0587-0.11906 0.0312-0.26458zm-1.7198-8.2021c0-0.19403 0.0794-0.2734 0.17639-0.17639 0.097 0.09701 0.097 0.25576 0 0.35278-0.097 0.09701-0.17639 0.01764-0.17639-0.17639zm-66.675-2.1167c0-0.19403 0.0794-0.2734 0.17639-0.17639 0.097 0.09701 0.097 0.25576 0 0.35278-0.097 0.09701-0.17639 0.01764-0.17639-0.17639zm-9.2395-0.94809 0.0209-0.50712 0.13897 0.34726c0.0764 0.191 0.067 0.4192-0.0209 0.50712-0.0879 0.08792-0.15045-0.06835-0.13896-0.34727zm9.2395 0.15434c0-0.19403 0.0794-0.2734 0.17639-0.17639 0.097 0.09701 0.097 0.25576 0 0.35278-0.097 0.09701-0.17639 0.01764-0.17639-0.17639zm-1.6536-1.2451c0.32742-0.06307 0.8632-0.06307 1.1906 0 0.32742 0.06306 0.0595 0.11466-0.59532 0.11466-0.65484 0-0.92273-0.0516-0.59531-0.11466zm66.178-0.54088-0.36313-0.46302 0.46303 0.36312c0.44073 0.34564 0.58088 0.56292 0.36312 0.56292-0.0549 0-0.2633-0.20836-0.46302-0.46302zm-4.1114-1.83c0.097-0.09701 0.25576-0.09701 0.35278 0 0.097 0.09702 0.0176 0.17639-0.17639 0.17639-0.19403 0-0.2734-0.07937-0.17639-0.17639zm-12.656-4.5861c0.26339-0.29104 0.53842-0.52917 0.61118-0.52917 0.0728 0-0.0832 0.23812-0.3466 0.52917-0.26339 0.29104-0.53842 0.52917-0.61118 0.52917-0.0728 0 0.0832-0.23812 0.3466-0.52917zm10.01-4.9389c0.097-0.09701 0.25576-0.09701 0.35278 0 0.097 0.09701 0.0176 0.17639-0.17639 0.17639-0.19403 0-0.27341-0.07938-0.17639-0.17639zm-95.338-41.628c0-0.19403 0.0794-0.2734 0.17639-0.17639 0.097 0.09701 0.097 0.25576 0 0.35278-0.097 0.09701-0.17639 0.01764-0.17639-0.17639zm66.167-1.7418 0.0209-0.50712 0.13897 0.34727c0.0764 0.191 0.067 0.4192-0.0209 0.50712-0.0879 0.08792-0.15045-0.06835-0.13896-0.34727zm-61.537-1.4332c0.0899-0.14552 0.22305-0.26458 0.29581-0.26458 0.0728 0 0.0587 0.11906-0.0312 0.26458s-0.22305 0.26458-0.29581 0.26458c-0.0728 0-0.0587-0.11906 0.0312-0.26458zm9.0785-0.44532c0.19099-0.07643 0.4192-0.06703 0.50712 0.02089 0.0879 0.08792-0.0684 0.15045-0.34727 0.13896l-0.50712-0.02089zm-12.254-2.9943c0.26339-0.29104 0.53842-0.52917 0.61118-0.52917 0.0728 0-0.0832 0.23812-0.3466 0.52917-0.26338 0.29104-0.53842 0.52917-0.61118 0.52917-0.0728 0 0.0832-0.23812 0.3466-0.52917z" fill="#a3a3a3"/>
    <path d="m304.27 79.08c0.191-0.07643 0.4192-0.06703 0.50712 0.02088 0.0879 0.08792-0.0684 0.15045-0.34726 0.13896l-0.50712-0.02088zm7.5461 0.0043c0.097-0.09701 0.25576-0.09701 0.35278 0 0.097 0.09703 0.0176 0.1764-0.17639 0.1764-0.19403 0-0.2734-0.07937-0.17639-0.17639zm-7.2816-4.7668c0.19099-0.07643 0.4192-0.06703 0.50712 0.02088 0.0879 0.08792-0.0684 0.15045-0.34727 0.13896l-0.50712-0.02088zm7.017 0.0043c0.097-0.09701 0.25576-0.09701 0.35278 0 0.097 0.09703 0.0176 0.1764-0.17639 0.1764-0.19403 0-0.27341-0.07937-0.17639-0.17639zm18.168-7.0672c0-0.05494 0.20836-0.2633 0.46302-0.46302l0.46302-0.36312-0.36312 0.46302c-0.34564 0.44073-0.56292 0.58089-0.56292 0.36312zm-56.569-19.611c5e-3 -0.43656 0.0647-0.58313 0.13177-0.32569 0.0671 0.25743 0.0627 0.61462-0.01 0.79375-0.0725 0.17913-0.12736-0.03149-0.12197-0.46806zm4.7109 0.39688c0-0.19403 0.0794-0.2734 0.17639-0.17639 0.097 0.09702 0.097 0.25576 0 0.35278-0.097 0.09701-0.17639 0.01764-0.17639-0.17639zm69.189-4.7625c0.0899-0.14552 0.22305-0.26458 0.29581-0.26458 0.0728 0 0.0587 0.11906-0.0312 0.26458s-0.22305 0.26458-0.29581 0.26458c-0.0728 0-0.0587-0.11906 0.0312-0.26458zm-15.9-0.8599-0.50403-0.59531 0.59532 0.50403c0.32742 0.27722 0.59531 0.54511 0.59531 0.59531 0 0.21173-0.21293 0.05542-0.6866-0.50403zm1.4804-7.0776c0-0.19403 0.0794-0.2734 0.17639-0.17639 0.097 0.09701 0.097 0.25576 0 0.35278-0.097 0.09701-0.17639 0.01764-0.17639-0.17639zm14.023-1.0583c0-0.19403 0.0794-0.2734 0.17639-0.17639 0.097 0.09702 0.097 0.25576 0 0.35278-0.097 0.09701-0.17639 0.01764-0.17639-0.17639zm-75.935-2.9104c0-0.19403 0.0794-0.2734 0.17639-0.17639 0.097 0.09701 0.097 0.25576 0 0.35278-0.097 0.09701-0.17639 0.01764-0.17639-0.17639zm9.2813-1.2127 0.0209-0.50712 0.13897 0.34726c0.0764 0.191 0.067 0.4192-0.0209 0.50712-0.0879 0.08792-0.15045-0.06835-0.13896-0.34726zm-8.664-0.55122c0.097-0.09701 0.25576-0.09701 0.35278 0 0.097 0.09701 0.0176 0.17639-0.17639 0.17639-0.19403 0-0.2734-0.07938-0.17639-0.17639zm67.066-2.3856c0.191-0.07643 0.4192-0.06703 0.50712 0.02088 0.0879 0.08792-0.0684 0.15045-0.34726 0.13896l-0.50712-0.02088zm1.3229 0c0.191-0.07643 0.4192-0.06703 0.50712 0.02088 0.0879 0.08792-0.0684 0.15045-0.34727 0.13896l-0.50712-0.02088zm-79.218-1.7122-0.18879-0.30546 0.30546 0.18879c0.16801 0.10383 0.30547 0.24129 0.30547 0.30546 0 0.2207-0.23364 0.11621-0.42214-0.18879zm25.954-2.8695c0.0899-0.14552 0.22305-0.26458 0.29581-0.26458 0.0728 0 0.0587 0.11906-0.0312 0.26458s-0.22305 0.26458-0.29581 0.26458c-0.0728 0-0.0587-0.11906 0.0312-0.26458zm54.725-4.9389c0.097-0.09701 0.25576-0.09701 0.35278 0 0.097 0.09701 0.0176 0.17639-0.17639 0.17639-0.19403 0-0.2734-0.07938-0.17639-0.17639zm-37.374-43.899 0.0209-0.50712 0.13897 0.34727c0.0764 0.191 0.067 0.4192-0.0209 0.50712-0.0879 0.08792-0.15045-0.06835-0.13896-0.34727zm4.7625-0.26458 0.0209-0.50712 0.13897 0.34727c0.0764 0.191 0.067 0.4192-0.0209 0.50712-0.0879 0.08792-0.15045-0.06835-0.13896-0.34727zm-14.22-1.0804c0.097-0.09701 0.25576-0.09701 0.35278 0 0.097 0.09701 0.0176 0.17639-0.17639 0.17639-0.19403 0-0.2734-0.07937-0.17639-0.17639zm-34.642-8.0666-0.18879-0.30546 0.30546 0.18879c0.16801 0.10383 0.30547 0.24129 0.30547 0.30546 0 0.2207-0.23364 0.11621-0.42214-0.18879zm34.642-1.4584c0.097-0.09701 0.25576-0.09701 0.35278 0 0.097 0.09701 0.0176 0.17639-0.17639 0.17639-0.19403 0-0.2734-0.07937-0.17639-0.17639z" fill="#8c8c8c"/>
    <path d="m304.94 79.084c0.097-0.09701 0.25577-0.09701 0.35278 0 0.097 0.09701 0.0176 0.17639-0.17639 0.17639-0.19402 0-0.2734-0.07937-0.17639-0.17639zm6.35 0c0.097-0.09701 0.25577-0.09701 0.35278 0 0.097 0.09701 0.0176 0.17639-0.17639 0.17639-0.19402 0-0.2734-0.07937-0.17639-0.17639zm3.7042-0.26458c0.097-0.09701 0.25576-0.09701 0.35278 0 0.097 0.09701 0.0176 0.17639-0.17639 0.17639-0.19403 0-0.2734-0.07937-0.17639-0.17639zm-2.9104-4.4979c0.097-0.09701 0.25577-0.09701 0.35278 0 0.097 0.09701 0.0176 0.17639-0.17639 0.17639-0.19402 0-0.2734-0.07937-0.17639-0.17639zm-30.02-3.4616-0.36312-0.46302 0.46302 0.36312c0.25466 0.19972 0.46302 0.40808 0.46302 0.46302 0 0.21776-0.21727 0.07761-0.56292-0.36312zm47.262-3.2411c0.0899-0.14552 0.22305-0.26458 0.29581-0.26458 0.0728 0 0.0587 0.11906-0.0312 0.26458s-0.22305 0.26458-0.29581 0.26458c-0.0728 0-0.0587-0.11906 0.0312-0.26458zm-0.28985-20.678-0.18879-0.30546 0.30547 0.18879c0.30499 0.1885 0.40948 0.42214 0.18878 0.42214-0.0642 0-0.20163-0.13746-0.30546-0.30546zm-55.892-0.48829c0-0.3638 0.06-0.51263 0.13345-0.33073 0.0734 0.1819 0.0734 0.47956 0 0.66146s-0.13345 0.03307-0.13345-0.33073zm-2.316-2.6867-0.18879-0.30546 0.30546 0.18879c0.305 0.1885 0.40949 0.42214 0.18879 0.42214-0.0642 0-0.20163-0.13746-0.30546-0.30546zm68.508-7.2793c0.097-0.09701 0.25576-0.09701 0.35278 0 0.097 0.09701 0.0176 0.17639-0.17639 0.17639-0.19403 0-0.27341-0.07938-0.17639-0.17639zm-73.378-4.5861c0-0.19403 0.0794-0.2734 0.17639-0.17639 0.097 0.09702 0.097 0.25576 0 0.35278-0.097 0.09701-0.17639 0.01764-0.17639-0.17639zm68.395-2.3812c0.0899-0.14552 0.22305-0.26458 0.29581-0.26458 0.0728 0 0.0587 0.11906-0.0312 0.26458s-0.22305 0.26458-0.29581 0.26458c-0.0728 0-0.0587-0.11906 0.0312-0.26458zm4.7184-2.2931c0.097-0.09701 0.25577-0.09701 0.35278 0 0.097 0.09702 0.0176 0.17639-0.17639 0.17639-0.19402 0-0.2734-0.07937-0.17639-0.17639zm-73.147-2.9325-0.36313-0.46302 0.46303 0.36312c0.25466 0.19972 0.46302 0.40808 0.46302 0.46302 0 0.21776-0.21728 0.07761-0.56292-0.36312zm-1.3092-1.3229-0.64144-0.7276 0.72761 0.64143c0.68006 0.59952 0.84894 0.81378 0.64143 0.81378-0.0474 0-0.37481-0.32742-0.7276-0.7276zm73.927-5.2696c0.097-0.09701 0.25576-0.09701 0.35278 0 0.097 0.09701 0.0176 0.17639-0.17639 0.17639-0.19403 0-0.27341-0.07938-0.17639-0.17639zm-91.634-43.744c0-0.19403 0.0794-0.2734 0.17639-0.17639 0.097 0.09701 0.097 0.25576 0 0.35278-0.097 0.09701-0.17639 0.01764-0.17639-0.17639zm59.903-4.5388-0.18879-0.30546 0.30547 0.18879c0.30499 0.1885 0.40948 0.42214 0.18878 0.42214-0.0642 0-0.20163-0.13746-0.30546-0.30546zm-53.817-4.8215c0-0.05494 0.20836-0.2633 0.46302-0.46302l0.46302-0.36313-0.36313 0.46302c-0.34564 0.44073-0.56291 0.58089-0.56291 0.36313z" fill="#767676"/>
    <path d="m305.6 79.08c0.191-0.07643 0.4192-0.06703 0.50712 0.02088 0.0879 0.08792-0.0684 0.15045-0.34727 0.13896l-0.50712-0.02088zm5.1649 0.0043c0.097-0.09701 0.25576-0.09701 0.35278 0 0.097 0.09703 0.0176 0.1764-0.17639 0.1764-0.19403 0-0.27341-0.07937-0.17639-0.17639zm-29.491-9.0179-0.36312-0.46302 0.46302 0.36312c0.25466 0.19972 0.46302 0.40808 0.46302 0.46302 0 0.21776-0.21727 0.07761-0.56292-0.36312zm47.526-1.9182c0.0899-0.14552 0.22305-0.26458 0.29581-0.26458 0.0728 0 0.0587 0.11906-0.0312 0.26458s-0.22305 0.26458-0.29581 0.26458c-0.0728 0-0.0587-0.11906 0.0312-0.26458zm2.1167-2.1167c0.0899-0.14552 0.22305-0.26458 0.29581-0.26458 0.0728 0 0.0587 0.11906-0.0312 0.26458s-0.22305 0.26458-0.29581 0.26458c-0.0728 0-0.0587-0.11906 0.0312-0.26458zm-57.547-15.346c0-0.19403 0.0794-0.2734 0.17639-0.17639 0.097 0.09701 0.097 0.25576 0 0.35278-0.097 0.09701-0.17639 0.01764-0.17639-0.17639zm4.5188-2.0064 0.0209-0.50712 0.13897 0.34726c0.0764 0.191 0.067 0.4192-0.0209 0.50712-0.0879 0.08792-0.15045-0.06835-0.13896-0.34726zm1.1697-4.079c0.0899-0.14552 0.22306-0.26458 0.29582-0.26458 0.0728 0 0.0587 0.11906-0.0312 0.26458s-0.22305 0.26458-0.29581 0.26458c-0.0728 0-0.0587-0.11906 0.0312-0.26458zm1.3229-1.3229c0.0899-0.14552 0.22305-0.26458 0.29581-0.26458 0.0728 0 0.0587 0.11906-0.0312 0.26458s-0.22305 0.26458-0.29581 0.26458c-0.0728 0-0.0587-0.11906 0.0312-0.26458zm-3.7042-2.9104c0.0899-0.14552 0.22306-0.26458 0.29582-0.26458 0.0728 0 0.0587 0.11906-0.0312 0.26458-0.0899 0.14552-0.22305 0.26458-0.29581 0.26458-0.0728 0-0.0587-0.11906 0.0312-0.26458zm46.434-4.7625c0-0.19403 0.0794-0.2734 0.17639-0.17639 0.097 0.09701 0.097 0.25576 0 0.35278-0.097 0.09701-0.17639 0.01764-0.17639-0.17639zm0-2.6458c0-0.19403 0.0794-0.2734 0.17639-0.17639 0.097 0.09701 0.097 0.25576 0 0.35278-0.097 0.09701-0.17639 0.01764-0.17639-0.17639zm-57.129-1.7418 0.0209-0.50712 0.13897 0.34727c0.0764 0.191 0.067 0.4192-0.0209 0.50712-0.0879 0.08792-0.15045-0.06835-0.13896-0.34727zm19.426-1.4332c0.0899-0.14552 0.22306-0.26458 0.29582-0.26458 0.0728 0 0.0587 0.11906-0.0312 0.26458-0.0899 0.14552-0.22305 0.26458-0.29581 0.26458-0.0728 0-0.0587-0.11906 0.0312-0.26458zm49.477-0.79375c0.0899-0.14552 0.22305-0.26458 0.29581-0.26458 0.0728 0 0.0587 0.11906-0.0312 0.26458-0.0899 0.14552-0.22305 0.26458-0.29581 0.26458-0.0728 0-0.0587-0.11906 0.0312-0.26458zm-72.397-1.5214-0.36313-0.46302 0.46302 0.36312c0.25466 0.19972 0.46302 0.40808 0.46302 0.46302 0 0.21776-0.21727 0.07761-0.56291-0.36312zm-1.0583-1.0583-0.36312-0.46302 0.46302 0.36312c0.25466 0.19972 0.46302 0.40808 0.46302 0.46302 0 0.21776-0.21727 0.0776-0.56292-0.36312zm27.55 0.36312c0-0.05494 0.20836-0.2633 0.46302-0.46302l0.46302-0.36312-0.36312 0.46302c-0.34565 0.44073-0.56292 0.58089-0.56292 0.36312zm-4.8948-1.7522c0.0899-0.14552 0.22305-0.26458 0.29581-0.26458 0.0728 0 0.0587 0.11906-0.0312 0.26458-0.0899 0.14552-0.22305 0.26458-0.29581 0.26458-0.0728 0-0.0587-0.11906 0.0312-0.26458zm-13.273-0.17639c0.097-0.09701 0.25577-0.09701 0.35278 0 0.097 0.09701 0.0176 0.17639-0.17639 0.17639-0.19402 0-0.2734-0.07937-0.17639-0.17639zm68.64-7.1545c0.32911-0.06329 0.80536-0.06088 1.0583 0.0053 0.25296 0.06622-0.0163 0.118-0.5984 0.11507-0.58208-0.0029-0.78905-0.05712-0.45993-0.12041zm-97.039-42.411c0-0.19403 0.0794-0.2734 0.17639-0.17639 0.097 0.09701 0.097 0.25576 0 0.35278-0.097 0.09701-0.17639 0.01764-0.17639-0.17639zm18.563-7.6729c0-0.3638 0.0601-0.51263 0.13346-0.33073 0.0734 0.1819 0.0734 0.47956 0 0.66146s-0.13346 0.03307-0.13346-0.33073zm37.372-2.4221-0.18878-0.30546 0.30546 0.18879c0.168 0.10383 0.30546 0.24129 0.30546 0.30546 0 0.2207-0.23364 0.11621-0.42214-0.18879zm-45.748-0.2237c0.0899-0.14552 0.22305-0.26458 0.29581-0.26458 0.0728 0 0.0587 0.11906-0.0312 0.26458-0.0899 0.14552-0.22305 0.26458-0.29581 0.26458-0.0728 0-0.0587-0.11906 0.0312-0.26458z" fill="#606060"/>
    <path d="m306.51 79.078c0.25466-0.06655 0.67138-0.06655 0.92604 0s0.0463 0.121-0.46302 0.121c-0.50933 0-0.71769-0.05445-0.46302-0.121zm2.9104 0c0.25466-0.06655 0.67138-0.06655 0.92604 0 0.25467 0.06655 0.0463 0.121-0.46302 0.121s-0.71768-0.05445-0.46302-0.121zm-6.0634-4.7565c0.097-0.09701 0.25577-0.09701 0.35278 0 0.097 0.09701 0.0176 0.17639-0.17639 0.17639-0.19402 0-0.2734-0.07937-0.17639-0.17639zm9.525 0c0.097-0.09701 0.25577-0.09701 0.35278 0 0.097 0.09701 0.0176 0.17639-0.17639 0.17639-0.19402 0-0.2734-0.07937-0.17639-0.17639zm19.623-3.2632c0.0899-0.14552 0.22305-0.26458 0.29581-0.26458 0.0728 0 0.0587 0.11906-0.0312 0.26458-0.0899 0.14552-0.22305 0.26458-0.29581 0.26458-0.0728 0-0.0587-0.11906 0.0312-0.26458zm1.3229-1.3229c0.0899-0.14552 0.22306-0.26458 0.29582-0.26458 0.0728 0 0.0587 0.11906-0.0312 0.26458s-0.22305 0.26458-0.29581 0.26458c-0.0728 0-0.0587-0.11906 0.0312-0.26458zm-48.973-2.6867-0.18878-0.30546 0.30546 0.18879c0.305 0.1885 0.40949 0.42214 0.18879 0.42214-0.0642 0-0.20163-0.13746-0.30547-0.30546zm-10.955-12.659c0-0.19403 0.0794-0.2734 0.17639-0.17639 0.097 0.09701 0.097 0.25576 0 0.35278-0.097 0.09701-0.17639 0.01764-0.17639-0.17639zm53.961-8.6651-0.9118-0.99219 0.99219 0.9118c0.5457 0.50149 0.99218 0.94797 0.99218 0.99219 0 0.20204-0.22389 0.0117-1.0726-0.9118zm11.59 0.28779c0.1819-0.0734 0.47956-0.0734 0.66146 0s0.0331 0.13345-0.33073 0.13345c-0.3638 0-0.51263-0.06005-0.33073-0.13345zm-65.179-5.4219-0.18879-0.30546 0.30547 0.18879c0.30499 0.1885 0.40948 0.42214 0.18878 0.42214-0.0642 0-0.20163-0.13746-0.30546-0.30546zm48.862-5.6697 0.0209-0.50712 0.13897 0.34726c0.0764 0.191 0.067 0.4192-0.0209 0.50712-0.0879 0.08792-0.15045-0.06835-0.13896-0.34726zm9.5459-0.90399c0-0.3638 0.06-0.51263 0.13345-0.33073 0.0734 0.1819 0.0734 0.47956 0 0.66146s-0.13345 0.03307-0.13345-0.33073zm-9.525-0.26458c0-0.3638 0.06-0.51263 0.13345-0.33073 0.0734 0.1819 0.0734 0.47956 0 0.66146s-0.13345 0.03307-0.13345-0.33073zm15.172-1.5875c0.0899-0.14552 0.22305-0.26458 0.29581-0.26458 0.0728 0 0.0587 0.11906-0.0312 0.26458-0.0899 0.14552-0.22305 0.26458-0.29581 0.26458-0.0728 0-0.0587-0.11906 0.0312-0.26458zm-49.742-5.0271c0.0899-0.14552 0.22306-0.26458 0.29582-0.26458 0.0728 0 0.0587 0.11906-0.0312 0.26458s-0.22305 0.26458-0.29581 0.26458c-0.0728 0-0.0587-0.11906 0.0312-0.26458zm-17.242-2.2931c0.097-0.09701 0.25576-0.09701 0.35278 0 0.097 0.09701 0.0176 0.17639-0.17639 0.17639-0.19403 0-0.2734-0.07937-0.17639-0.17639zm8.0643-0.0043c0.191-0.07643 0.4192-0.06703 0.50712 0.02088 0.0879 0.08792-0.0684 0.15045-0.34727 0.13896l-0.50712-0.02088zm47.278-0.8776c0.0899-0.14552 0.22306-0.26458 0.29582-0.26458 0.0728 0 0.0587 0.11906-0.0312 0.26458-0.0899 0.14552-0.22305 0.26458-0.29581 0.26458-0.0728 0-0.0587-0.11906 0.0312-0.26458zm24.052-1.9182-0.50403-0.59531 0.59531 0.50403c0.55945 0.47366 0.71577 0.6866 0.50403 0.6866-0.0502 0-0.3181-0.26789-0.59531-0.59531zm-107.53-41.738c0-0.19403 0.0794-0.2734 0.17639-0.17639 0.097 0.09701 0.097 0.25576 0 0.35278-0.097 0.09701-0.17639 0.01764-0.17639-0.17639zm3.7042-5.8208c0-0.19403 0.0794-0.2734 0.17639-0.17639 0.097 0.09701 0.097 0.25576 0 0.35278-0.097 0.09701-0.17639 0.01764-0.17639-0.17639zm56.463-1.893-0.18879-0.30546 0.30546 0.18879c0.305 0.1885 0.40949 0.42214 0.18879 0.42214-0.0642 0-0.20163-0.13746-0.30546-0.30546zm-12.171-1.5875-0.18878-0.30546 0.30546 0.18879c0.305 0.1885 0.40949 0.42214 0.18879 0.42214-0.0642 0-0.20163-0.13746-0.30547-0.30546zm-1.409-3.2885 0.0209-0.50712 0.13897 0.34726c0.0764 0.191 0.067 0.4192-0.0209 0.50712-0.0879 0.08792-0.15045-0.06835-0.13896-0.34726z" fill="#494949"/>
    <path d="m304.32 78.981c-19.293-1.0774-29.84-11.367-30.875-30.121l-0.16644-3.0167-3.6206-3.5565-1.1718-2.481c-1.3457-2.8492-2.2661-6.095-2.2661-7.9919v-1.3101l-0.99037-0.82286c-6.148-5.1081-10.799-12.411-14.848-23.312-3.484-9.3815-7.2771-24.727-7.8704-31.842l-0.17566-2.1064 0.58305-1.2044c1.0025-2.0709 3.2792-3.6168 7.2526-4.9246l1.8107-0.59597 1.2785-1.1355c2.4452-2.1717 5.7316-1.7466 7.1939 0.93049l0.50583 0.92604-0.1888 3.3016-0.54447 0.73045c-0.29945 0.40175-0.94477 0.96484-1.434 1.2513l-0.88959 0.52087-2.9993 0.0166-1.1982-0.8599c-0.65903-0.47294-1.3859-0.8599-1.6152-0.8599-0.69804 0-3.681 1.2887-4.5033 1.9455l-0.77347 0.6178 0.32828 2.3564c2.9467 21.151 12.628 45.291 19.989 49.84l0.89429 0.5527 2.2956-0.9404 10.583 0.0154 1.0245 0.45529c1.3822 0.61425 1.2469 0.66372 3.2111-1.1737 6.4359-6.0205 12.474-19.74 16.634-37.794 1.2328-5.3506 2.382-12.265 2.1753-13.089l-0.16321-0.65027-1.143-0.66984c-0.62865-0.36841-1.789-0.89211-2.5786-1.1638l-1.4356-0.49394-1.1497 0.88263c-3.1956 2.4532-7.446 0.46318-7.446-3.4861v-1.2339l0.54327-0.96661c0.69134-1.2301 2.0368-2.1542 3.4032-2.3375l1.0684-0.14331 1.4353 0.70221c0.78939 0.38622 1.6249 0.99159 1.8566 1.3453l0.42136 0.64307 1.9198 0.57112c5.3533 1.5926 7.8548 3.9426 7.866 7.3897 0.0138 4.2195-3.4154 19.506-6.3558 28.333-4.5449 13.644-9.3431 21.74-16.299 27.502l-0.80828 0.66958-0.32326 2.2108c-0.77786 5.3198-3.2558 10.534-5.8655 12.343l-1.0328 0.71577 1e-3 1.6177c2e-3 2.4703 1.0084 8.7868 1.7533 11.007 2.8907 8.6139 8.9283 13.553 19.138 15.656l2.5229 0.51965 10.848 0.29689 3.0427-0.4464c12.284-1.8022 20.042-9.5648 21.918-21.932l0.23415-1.5437-0.29417-0.08789c-0.1618-0.04834-1.1276-0.33213-2.1463-0.63064-2.624-0.76896-4.9149-2.2286-7.1044-4.5265l-1.8927-1.9864-0.84782-1.7289c-2.3604-4.8135-2.3069-10.527 0.1424-15.199l0.96811-1.8465 3.9718-3.9938 1.8794-0.97926c5.8729-3.0601 13.371-2.2177 18.361 2.063 9.9745 8.5558 6.4591 24.631-6.1847 28.281l-2.147 0.61986-0.17763 0.88961c-0.0977 0.48929-0.36977 1.9413-0.60461 3.2267-2.5101 13.74-13.516 23.339-27.663 24.128-1.3824 0.07703-3.2279 0.17832-4.101 0.22509-0.87313 0.04676-3.1948-0.0047-5.1594-0.11444zm38.695-33.364c2.6526-0.58215 6.0626-3.5362 7.529-6.5223l0.73958-1.5061v-6.6146l-0.84705-1.7882c-0.4674-0.98673-1.4696-2.4464-2.236-3.2568l-1.3889-1.4686-3.9947-1.9531h-6.35l-3.175 1.5437-4.0206 4.0125-0.57736 1.5525c-0.75607 2.0331-1.0161 4.1298-0.77499 6.2494l0.19524 1.7165 0.93762 1.8971 0.93761 1.8971 1.5189 1.3905c3.2118 2.9404 6.9153 3.8576 11.507 2.85zm-5.6683-4.8269c-1.5206-0.54307-3.0242-1.8959-3.7695-3.3914l-0.68226-1.3691v-3.8911l0.41185-0.79642c0.63605-1.23 2.2241-2.8657 3.3299-3.4298l0.99969-0.51 3.8575 0.0052 1.3417 0.62474c1.6076 0.74858 2.8635 2.1901 3.4522 3.9624l0.43238 1.3018-0.13674 1.508c-0.40259 4.4398-5.0794 7.4706-9.2367 5.9858zm3.3699-4.5499c1.3861-0.65775 1.6879-2.5685 0.59026-3.7369l-0.56664-0.60316h-2.2506l-1.0967 1.3943v1.9983l0.81405 0.68498c0.94896 0.7985 1.3024 0.83547 2.5097 0.26257zm-63.939 4.2474c1.8226-2.0758 3.465-6.6082 3.465-9.562v-1.419l-9.3927 0.1445-0.0819 1.1365c-0.1874 2.5989 1.7073 7.7897 3.5274 9.6638 1.1724 1.2072 1.4506 1.2112 2.4823 0.03624z" fill="#333"/>
   </g>
   <text x="287.3403" y="49.486557" fill="#999999" font-family="sans-serif" font-size="1.7639px" stroke-width="7.97e-6" style="line-height:1.25" xml:space="preserve"><tspan x="287.3403" y="49.486557" fill="#999999" font-size="1.7639px" stroke-width="7.97e-6">Rate &amp; Review</tspan></text>
   <g id="Calculator" transform="matrix(.053789 .031828 -.031828 .053789 295.15 28.93)" stroke-width="103561">
    <path d="m204.6 165.8c-4.4546-0.89412-8.2512-4.1737-9.7948-8.4608-0.51786-1.4383-0.52479-2.5209-0.59683-93.266-0.081-102.06-0.22427-93.906 1.7062-97.169 1.1724-1.9818 2.6373-3.442 4.6833-4.6683 3.1597-1.8937-2.2801-1.769 73.588-1.6876 68.262 0.07321 68.262 0.07321 69.85 0.7061 3.4704 1.3836 6.2672 4.1008 7.5884 7.3726 0.61363 1.5195 0.61363 1.5195 0.68327 94.124 0.0688 91.505 0.0634 92.625-0.45203 94.324-1.3102 4.3194-4.9808 7.6562-9.4681 8.6071-1.5308 0.32439-11.598 0.37601-69.26 0.35517-37.108-0.0134-67.945-0.11999-68.527-0.23683zm138.64-4.5734c2.0246-0.94731 3.8948-2.9085 4.6188-4.8437 0.54355-1.4528 0.54355-1.4528 0.47592-93.58-0.0676-92.127-0.0676-92.127-0.85247-93.544-0.90652-1.6366-2.532-3.1608-4.3173-4.0482-1.2479-0.62026-1.2479-0.62026-69.775-0.62026-68.527 0-68.527 0-69.984 0.71557-1.9018 0.93405-3.6079 2.631-4.4675 4.4438-0.69008 1.4552-0.69008 1.4552-0.69008 93.53 0 92.075 0 92.075 0.57659 93.323 1.1615 2.5143 3.9053 4.7588 6.4248 5.2558 0.51483 0.10156 31.416 0.16801 68.669 0.14766 67.733-0.037 67.733-0.037 69.321-0.77977zm-131.76-7.56c-1.2988-0.60635-2.3524-1.6975-2.8964-2.9997-0.676-1.6183-0.59629-21.346 0.0922-22.829 0.62333-1.3421 1.3613-2.1096 2.6714-2.7779 0.99241-0.50629 1.5581-0.52939 12.963-0.52939 12.828 0 13.028 0.0193 14.51 1.4017 1.769 1.65 1.7638 1.6109 1.7638 13.415 0 10.716 0 10.716-0.74223 11.978-0.40823 0.69449-1.2328 1.5874-1.8324 1.9844-1.0902 0.72168-1.0902 0.72168-13.281 0.7861-11.425 0.0604-12.257 0.0334-13.249-0.42966zm25.118-2.3987c1.4599-0.96236 1.4535-0.9109 1.4637-11.867 8e-3 -8.5533-0.0532-10.254-0.39198-10.91-0.81503-1.5761-0.83825-1.5788-13.44-1.5788-11.248 0-11.501 0.0115-12.189 0.55253-1.4767 1.1616-1.4856 1.2325-1.4856 11.883 0 10.84 9e-3 10.907 1.6665 11.917 1.3065 0.79661 23.169 0.79974 24.377 4e-3zm22.507 2.3987c-0.58208-0.27174-1.3794-0.83651-1.7719-1.255-1.5127-1.6132-1.5354-1.8062-1.5354-13.064 0-11.259 0.0239-11.462 1.5354-13.055 1.7062-1.7978 1.4075-1.7617 14.602-1.7617 12.828 0 13.028 0.0193 14.51 1.4017 1.769 1.65 1.7638 1.6109 1.7638 13.415 0 10.716 0 10.716-0.74223 11.978-0.40822 0.69449-1.2328 1.5874-1.8324 1.9844-1.0902 0.72168-1.0902 0.72168-13.281 0.7861-11.425 0.0604-12.257 0.0334-13.249-0.42966zm25.012-2.2851c1.5569-0.80509 1.5788-0.97244 1.5788-12.034 0-8.4929-0.0632-10.203-0.40135-10.857-0.81504-1.5761-0.83826-1.5788-13.44-1.5788-12.797 0-12.283-0.0721-13.283 1.8623-0.59562 1.1518-0.57946 20.026 0.0181 21.181 0.95215 1.8413 0.83368 1.8252 13.428 1.8263 9.6059 7.9e-4 11.442-0.0599 12.1-0.40037zm22.613 2.2851c-1.2988-0.60635-2.3524-1.6975-2.8964-2.9997-0.67601-1.6183-0.5963-21.346 0.0922-22.829 0.62334-1.3421 1.3613-2.1096 2.6714-2.7779 0.99241-0.50629 1.5581-0.52939 12.963-0.52939 12.828 0 13.028 0.0193 14.51 1.4017 1.769 1.65 1.7638 1.6109 1.7638 13.415 0 10.716 0 10.716-0.74223 11.978-0.40822 0.69449-1.2328 1.5874-1.8324 1.9844-1.0902 0.72168-1.0902 0.72168-13.281 0.7861-11.425 0.0604-12.257 0.0334-13.249-0.42966zm25.118-2.3987c1.4599-0.96236 1.4535-0.9109 1.4637-11.867 8e-3 -8.5533-0.0532-10.254-0.39197-10.91-0.81504-1.5761-0.83826-1.5788-13.44-1.5788-11.248 0-11.501 0.0115-12.189 0.55253-1.4767 1.1616-1.4856 1.2325-1.4856 11.883 0 10.84 9e-3 10.907 1.6665 11.917 1.3065 0.79661 23.169 0.79974 24.377 4e-3zm-119.97-36.605c-1.2603-0.40844-3.0733-2.2808-3.421-3.533-0.4036-1.4535-0.38674-20.883 0.0191-22.08 0.47634-1.4044 1.2117-2.2906 2.5565-3.0812 1.2395-0.72862 1.2395-0.72862 12.702-0.80787 13.368-0.09242 13.58-0.06541 15.365 1.9625 0.59469 0.6756 1.1648 1.6486 1.2782 2.1817 0.11263 0.52919 0.20479 5.4865 0.20479 11.016 0 10.917-0.0454 11.315-1.4585 12.794-1.7332 1.8137-1.2506 1.7533-14.417 1.8024-8.2501 0.0307-12.19-0.0476-12.83-0.25491zm24.171-2.4032c0.48022-0.20064 1.1312-0.69295 1.4467-1.094 0.56639-0.72005 0.57359-0.86027 0.57359-11.171 0-10.442 0-10.442-0.89958-11.341-0.89959-0.89958-0.89959-0.89958-12.581-0.89958-12.928 0-12.798-0.01603-13.604 1.682-0.67461 1.4217-0.64776 19.978 0.0309 21.337 0.91917 1.84 0.99964 1.8512 13.237 1.8517 8.6845 2.6e-4 11.101-0.0743 11.796-0.36441zm23.606 2.4228c-1.3417-0.36144-3.2002-2.2091-3.5732-3.5525-0.40031-1.4417-0.3869-20.879 0.0152-22.08 0.45539-1.3601 1.4568-2.5573 2.6908-3.2169 1.0926-0.58402 1.2802-0.59405 12.572-0.67212 13.353-0.09231 13.581-0.06328 15.353 1.9488 1.5285 1.7365 1.6274 2.5139 1.6274 12.792 0 11.575-0.2475 12.765-2.9802 14.33-1.1208 0.64199-1.1208 0.64199-12.895 0.68599-7.5648 0.0283-12.144-0.0557-12.81-0.23502zm24.177-2.4495c1.9195-0.99261 1.8623-0.61682 1.8623-12.238 0-10.442 0-10.442-0.89958-11.341-0.89959-0.89958-0.89959-0.89958-12.105-0.93005-12.48-0.03394-12-0.05034-12.955 0.44333-1.4929 0.77152-1.5571 1.263-1.5566 11.93 5.3e-4 10.934 0.0347 11.157 1.8517 12.064 1.2961 0.64749 22.565 0.71168 23.802 0.0718zm23.296 2.43c-1.2603-0.40844-3.0733-2.2808-3.421-3.533-0.40359-1.4535-0.38673-20.883 0.0192-22.08 0.47633-1.4044 1.2117-2.2906 2.5565-3.0812 1.2395-0.72862 1.2395-0.72862 12.702-0.80787 13.368-0.09242 13.58-0.06541 15.365 1.9625 0.59469 0.6756 1.1648 1.6486 1.2782 2.1817 0.11264 0.52919 0.20479 5.4865 0.20479 11.016 0 10.917-0.0455 11.315-1.4585 12.794-1.7332 1.8137-1.2506 1.7533-14.417 1.8024-8.2501 0.0307-12.19-0.0476-12.83-0.25491zm24.171-2.4032c0.48022-0.20064 1.1312-0.69295 1.4467-1.094 0.56639-0.72005 0.57359-0.86027 0.57359-11.171 0-10.442 0-10.442-0.89958-11.341-0.89959-0.89958-0.89959-0.89958-12.581-0.89958-12.928 0-12.798-0.01603-13.604 1.682-0.67462 1.4217-0.64777 19.978 0.0309 21.337 0.91916 1.84 0.99963 1.8512 13.237 1.8517 8.6845 2.6e-4 11.101-0.0743 11.796-0.36441zm-118.91-36.773c-1.7269-0.46568-2.7497-1.2959-3.5329-2.8676-0.68423-1.3731-0.68423-1.3731-0.68275-11.574 2e-3 -11.097 0.0496-11.531 1.456-13.174 1.6496-1.9272 1.8168-1.9476 15.259-1.8629 11.769 0.07415 11.769 0.07415 13.056 0.87026 0.91427 0.56541 1.4832 1.1768 1.9632 2.1098 0.67595 1.3137 0.67595 1.3137 0.67595 11.904 0 10.435-9e-3 10.606-0.58763 11.689-0.80463 1.5047-2.283 2.6568-3.8366 2.99-1.9032 0.40816-22.211 0.33605-23.77-0.08441zm24.781-3.1843c0.89958-0.89958 0.89958-0.89958 0.89958-11.381 0-10.481 0-10.481-0.90552-11.47-0.90551-0.9883-0.90551-0.9883-12.369-1.0584-12.854-0.07864-12.839-0.08056-13.783 1.7899-0.42664 0.84511-0.46132 1.8123-0.39687 11.067 0.0706 10.141 0.0706 10.141 1.0589 11.046 0.98831 0.90547 0.98831 0.90547 12.793 0.90547s11.804 0 12.704-0.89958zm23.147 3.2659c-1.7979-0.36474-3.1395-1.3956-3.8766-2.9787-0.63881-1.372-0.63881-1.372-0.63992-11.558-1e-3 -11.522 0.0314-11.774 1.735-13.415 1.7409-1.6766 1.873-1.6908 15.009-1.6079 11.737 0.07408 11.737 0.07408 13.025 0.87019 0.91359 0.56499 1.4835 1.1772 1.9633 2.1088 0.67594 1.3127 0.67594 1.3127 0.7571 11.062 0.0899 10.794-0.0218 11.95-1.3057 13.507-1.8049 2.1897-1.5703 2.1534-14.254 2.204-6.1846 0.02469-11.77-0.06174-12.413-0.19207zm24.478-3.2659c0.89958-0.89958 0.89958-0.89958 0.89958-11.381 0-10.481 0-10.481-0.90552-11.47-0.90551-0.9883-0.90551-0.9883-12.369-1.0584-12.854-0.07864-12.839-0.08056-13.783 1.7899-0.42664 0.84511-0.46132 1.8123-0.39687 11.067 0.0706 10.141 0.0706 10.141 1.0589 11.046 0.9883 0.90547 0.9883 0.90547 12.793 0.90547s11.804 0 12.704-0.89958zm22.844 3.1843c-1.7269-0.46568-2.7497-1.2959-3.5329-2.8676-0.68423-1.3731-0.68423-1.3731-0.68275-11.574 2e-3 -11.097 0.0496-11.531 1.4561-13.174 1.6496-1.9272 1.8168-1.9476 15.259-1.8629 11.769 0.07415 11.769 0.07415 13.056 0.87026 0.91427 0.56541 1.4832 1.1768 1.9633 2.1098 0.67594 1.3137 0.67594 1.3137 0.67594 11.904 0 10.435-9e-3 10.606-0.58763 11.689-0.80463 1.5047-2.283 2.6568-3.8366 2.99-1.9032 0.40816-22.211 0.33605-23.77-0.08441zm24.781-3.1843c0.89958-0.89958 0.89958-0.89958 0.89958-11.381 0-10.481 0-10.481-0.90551-11.47-0.90552-0.9883-0.90552-0.9883-12.369-1.0584-12.854-0.07864-12.839-0.08056-13.783 1.7899-0.42663 0.84511-0.46132 1.8123-0.39687 11.067 0.0706 10.141 0.0706 10.141 1.0589 11.046 0.9883 0.90547 0.9883 0.90547 12.793 0.90547s11.804 0 12.704-0.89958zm-122.38-41.626c-0.67638-0.2388-1.7082-0.94714-2.4275-1.6664-2.1828-2.1828-2.0846-0.93534-2.0846-26.49 0-25.632-0.12277-24.206 2.2747-26.416 2.3791-2.193-4.2574-1.9804 64.268-2.0589 43.119-0.04941 61.527 0.01442 62.505 0.2167 2.1012 0.43448 3.7392 1.6984 4.7704 3.6811 0.86545 1.6639 0.86545 1.6639 0.79375 25s-0.0717 23.337-0.87112 24.629c-0.93268 1.5084-2.637 2.8949-4.0359 3.2835-0.66682 0.18519-20.878 0.26742-62.501 0.25429-55.189-0.01741-61.637-0.06213-62.692-0.43477zm125.02-2.4259c1.2603-0.57238 2.1168-1.5662 2.5057-2.9075 0.18654-0.64323 0.25148-8.2834 0.19833-23.334-0.079-22.378-0.079-22.378-0.83727-23.372-0.41704-0.54671-1.1314-1.2216-1.5875-1.4997-0.81012-0.49398-2.2507-0.50567-62.424-0.50664-67.635-0.0011-62.33-0.13326-63.779 1.5889-1.2631 1.5011-1.2612 1.4601-1.1767 25.02 0.0798 22.244 0.0798 22.244 0.78577 23.311 0.4132 0.6243 1.1813 1.3019 1.8521 1.634 1.1461 0.56731 1.1461 0.56731 62.265 0.5617 58.924-0.0054 61.158-0.0232 62.198-0.49572zm17.44 34.898c0-49.986 0.0304-70.435 0.0677-45.442 0.0372 24.993 0.0372 65.891 0 90.884-0.0372 24.993-0.0677 4.5442-0.0677-45.442zm-172.3 149.62c2e-3 -0.72761 0.0534-0.99386 0.11419-0.59169 0.0608 0.40219 0.0592 0.99751-4e-3 1.3229-0.0628 0.32543-0.11256-4e-3 -0.11058-0.73123zm38.77-88.437c3.1021-0.0423 8.1027-0.0423 11.112 1.2e-4 3.0098 0.0424 0.47167 0.0771-5.6402 0.077-6.1119-6e-5 -8.5744-0.0348-5.4723-0.0771zm47.343 6e-5c3.0923-0.0423 8.1525-0.0423 11.245 0s0.56224 0.077-5.6224 0.077c-6.1846 0-8.7147-0.0346-5.6224-0.077zm47.907-6e-5c3.1021-0.0423 8.1027-0.0423 11.112 1.2e-4 3.0098 0.0424 0.47166 0.0771-5.6402 0.077-6.1119-6e-5 -8.5744-0.0348-5.4723-0.0771zm-95.4-11.906c3.0196-0.0424 7.9606-0.0424 10.98 0 3.0196 0.0425 0.54901 0.0772-5.4901 0.0772-6.0391 0-8.5097-0.0347-5.4901-0.0772zm47.625 0c3.0196-0.0424 7.9606-0.0424 10.98 0 3.0196 0.0425 0.54901 0.0772-5.4901 0.0772-6.0391 0-8.5097-0.0347-5.4901-0.0772zm47.625 0c3.0196-0.0424 7.9606-0.0424 10.98 0 3.0196 0.0425 0.54901 0.0772-5.4901 0.0772-6.0391 0-8.5097-0.0347-5.4901-0.0772zm-149.21 99.814c1e-3 -0.87312 0.0509-1.1984 0.10977-0.72287 0.0589 0.47556 0.0577 1.1899-3e-3 1.5875-0.0604 0.39759-0.10855 8e-3 -0.10707-0.86463zm75.126-50.337c18.299-0.0375 48.243-0.0375 66.543 0 18.299 0.0375 3.3271 0.0682-33.271 0.0682s-51.571-0.0307-33.271-0.0682zm-31.954-159.35c0-12.005 0.0324-16.917 0.0721-10.914 0.0397 6.0027 0.0397 15.825 0 21.828-0.0396 6.0027-0.0721 1.0914-0.0721-10.914zm10.523 151.67c3.0196-0.0425 7.9606-0.0425 10.98 0 3.0196 0.0425 0.54901 0.0772-5.4901 0.0772-6.0391 0-8.5097-0.0347-5.4901-0.0772zm48.816 1e-5c2.9468-0.0426 7.7688-0.0426 10.716 0s0.53578 0.0774-5.3578 0.0774c-5.8936 0-8.3046-0.0348-5.3578-0.0774zm46.434-1e-5c3.0196-0.0425 7.9606-0.0425 10.98 0s0.54901 0.0772-5.4901 0.0772c-6.0391 0-8.5097-0.0347-5.4901-0.0772zm-115.56-90.289c0-49.259 0.0305-69.41 0.0677-44.781 0.0372 24.629 0.0372 64.932 0 89.561s-0.0677 4.4781-0.0677-44.781zm12.424 75.274c9e-5 -5.0932 0.0356-7.1394 0.079-4.547 0.0434 2.5924 0.0433 6.7596-1.7e-4 9.2604-0.0435 2.5008-0.0789 0.37981-0.0788-4.7134zm47.624 0.66146c0-4.7294 0.0359-6.6642 0.0797-4.2995 0.0439 2.3647 0.0439 6.2342 0 8.599-0.0439 2.3647-0.0797 0.42995-0.0797-4.2995zm47.626-0.66146c9e-5 -5.0932 0.0356-7.1394 0.079-4.547 0.0434 2.5924 0.0433 6.7596-1.7e-4 9.2604-0.0434 2.5008-0.0789 0.37981-0.0788-4.7134zm-95.25-39.026c0-5.0205 0.0356-7.0743 0.0791-4.5641 0.0435 2.5102 0.0435 6.6179 0 9.1281-0.0435 2.5102-0.0791 0.45641-0.0791-4.5641zm95.25 0c0-5.0205 0.0356-7.0743 0.0791-4.5641 0.0435 2.5102 0.0435 6.6179 0 9.1281-0.0435 2.5102-0.0791 0.45641-0.0791-4.5641zm-47.626-0.39688c-1e-4 -4.8022 0.0357-6.804 0.0795-4.4486 0.0438 2.3555 0.0439 6.2845 1.9e-4 8.7313-0.0437 2.4467-0.0796 0.51951-0.0797-4.2827zm-47.625-38.232c0-4.7294 0.0359-6.6642 0.0797-4.2995 0.0439 2.3647 0.0439 6.2342 0 8.599-0.0439 2.3647-0.0797 0.42995-0.0797-4.2995zm47.625 0c0-4.7294 0.0359-6.6642 0.0797-4.2995 0.0439 2.3647 0.0439 6.2342 0 8.599-0.0439 2.3647-0.0797 0.42995-0.0797-4.2995zm47.625 0c0-4.7294 0.0359-6.6642 0.0797-4.2995 0.0439 2.3647 0.0439 6.2342 0 8.599-0.0438 2.3647-0.0797 0.42995-0.0797-4.2995zm-86.439-13.163c2.8013-0.04285 7.3852-0.04285 10.186 0 2.8013 0.04285 0.50932 0.07792-5.0932 0.07792s-7.8945-0.03507-5.0932-0.07792zm47.228-1.6e-5c2.874-0.04271 7.577-0.04271 10.451 0 2.874 0.04272 0.52255 0.07766-5.2255 0.07766-5.7481 0-8.0996-0.03495-5.2255-0.07766zm48.022 1.6e-5c2.8013-0.04285 7.3852-0.04285 10.186 0s0.50932 0.07792-5.0932 0.07792-7.8945-0.03507-5.0932-0.07792zm-71.152-17.198c16.637-0.03762 43.784-0.03762 60.325 5e-6 16.541 0.03762 2.9289 0.06841-30.25 0.0684-33.179-5e-6 -46.713-0.03079-30.075-0.06841zm96.744-28.641c0-12.297 0.0324-17.327 0.072-11.179s0.0396 16.209 0 22.357c-0.0396 6.1483-0.072 1.1179-0.072-11.179zm-100.87-38.034c18.154-0.03752 47.86-0.03752 66.014 0 18.154 0.03752 3.3007 0.06821-33.007 0.06821s-51.16-0.0307-33.007-0.06821zm-45.752 245.86c1e-3 -1.0186 0.049-1.403 0.10627-0.854 0.0573 0.54896 0.0563 1.3824-2e-3 1.8521-0.0584 0.46968-0.10531 0.0206-0.10413-0.99809zm48.948-181.83c16.71-0.03761 43.975-0.03761 60.59 6e-6 16.614 0.03762 2.9421 0.06839-30.382 0.06839-33.324-3e-6 -46.918-0.03078-30.207-0.0684zm95.024-25.863c2e-5 -11.933 0.0325-16.776 0.0721-10.762 0.0397 6.0136 0.0396 15.777-4e-5 21.696-0.0397 5.9191-0.0721 0.99888-0.0721-10.934zm-173.34 209.29c1e-3 -1.0186 0.049-1.403 0.10627-0.854 0.0573 0.54896 0.0563 1.3824-2e-3 1.8521-0.0585 0.46968-0.10532 0.0206-0.10414-0.99809zm-8.2228 0.73652c0.40018-0.0606 1.055-0.0606 1.4552 0s0.0728 0.11022-0.72761 0.11022c-0.80036 0-1.1278-0.0496-0.7276-0.11022zm37.9-149.43c0-50.059 0.0305-70.498 0.0677-45.421 0.0372 25.078 0.0372 66.035-1e-5 91.017-0.0372 24.981-0.0677 4.4632-0.0677-45.596zm25.335 88.305c2.874-0.0427 7.577-0.0427 10.451 0s0.52255 0.0777-5.2255 0.0777-8.0996-0.0349-5.2255-0.0777zm47.096 4e-5c2.7285-0.043 7.1934-0.043 9.9219 0 2.7285 0.043 0.49609 0.0782-4.9609 0.0782s-7.6894-0.0352-4.9609-0.0782zm48.154-4e-5c2.874-0.0427 7.577-0.0427 10.451 0 2.874 0.0427 0.52255 0.0777-5.2255 0.0777s-8.0996-0.0349-5.2255-0.0777zm-106.57-12.237c0-5.6026 0.0351-7.8945 0.0779-5.0932 0.0428 2.8013 0.0428 7.3852 0 10.186-0.0429 2.8013-0.0779 0.50932-0.0779-5.0932zm95.25 0c0-5.6026 0.0351-7.8945 0.0779-5.0932 0.0429 2.8013 0.0429 7.3852 0 10.186-0.0428 2.8013-0.0779 0.50932-0.0779-5.0932zm-47.625-0.39687c8e-5 -5.3843 0.0354-7.5494 0.0784-4.8113 0.043 2.738 0.043 7.1433-1.5e-4 9.7896-0.0431 2.6462-0.0783 0.40603-0.0782-4.9782zm-35.887-11.972c2.8108-0.0429 7.3352-0.0428 10.054 1.4e-4 2.7189 0.043 0.41915 0.0781-5.1106 0.078-5.5298-8e-5 -7.7544-0.0352-4.9435-0.0781zm47.228 1e-5c2.738-0.043 7.1434-0.043 9.7896 1.5e-4 2.6462 0.0431 0.40603 0.0783-4.9782 0.0782-5.3843-8e-5 -7.5494-0.0354-4.8113-0.0784zm48.022-1e-5c2.8108-0.0429 7.3352-0.0428 10.054 1.4e-4 2.7189 0.043 0.41914 0.0781-5.1106 0.078-5.5298-8e-5 -7.7544-0.0352-4.9435-0.0781zm-106.99-26.789c0-5.6026 0.0351-7.8945 0.0779-5.0932s0.0428 7.3852 0 10.186c-0.0429 2.8013-0.0779 0.50932-0.0779-5.0932zm95.25 0c0-5.6026 0.0351-7.8945 0.0779-5.0932 0.0429 2.8013 0.0429 7.3852 0 10.186-0.0428 2.8013-0.0779 0.50932-0.0779-5.0932zm-47.625-0.13229c-8e-5 -5.5298 0.035-7.8296 0.078-5.1106 0.043 2.7189 0.043 7.2433 1.4e-4 10.054-0.0429 2.8108-0.078 0.58627-0.0781-4.9435zm-47.625-39.158c-8e-5 -5.5298 0.035-7.8296 0.078-5.1106s0.043 7.2433 1.4e-4 10.054c-0.0429 2.8109-0.078 0.58627-0.0781-4.9435zm95.25 0c-8e-5 -5.5298 0.035-7.8296 0.078-5.1106s0.043 7.2433 1.4e-4 10.054c-0.0429 2.8109-0.078 0.58627-0.0781-4.9435zm-47.625-0.39688c0-5.3115 0.0353-7.4844 0.0785-4.8286s0.0432 7.0015 0 9.6573c-0.0431 2.6558-0.0785 0.48286-0.0785-4.8286zm-37.095-14.75c3.0196-0.04245 7.9606-0.04245 10.98 0 3.0196 0.04245 0.54901 0.07718-5.4901 0.07718-6.0391 0-8.5097-0.03473-5.4901-0.07718zm48.304-6.6e-5c3.1021-0.04236 8.1027-0.0423 11.112 1.19e-4 3.0098 0.04242 0.47167 0.07708-5.6402 0.07701-6.1119-6.6e-5 -8.5744-0.03477-5.4723-0.07713zm46.946 6.6e-5c3.0196-0.04245 7.9606-0.04245 10.98 0s0.54901 0.07718-5.4901 0.07718c-6.0391 0-8.5097-0.03473-5.4901-0.07718zm-108.42-43.59c-2e-5 -12.078 0.0324-17.058 0.072-11.066 0.0396 5.9918 0.0397 15.874 4e-5 21.96-0.0396 6.0864-0.0721 1.184-0.0721-10.894zm34.203-41.87c18.518-0.03749 48.819-0.03749 67.336 0 18.518 0.0375 3.3668 0.06818-33.668 0.06818-37.035 0-52.186-0.03068-33.668-0.06818z" stroke-width="103561"/>
   </g>
   <g id="ngo" transform="matrix(.125 0 0 .125 254.78 23.15)" stroke-width="404.53">
    <path d="m222.02 80.879c-0.41825-0.43656-1.0267-0.79375-1.3521-0.79375-0.75662 0-2.1157-1.137-2.3168-1.9382-0.27036-1.0772-1.1485-1.2368-6.8061-1.2368-5.2369 0-5.2978 0.0065-5.9845 0.64325-2.4165 2.2407-4.5591 2.6298-13.116 2.3816-6.4738-0.18778-6.6046-0.20268-7.3601-0.8384-0.50471-0.42468-0.82498-0.99616-0.93146-1.662-0.12505-0.78204-0.3301-1.0843-0.89393-1.3179-1.0208-0.42283-1.7094-1.786-1.4816-2.9329 0.21803-1.0975 0.21802-1.4105-9e-5 -2.7141-0.13383-0.7999-0.0505-1.1782 0.39088-1.7752 0.93197-1.2606 0.72999-2.028-1.5943-6.0584-2.1553-3.7372-2.1553-3.7372-4.0349-4.6193-1.1449-0.53726-2.3044-1.335-2.9661-2.0407-1.5675-1.6716-7.83-12.757-7.83-13.86 0-1.0676 0.40756-1.8563 1.2416-2.4028 0.5044-0.3305 0.60965-0.57629 0.49411-1.154-0.27278-1.3639 1.2433-3.1886 2.6493-3.1886 0.21432 0 0.74685-0.35719 1.1834-0.79375 0.6621-0.6621 1.0056-0.79397 2.0709-0.79506 1.776-0.0018 2.2591-0.50076 4.8667-5.0258 2.2108-3.8365 2.2108-3.8365 2.2276-6.7469 0.0202-3.4973-0.0606-3.294 4.2036-10.583 3.9244-6.7084 4.7063-7.4394 6.8923-6.4434 0.50577 0.23045 0.7573 0.22777 1.0451-0.011115 1.2035-0.99879 3.4184-0.74369 4.1837 0.48185 0.18847 0.30179 0.58192 0.54915 0.87434 0.54969 0.93853 0.00175 2.253 0.99872 2.4204 1.8358 0.23311 1.1655 1.1081 1.3382 6.781 1.3382 5.0188 0 5.0188 0 5.9663-0.83194 2.1177-1.8594 2.5358-1.9373 10.883-2.0278 4.14-0.044874 7.8113-0.010292 8.1585 0.076847 0.96917 0.24325 1.9091 1.4129 1.9091 2.3756 0 0.70015 0.15511 0.91237 0.94066 1.287 1.2574 0.59961 1.8564 1.9613 1.4305 3.2519-0.21789 0.66021-0.22226 1.1364-0.0159 1.7285 0.34108 0.97845 0.13852 2.0087-0.5429 2.7612-0.39399 0.43508-0.45648 0.74694-0.29601 1.4773 0.30436 1.3852 4.5912 8.6868 5.1001 8.6868 0.89764 0 3.2117 1.421 4.2917 2.6354 1.2562 1.4124 7.5461 12.312 7.78 13.481 0.17513 0.87562-0.46176 2.2601-1.2284 2.6704-0.37291 0.19958-0.52643 0.55415-0.52643 1.2159 0 1.5933-1.082 2.998-2.3188 3.0101-0.33642 0.0033-0.93543 0.38236-1.3663 0.86463-0.65747 0.73584-0.95042 0.86165-2.0468 0.87906-1.9206 0.0305-2.1398 0.25093-4.777 4.8027-2.4392 4.21-2.4392 4.21-2.2246 5.5671 0.27765 1.7564-0.074 4.2737-0.79486 5.6901-0.91054 1.7891-6.0673 10.562-6.7562 11.494-0.73306 0.99162-2.0239 1.3426-3.3006 0.89755-0.6761-0.23569-0.96563-0.21494-1.4525 0.10409-1.0731 0.70311-2.7948 0.51763-3.6694-0.39529zm3.0999-0.7276c0.22209-0.25466 0.96534-1.4453 1.6517-2.6458s1.3017-2.1828 1.3674-2.1828c0.0657 0-0.26179 0.68832-0.72783 1.5296-0.96885 1.749-0.92222 2.6893 0.15775 3.1814 1.2926 0.58896 1.6944 0.13028 5.2674-6.0139 1.8744-3.2232 3.5658-6.3024 3.7587-6.8428 0.41009-1.1487 0.4772-3.5363 0.13311-4.7361-0.21978-0.76633-0.0454-1.1775 1.9948-4.703 2.1128-3.651 2.3751-4.3757 1.5838-4.3757-0.5724 0-1.3354-1.061-3.4722-4.8286-1.1349-2.0009-2.1375-3.638-2.2281-3.638-0.0906 0-1.7612 2.904-3.7124 6.4534-3.5476 6.4534-3.5476 6.4534-4.6653 6.5794-1.6594 0.18704-2.5669 1.0008-4.1264 3.7-0.77287 1.3377-1.4449 2.5254-1.4934 2.6393s0.31832 0.20706 0.81518 0.20706c0.69268 0 0.98591-0.15419 1.2572-0.66106 0.19459-0.36358 0.40319-0.61166 0.46356-0.55129 0.0604 0.06037-1.3391 2.5711-3.11 5.5793-3.4348 5.8348-3.581 6.2934-2.2797 7.1461 1.1299 0.74036 1.7962 0.18488 3.6256-3.0228 0.91636-1.6068 1.7082-2.8794 1.7595-2.828 0.0514 0.05138-0.75206 1.5461-1.7854 3.3215-2.1122 3.6291-2.2904 4.5695-1.0021 5.2892 0.65902 0.36815 0.77222 0.35576 1.4713-0.16106 0.75731-0.5599 0.75731-0.5599 0.64356 0.21517-0.21932 1.4943 1.6824 2.4618 2.6524 1.3495zm-1.9048-3.4396c0.32223-0.5457 1.1183-1.9149 1.7691-3.0427 0.65076-1.1278 1.2393-2.0505 1.308-2.0505 0.0686 0 0.0754 0.0893 0.015 0.19844-1.1397 2.0605-3.4431 5.887-3.5438 5.887-0.0737 0 0.12954-0.44648 0.45178-0.99219zm-20.245 1.2168c0.7276-0.38578 1.6116-1.0109 1.9644-1.3891 0.64143-0.68765 0.64143-0.68765 5.8278-0.68765 5.1864 0 5.1864 0 5.0882-1.0294-0.086-0.90167 0.18405-1.5065 2.1758-4.8738 1.2507-2.1144 2.274-3.9568 2.274-4.0942 0-0.15408-3.0245-0.19854-7.893-0.11605-7.893 0.13375-7.893 0.13375-8.4615-0.66462-0.88949-1.2492-1.9924-1.6177-5.4264-1.8134-1.7974-0.10242-3.09-0.0759-3.09 0.06341 0 0.42675 0.83708 1.4487 1.3376 1.633 0.268 0.09869-2.0834 0.14102-5.2254 0.09407-3.142-0.04695-5.9918-0.01529-6.3331 0.07034-1.5291 0.38377-1.7449 2.4946-0.30932 3.0256 0.52542 0.19436 0.484 0.23628-0.39673 0.40151-1.887 0.354-2.2602 2.0917-0.65848 3.0657 0.78209 0.47562 0.78683 0.49052 0.18365 0.57706-0.34054 0.04886-0.79929 0.4108-1.0194 0.80431-0.36941 0.6603-0.35784 0.77252 0.15004 1.4552 0.47324 0.6361 0.78753 0.76113 2.2435 0.8925 0.93126 0.08402 1.4295 0.17332 1.1072 0.19844-1.0842 0.08449-1.5172 1.8292-0.6829 2.7512 0.42519 0.46983 0.88901 0.49364 8.1359 0.41771 7.685-0.08052 7.685-0.08052 9.008-0.78194zm-14.618-2.5358c0.69122-0.0545 1.8223-0.0545 2.5135 0s0.12568 0.0991-1.2568 0.0991-1.948-0.04459-1.2568-0.0991zm-1.0473-3.4416c0.98832-0.05105 2.5361-0.05066 3.4396 7.93e-4 0.90345 0.05151 0.0948 0.09327-1.7969 0.09281-1.8918-5.29e-4 -2.631-0.04261-1.6426-0.09365zm-3.2522-7.6088c0.50314-0.28762 1.7855-0.38037 5.3578-0.3875 2.583-0.0052 4.6964-0.11314 4.6964-0.23995 0-0.21816-6.4076-10.949-6.9106-11.573-0.1442-0.17894-0.0809-0.66734 0.16186-1.2483 0.65708-1.5726 0.5018-2.6995-0.67675-4.9114-0.59152-1.1102-1.2922-2.3058-1.557-2.6569-0.48153-0.63838-0.48153-0.63838-0.89527 0.1617-0.36929 0.71412-0.37095 0.86118-0.0155 1.3687 0.21905 0.31274 0.30223 0.5669 0.18483 0.5648-0.11739-0.0021-0.55332-0.62717-0.96873-1.3891-0.41542-0.76189-1.8406-3.2648-3.1672-5.562-2.5427-4.4033-2.9567-4.8085-4.2918-4.2002-1.215 0.55358-1.0924 1.3471 0.68717 4.4494 1.9922 3.473 1.98 3.4499 1.6932 3.1886-0.1266-0.11539-1.0684-1.6529-2.0929-3.4167-2.0648-3.5548-2.3985-3.8889-3.4977-3.5023-1.1343 0.3989-1.3765 1.4453-0.65438 2.8268 0.32401 0.61988 0.43589 0.89354 0.24861 0.60814-1.261-1.9218-2.4421-2.3689-3.3171-1.2559-0.5825 0.74101-0.36111 1.6257 0.97132 3.8816 0.71614 1.2124 1.5052 2.6036 1.7534 3.0915 0.7663 1.506 0.0922 0.59586-1.0538-1.4226-1.2545-2.2097-2.0459-2.6991-3.1718-1.9614-1.1052 0.72417-0.86509 1.4303 2.5066 7.3705 4.2484 7.4848 4.9124 8.2613 7.907 9.2471 1.1251 0.37038 1.2566 0.53071 3.175 3.8705 1.1007 1.9163 2.0608 3.4823 2.1336 3.4799 0.0728-0.0024 0.42995-0.17437 0.79375-0.38233zm32.52 0.123c2.5374-0.0093 2.5374-0.0093 3.9926-2.5649 2.1771-3.8234 2.5323-4.1572 5.7077-5.3652 0.35621-0.13551 1.6007-2.1356 3.5521-5.709 3.0038-5.5004 3.0038-5.5004 2.2719-6.8401-2.6558-4.8614-2.8004-5.1969-2.8004-6.4944 0-0.71122 0.12158-1.6129 0.27018-2.0038 0.2456-0.64597-0.0254-1.1952-2.9781-6.0365l-3.2483-5.3259-3.8349-0.13229c-4.0955-0.14128-5.0676-0.44153-6.278-1.9389-0.46366-0.57364-0.52011-0.57716-7.1268-0.44412-3.6627 0.07375-6.7104 0.19363-6.7726 0.26639-0.0622 0.07276-0.87547 1.4311-1.8072 3.0185-1.7901 3.0499-2.9658 4.1476-4.8132 4.4942-0.80048 0.15017-1.0609 0.53354-4.0861 6.0146l-3.2311 5.8542 1.6117 2.8921c1.927 3.4577 2.1923 4.422 1.719 6.2465-0.34637 1.3353-0.34637 1.3353 2.807 6.5159l3.1533 5.1806h3.0352c3.8517 0 5.0838 0.30903 6.5126 1.6335 1.1226 1.0405 1.1226 1.0405 5.4643 0.89415 2.388-0.08052 5.4836-0.15057 6.8792-0.15568zm25.785-12.445c0.99318-0.78123 0.89473-1.2517-0.92629-4.4265-1.9677-3.4306-1.9572-3.4107-1.6708-3.1497 0.1266 0.11539 1.0684 1.6599 2.0929 3.4323 1.964 3.3976 2.695 4.1047 3.6981 3.5772 1.3441-0.7068 1.2534-1.4753-0.54545-4.6187-2.4181-4.2255-2.5646-4.5-2.0941-3.9236 0.23754 0.29104 1.1418 1.7916 2.0094 3.3345 2.221 3.9496 3.0621 4.4947 4.3221 2.8009 0.55326-0.74372 0.55326-0.74372 9e-3 -1.7198-2.1229-3.8097-2.4075-4.4544-1.0303-2.3332 0.95534 1.4713 3.0343 1.1193 3.0343-0.51387 0-0.35344-1.4585-3.2302-3.2411-6.3928-3.5752-6.3427-4.8382-7.9059-7.0035-8.6678-0.6956-0.24477-1.4281-0.52724-1.6277-0.62771-0.19966-0.10047-1.278-1.7538-2.3964-3.674-2.4267-4.1667-2.2604-3.9782-2.9548-3.3492-0.49958 0.45248-1.0547 0.51199-5.2933 0.56741-2.6044 0.03405-4.765 0.11438-4.8013 0.17851-0.0364 0.06413 1.5753 2.8392 3.5814 6.1669 3.6475 6.0503 3.6475 6.0503 3.2139 7.0881-0.62805 1.5031-0.36073 2.7112 1.2167 5.4991 1.672 2.955 1.5015 2.7696 1.981 2.1528 0.38838-0.49952 0.38895-1.0377 2e-3 -2.0974-0.10622-0.29104 1.2414 1.9711 2.9948 5.0271 3.6034 6.2804 4.054 6.7509 5.429 5.6693zm-55.654-15.591c1.4871-2.6921 3.112-5.6389 3.611-6.5484 0.80076-1.4595 1.0005-1.6536 1.7012-1.6536 0.95391 0 2.0181-0.52 2.7913-1.3639 0.51049-0.55717 3.0034-4.6041 3.0034-4.8756 0-0.4061-1.7135-0.02077-2.1561 0.48488-0.52114 0.59531-0.52114 0.59531-0.13835-0.06614 0.21054-0.3638 1.6534-2.8411 3.2064-5.5051 3.1284-5.3666 3.3596-6.1961 1.9183-6.8836-1.1142-0.53144-1.7573 0.04229-3.5027 3.1248-0.82656 1.4598-1.6084 2.7195-1.7374 2.7992-0.129 0.07973 0.66655-1.4085 1.7679-3.3071 2.1327-3.6766 2.2703-4.2735 1.1712-5.0811-0.93915-0.69012-1.7434-0.37587-2.5469 0.99514-0.93271 1.5916-1.097 1.4668-0.19097-0.14504 0.66287-1.1792 0.69792-1.3669 0.36977-1.98-0.86427-1.6149-2.2374-1.219-3.5491 1.0234-1.0358 1.7708-1.5726 2.3728-0.82287 0.92308 0.49957-0.96606 0.31678-1.7013-0.56691-2.2803-1.3487-0.8837-1.5715-0.59942-7.1884 9.1727-2.1875 3.8058-2.5708 5.1818-2.1339 7.6618 0.28382 1.6112 0.28382 1.6112-1.9945 5.5616-1.2531 2.1727-2.2776 4.0451-2.2767 4.1609 9.3e-4 0.11577 0.34038 0.40314 0.75436 0.63859 0.41397 0.23546 1.1473 1.1284 1.6297 1.9844 2.5759 4.5709 3.7798 6.4755 3.9674 6.2762 0.11497-0.12212 1.4257-2.4247 2.9128-5.1168zm5.5517-22.039c-1e-3 -0.28152 2.391-4.4194 2.5551-4.4194 0.0707 0-0.26023 0.68461-0.73541 1.5214-1.3596 2.3942-1.8186 3.1252-1.8197 2.8981zm30.162 8.4253c0-0.67841-0.71609-1.454-1.4251-1.5435-0.45311-0.05721 2.0838-0.12308 5.6376-0.14637 7.0842-0.04642 7.4292-0.12211 7.4292-1.6298 0-1.3437-0.59863-1.5632-4.5098-1.654-3.5599-0.08257-3.5599-0.08257 0.52027-0.14035 4.4531-0.06306 5.0479-0.2515 5.0479-1.5993 0-1.4708-0.48022-1.6285-5.1342-1.6867l-4.2585-0.05327 4.26-0.14517c4.623-0.15754 5.1328-0.31562 5.1328-1.5918 0-1.1654-0.92563-1.7912-2.7223-1.8405-0.73791-0.02024-0.73791-0.02024-0.19844-0.5993 0.74204-0.79649 0.67679-1.6558-0.1767-2.3271-0.69743-0.5486-0.90696-0.56122-8.0036-0.48222-8.1668 0.090907-8.5856 0.17503-10.792 2.168-1.058 0.95585-1.058 0.95585-5.7884 0.95669-4.7304 8.46e-4 -4.7304 8.46e-4 -4.7469 0.99219-0.0146 0.87731-2.4979 5.6289-4.2466 8.1256-0.20192 0.28828-0.36712 0.63305-0.36712 0.76616 0 0.14502 3.1016 0.16756 7.7391 0.05622 7.7391-0.1858 7.7391-0.1858 8.2682 0.62791 0.92054 1.4155 2.2458 1.8661 5.4901 1.8663 1.5644 1.15e-4 2.8443-0.05372 2.8443-0.11963zm-32.47 57.075c0.69562-0.05468 1.7672-0.05402 2.3812 0.0016 0.61408 0.05549 0.0449 0.10023-1.2648 0.09942-1.3097-7.94e-4 -1.8121-0.04621-1.1165-0.10089zm-2.7861-16.139c0.61847-0.0557 1.6305-0.0557 2.249 0 0.61847 0.0557 0.11245 0.10128-1.1245 0.10128-1.2369 0-1.7429-0.04558-1.1245-0.10128zm35.067-56.358c0.84205-0.052665 2.1517-0.052177 2.9104 0.00108 0.75867 0.053262 0.0697 0.096352-1.531 0.095755-1.6007-6.085e-4 -2.2215-0.044175-1.3794-0.09684zm-0.66225-1.3225c0.76886-0.053616 1.9595-0.053052 2.6458 0.00125 0.68634 0.054306 0.0573 0.098173-1.3979 0.097484-1.4552-6.879e-4 -2.0168-0.04512-1.2479-0.098736zm-35.198 69.058c0.61847-0.0557 1.6305-0.0557 2.249 0 0.61847 0.05571 0.11245 0.10128-1.1245 0.10128-1.2369 0-1.7429-0.04558-1.1245-0.10128zm23.164 1.8486c1.2804-0.04861 3.3045-0.04836 4.4979 5.3e-4 1.1934 0.04891 0.14576 0.08868-2.3281 0.08837-2.4739-2.65e-4 -3.4503-0.04032-2.1698-0.08893zm16.92-56.087c0.5457-0.05708 1.4387-0.05708 1.9844 0 0.54571 0.05708 0.0992 0.10379-0.99218 0.10379-1.0914 0-1.5379-0.0467-0.99219-0.10379zm1.3339-3.4433c0.98832-0.05105 2.5361-0.05067 3.4396 8.47e-4 0.90345 0.05151 0.0948 0.09327-1.7969 0.09281-1.8918-4.5e-4 -2.631-0.04261-1.6426-0.09365z" stroke-width="404.53"/>
   </g>
   <g id="message" transform="matrix(.14062 0 0 .14062 245.24 -2.8241)" stroke-width="157.67">
    <path d="m238.73 126.28c-0.76484-0.65729-0.76484-0.65729-0.89713-6.0517-0.19933-8.1283 0.36633-7.7021-10.46-7.8817-7.9712-0.13229-7.9712-0.13229-8.9048-0.84496-1.9178-1.464-1.8018 0.34566-1.8018-28.109 0-27.946-0.0736-26.625 1.5597-28 1.3646-1.1482 2.2777-1.2515 11.074-1.2531l8.2682-0.0015v-8.0525c0-9.611 0.11044-10.06 2.7781-11.291 1.0135-0.46777 2.6828-0.48845 39.423-0.48845 43.167 0 39.659-0.16895 41.306 1.9894 0.76303 1.0003 0.76303 1.0003 0.8305 25.495 0.0759 27.577 0.24443 25.243-1.9421 26.911-0.99365 0.75825-0.99365 0.75825-10.077 0.83731l-9.083 0.07906v9.6028c0 9.5388-4e-3 9.6105-0.61483 10.765-1.2484 2.3606 0.11336 2.2101-21.346 2.3602-23.529 0.16454-20.113-0.72001-30.119 7.8002-8.5461 7.277-8.6145 7.3189-9.9941 6.1333zm2.3378-1.1673c0.52137-0.40019 3.4031-2.8112 6.4039-5.3578 6.9589-5.9057 8.051-6.7282 9.8052-7.3845 2.671-0.99936 4.2968-1.0781 22.307-1.0801 19.358-2e-3 18.587 0.0633 19.643-1.6685 0.80797-1.3251 0.80885-51.168 1e-3 -52.493-1.1955-1.9607 2.3475-1.7913-39.291-1.8784-20.525-0.04297-37.956-3e-3 -38.736 0.08875-1.1038 0.12994-1.631 0.3624-2.3812 1.0499-0.96376 0.88306-0.96376 0.88306-1.0338 26.72-0.07 25.837-0.07 25.837 0.48388 26.615 1.0703 1.5031 1.4188 1.5635 9.0318 1.5651 11.289 2e-3 11.377 0.0677 11.589 8.6738 0.10799 4.3819 0.20519 5.4139 0.52916 5.6184 0.55746 0.35171 0.59019 0.3424 1.6474-0.4691zm-8.2259-31.64c-0.16285-0.19623-0.21775-0.43511-0.122-0.53086 0.0957-0.09575 9.0331-0.17409 19.861-0.17409 18.607 0 19.682 0.0254 19.598 0.46302-0.0838 0.43523-1.2579 0.46709-19.565 0.53086-16.078 0.05601-19.527 0.0056-19.772-0.28892zm0.14159-10.405c-0.87569-0.87569-0.65518-0.88325 25.771-0.88325 24.57 0 25.944 0.02458 25.859 0.46302-0.0841 0.43663-1.5532 0.46686-25.771 0.53047-14.125 0.0371-25.762-0.01252-25.859-0.11024zm0-10.583c-0.87569-0.87569-0.65518-0.88325 25.771-0.88325 24.57 0 25.944 0.02458 25.859 0.46302-0.0841 0.43663-1.5532 0.46687-25.771 0.53047-14.125 0.0371-25.762-0.01251-25.859-0.11024zm86.084 15.485c1.9986-1.1233 1.8795 0.62874 1.791-26.339-0.0792-24.126-0.0792-24.126-0.86196-24.943-0.43052-0.44933-1.2044-0.93895-1.7198-1.088-0.62605-0.18111-13.625-0.24501-39.169-0.19253-42.279 0.08685-38.815-0.06191-39.988 1.7176-0.44926 0.68137-0.48949 1.4083-0.49109 8.8725l-2e-3 8.1304 29.454 0.07172c29.454 0.07172 29.454 0.07172 30.58 0.81683 2.1992 1.4555 2.1302 0.86624 2.1368 18.239l6e-3 15.28h8.6291c8.3234 0 8.6647-0.02003 9.6352-0.56545zm-102.54-4.0648c2e-5 -13.242 0.0322-18.621 0.0716-11.952 0.0394 6.6686 0.0393 17.503-3e-5 24.077-0.0394 6.5738-0.0716 1.1177-0.0716-12.125zm8.9352-28.641c2.292-0.04405 6.0424-0.04405 8.3344 0 2.292 0.04405 0.41672 0.08009-4.1672 0.08009s-6.4591-0.03604-4.1672-0.08009zm27.008-5.3e-4c7.9784-0.0389 20.956-0.03889 28.84 2.2e-5 7.8833 0.03891 1.3555 0.07073-14.506 0.07072-15.862-1.1e-5 -22.312-0.03184-14.333-0.07074zm-27.786 57.151c1.8639-0.0455 4.8404-0.0454 6.6146 2.7e-4 1.7742 0.0457 0.24918 0.083-3.3888 0.0828-3.638-1.6e-4 -5.0896-0.0375-3.2257-0.0831zm45.625-5e-4c4.8386-0.0404 12.756-0.0404 17.595 0s0.87974 0.0734-8.7974 0.0734c-9.6771 0-13.636-0.033-8.7974-0.0734zm-27.365-19.844c5.3586-0.04003 14.05-0.04001 19.315 4.2e-5 5.2644 0.04006 0.88009 0.07281-9.7429 0.07279-10.623-2.4e-5 -14.93-0.0328-9.5716-0.07283zm3.0232-10.583c7.0214-0.03921 18.511-0.03921 25.532 0s1.2766 0.07129-12.766 0.07129-19.788-0.03208-12.766-0.07129zm-0.15237-10.583c6.9376-0.03923 18.368-0.03924 25.4-2.6e-5 7.0324 0.03922 1.3562 0.07131-12.614 0.07133-13.97 1.3e-5 -19.724-0.03207-12.786-0.0713zm-8.396-24.805c1.3e-4 -4.2201 0.0367-5.9095 0.0812-3.7541 0.0445 2.1553 0.0444 5.6081-2.3e-4 7.6729-0.0446 2.0648-0.0811 0.30132-0.081-3.9188zm84.676 15.346c-2e-5 -12.66 0.0323-17.878 0.0718-11.595 0.0395 6.2828 0.0395 16.641 3e-5 23.019-0.0395 6.3775-0.0718 1.237-0.0718-11.423zm-61.444-26.524c10.441-0.03832 27.527-0.03832 37.968 0s1.8984 0.06968-18.984 0.06968-29.425-0.03136-18.984-0.06968zm40.269 63.434c0-5.0205 0.0356-7.0743 0.0791-4.5641 0.0435 2.5102 0.0435 6.6179 0 9.1281-0.0435 2.5102-0.0791 0.45641-0.0791-4.5641zm5e-3 -25.268c-4e-5 -8.1492 0.0335-11.521 0.0746-7.4933s0.0411 10.695 7e-5 14.817c-0.041 4.1213-0.0746 0.82576-0.0747-7.3234zm-61.931 46.302c2.7e-4 -2.1828 0.0414-3.0406 0.0911-1.9061s0.0494 2.9204-7.9e-4 3.9688c-0.0501 1.0484-0.0908 0.1202-0.0904-2.0626zm66.768-31.551c2.2192-0.04425 5.8506-0.04425 8.0698 0 2.2192 0.04425 0.40349 0.08046-4.0349 0.08046s-6.2541-0.03621-4.0349-0.08046zm-0.5125 1.3228c2.3739-0.04389 6.1839-0.04381 8.4667 1.94e-4 2.2828 0.044 0.34053 0.07991-4.3161 0.07981-4.6567-1.05e-4 -6.5244-0.03611-4.1505-0.08zm-67.578 30.493c2.6e-4 -2.1828 0.0413-3.0406 0.0911-1.9061 0.0497 1.1344 0.0494 2.9204-7.9e-4 3.9688-0.0501 1.0484-0.0908 0.1202-0.0904-2.0626zm61.926-21.564c0-5.3115 0.0353-7.4844 0.0785-4.8286s0.0432 7.0015 0 9.6573c-0.0432 2.6558-0.0785 0.48287-0.0785-4.8286zm4e-3 -25.003c3e-5 -8.2947 0.0336-11.65 0.0745-7.4556 0.041 4.1941 0.0409 10.981-7e-5 15.081-0.041 4.1006-0.0745 0.66908-0.0745-7.6256zm21.169-12.171c2e-5 -12.515 0.0324-17.596 0.0719-11.291 0.0395 6.3047 0.0395 16.544-4e-5 22.754-0.0395 6.2101-0.0719 1.0517-0.0718-11.463zm-59.612-27.318c10.284-0.03834 27.191-0.03835 37.571-1.3e-5 10.38 0.03834 1.9654 0.06971-18.699 0.06972-20.664 7e-6 -29.156-0.03136-18.872-0.0697zm-43.31 49.279c-2e-5 -13.388 0.0322-18.904 0.0715-12.257 0.0393 6.6466 0.0394 17.6 3e-5 24.342-0.0393 6.7413-0.0715 1.3032-0.0715-12.085zm28.362-0.06607c6.7193-0.03932 17.792-0.03933 24.606-3e-5 6.8141 0.0393 1.3165 0.07147-12.217 0.07148-13.533 1.6e-5 -19.109-0.03214-12.389-0.07145zm0.17237-10.583c6.9596-0.03924 18.271-0.03923 25.135 2.4e-5 6.8648 0.03926 1.1706 0.07137-12.654 0.07135-13.824-1.6e-5 -19.441-0.03213-12.482-0.07138zm-7.6423-26.392c1.2e-4 -4.2201 0.0367-5.9095 0.0812-3.7541 0.0445 2.1553 0.0444 5.6081-2.3e-4 7.6729-0.0446 2.0648-0.0811 0.30132-0.081-3.9188z" stroke-width="157.67"/>
   </g>
   <path id="gavel" d="m243.65 50.609c-0.82747-0.02115-1.646-0.09339-2.2142-0.19543-0.2763-0.04962-0.65199-0.14116-0.84077-0.20488-0.28765-0.09708-0.44737-0.2152-0.48944-0.36196-8e-3 -0.02646-8e-3 -0.02646-6e-3 -0.39026 7.5e-4 -0.20009 2e-3 -0.36455 4e-3 -0.36546 1e-3 -1e-3 4e-3 -0.01132 6e-3 -0.02315 0.0195-0.10268 0.13978-0.18561 0.38687-0.2667 0.0353-0.01158 0.066-0.02105 0.0682-0.02105 3e-3 0 4e-3 -0.05603 5e-3 -0.26474 1e-3 -0.18413 2e-3 -0.26545 5e-3 -0.26706 2e-3 -0.0013 5e-3 -0.0098 6e-3 -0.01886 0.0102-0.07711 0.11512-0.14563 0.31301-0.20451 0.078-0.02321 0.12243-0.03418 0.2566-0.06339 7e-3 -0.0015 7e-3 -0.0025 9e-3 -0.18926 2e-3 -0.11876 3e-3 -0.18817 6e-3 -0.18886 2e-3 -6e-4 3e-3 -0.0045 3e-3 -0.0087 0-0.01207 9e-3 -0.03399 0.0201-0.04961 0.069-0.09604 0.41965-0.17829 1.0151-0.23808 1.6816-0.16884 4.3674-0.08193 4.9829 0.16124 0.0876 0.0346 0.12698 0.06757 0.13901 0.11632 3e-3 0.01186 7e-3 0.02156 9e-3 0.02156 3e-3 0 5e-3 0.02175 6e-3 0.08186 4e-3 0.14952 2e-3 0.22249-6e-3 0.28801-2e-3 0.01532-2e-3 0.01709 4e-3 0.0171 3e-3 0 0.039 0.0081 0.079 0.01794 0.28842 0.07109 0.42186 0.14418 0.4388 0.24035 3e-3 0.0145 5e-3 0.01951 9e-3 0.01951 5e-3 -2e-6 5e-3 0.01925 3e-3 0.24722-2e-3 0.23591-3e-3 0.26653-0.0127 0.3013-2e-3 0.0079-3e-3 0.01508-2e-3 0.0159 7.5e-4 7.5e-4 0.0188 0.0081 0.0401 0.01615 0.18689 0.07091 0.28494 0.14875 0.29996 0.23814 3e-3 0.01917 5e-3 0.02465 0.01 0.02465s6e-3 0.01815 8e-3 0.22738c4e-3 0.37133-2e-3 0.437-0.0497 0.52999-0.14056 0.27595-0.6381 0.46743-1.564 0.6019-0.48778 0.07084-1.1953 0.12515-1.986 0.15245-0.12787 0.0044-0.82046 0.0065-0.96077 3e-3zm0.81525-0.10908c0.60269-0.0139 1.3551-0.06222 1.8294-0.11749 0.45757-0.05331 0.88955-0.13492 1.1736-0.22171 0.36932-0.11284 0.58603-0.26227 0.62021-0.42767 0.0115-0.0557 0.0182-0.27986 0.0125-0.4159l-3e-3 -0.06324-0.0397 0.02632c-0.19923 0.13215-0.6372 0.2594-1.2369 0.3594-1.3489 0.22491-3.1609 0.26101-4.6666 0.09298-0.92577-0.10331-1.6383-0.27145-1.9086-0.45038l-0.0367-0.0243-2e-3 0.26464c-2e-3 0.23646-2e-3 0.26706 3e-3 0.28741 0.0261 0.11221 0.17656 0.21447 0.44505 0.30241 0.18134 0.0594 0.52067 0.14199 0.77599 0.18887 0.58265 0.10698 1.4508 0.18265 2.2915 0.19974 0.11991 0.0025 0.62185 0.0018 0.74249-1e-3zm-0.0132-0.76068c1.3233-0.02272 2.5285-0.16971 3.2147-0.39205 0.23557-0.07634 0.39481-0.16352 0.4266-0.23358 9e-3 -0.01882 8e-3 -0.02463-2e-3 -0.04496-0.0239-0.04801-0.1133-0.10256-0.25077-0.15306l-0.0426-0.01565-0.0249 0.0209c-0.063 0.05283-0.15173 0.0929-0.30462 0.13762-0.0374 0.01095-0.1045 0.03102-0.14907 0.0446-0.21801 0.06646-0.43035 0.11307-0.74248 0.16298-0.13393 0.02143-0.42616 0.0662-0.47625 0.07298-0.30797 0.04173-0.7435 0.07305-1.2981 0.09334-0.18143 0.0067-0.79507 0.0057-1.0005-0.0015-0.091-0.0032-0.23234-8e-3 -0.31419-0.01077-0.87002-0.02894-1.3163-0.06769-1.7744-0.15407-0.59281-0.1118-0.95571-0.2336-1.0871-0.36488l-0.0304-0.03043-0.0671 0.02197c-0.18204 0.05963-0.28998 0.11934-0.31824 0.17606-0.0101 0.02035-0.0104 0.02614-2e-3 0.04496 0.0227 0.05008 0.12896 0.12026 0.2662 0.17584 0.71336 0.28891 2.3786 0.47724 3.977 0.4498zm0.23482-0.41345c0.53139-0.01387 1.0636-0.04999 1.3919-0.09445 0.0943-0.01278 0.5006-0.0761 0.60567-0.09441 0.29517-0.05144 0.39615-0.07618 0.76398-0.18719 0.2-0.06036 0.28404-0.1127 0.30343-0.18898 4e-3 -0.0146 5e-3 -0.05752 7e-3 -0.19645l2e-3 -0.17777-0.0194 0.01182c-0.16626 0.10117-0.57391 0.20474-1.1108 0.2822-1.5687 0.22633-3.768 0.20179-5.1776-0.05776-0.32935-0.06065-0.56775-0.12852-0.72016-0.20503l-0.0538-0.02698v0.19898c0 0.19898 0 0.19898 9e-3 0.21368 0.0598 0.09365 0.34723 0.20432 0.7761 0.29883 0.63457 0.13984 1.0397 0.17824 2.2886 0.21692 0.11824 0.0037 0.22837 0.0071 0.24474 0.0076 0.0819 0.0026 0.57821 2e-3 0.68957-1e-3zm0.0149-0.59196c0.71488-0.0185 1.3471-0.06738 1.9057-0.14732 0.58978-0.08439 1.02-0.20116 1.1314-0.30707 0.0283-0.0269 0.0285-0.03347 2e-3 -0.05859-0.0525-0.04913-0.19-0.10047-0.3938-0.14706l-0.0636-0.01455-0.0256 0.02069c-0.0661 0.05332-0.15775 0.09081-0.31662 0.12952-0.35383 0.08621-0.43561 0.10118-0.77728 0.14229-0.0837 0.01007-0.19678 0.02424-0.25135 0.03148-0.3062 0.04068-0.64607 0.0674-1.0964 0.08621-0.13626 0.0057-0.57748 0.0078-0.72297 0.0034-0.98662-0.02951-1.5329-0.06506-1.963-0.12776-0.50684-0.07389-0.80623-0.16207-0.92241-0.27167l-0.0218-0.02062-0.0593 0.0128c-0.23354 0.05042-0.39076 0.10851-0.4394 0.16235-0.0149 0.01645-0.0148 0.02485 6e-5 0.04227 0.0797 0.09312 0.43096 0.2005 0.92575 0.283 0.6511 0.10857 1.4555 0.17188 2.3531 0.18521 0.12022 0.0018 0.60636-0.0012 0.73587-0.0046zm0.10914-0.37347c0.47974-0.02106 0.77396-0.0445 1.1046-0.08798 0.0618-0.0081 0.169-0.02155 0.23813-0.02982 0.32878-0.03934 0.40925-0.05407 0.75197-0.13757 0.15975-0.03892 0.24268-0.07298 0.28825-0.11839 0.0178-0.01776 0.0262-0.02889 0.0289-0.03827 7e-3 -0.02363 0.0107-0.08429 0.0107-0.16658 0-0.07522-5e-4 -0.08047-6e-3 -0.07881-3e-3 9.75e-4 -0.0222 0.0085-0.0422 0.01669-0.24171 0.09895-0.90112 0.18238-1.7545 0.22196-0.44585 0.02068-0.7533 0.02627-1.3146 0.0239-0.40747-0.0017-0.49685-0.0031-0.76398-0.01222-0.99309-0.03373-1.7603-0.12151-2.0417-0.23359-0.0206-0.0082-0.0385-0.01396-0.0397-0.01276-1e-3 0.0012-3e-3 0.06121-3e-3 0.13337-1e-3 0.15031-3e-3 0.14101 0.03 0.16574 0.13042 0.09847 0.48943 0.188 1.0143 0.25297 0.35757 0.04426 0.8636 0.07533 1.6189 0.09942 0.0873 0.0028 0.17215 0.0056 0.18852 0.0062 0.0639 0.0024 0.61625-9.75e-4 0.69122-0.0043zm-0.0496-0.49304c0.93078-0.01893 1.6859-0.07865 2.1359-0.16892 0.15695-0.03148 0.27392-0.06906 0.31916-0.10253 0.0142-0.01053 0.0142-0.01053 7e-3 -0.01831-0.02-0.0213-0.10649-0.05544-0.20307-0.08015-0.88936-0.22756-3.645-0.27252-5.0833-0.08293-0.3482 0.0459-0.59562 0.10562-0.66146 0.15966-0.01 0.0081-0.01 0.0081-2e-3 0.01702 5e-3 0.0049 0.0231 0.0161 0.0414 0.02493 0.26171 0.12698 1.2168 0.22709 2.3945 0.25097 0.18505 0.0038 0.87179 0.0039 1.0517 2.75e-4zm13.117 0.54662c-0.13877-0.0193-0.28669-0.13771-0.41771-0.33437-0.0356-0.0535-0.04-0.05754-0.0841-0.07816-0.13405-0.06264-0.39213-0.12117-0.94843-0.21509-0.20769-0.03506-0.24798-0.04341-0.43987-0.09115-0.66285-0.16488-1.0988-0.30547-2.0311-0.65499-0.51504-0.19308-0.63633-0.2369-1.0446-0.37735-1.2306-0.42329-1.9409-0.66407-2.5979-0.88064-0.4309-0.14204-0.89808-0.29316-0.90741-0.29352-3e-3 -1.16e-4 -0.0188 0.0087-0.0352 0.01959-0.0838 0.05572-0.1813 0.09814-0.26954 0.11723-0.0509 0.01102-0.15074 0.01104-0.19183 5.2e-5 -0.16188-0.0433-0.26834-0.19441-0.31044-0.44062-4e-3 -0.02111-8e-3 -0.03515-0.0106-0.03681-8e-3 -0.0046-1.9711-0.47301-1.9753-0.47138-7e-3 0.0027-0.0518 0.13111-0.0518 0.14852 0 0.02188 0.0119 0.05237 0.0525 0.13442 0.0638 0.129 0.0762 0.1674 0.0788 0.24525 2e-3 0.06429-4e-3 0.09314-0.0302 0.14718-0.049 0.10022-0.11655 0.145-0.28686 0.19022-0.0789 0.02096-0.097 0.02692-0.12838 0.04228-0.0495 0.02427-0.084 0.0706-0.0933 0.12551-8e-3 0.04663 6e-3 0.08893 0.0589 0.18546 0.0832 0.15045 0.10424 0.21407 0.10415 0.31501-1.8e-4 0.18701-0.10892 0.36873-0.27793 0.46442-0.20999 0.1189-0.55881 0.14036-0.9891 0.06085-0.28679-0.05299-0.74626-0.17808-1.0608-0.2888-0.31734-0.1117-0.76588-0.30786-0.96455-0.42182-0.29965-0.1719-0.48189-0.36979-0.56538-0.61395-0.11354-0.33203 0.0221-0.59728 0.354-0.69243 0.11931-0.0342 0.19426-0.09931 0.19867-0.17259 2e-3 -0.03371-3e-3 -0.0536-0.0243-0.09706-0.0171-0.03488-0.0286-0.05102-0.0884-0.12455-0.10832-0.1331-0.13213-0.3225-0.0561-0.44596 0.0334-0.05414 0.0689-0.08413 0.17422-0.14701 0.0823-0.04911 0.10381-0.06438 0.12984-0.09197 0.0557-0.059 0.14363-0.2329 0.25616-0.50641 0.0437-0.10627 0.0619-0.16727 0.10666-0.35881 0.0454-0.19428 0.0625-0.29764 0.0627-0.37911 1.7e-4 -0.06738-3e-3 -0.07819-0.0436-0.17363-0.0145-0.03365-0.0308-0.07538-0.0364-0.09272-0.0441-0.13804-0.0168-0.24993 0.0859-0.35103 0.0633-0.06234 0.12945-0.097 0.23247-0.12177 0.13107-0.03152 0.19225-0.07069 0.21146-0.1354 0.0169-0.05694-8e-3 -0.14025-0.0655-0.21836-0.0869-0.11816-0.12101-0.22082-0.11662-0.35072 3e-3 -0.08164 0.0174-0.14114 0.0533-0.21663 0.11542-0.24258 0.39458-0.4033 0.78239-0.45042 0.0604-0.0073 0.26921-0.0084 0.33403-0.0017 0.21264 0.02197 0.40718 0.06436 0.66344 0.14459 0.69126 0.21641 1.1731 0.42109 1.5128 0.64255 0.24993 0.16298 0.43135 0.3667 0.51413 0.57735 0.0781 0.1988 0.0593 0.41009-0.0495 0.55506-0.0555 0.07391-0.11608 0.1165-0.25784 0.18117-0.0918 0.04187-0.11702 0.05641-0.14368 0.08278-0.0414 0.04092-0.0587 0.10009-0.0449 0.15312 0.0101 0.03892 0.0312 0.07315 0.0922 0.1495 0.0668 0.08369 0.0956 0.13238 0.11199 0.18886 0.0111 0.03814 0.011 0.12293-1.4e-4 0.16165-0.0325 0.11309-0.0944 0.17257-0.27265 0.26178-0.0876 0.04385-0.115 0.06204-0.12633 0.08389-5e-3 0.0096-0.0315 0.0966-0.0315 0.10332 0 0.0029 0.33669 0.15172 0.92191 0.40752 0.50705 0.22163 0.92428 0.40416 0.92719 0.40562 4e-3 2e-3 0.0127-0.0036 0.0331-0.02092 0.21681-0.18392 0.42881-0.2493 0.58831-0.18143 0.11277 0.04799 0.19918 0.1645 0.25231 0.34022 6e-3 0.02054 0.0127 0.03861 0.0143 0.04015 2e-3 0.0016 0.0819 0.02668 0.17829 0.05586 1.3428 0.40636 2.2133 0.667 3.0229 0.90516 0.71553 0.21049 1.2082 0.35126 1.3775 0.39355 0.45133 0.11278 1.0675 0.31559 1.6305 0.53669 0.55421 0.21765 1.1531 0.49149 1.6404 0.75007 0.091 0.04826 0.091 0.04826 0.10418 0.04331 7e-3 -0.0027 0.0289-0.01093 0.048-0.01823 0.0714-0.02729 0.15893-0.05049 0.23482-0.06224 0.0546-0.0085 0.1678-0.0084 0.21332 1.19e-4 0.27058 0.05062 0.37843 0.28671 0.3205 0.70157-8e-3 0.05953-8e-3 0.05953-0.031 0.10583-0.10327 0.21055-0.25205 0.37003-0.39366 0.42196-0.0543 0.01991-0.12834 0.02818-0.18356 0.02049zm0.12641-0.13423c0.10209-0.03618 0.2003-0.13038 0.29032-0.27846 0.0474-0.07799 0.0601-0.10799 0.0675-0.15929 0.0153-0.10576 0.0176-0.23367 5e-3 -0.29963-0.0285-0.15434-0.10141-0.23389-0.23387-0.25538-0.11381-0.01846-0.28033 0.0142-0.4417 0.08664-0.0404 0.01814-0.0404 0.01814-0.0513 0.01158-0.0194-0.01172-0.17662-0.09434-0.30228-0.15885-0.98273-0.50451-2.1297-0.94747-3.0919-1.1941-0.43875-0.11245-2.1798-0.62614-4.3094-1.2715l-0.24474-0.07417-2e-3 0.04337c-0.0106 0.19096-0.0795 0.39789-0.2009 0.60308-0.0157 0.02662-0.0217 0.03948-0.019 0.04095 2e-3 0.0012 0.0792 0.02626 0.17101 0.05575 0.72473 0.2326 1.5672 0.51462 2.7748 0.92888 0.97816 0.33555 0.97973 0.3361 1.6024 0.56936 0.92754 0.34748 1.3362 0.47898 2.0092 0.64652 0.20456 0.05093 0.20074 0.05013 0.42333 0.08774 0.57432 0.09703 0.83219 0.15614 0.98089 0.22484 0.0645 0.02978 0.0846 0.04796 0.13215 0.11912 0.10609 0.15886 0.20844 0.25053 0.31051 0.27812 0.0346 0.0093 0.0968 0.0071 0.12996-0.0046zm-12.317-1.631c0.0964-0.0112 0.18829-0.03469 0.25149-0.06431 0.0285-0.01335 0.0689-0.03653 0.067-0.03842-5e-4 -5.5e-4 -0.0278-0.0057-0.0606-0.0114-0.33951-0.05922-0.73816-0.15427-1.1245-0.26809-0.71428-0.21045-1.5627-0.53351-2.1525-0.81964l-0.0744-0.03611 0.0115 0.02526c0.11376 0.25006 0.3321 0.4252 0.78672 0.63109 0.0788 0.03571 0.33214 0.14387 0.40679 0.17372 0.48293 0.19304 1.1994 0.38209 1.5511 0.40929 0.0255 2e-3 0.053 0.0041 0.0612 0.0048 0.0391 0.0032 0.2326-0.0011 0.27616-0.0062zm0.42105-0.19876c0.0484-0.06319 0.0837-0.16431 0.0837-0.23958 0-0.07338-0.0171-0.12296-0.0845-0.24442-0.043-0.07759-0.0596-0.11428-0.0703-0.15576-0.0358-0.1388 0.0237-0.27121 0.15168-0.33748l0.029-0.01502-0.0454-0.01946c-0.71786-0.30751-1.611-0.6228-2.5623-0.90452-0.19021-0.05633-0.50491-0.14584-0.50682-0.14416-5e-4 4.25e-4 4e-3 0.01055 9e-3 0.02252 0.0338 0.07458 0.0357 0.1629 5e-3 0.2301-0.0367 0.07989-0.13044 0.15535-0.23316 0.18766-0.0153 0.0048-0.042 0.01314-0.0593 0.01849-0.1419 0.04397-0.23854 0.13579-0.26813 0.25477-0.0154 0.06185-0.0101 0.18756 8e-3 0.1997 0.0112 0.0073 0.21279 0.10414 0.31257 0.1501 0.59251 0.27288 1.3849 0.56626 2.0328 0.75269 0.36506 0.10503 0.7204 0.18913 1.0264 0.24293 0.1298 0.02282 0.14709 0.0257 0.15048 0.02503 2e-3 -3.5e-4 0.0112-0.01098 0.0209-0.0236zm2.9797-0.95029c0.10342-0.02606 0.24581-0.1042 0.27801-0.15254 0.0847-0.12718 0.16214-0.29644 0.19748-0.43155 0.055-0.21039 0.0364-0.38331-0.0562-0.52257-0.0715-0.10752-0.16934-0.13836-0.30104-0.09493-0.0635 0.02093-0.16674 0.08112-0.23894 0.13928-0.0489 0.0394-0.0452 0.03155-0.0443 0.09218 3e-3 0.18471-0.0583 0.36432-0.17716 0.52242-0.0348 0.04634-0.0336 0.04137-0.0241 0.09844 0.0343 0.20564 0.11242 0.32837 0.22541 0.35397 0.0302 0.0068 0.10497 0.0044 0.14087-0.0047zm-2.6582-0.10467c0.0658-0.02339 0.10377-0.05747 0.12838-0.11519 8e-3 -0.01851 9e-3 -0.02416 9e-3 -0.06492 0-0.05713-6e-3 -0.07601-0.0614-0.18858-0.0454-0.09241-0.0203-0.07346-0.20801-0.15717-0.62766-0.27992-1.546-0.59707-2.5648-0.88582-0.22619-0.0641-0.59677-0.16411-0.60812-0.16411-7e-3 0-0.0823 0.04413-0.11246 0.06572-0.0634 0.04533-0.086 0.08864-0.0857 0.16414 2.5e-4 0.05928 0.0217 0.12556 0.0567 0.17568 0.0288 0.04132 0.019 0.03649 0.14435 0.07058 1.0834 0.2946 2.3492 0.72998 3.1568 1.0858 0.0869 0.03829 0.0789 0.03753 0.14564 0.01382zm2.233-0.39426c0.10695-0.14217 0.16969-0.31629 0.16408-0.45534l-1e-3 -0.02622-0.94258-0.41225c-0.58946-0.2578-0.94337-0.41092-0.94468-0.40869-1e-3 2e-3 -7e-3 0.02067-0.0137 0.04159-6e-3 0.02092-0.0333 0.10832-0.0599 0.19422-0.0265 0.0859-0.0519 0.1685-0.0563 0.18356-4e-3 0.01505-0.04 0.11686-0.0792 0.22623-0.0391 0.10938-0.0716 0.20149-0.0722 0.20471-1e-3 0.0052 0.11451 0.03354 0.98947 0.24325 0.5448 0.13057 0.99138 0.23751 0.9924 0.23764 1e-3 1.32e-4 0.0117-0.01279 0.0236-0.0287zm-2.1984-0.29352c0.16828-0.458 0.22033-0.61382 0.38368-1.1485 0.031-0.10143 0.0467-0.14797 0.0541-0.1598 6e-3 -0.0092 0.0104-0.01719 0.0104-0.01779s-7e-3 -0.0027-0.0157-0.0047c-9e-3 -2e-3 -0.0522-0.01186-0.0967-0.022-0.75315-0.17131-1.8487-0.53159-2.9336-0.96474-0.0773-0.03087-0.1474-0.05884-0.15577-0.06216-0.0152-6e-3 -0.0152-6e-3 -0.012 0.01108 5e-3 0.02667 2.5e-4 0.11957-9e-3 0.18414-0.0161 0.10926-0.0433 0.23583-0.0865 0.40349-0.0138 0.05366-0.0263 0.10514-0.0277 0.1144-2e-3 0.0093-0.01 0.03456-0.0191 0.05622-9e-3 0.02166-0.0288 0.06915-0.0438 0.10553-0.11051 0.26846-0.20673 0.45394-0.27266 0.52559-8e-3 0.0089-0.0146 0.01647-0.0142 0.01671 5e-4 2.41e-4 0.0477 0.01284 0.10499 0.02799 1.1251 0.29752 2.2682 0.68059 3.0014 1.0058l0.10253 0.04548 2e-3 -0.02367c2e-3 -0.01777 8e-3 -0.04097 0.0276-0.09312zm0.62265-1.443c0.0863-0.04383 0.12327-0.06761 0.15331-0.09876 0.058-0.06014 0.0689-0.14177 0.0289-0.21607-0.0138-0.02564-0.0457-0.07189-0.0559-0.08118-3e-3 -0.0029-0.0339-0.01178-0.0682-0.0197-0.88502-0.20465-2.1798-0.62148-3.2364-1.0419-0.0694-0.0276-0.0694-0.0276-0.0947-0.02125-0.0747 0.01876-0.16122 0.08319-0.19285 0.14369-0.0188 0.03586-0.0236 0.0567-0.0219 0.09388 2e-3 0.0361 5e-3 0.0487 0.0382 0.12675 0.0251 0.05981-5e-3 0.0425 0.25541 0.1464 1.1234 0.44802 2.2252 0.80863 2.9815 0.9759 0.0618 0.01368 0.11766 0.02614 0.12402 0.0277 0.0142 0.0035 2e-3 0.0083 0.0885-0.03549zm0.0207-0.54624c-0.0242-0.04822-0.0309-0.07708-0.031-0.13405-6e-5 -0.05639 6e-3 -0.08361 0.0261-0.12704 0.0375-0.07921 0.0953-0.12563 0.23034-0.18513 0.14743-0.06495 0.20177-0.10737 0.24512-0.1913 0.0152-0.0294 0.0354-0.08472 0.0354-0.09694 0-0.0068-0.0435-0.03789-0.13923-0.09957-0.26351-0.16977-0.5479-0.31233-0.92241-0.4624-0.17325-0.06942-0.63146-0.24036-0.84667-0.31585-0.51067-0.17914-1.1034-0.33878-1.6001-0.4309-0.0175-0.0033-0.0175-0.0033-0.0384 0.02359-0.13179 0.16927-0.1356 0.35314-0.0109 0.52361 0.0661 0.09034 0.0938 0.16085 0.0972 0.24737 4e-3 0.10512-0.0411 0.18739-0.13378 0.24309-0.0166 0.01-0.0303 0.01909-0.0304 0.02019-2.5e-4 0.0042 0.42418 0.16504 0.68456 0.25936 0.71211 0.25796 1.3809 0.4712 2.0124 0.64163 0.0514 0.01388 0.42827 0.10988 0.43412 0.11059 5e-4 5.8e-5 -5e-3 -0.01176-0.0124-0.02625zm0.50966-0.90559c-0.0365-0.21513-0.21857-0.44935-0.48822-0.6282-0.32398-0.21489-0.79186-0.41485-1.4732-0.6296-0.4724-0.1489-0.80017-0.18576-1.0962-0.12329-0.14255 0.03008-0.29781 0.09464-0.382 0.15883-8e-3 0.0061-0.0138 0.01108-0.0128 0.01108 0.0123 0 0.30222 0.06239 0.42256 0.09093 0.56755 0.13459 1.0597 0.29208 1.8095 0.57901 0.5148 0.19702 0.84312 0.35732 1.1574 0.56509 0.0676 0.04468 0.0676 0.04468 0.0686 0.02983 5e-4 -0.0082-2e-3 -0.03233-6e-3 -0.05369z" stroke-width="8e-8"/>
   <g id="appointment" transform="matrix(.072444 -.029247 .029247 .072444 229.09 13.019)" stroke-width="17375">
    <path d="m304.75 163.47c-5.6817-0.67333-10.716-2.6439-14.817-5.7999-3.1955-2.4592-6.7423-6.7054-8.0813-9.6746-0.46578-1.0329-0.46578-1.0329-30.919-1.0368-26.279-3e-3 -30.686-0.0589-32.155-0.40506-4.899-1.1547-8.9166-5.5471-9.8006-10.715-0.20666-1.208-0.2682-12.79-0.21014-39.544 0.0901-41.531-0.0366-38.327 1.6479-41.651 0.9108-1.7974 3.6139-4.4613 5.444-5.365 2.7109-1.3387 4.0699-1.535 10.629-1.535h6.0298v-3.278c0-3.7893 0.28663-4.4831 1.8521-4.4831s1.8521 0.69382 1.8521 4.4831v3.278h50.8v-2.8932c0-3.2335 0.19962-4.0224 1.1804-4.665 0.56006-0.36697 0.80372-0.38878 1.4327-0.12825 1.1165 0.46247 1.3557 1.2839 1.3557 4.6562v3.0303h5.7847c6.696 0 7.9397 0.17559 10.555 1.4901 2.9225 1.4692 5.0546 3.8253 6.5525 7.2412 0.50441 1.1502 0.52663 2.0382 0.65527 26.182 0.13316 24.992 0.13316 24.992 1.275 25.322 2.1006 0.60806 6.6861 3.0455 8.603 4.5729 3.6202 2.8846 6.0095 5.7433 7.9501 9.5119 9.5278 18.503-3.2183 40.446-24.045 41.395-1.4552 0.0663-3.0626 0.0712-3.5719 0.0108zm9.3367-4.702c11.191-3.352 18.126-13.203 17.579-24.969-0.50126-10.766-7.2281-19.222-17.883-22.48-3.128-0.95646-9.5605-1.021-12.812-0.12864-8.6684 2.3793-15.375 9.0704-17.688 17.648-0.78427 2.9078-0.84965 8.8311-0.13132 11.897 1.903 8.1227 8.2719 15.196 15.946 17.71 4.3919 1.4386 10.803 1.5764 14.99 0.32209zm-8.8346-20.606c-1.9614-1.3064-2.3202-3.9622-0.73946-5.4729 0.76648-0.73249 0.76648-0.73249 0.76648-9.3101 0-9.7436 2e-3 -9.7537 1.8521-9.7537 1.8484 0 1.8521 0.0194 1.8521 9.6667 0 10.859-0.66386 9.9125 6.9495 9.9125 5.2816 0 5.4835 0.0195 6.0048 0.57906 0.68678 0.73717 0.69146 1.9148 0.0103 2.5959-0.49532 0.49532-0.88194 0.52917-6.0444 0.52917-5.2688 0-5.5377 0.0249-6.0186 0.55626-1.2573 1.3893-3.1629 1.676-4.6327 0.69702zm-25.484 4.5014c-0.60009-2.0726-0.94738-4.9001-0.94529-7.6962 9e-3 -12.717 8.5136-23.817 20.937-27.328 2.0948-0.5921 3.1285-0.71521 6.7097-0.79909l4.2333-0.0992v-28.173l-98.037-0.1337 0.0707 29.039c0.0707 29.039 0.0707 29.039 0.6475 30.274 1.138 2.4376 3.5348 4.4441 6.1514 5.1496 0.92236 0.24869 8.2327 0.3303 30.807 0.34392 29.598 0.0179 29.598 0.0179 29.426-0.57745zm-55.266-15.02c-0.87061-0.68482-0.95408-1.8721-0.18566-2.6405 0.49771-0.49771 0.88195-0.52917 6.4631-0.52917 5.9339 0 5.9339 0 6.4823 0.69714 0.68146 0.86634 0.69257 1.4473 0.043 2.2501-0.49931 0.61717-0.57438 0.62557-6.2966 0.70467-5.5673 0.077-5.819 0.0583-6.5061-0.48222zm20.849 0.2183c-1.0806-0.61279-1.2711-1.9846-0.39688-2.8588 0.49771-0.49771 0.88195-0.52917 6.4631-0.52917 5.9339 0 5.9339 0 6.4972 0.71616 0.65893 0.83769 0.54294 1.8109-0.30093 2.525-0.48421 0.40972-1.191 0.46209-6.1403 0.45497-3.6679-5e-3 -5.7752-0.11133-6.1222-0.30811zm-20.849-15.564c-0.90257-0.70996-0.97874-2.0548-0.15847-2.798 0.5036-0.45624 1.0908-0.51206 6.1928-0.58874 5.6364-0.0847 5.6364-0.0847 6.4951 0.68254 0.91717 0.81949 0.95547 1.4754 0.15048 2.5772-0.6233 0.85312-11.617 0.96323-12.68 0.127zm20.849 0.22613c-1.105-0.64297-1.2935-2.1875-0.3691-3.0241 0.51195-0.46331 1.0244-0.50403 6.344-0.50403 5.787 0 5.787 0 6.4895 0.70246 0.75116 0.75116 0.75236 1.4486 4e-3 2.4725-0.36344 0.49745-0.7328 0.53312-6.163 0.59511-4.0232 0.0459-5.937-0.0275-6.3056-0.24198zm20.361-0.34111c-0.77303-0.77302-0.83223-1.712-0.16026-2.5419 0.4715-0.58228 0.6713-0.60847 5.5314-0.72487 2.7732-0.0664 5.4706-0.0404 5.9942 0.0578 1.6339 0.30653 2.4897 1.754 1.669 2.823-0.71443 0.93052-1.4166 1.0354-6.9315 1.0354-5.4372 0-5.4553-2e-3 -6.1028-0.64944zm-20.59-15.245c-0.50563-0.39772-0.69714-0.79222-0.69714-1.436 0-0.64379 0.19151-1.0383 0.69714-1.436 0.65332-0.51391 1.035-0.54837 6.073-0.54837 3.3763 0 5.6156 0.10926 6.0206 0.29376 1.4407 0.65641 1.4476 2.7217 0.0113 3.3761-0.4188 0.19082-2.6 0.2989-6.0318 0.2989-5.038 0-5.4196-0.03446-6.073-0.54837zm20.59-0.10106c-0.35719-0.35719-0.64943-0.95791-0.64943-1.3349s0.29224-0.97776 0.64943-1.3349c0.64747-0.64748 0.66584-0.64943 6.0986-0.64943 4.3552 0 5.6051 0.08064 6.2259 0.40169 1.3904 0.71899 1.2849 2.6044-0.18311 3.2733-0.40566 0.18483-2.6566 0.29381-6.0684 0.29381-5.4055 0-5.4257-0.0021-6.073-0.64943zm20.638 0c-0.35719-0.35719-0.64944-0.95791-0.64944-1.3349s0.29225-0.97776 0.64944-1.3349c0.6475-0.64751 0.66558-0.64943 6.1028-0.64943 5.5149 0 6.2171 0.10489 6.9315 1.0354 0.66381 0.8646 0.27457 1.9998-0.90024 2.6255-0.38558 0.20536-2.3928 0.3078-6.0313 0.3078-5.4372 0-5.4553-0.0019-6.1028-0.64943zm24.486-29.622c0-9.1712-0.32346-10.649-2.8615-13.071-2.3968-2.2874-4.0934-2.6954-11.209-2.6954h-5.7728v3.3199c0 3.2502-0.0147 3.3335-0.70009 3.9688-0.94355 0.87445-1.7524 0.82272-2.5837-0.16523-0.6531-0.77616-0.68498-0.96087-0.68498-3.9688v-3.1547h-50.8v3.3564c0 3.7293-0.34437 4.5811-1.8521 4.5811-1.4676 0-1.8267-0.84747-1.9096-4.5058l-0.0748-3.2994h-6.3648c-6.3648 0-6.3648 0-8.1061 0.88434-2.0783 1.0555-3.3538 2.3053-4.3628 4.275-0.74545 1.4552-0.74545 1.4552-0.82553 9.7234l-0.0801 8.2682h98.188zm-82.616 57.061c1.4916-0.0472 3.9324-0.0472 5.424 0 1.4916 0.0472 0.2712 0.0858-2.712 0.0858-2.9832 0-4.2036-0.0386-2.712-0.0858zm20.387-1.6e-4c1.4993-0.0472 3.8806-0.047 5.2917 5.3e-4 1.4111 0.0475 0.18437 0.0861-2.726 0.0859-2.9104-2.3e-4 -4.0649-0.0391-2.5656-0.0863zm-11.238-45.774c13.509-0.0379 35.535-0.0379 48.948 8e-6 13.413 0.0379 2.3602 0.06891-24.561 0.06891-26.921-3e-6 -37.895-0.03101-24.387-0.06891zm75.518 58.474c1.4916-0.0472 3.9324-0.0472 5.424 0s0.2712 0.0858-2.712 0.0858-4.2036-0.0386-2.712-0.0858zm-3.7852-13.561c0-4.4384 0.0362-6.2541 0.0805-4.0349 0.0443 2.2192 0.0443 5.8506 0 8.0698-0.0442 2.2192-0.0805 0.40349-0.0805-4.0349zm5.5652-39.82c2e-5 -12.369 0.0324-17.391 0.072-11.159s0.0395 16.352-3e-5 22.49c-0.0396 6.1373-0.0719 1.0385-0.0719-11.331zm-82.314-28.707c0-1.528 0.0437-2.153 0.0972-1.3891 0.0534 0.76398 0.0534 2.0141 0 2.7781-0.0534 0.76398-0.0972 0.13891-0.0972-1.3891zm0-10.319c0-1.528 0.0437-2.153 0.0972-1.3891 0.0534 0.76398 0.0534 2.0141 0 2.7781-0.0534 0.76398-0.0972 0.13891-0.0972-1.3891zm3.2756 98.491c7.8945-0.0389 20.813-0.0389 28.707 0 7.8945 0.0389 1.4354 0.0708-14.354 0.0708s-22.248-0.0318-14.354-0.0708zm-10.583-91.543c0.9095-0.05166 2.3978-0.05166 3.3073 0 0.9095 0.05167 0.16536 0.09394-1.6536 0.09394s-2.5632-0.04227-1.6536-0.09394zm25.115-0.0024c6.7193-0.03932 17.792-0.03933 24.606-2.9e-5 6.8141 0.0393 1.3165 0.07147-12.217 0.07148-13.533 1.5e-5 -19.109-0.03214-12.389-0.07145zm43.676 0.0011c1.4916-0.04716 3.9324-0.04716 5.424 0s0.2712 0.08575-2.712 0.08575-4.2036-0.03859-2.712-0.08575zm-56.092 95.513c7.8945-0.0389 20.813-0.0389 28.707 0 7.8945 0.0389 1.4354 0.0708-14.354 0.0708s-22.248-0.0318-14.354-0.0708zm72.949-54.173c-4e-5 -7.4216 0.0339-10.496 0.0753-6.8315 0.0415 3.6642 0.0415 9.7364 8e-5 13.494-0.0414 3.7573-0.0754 0.75933-0.0754-6.6622zm-7e-3 -25.4c-1.5e-4 -3.9291 0.0367-5.5733 0.0818-3.6538 0.0451 1.9195 0.0453 5.1341 2.6e-4 7.1438-0.045 2.0096-0.0819 0.43915-0.0821-3.4899zm-74.368-12.303c0-1.3824 0.0446-1.948 0.0991-1.2568s0.0545 1.8223 0 2.5135-0.0991 0.12568-0.0991-1.2568zm-2e-3 -10.716c-8e-4 -1.3097 0.0439-1.8788 0.0994-1.2648 0.0555 0.61407 0.0562 1.6856 2e-3 2.3813-0.0547 0.69561-0.10009 0.19319-0.10089-1.1165zm68.816 79.11c-1.1e-4 -4.5111 0.036-6.3938 0.0802-4.1837s0.0443 5.901 2.1e-4 8.2021c-0.0441 2.301-0.0803 0.49276-0.0804-4.0184zm-81-76.001c1.5722-0.04686 4.0726-0.04668 5.5562 2.64e-4 1.4837 0.04707 0.19728 0.08541-2.8587 0.0852-3.0559-2.17e-4 -4.2698-0.03873-2.6976-0.08559zm26.027-7.94e-4c6.7193-0.03932 17.792-0.03933 24.606-2.9e-5 6.8141 0.0393 1.3165 0.07147-12.217 0.07148-13.533 1.6e-5 -19.109-0.03214-12.389-0.07145zm45.264 0.0016c1.2006-0.04903 3.1651-0.04903 4.3656 0 1.2005 0.04903 0.21828 0.08914-2.1828 0.08914-2.4011 0-3.3834-0.04011-2.1828-0.08914zm17.462 85.46c1.4916-0.0472 3.9324-0.0472 5.424 0s0.2712 0.0858-2.712 0.0858-4.2036-0.0386-2.712-0.0858zm-84.667-4.7625c1.4916-0.0472 3.9324-0.0472 5.424 0 1.4916 0.0472 0.2712 0.0857-2.712 0.0857-2.9832 0-4.2036-0.0386-2.712-0.0857zm21.048-7e-5c1.4264-0.0477 3.6886-0.0475 5.0271 5.3e-4 1.3385 0.0479 0.17146 0.0869-2.5934 0.0867-2.7649-2.5e-4 -3.86-0.0395-2.4337-0.0871zm-11.899-53.711c13.509-0.0379 35.535-0.0379 48.948 8e-6 13.413 0.0379 2.3602 0.06891-24.561 0.06891-26.921-3e-6 -37.895-0.03101-24.387-0.06891z" fill="#333" stroke-width="17375"/>
   </g>
  </g>
  <path id="review" d="m271.27 49.75-0.39687-1.174-2.0947-4.82e-4c-2.482-9.75e-4 -2.8659-0.06314-3.3348-0.5407-0.16758-0.17069-0.16758-0.17069-0.18539-2.83-0.0207-3.091-0.0399-2.9835 0.58757-3.2805 0.62094-0.2939 0.85474-0.30164 9.0827-0.3009 8.2413 7.5e-4 8.5418 0.0106 9.1498 0.29994 0.62839 0.29906 0.60903 0.19095 0.58792 3.2815-0.0181 2.6593-0.0181 2.6593-0.18574 2.83-0.50683 0.51621-0.7126 0.53983-4.7126 0.54069l-3.4725 4.82e-4 -5.4223 2.348zm2.6069-0.37065 2.3-0.9948 3.2971-9.75e-4c3.9251-0.0014 4.2989-0.03773 4.7886-0.46405 0.15083-0.13129 0.15083-0.13129 0.15083-2.7863 0-3.003 0.0322-2.8227-0.55018-3.0732-0.35475-0.15261-0.35475-0.15261-8.9012-0.15261s-8.5465 0-8.9012 0.15261c-0.58246 0.25057-0.55017 0.0702-0.55017 3.0732 0 2.655 0 2.655 0.15083 2.7863 0.45953 0.40004 0.93624 0.46423 3.4521 0.46483l2.0277 4.83e-4 0.29405 1.0816c0.28375 1.0438-0.29405 1.0816-0.0762 0.9948 0.11982-0.04776 1.2528-0.5345 2.5178-1.0816zm-6.8916-2.8406c0-0.05458 0.29621-0.98277 0.37984-1.1903 0.0177-0.04389-0.23644-0.25388-0.58475-0.48318l-0.61604-0.40555 1.5509-0.0359 0.21903-0.63618c0.12047-0.3499 0.23636-0.63618 0.25755-0.63618 0.0211 0 0.13708 0.28628 0.25755 0.63618l0.21903 0.63618 1.5448 0.0359-0.60849 0.40801c-0.33468 0.22441-0.60851 0.41286-0.60851 0.41879 0 0.0059 0.0905 0.26566 0.2011 0.57717 0.11059 0.31151 0.20109 0.60482 0.20109 0.65179 0 0.04904-0.25685-0.07902-0.60328-0.30079l-0.60328-0.3862-0.60328 0.3862c-0.3318 0.21241-0.60328 0.35822-0.60328 0.32402zm1.9854-0.59525c-0.0221-0.07897-0.0845-0.28085-0.13872-0.44861-0.0987-0.30502-0.0987-0.30502 0.24813-0.54223 0.34681-0.23721 0.34681-0.23721 0.14821-0.27774-0.10922-0.02229-0.32201-0.04392-0.47286-0.04807-0.27427-0.0076-0.27427-0.0076-0.39604-0.39045-0.067-0.2106-0.14023-0.3829-0.16279-0.3829-0.0226 0-0.10073 0.16513-0.17372 0.36695-0.13272 0.36695-0.13272 0.36695-0.62371 0.4214-0.47306 0.05246-0.48531 0.05807-0.33516 0.15343 0.60847 0.38643 0.59213 0.35789 0.45378 0.79294-0.0694 0.2181-0.11244 0.40956-0.0957 0.42547 0.0167 0.01591 0.19743-0.07667 0.4016-0.20573 0.37123-0.23466 0.37123-0.23466 0.75512 0.019 0.45631 0.30152 0.44232 0.29736 0.39189 0.11654zm2.5057 0.59525c0-0.04975 0.23451-0.81 0.37135-1.2039 0.0163-0.04685-0.21793-0.25244-0.54528-0.47863-0.57382-0.39649-0.57382-0.39649-0.31725-0.41186 1.2984-0.07778 1.2023-0.02948 1.4413-0.72374 0.11985-0.34813 0.23525-0.63296 0.25644-0.63296 0.0211 0 0.13658 0.28483 0.25643 0.63296 0.23898 0.69411 0.14836 0.64897 1.4528 0.72374 0.26813 0.01537 0.26813 0.01537-0.28292 0.3854-0.30308 0.20352-0.56314 0.39018-0.57792 0.41481-0.0148 0.02463 0.0617 0.31341 0.16981 0.64174 0.10817 0.32833 0.18001 0.61283 0.15964 0.63222-0.0204 0.01939-0.29416-0.12766-0.60843-0.32677l-0.57139-0.36202-0.60232 0.38558c-0.33127 0.21207-0.60232 0.3576-0.60232 0.32341zm0.83892-0.74787c0.36765-0.2324 0.36765-0.2324 0.74262 0.0046 0.20623 0.13037 0.38778 0.22484 0.40342 0.20995 0.0157-0.01489-0.0321-0.21083-0.10598-0.4354-0.074-0.22458-0.13482-0.41072-0.1353-0.41366-5e-4 -0.0029 0.17104-0.11781 0.38116-0.25527l0.38202-0.24992-0.49584-0.03191c-0.49584-0.03191-0.49584-0.03191-0.62953-0.43076-0.0736-0.21937-0.15225-0.39886-0.17492-0.39886-0.0226 0-0.10139 0.17949-0.17493 0.39886-0.1337 0.39886-0.1337 0.39886-0.62953 0.43076l-0.49584 0.03191 0.38203 0.24992c0.21011 0.13746 0.38202 0.2559 0.38202 0.2632 0 0.0073-0.0407 0.12458-0.0903 0.26062-0.12552 0.34367-0.18703 0.59833-0.14453 0.59833 0.0197 0 0.20126-0.10458 0.40346-0.2324zm3.5851 0.74787c0-0.04975 0.23451-0.81 0.37135-1.2039 0.0163-0.04685-0.21794-0.25244-0.54528-0.47863-0.57382-0.39649-0.57382-0.39649-0.31725-0.41186 1.2984-0.07778 1.2023-0.02948 1.4413-0.72374 0.11985-0.34813 0.23525-0.63296 0.25644-0.63296 0.0211 0 0.13658 0.28483 0.25643 0.63296 0.23898 0.69411 0.14836 0.64897 1.4529 0.72374 0.26812 0.01537 0.26812 0.01537-0.28292 0.3854-0.30309 0.20352-0.56315 0.39018-0.57792 0.41481-0.0148 0.02463 0.0617 0.31341 0.1698 0.64174 0.10817 0.32833 0.18001 0.61283 0.15964 0.63222-0.0204 0.01939-0.29416-0.12766-0.60842-0.32677l-0.5714-0.36202-0.60231 0.38558c-0.33128 0.21207-0.60232 0.3576-0.60232 0.32341zm0.83892-0.74787c0.36764-0.2324 0.36764-0.2324 0.74261 0.0046 0.20624 0.13037 0.38778 0.22484 0.40343 0.20995 0.0157-0.01489-0.0321-0.21083-0.10599-0.4354-0.0739-0.22458-0.13482-0.41072-0.1353-0.41366-5.1e-4 -0.0029 0.17105-0.11781 0.38116-0.25527l0.38202-0.24992-0.49583-0.03191c-0.49584-0.03191-0.49584-0.03191-0.62954-0.43076-0.0736-0.21937-0.15225-0.39886-0.17492-0.39886-0.0227 0-0.10138 0.17949-0.17492 0.39886-0.1337 0.39886-0.1337 0.39886-0.62954 0.43076l-0.49584 0.03191 0.38202 0.24992c0.21012 0.13746 0.38203 0.2559 0.38203 0.2632 0 0.0073-0.0407 0.12458-0.0903 0.26062-0.12552 0.34367-0.18703 0.59833-0.14452 0.59833 0.0197 0 0.20126-0.10458 0.40346-0.2324zm3.5851 0.74787c0-0.04975 0.23451-0.81 0.37135-1.2039 0.0164-0.04685-0.21793-0.25244-0.54528-0.47863-0.57382-0.39649-0.57382-0.39649-0.31725-0.41186 1.2984-0.07778 1.2023-0.02948 1.4413-0.72374 0.11985-0.34813 0.23525-0.63296 0.25644-0.63296 0.0211 0 0.13658 0.28483 0.25643 0.63296 0.23898 0.69411 0.14836 0.64897 1.4528 0.72374 0.26813 0.01537 0.26813 0.01537-0.28292 0.3854-0.30308 0.20352-0.56314 0.39018-0.57792 0.41481-0.0148 0.02463 0.0616 0.31341 0.16981 0.64174 0.10816 0.32833 0.18001 0.61283 0.15964 0.63222-0.0204 0.01939-0.29416-0.12766-0.60843-0.32677l-0.5714-0.36202-0.60231 0.38558c-0.33127 0.21207-0.60232 0.3576-0.60232 0.32341zm0.83892-0.74787c0.36765-0.2324 0.36765-0.2324 0.74262 0.0046 0.20623 0.13037 0.38778 0.22484 0.40342 0.20995 0.0156-0.01489-0.032-0.21083-0.10598-0.4354-0.0739-0.22458-0.13482-0.41072-0.1353-0.41366-5.1e-4 -0.0029 0.17104-0.11781 0.38116-0.25527l0.38202-0.24992-0.49584-0.03191c-0.49584-0.03191-0.49584-0.03191-0.62953-0.43076-0.0736-0.21937-0.15226-0.39886-0.17492-0.39886-0.0227 0-0.10139 0.17949-0.17493 0.39886-0.1337 0.39886-0.1337 0.39886-0.62953 0.43076l-0.49584 0.03191 0.38202 0.24992c0.21012 0.13746 0.38203 0.2559 0.38203 0.2632 0 0.0073-0.0407 0.12458-0.0903 0.26062-0.12552 0.34367-0.18703 0.59833-0.14453 0.59833 0.0197 0 0.20126-0.10458 0.40346-0.2324z" stroke-width=".065404"/>
 </g>
</svg>
