<?xml version="1.0" encoding="UTF-8" standalone="no"?>
<svg
   xmlns:dc="http://purl.org/dc/elements/1.1/"
   xmlns:cc="http://creativecommons.org/ns#"
   xmlns:rdf="http://www.w3.org/1999/02/22-rdf-syntax-ns#"
   xmlns:svg="http://www.w3.org/2000/svg"
   xmlns="http://www.w3.org/2000/svg"
   xmlns:sodipodi="http://sodipodi.sourceforge.net/DTD/sodipodi-0.dtd"
   xmlns:inkscape="http://www.inkscape.org/namespaces/inkscape"
   inkscape:version="1.0 (4035a4fb49, 2020-05-01)"
   sodipodi:docname="msg.svg"
   width="14.861045mm"
   height="13.049547mm"
   viewBox="0 0 14.861045 13.049547"
   version="1.1"
   id="svg1648">
  <sodipodi:namedview
     inkscape:current-layer="svg1648"
     inkscape:window-maximized="1"
     inkscape:window-y="-6"
     inkscape:window-x="-6"
     inkscape:cy="24.660562"
     inkscape:cx="28.083864"
     inkscape:zoom="6.6991769"
     showgrid="false"
     id="namedview20"
     inkscape:window-height="668"
     inkscape:window-width="1280"
     inkscape:pageshadow="2"
     inkscape:pageopacity="0"
     guidetolerance="10"
     gridtolerance="10"
     objecttolerance="10"
     borderopacity="1"
     bordercolor="#666666"
     pagecolor="#ffffff" />
  <defs
     id="defs1642">
    <filter
       style="color-interpolation-filters:sRGB"
       id="filter2259"
       x="-4.0566836e-05"
       width="1.0000811"
       y="-4.6198726e-05"
       height="1.0000924">
      <feGaussianBlur
         stdDeviation="0.0017861237"
         id="feGaussianBlur2261" />
    </filter>
    <filter
       height="1.0002079"
       y="-0.00010394713"
       width="1.0001826"
       x="-9.1275383e-05"
       id="filter854"
       style="color-interpolation-filters:sRGB"
       inkscape:collect="always">
      <feGaussianBlur
         id="feGaussianBlur856"
         stdDeviation="0.0040187782"
         inkscape:collect="always" />
    </filter>
  </defs>
  <metadata
     id="metadata1645">
    <rdf:RDF>
      <cc:Work
         rdf:about="">
        <dc:format>image/svg+xml</dc:format>
        <dc:type
           rdf:resource="http://purl.org/dc/dcmitype/StillImage" />
        <dc:title />
      </cc:Work>
    </rdf:RDF>
  </metadata>
  <g
     id="layer1"
     transform="translate(-118.05757,-151.46927)">
    <g
       id="g18942"
       transform="matrix(0.140625,0,0,0.140625,87.609455,146.67981)"
       style="filter:url(#filter2259)">
      <path
         d="m 238.72585,126.2754 c -0.76484,-0.65729 -0.76484,-0.65729 -0.89713,-6.05173 -0.19933,-8.12829 0.36633,-7.70206 -10.46012,-7.88174 -7.97121,-0.13229 -7.97121,-0.13229 -8.90477,-0.84496 -1.91777,-1.46401 -1.80177,0.34566 -1.80177,-28.109253 0,-27.946236 -0.0736,-26.625177 1.55974,-27.999534 1.36458,-1.148218 2.27766,-1.25154 11.07411,-1.253109 l 8.26823,-0.0015 V 46.08103 c 0,-9.611028 0.11044,-10.059893 2.77812,-11.291108 1.01352,-0.46777 2.68285,-0.488453 39.42292,-0.488453 43.16711,0 39.65932,-0.168947 41.30572,1.989427 0.76303,1.000312 0.76303,1.000312 0.8305,25.494944 0.0759,27.577396 0.24443,25.242843 -1.94211,26.911382 -0.99365,0.758251 -0.99365,0.758251 -10.07669,0.837313 l -9.08304,0.07906 v 9.602761 c 0,9.538804 -0.004,9.610504 -0.61483,10.765424 -1.24835,2.36065 0.11336,2.21009 -21.34559,2.36015 -23.52858,0.16454 -20.11302,-0.72001 -30.11919,7.80015 -8.54614,7.27695 -8.61451,7.31891 -9.9941,6.13332 z m 2.3378,-1.16732 c 0.52137,-0.40019 3.40312,-2.8112 6.40388,-5.35782 6.95889,-5.90569 8.05105,-6.72822 9.8052,-7.38453 2.67103,-0.99936 4.29677,-1.07808 22.30715,-1.08013 19.35816,-0.002 18.58695,0.0633 19.64289,-1.66849 0.80797,-1.32512 0.80885,-51.167539 10e-4,-52.492575 -1.19549,-1.960652 2.34746,-1.791266 -39.29058,-1.878444 -20.52487,-0.04297 -37.95587,-0.003 -38.73556,0.08875 -1.10375,0.129937 -1.63096,0.362395 -2.38125,1.049944 -0.96376,0.883055 -0.96376,0.883055 -1.03376,26.720191 -0.07,25.837134 -0.07,25.837134 0.48388,26.614994 1.07029,1.50309 1.41883,1.56349 9.03184,1.5651 11.28929,0.002 11.37656,0.0677 11.58866,8.67376 0.10799,4.38187 0.20519,5.41394 0.52916,5.61835 0.55746,0.35171 0.59019,0.3424 1.64743,-0.4691 z m -8.22591,-31.640357 c -0.16285,-0.196226 -0.21775,-0.435113 -0.122,-0.530865 0.0957,-0.09575 9.03314,-0.174094 19.86086,-0.174094 18.60687,0 19.68187,0.0254 19.5976,0.463021 -0.0838,0.435234 -1.25789,0.467093 -19.56476,0.530863 -16.078,0.05601 -19.52726,0.0056 -19.7717,-0.288925 z m 0.14159,-10.405044 c -0.87569,-0.875692 -0.65518,-0.883248 25.77088,-0.883248 24.5705,0 25.94383,0.02458 25.85941,0.463021 -0.0841,0.436626 -1.55322,0.466865 -25.77088,0.530468 -14.12494,0.0371 -25.76168,-0.01252 -25.85941,-0.110241 z m 0,-10.583333 c -0.87569,-0.875692 -0.65518,-0.883248 25.77088,-0.883248 24.5705,0 25.94383,0.02458 25.85941,0.46302 -0.0841,0.436626 -1.55322,0.466866 -25.77088,0.530469 -14.12494,0.0371 -25.76168,-0.01251 -25.85941,-0.110241 z m 86.08448,15.484631 c 1.99865,-1.123307 1.87951,0.628745 1.79099,-26.338588 -0.0792,-24.12592 -0.0792,-24.12592 -0.86196,-24.942886 -0.43052,-0.449331 -1.20443,-0.93895 -1.7198,-1.088041 -0.62605,-0.181113 -13.62513,-0.245009 -39.16932,-0.192532 -42.27857,0.08685 -38.81507,-0.06191 -39.98841,1.717619 -0.44926,0.681366 -0.48949,1.408305 -0.49109,8.872534 l -0.002,8.13036 29.45433,0.07172 c 29.45432,0.07172 29.45432,0.07172 30.58014,0.816827 2.19924,1.455521 2.1302,0.866241 2.13681,18.238751 l 0.006,15.279687 h 8.62908 c 8.32343,0 8.66471,-0.02003 9.63517,-0.565454 z M 216.52426,83.899223 c 2e-5,-13.242396 0.0322,-18.620984 0.0716,-11.95242 0.0394,6.668566 0.0393,17.503254 -3e-5,24.077083 -0.0394,6.573834 -0.0716,1.117733 -0.0716,-12.124663 z m 8.93519,-28.640643 c 2.29196,-0.04405 6.04242,-0.04405 8.33438,0 2.29195,0.04405 0.41672,0.08009 -4.16719,0.08009 -4.58391,0 -6.45914,-0.03604 -4.16719,-0.08009 z m 27.00781,-5.3e-4 c 7.97843,-0.0389 20.95624,-0.03889 28.83958,2.2e-5 7.88334,0.03891 1.35553,0.07073 -14.50624,0.07072 -15.86177,-1.1e-5 -22.31178,-0.03184 -14.33334,-0.07074 z m -27.78615,57.15065 c 1.86386,-0.0455 4.84042,-0.0454 6.61458,2.7e-4 1.77416,0.0457 0.24918,0.083 -3.38884,0.0828 -3.63802,-1.6e-4 -5.08961,-0.0375 -3.22574,-0.0831 z m 45.62522,-5e-4 c 4.83857,-0.0404 12.75622,-0.0404 17.59479,0 4.83857,0.0404 0.87974,0.0734 -8.7974,0.0734 -9.67713,0 -13.63596,-0.033 -8.79739,-0.0734 z M 242.94145,92.564409 c 5.35862,-0.04003 14.05018,-0.04001 19.31458,4.2e-5 5.26441,0.04006 0.88009,0.07281 -9.74293,0.07279 -10.62302,-2.4e-5 -14.93026,-0.0328 -9.57165,-0.07283 z m 3.02321,-10.583355 c 7.02138,-0.03921 18.51091,-0.03921 25.53229,0 7.02138,0.03921 1.27662,0.07129 -12.76614,0.07129 -14.04276,0 -19.78753,-0.03208 -12.76615,-0.07129 z m -0.15237,-10.58332 c 6.93758,-0.03923 18.36758,-0.03924 25.4,-2.6e-5 7.03242,0.03922 1.35622,0.07131 -12.61377,0.07133 -13.97001,1.3e-5 -19.72381,-0.03207 -12.78623,-0.0713 z m -8.39595,-24.804761 c 1.3e-4,-4.220104 0.0367,-5.909462 0.0812,-3.754127 0.0445,2.155334 0.0444,5.608147 -2.3e-4,7.672915 -0.0446,2.064772 -0.0811,0.301316 -0.081,-3.918788 z m 84.67644,15.345833 c -2e-5,-12.660312 0.0323,-17.878246 0.0718,-11.595407 0.0395,6.282838 0.0395,16.641276 3e-5,23.01875 -0.0395,6.377474 -0.0718,1.23697 -0.0718,-11.423343 z M 260.64904,35.414355 c 10.44112,-0.03832 27.52658,-0.03832 37.9677,0 10.44112,0.03832 1.89839,0.06968 -18.98385,0.06968 -20.88224,0 -29.42497,-0.03136 -18.98385,-0.06968 z m 40.26946,63.433826 c 0,-5.020469 0.0356,-7.074297 0.0791,-4.564062 0.0435,2.510234 0.0435,6.617891 0,9.128121 -0.0435,2.51024 -0.0791,0.45641 -0.0791,-4.564059 z m 0.005,-25.267708 c -4e-5,-8.149167 0.0335,-11.521136 0.0746,-7.493265 0.0411,4.027871 0.0411,10.695371 7e-5,14.816667 -0.041,4.121295 -0.0746,0.825764 -0.0747,-7.323402 z m -61.93063,46.302087 c 2.7e-4,-2.18282 0.0414,-3.04058 0.0911,-1.90614 0.0497,1.13444 0.0494,2.92037 -7.9e-4,3.96875 -0.0501,1.04838 -0.0908,0.1202 -0.0904,-2.06261 z m 66.76762,-31.551032 c 2.2192,-0.04425 5.8506,-0.04425 8.0698,0 2.21919,0.04425 0.40349,0.08046 -4.0349,0.08046 -4.43839,0 -6.25409,-0.03621 -4.0349,-0.08046 z m -0.5125,1.322776 c 2.37388,-0.04389 6.18388,-0.04381 8.46666,1.94e-4 2.2828,0.044 0.34053,0.07991 -4.31614,0.07981 -4.65666,-1.05e-4 -6.5244,-0.03611 -4.15052,-0.08 z m -67.57803,30.492836 c 2.6e-4,-2.18281 0.0413,-3.04057 0.0911,-1.90614 0.0497,1.13444 0.0494,2.92038 -7.9e-4,3.96875 -0.0501,1.04838 -0.0908,0.1202 -0.0904,-2.06261 z m 61.92627,-21.563542 c 0,-5.311511 0.0353,-7.484401 0.0785,-4.828646 0.0432,2.655755 0.0432,7.001538 0,9.657288 -0.0432,2.65576 -0.0785,0.48287 -0.0785,-4.828642 z m 0.004,-25.003125 c 3e-5,-8.294688 0.0336,-11.649726 0.0745,-7.455641 0.041,4.194085 0.0409,10.980647 -7e-5,15.08125 -0.041,4.100602 -0.0745,0.669078 -0.0745,-7.625609 z M 320.7696,61.409639 c 2e-5,-12.514791 0.0324,-17.595775 0.0719,-11.291075 0.0395,6.304701 0.0395,16.544076 -4e-5,22.754167 -0.0395,6.210091 -0.0719,1.0517 -0.0718,-11.463092 z M 261.15751,34.091445 c 10.28421,-0.03834 27.19109,-0.03835 37.57083,-1.3e-5 10.37974,0.03834 1.96538,0.06971 -18.69858,0.06972 -20.66395,7e-6 -29.15647,-0.03136 -18.87225,-0.0697 z m -43.31027,49.278611 c -2e-5,-13.387917 0.0322,-18.903556 0.0715,-12.256979 0.0393,6.646579 0.0394,17.600329 3e-5,24.341667 -0.0393,6.741336 -0.0715,1.303229 -0.0715,-12.084688 z m 28.36199,-0.06607 c 6.71932,-0.03932 17.79213,-0.03933 24.60625,-3e-5 6.8141,0.0393 1.31647,0.07147 -12.21696,0.07148 -13.53344,1.6e-5 -19.10862,-0.03214 -12.38929,-0.07145 z m 0.17237,-10.583363 c 6.95965,-0.03924 18.27059,-0.03923 25.13541,2.4e-5 6.86483,0.03926 1.17057,0.07137 -12.65391,0.07135 -13.82448,-1.6e-5 -19.44116,-0.03213 -12.4815,-0.07138 z m -7.64234,-26.392238 c 1.2e-4,-4.220104 0.0367,-5.909461 0.0812,-3.754127 0.0445,2.155335 0.0444,5.608147 -2.3e-4,7.672916 -0.0446,2.064771 -0.0811,0.301315 -0.081,-3.918789 z"
         style="fill:#333333;fill-opacity:1;stroke-width:0.264583;filter:url(#filter854)"
         id="path18944" />
    </g>
  </g>
</svg>
