<svg version="1.1" xmlns="http://www.w3.org/2000/svg" height="0" style="display:inherit;" preserveAspectRatio="xMidYMid meet">

	<defs id="svg_definations">

	    <filter
	       y="-0.75"
	       x="-0.75"
	       width="2"
	       height="2"
	       id="sofGlow">
	      <!-- Thicken out the original shape -->
	      <feMorphology
	         id="feMorphology5"
	         result="thicken"
	         in="SourceAlpha"
	         radius="1"
	         operator="dilate" />
	      <!-- Use a gaussian blur to create the soft blurriness of the glow -->
	      <feGaussianBlur
	         id="feGaussianBlur7"
	         result="blurred"
	         stdDeviation="2"
	         in="thicken" />
	      <!-- Change the colour -->
	      <feFlood
	         id="feFlood9"
	         result="glowColor"
	         flood-color="lightgrey" />
	      <!-- Color in the glows -->
	      <feComposite
	         id="feComposite11"
	         result="softGlow_colored"
	         operator="in"
	         in2="blurred"
	         in="glowColor" />
	      <!--  Layer the effects together -->
	      <feMerge
	         id="feMerge13">
	        <feMergeNode
	           id="feMergeNode15"
	           in="softGlow_colored" />
	        <feMergeNode
	           id="feMergeNode17"
	           in="SourceGraphic" />
	      </feMerge>
	    </filter>

      <linearGradient id="grad1" x1="12000" y1="12000" x2="0" spreadMethod="repeat" >
      <stop offset=".25" stop-color="#000" stop-opacity="0"/>
      <stop offset=".25" stop-color="#fff" stop-opacity=".2"/>
      <stop offset=".5" stop-color="#fff" stop-opacity=".2"/>
      <stop offset=".5" stop-color="#000" stop-opacity="0"/>
      <stop offset=".75" stop-color="#000" stop-opacity="0"/>
      <stop offset=".75" stop-color="#fff" stop-opacity=".2"/>
      </linearGradient>
      <linearGradient id="grad2" y1="12000"  spreadMethod="repeat">
      <stop offset=".25" stop-color="#000" stop-opacity="0"/>
      <stop offset=".25" stop-color="#fff" stop-opacity=".3"/>
      <stop offset=".5" stop-color="#fff" stop-opacity=".3"/>
      <stop offset=".5" stop-color="#000" stop-opacity="0"/>
      <stop offset=".75" stop-color="#000" stop-opacity="0"/>
      <stop offset=".75" stop-color="#fff" stop-opacity=".3"/>
      </linearGradient>
      <pattern id="pattern-cross" x="0" y="0" width="12000" height="6000" patternUnits="userSpaceOnUse">
      <rect id="rect-gx" x="0" y ="0" width="12000" height ="6000" fill="rgb(89, 218, 251)"/>

      <rect id="rect-g2" x="0" y ="0" width="12000" height ="6000" fill="url(#grad1)"/>
      <rect id="rect-g3" x="0" y ="0" width="12000" height ="6000" fill="url(#grad2)"/>

    </pattern>

  <!--   <pattern id="pattern-cubes" x="0" y="100%" patternUnits="userSpaceOnUse" width="50%" height="100%" viewBox="0 0 10 16">
       <g id="cube">
       <path class="left-shade" d="M0 0l5 3v5l-5 -3z"/>
       <path class="right-shade" d="M10 0l-5 3v5l5 -3"/>
     </g>
     <use x="5" y="8" xlink:href="#cube" />
     <use x="-5" y="8" xlink:href="#cube" />
   </pattern> -->
	 <linearGradient id="bluetoorange">
      <stop offset="90%" stop-color="#6eaec4" />
      <stop offset="10%" stop-color="#e05915" />
    </linearGradient>

		<pattern id="pattern-check-orange"
						x="0" y="0" width="4800" height="4800"
						patternUnits="userSpaceOnUse" >
		 <rect fill="#f4ae8a" x="0" width="2400" height="2400" y="0"/>
		 <rect fill="#f29d73" x="2400" width="2400" height="2400" y="0"/>
		 <rect fill="#ee7d44" x="2400" width="2400" height="2400" y="2400"/>
		 <rect fill="#e05915" x="0" width="2400" height="2400" y="2400"/>
	 </pattern>

	 <pattern id="pattern-check-darkpurple"
					 x="0" y="0" width="4800" height="4800"
					 patternUnits="userSpaceOnUse" >
		<rect fill="#8d3bc4" x="0" width="2400" height="2400" y="0"/>
		<rect fill="#632989" x="2400" width="2400" height="2400" y="0"/>
		<rect fill="#431c5d" x="2400" width="2400" height="2400" y="2400"/>
		<rect fill="#2a123b" x="0" width="2400" height="2400" y="2400"/>
	</pattern>

	 <pattern id="pattern-check-greyblue"
           x="0" y="0" width="4800" height="4800"
           patternUnits="userSpaceOnUse" >
    <rect fill="#a4cdda" x="0" width="2400" height="2400" y="0"/>
    <rect fill="#80b8cb" x="2400" width="2400" height="2400" y="0"/>
    <rect fill="#6eaec4" x="2400" width="2400" height="2400" y="2400"/>
    <rect fill="#438ba3" x="0" width="2400" height="2400" y="2400"/>
  </pattern>

   <pattern id="pattern-check-blue"
           x="0" y="0" width="4800" height="4800"
           patternUnits="userSpaceOnUse" >
    <rect fill="#00c9fc" x="0" width="2400" height="2400" y="0"/>
    <rect fill="#7ae1fb" x="2400" width="2400" height="2400" y="0"/>
    <rect fill="#00c9fc" x="2400" width="2400" height="2400" y="2400"/>
    <rect fill="#7ae1fb" x="0" width="2400" height="2400" y="2400"/>
  </pattern>

  <pattern id="pattern-check-black"
           x="0" y="0" width="1200" height="1200"
           patternUnits="userSpaceOnUse" >
    <rect fill="black" x="0" width="600" height="600" y="0"/>
    <rect fill="gray" x="600" width="600" height="600" y="0"/>
    <rect fill="black" x="600" width="600" height="600" y="600"/>
    <rect fill="gray" x="0" width="600" height="600" y="600"/>
  </pattern>


	</defs>


	<symbol id="logo_full" viewBox="0 0 6751.2919 2821.5974">
		<title>Kniew Logo with name</title>

       <g
	     transform="matrix(0,0.1,0.1,0,-356.95278,724.83672)">
	    <path
	       id="logo_full_w"
	       d="m 16489.16,53382.108 c -852.931,38.205 -1686.597,245.695 -2536.59,312.739 -478.792,93.056 -914.503,321.647 -1355.224,520.533 -946.07,452.286 -1764.111,1118.117 -2598.0064,1743.722 -266.1624,198.23 -556.042,367.507 -795.9629,598.915 -242.6511,254.722 -374.7424,626.471 -299.1465,975.472 28.4187,138.604 109.6089,277.273 247.4844,329.533 163.464,69.91 359.1965,34.311 498.3416,-72.613 280.3449,-181.281 468.6738,-482.691 776.6878,-624.511 130.519,-57.645 281.879,-31.856 409.634,-97.772 107.52,-50.597 200.786,-125.648 304.408,-183.292 712.345,-433.396 1422.549,-872.424 2162.554,-1257.585 595.346,-253.891 1251.183,-274.645 1885.265,-345.754 732.944,-86.972 1463.15,-260.402 2205.748,-211.804 268.069,15.151 538.467,62.326 781.561,180.877 411.139,193.469 756.887,530.513 947.603,944.127 135.464,318.832 147.232,671.292 154.091,1012.625 7.072,575.101 -94.448,1165.367 -384.946,1668.437 -154.674,263.692 -359.486,509.787 -630.895,658.497 -71.109,34.779 -146.714,77.456 -228.781,62.322 -104.763,-12.389 -208.558,-48.842 -315.072,-30.876 -363.502,18.793 -721.109,212.938 -909.797,528.48 -139.445,226.153 -210.259,505.805 -150.703,768.547 64.937,235.19 271.466,403.125 489.639,493.041 221.805,94.556 465.762,102.352 698.698,152.246 159.387,29.245 283.499,141.48 406.267,239.034 80.214,68.22 167.728,126.786 258.112,180.374 181.606,121.161 337.621,286.533 424.904,488.52 186.804,390.734 186.27,857.226 29.496,1257.777 -211.638,667.133 -489.039,1323.97 -916.368,1883.592 -236.368,313.8 -509.403,603.275 -824.254,838.937 -59.691,14.583 -91.203,-52.979 -120.224,-92.513 -136.88,-198.594 -294.65,-399.77 -519.343,-502.536 -187.382,-79.23 -395.921,-55.369 -593.103,-40.522 -151.759,12.215 -303.952,31.596 -448.507,81.638 -323.056,104.305 -613.345,316.526 -794.928,605.212 -250.542,382.865 -370.116,829.818 -560.28,1242.196 -126.084,280.334 -274.545,560.294 -501.824,772.289 -177.014,138.469 -410.26,154.911 -609.946,245.764 -83.938,37.089 -187.352,69.596 -271.94,15.88 -130.499,-79.422 -136.986,-247.176 -164.102,-381.367 -25.963,-181.894 -65.718,-361.294 -96.393,-542.401 -89.663,-492.992 -199.043,-988.126 -411.988,-1444.518 -267.294,-608.857 -637.858,-1183.047 -1140.756,-1623.724 -245.374,-203.493 -575.804,-324.52 -895.321,-266.416 -330.4544,70.353 -588.8131,347.49 -690.0386,662.637 -175.2468,511.571 -194.3665,1062.253 -146.7167,1596.66 94.6002,944.587 510.5871,1868.891 1210.6083,2518.739 323.333,291.149 755.871,437.022 1184.854,469.41 61.001,5.775 148.347,0.07 174.955,69.262 24.735,87.907 35.845,183.248 93.059,257.85 205.109,376.988 495.495,719.93 874.63,929.799 222.207,117.2 491.92,149.531 731.199,66.537 257.091,-81.847 472.076,-274.275 595.245,-512.804 250.601,-419.84 366.762,-911.261 665.349,-1303.856 140.337,-183.733 341.31,-307.535 546.21,-407.602 243.423,-125.555 488.369,-249.388 718.263,-398.913 1158.807,-704.784 2168.526,-1640.738 3005.437,-2705.111 332.752,-403 692.648,-795.526 917.047,-1273.117 401.888,-845.81 473.809,-1849.324 171.408,-2737.917 -103.609,-302.964 -271.371,-582.334 -485.068,-820.396 -99.267,-114.461 -211.229,-217.827 -317.062,-325.305 -76.148,-148.171 -30.149,-325.931 49.944,-462.398 167.869,-304.18 464.235,-509.815 640.688,-808.108 209.888,-332.96 340.672,-707.577 458.865,-1080.775 219.014,-743.815 272.227,-1546.969 84.183,-2303.337 -73.128,-283.385 -214.785,-548.999 -413.977,-763.883 -349.634,-395.155 -806.425,-671.603 -1255.915,-937.968 -286.381,-167.199 -573.714,-332.985 -861.994,-496.766 -480.888,-238.015 -1024.546,-323.748 -1557.266,-315.76 z m -5934.43,12587.104 c 494.338,30.013 910.82,451.693 994.095,930.27 81.695,500.271 197.233,1006.068 139.567,1515.782 -10.369,109.994 -44.017,239.299 -154.038,289.221 -106.723,46.283 -227.742,27.492 -338.484,7.735 -234.446,-47.51 -445.241,-179.525 -607.401,-353.177 -183.847,-193.638 -326.137,-424.751 -431.957,-669.179 -166.4711,-400.424 -219.169,-856.204 -106.807,-1278.088 65.573,-206.795 229.727,-401.161 452.032,-438.677 17.526,-2.684 35.264,-3.969 52.993,-3.887 z m 5751.662,824.719 c 44.013,50.541 -0.02,117.243 -33.576,160.06 -187.878,306.724 -410.141,608.616 -723.901,796.345 -44.453,26.114 -103.829,53.027 -153.102,30.657 6.68,-69.381 71.226,-111.813 97.276,-173.032 190.895,-286.029 391.635,-579.577 680.514,-775.55 40.102,-23.51 85.744,-40.04 132.789,-38.48 z m -3056.683,2755.285 c 82.688,-8.006 127.173,93.367 101.79,161.953 -68.001,127.371 -134.124,267.527 -260.738,347.431 -60.474,43.119 -147.171,55.769 -209.06,8.34 -90.674,-61.051 -128.784,-192.616 -71.465,-288.729 65.125,-146.228 228.48,-223.126 382.538,-226.414 18.938,-1.583 37.921,-2.743 56.935,-2.581 z" />
	    <path
	       id="logo_full_e"
	       d="m 15856.306,40462.11 c -760.847,147.149 -1431.499,564.77 -2063.149,994.465 -540.802,368.075 -1032.217,802.441 -1496.809,1261.654 -403.586,398.311 -799.696,805.089 -1182.206,1223.388 -781.337,1001.79 -1179.2933,2226.99 -1586.2358,3413.06 -563.5351,1735.058 -949.3717,3558.742 -847.5099,5391.659 52.9728,592.198 190.7089,1202.53 550.7508,1687.835 252.9309,155.177 560.6998,60.267 822.2349,-19.335 856.252,-292.1 1516.451,-1015.554 1848.437,-1843.762 860.927,-1959.016 1039.2,-4114.814 1361.345,-6205.786 100.685,-680.675 239.344,-1359.527 487.199,-2003.428 105.592,-269.861 218.061,-538.238 353.687,-794.383 117.102,-210.263 296.391,-388.782 521.988,-478.601 660.243,-368.702 1288.592,-845.762 2049.208,-983.981 738.992,-155.962 1567.649,-83.27 2193.158,370.14 541.688,421.639 793.677,1096.006 953.006,1741.306 320.848,1361.92 137.848,2781.947 -173.003,4127.67 -228.363,976.908 -548.682,1930.879 -749.98,2914.196 -35.511,224.612 -71.583,470.839 24.916,684.375 144.075,177.089 437.023,102.68 541.975,-79.997 156.048,-181.247 312.633,-362.57 483.006,-530.225 289.617,-354.794 354.483,-821.747 466.37,-1251.36 401.735,-1732.181 449.449,-3529.779 300.199,-5296.209 -52.743,-738.446 -266.852,-1462.113 -601.238,-2121.391 -322.388,-625.853 -762.619,-1200.047 -1321.11,-1632.642 -564.717,-403.341 -1289.687,-509.127 -1967.474,-439.094 -328.805,11.034 -642.342,-117.854 -968.765,-129.554 z m -3922.25,6001.672 c 127.228,1542.162 -273.141,3095.559 -988.54,4456.56 -281.095,606.97 -449.191,1283.419 -894.938,1800.077 -215.0194,124.506 -481.0763,-172.034 -358.6644,-378.665 232.7106,-1398.434 730.0444,-2733.843 1243.1714,-4049.394 277.424,-637.453 613.428,-1248.913 995.758,-1829.363 l 3.213,0.785 0,0 z m 8095.28,4884.791 0.537,-1.689 -0.537,1.689 z"
	        />
	    <path
	       id="logo_full_i_dot"
	       d="m 7624.3504,41413.363 c -411.1236,-123.09 -644.378,-631.942 -472.8344,-1042.169 58.8795,-363.886 272.2077,-736.541 631.1409,-828.939 381.2279,17.444 610.3067,459.703 628.5526,820.646 15.1858,458.826 -278.1983,958.097 -723.206,1054.288 l -63.6531,-3.826 z"
	        />
	    <path
	       id="logo_full_i"
	       d="m 16427.744,36728.165 c -1240.172,-3.79 -2426.795,410.244 -3588.361,800.041 -820.64,280.469 -1726.872,264.628 -2508.792,665.723 -471.1981,295.24 -1037.0555,464.277 -1410.5842,896.614 -330.2947,458.23 -218.1256,1168.381 230.966,1507.313 241.7318,143.938 546.8483,23.471 738.6266,-150.617 282.3676,-203.174 613.8646,-331.384 946.6446,-427.923 558.684,-161.286 1141.543,-194.502 1715.97,-262.342 1141.445,-151.477 2252.623,-461.903 3374.894,-709.835 715.262,-158.864 1457.329,-219.588 2185.447,-119.092 399.767,59.147 803.981,138.838 1171.48,312.6 304.882,143.457 529.93,420.102 644.501,733.389 92.241,220.81 189.78,473.213 415.35,589.422 152.156,-58.248 140.55,-247.394 160.175,-380.684 126.826,-870.182 -221.678,-1761.752 -809.308,-2398.879 -351.254,-403.993 -826.528,-715.354 -1359.767,-804.699 -624.995,-146.531 -1263.589,-253.557 -1907.242,-251.031 z"
	        />
	    <path
	       id="logo_full_n"
	       d="m 11330.066,26623.776 c -258.665,42.318 -475.389,239.474 -592.524,478.332 -52.216,97.417 -94.191,200.251 -137.219,302.308 -284.099,-274.626 -599.978,-528.294 -969.4843,-661.928 -339.6989,-90.659 -702.5205,-4.843 -1005.8802,166.53 -366.6564,209.316 -694.3478,493.382 -959.2282,830.913 -172.0477,244.47 -255.9908,541.972 -306.5121,837.174 -67.0081,329.837 -133.2071,663.049 -137.441,1001.47 7.6954,394.279 140.0926,774.629 323.2888,1115.43 120.6736,229.683 268.2957,451.403 470.2599,610.726 279.5698,169.795 622.2397,183.798 932.148,113.03 416.8295,-97.32 782.907,-378.696 1024.4276,-743.068 255.4125,-315.497 503.8105,-641.82 688.7445,-1008.824 76.211,-61.7 191.45,-63.304 246.615,-154.137 137.56,-180.694 178.655,-419.173 176.64,-644.792 1.854,-259.287 -28.538,-526.323 49.639,-777.539 86.545,-184.591 360.536,-223.958 490.936,-69.698 125.74,140.156 162.008,335.938 193.122,518.568 76.107,371.497 233.984,735.415 499.883,1000.619 197.288,191.955 500.533,271.887 755.04,166.029 186.355,-74.816 347.305,-220.146 550.595,-245.802 33.675,-1.838 77.47,-19.685 105.198,-4.324 -542.656,421.402 -1033.733,915.161 -1609.16,1289.969 -667.603,472.264 -1343.65,938.053 -1947.49,1499.054 -565.4786,504.417 -1102.9165,1053.766 -1526.1985,1695.799 -231.4776,378.797 -403.5238,808.634 -433.3232,1260.807 -28.6436,481.098 244.1169,957.948 650.8533,1178.768 398.2145,237.719 873.4562,305.624 1324.7694,249.648 546.202,-64.753 1056.361,-292.91 1587.538,-426.289 910.222,-227.256 1826.044,-434.903 2722.421,-718.27 427.497,-124.697 867.661,-190.45 1303.383,-274.757 235.084,-44.879 472.308,-77.155 710.772,-93.965 292.544,-23.279 586.094,-25.435 878.969,-41.5 387.786,-23.845 778.584,-72.231 1166.055,-18.329 168.329,25.809 338.786,70.511 483.911,166.195 130.088,113.527 167.954,296.785 272.772,430.849 66.467,90.076 171.018,161.76 283.983,147.184 153.998,-14.893 287.347,-124.03 369.42,-256.344 78.335,-132.719 92.291,-306.056 27.434,-447.754 -78.45,-202.451 -215.139,-370.994 -339.983,-543.308 -242.346,-306.89 -569.765,-552.984 -945.091,-641.601 -358.23,-89.896 -729.402,-81.714 -1095.24,-81.342 -937.805,16.392 -1865.809,172.302 -2798.581,258.453 -547.593,59.354 -1080.736,208.991 -1619.984,317.892 -381.342,69.25 -762.176,145.681 -1134.753,256.395 -466.739,116.446 -932.204,239.355 -1391.968,383.23 -360.142,101.246 -719.8418,208.274 -1088.0939,271.86 -92.1186,8.561 -198.5467,2.353 -268.7943,-67.454 4.1859,-29.392 37.2458,-41.633 48.8724,-67.878 93.9828,-121.318 178.56,-251.791 290.176,-356.897 234.3489,-236.306 505.7148,-426.591 757.4908,-641.183 189.772,-154.051 389.702,-292.783 595.597,-421.656 431.998,-301.817 798.687,-689.835 1183.65,-1051.398 274.698,-260.271 561.128,-509.035 875.414,-715.757 365.122,-252.069 740.505,-496.85 1050.792,-823.013 339.924,-342.594 642.229,-724.571 996.689,-1051.669 245.096,-237.944 499.028,-466.357 736.437,-712.681 56.724,-98.479 40.408,-218.636 46.757,-326.892 58.349,-52.615 139.298,-23.134 208.472,-31.43 854.859,-8.835 1692.227,-256.779 2548.882,-228.869 310.529,14.275 621.996,14.872 931.969,-11.274 187.03,-8.04 381.329,24.28 561.468,-43.73 121.032,-44.555 224.261,-137.661 282.021,-257.669 85.341,-167.054 89.106,-389.691 -26.756,-542.455 -109.331,-145.896 -287.274,-212.159 -458.325,-232.411 -311.755,-43.432 -632.951,11.421 -939.281,-77.929 -513.074,-112.941 -1038.712,-163.418 -1562.872,-152.772 -327.754,8.039 -653.706,50.095 -976.904,105.68 -355.695,57.901 -713.635,116.704 -1074.757,109.691 -350.587,2.302 -704.858,7.563 -1047.874,91.993 -503.169,110.495 -977.667,341.624 -1399.467,646.396 -111.917,69.861 -253.278,119.039 -380.536,65.519 -146.389,-59.831 -235.958,-216.002 -262.596,-372.269 -67.582,-268.258 -125.999,-541.214 -237.043,-794.615 -102.227,-244.343 -243.536,-481.59 -454.165,-638.886 -81.269,-56.491 -176.935,-96.582 -275.98,-92.153 z M 9133.8079,27820.2 c 228.9565,-2.435 467.5673,1.522 678.833,105.498 78.8541,35.104 154.6892,77.702 225.8521,127.649 -166.2407,266.726 -223.532,584.803 -291.8365,889.711 -59.7903,293.422 -126.99,596.678 -297.6723,844.27 -268.9528,386.179 -695.9065,657.69 -1154.3152,697.56 -208.207,-1.019 -394.5938,-161.163 -466.2472,-360.335 -97.7304,-249.856 -71.0393,-536.639 27.1255,-781.662 143.0217,-417.18 293.3758,-842.292 557.8316,-1194.638 170.006,-224.242 450.8167,-337.056 720.429,-328.053 z" />
	    <path
	       id="logo_full_k"
	       d="m 12656.113,18101.825 c -634.585,117.514 -1165.847,508.924 -1683.663,869.743 -1302.9168,975.09 -2340.7036,2242.846 -3537.7657,3335.867 -1464.5502,1393.276 -2994.7842,2774.022 -4038.5755,4527.899 -301.8454,477.64 -422.4521,1054.478 -383.802,1614.886 7.3569,397.118 11.6422,822.221 222.6397,1172.657 199.6781,216.657 533.1006,228.095 800.7441,156.232 579.683,-152.914 1023.3114,-635.6 1240.274,-1180.766 74.4217,-185.974 133.8231,-378.26 239.5835,-550.109 446.9971,-803.83 1132.4265,-1431.377 1729.0355,-2119.755 736.8214,-814.838 1432.0716,-1668.748 2062.7264,-2568.259 515.4803,-492.386 1146.36,-856.09 1610.349,-1403.57 556.581,-536.853 1144.858,-1081.433 1880.303,-1358.354 444.26,-119.291 906.78,48.303 1284.894,279.438 1406.268,605.22 2902.841,998.266 4259.857,1719.984 305.355,163.221 612.32,342.336 852.353,594.703 271.05,429.587 75.708,1092.008 -411.292,1268.147 -277.622,106.248 -620.872,86.82 -837.827,318.72 -380.117,458.21 -513.103,1143.561 -240.607,1686.587 294.531,485.692 932.476,687.017 1468.887,544.462 780.121,-162.319 1401.19,-822.269 1598.6,-1582.908 262.417,-847.501 260.412,-1777.175 -10.468,-2622.11 -233.03,-682.49 -608.413,-1314.77 -1081.241,-1857.978 -664.01,-652.542 -1579.053,-925.639 -2425.06,-1257.041 -1210.441,-457.172 -2377.529,-1034.617 -3627.224,-1383.256 -314.763,-85.617 -634.186,-167.944 -957.544,-207.89 -5.059,0.89 -10.118,1.781 -15.177,2.671 z"
	        />
	    <path
	       id="logo_full_head" fill="var(--color-head)"
	       d="m -1018.5815,9706.1946 c -990.4886,102.5521 -1774.7086,669.4604 -2690.6756,946.9124 -403.2816,144.38 -675.6405,448.949 -899.2614,750.842 -203.1657,283.191 -416.7292,561.005 -634.8461,836.359 -412.0432,523.522 -818.4126,1053.052 -1135.8382,1621.74 -562.176,976.727 -903.7275,2056.456 -866.3849,3144.444 16.0942,1318.272 358.8038,2632.654 992.5728,3840.444 410.247,664.464 1151.1965,1115.972 1830.5735,1577.648 521.0295,344.659 1074.3627,692.109 1733.7877,822.971 403.4396,80.089 828.6986,45.987 1226.0561,-41.876 623.97166,-143.464 1188.81356,-427.036 1692.93766,-759.556 955.84734,-650.073 1577.93204,-1593.113 1869.91204,-2582.156 181.7986,-556.21 270.3463,-1130.703 304.0888,-1705.636 39.3663,-663.467 20.2331,-1328.001 14.4952,-1991.885 -18.1325,-434.017 -110.3046,-866.082 -272.7424,-1278.442 -1.3164,-211.704 182.3389,-385.186 382.7773,-496.883 157.2701,-85.405 324.7024,-158.529 497.4852,-219.652 490.5134,-165.584 1089.0295,-167.738 1537.4614,86.519 273.4858,141.293 696.1723,1.047 752.0438,-268.882 54.9355,-194.105 -114.9126,-382.583 -323.9125,-454.685 -221.8066,-99.399 -422.2366,-230.082 -592.2353,-384.625 -275.7412,-219.911 -581.2182,-412.819 -893.8221,-593.961 -326.9637,-316.762 -344.8752,-774.309 -674.9006,-1089.384 -159.4623,-146.492 -362.5886,-255.748 -581.2614,-331.152 -299.6982,-109.096 -637.5705,-200.214 -837.4654,-430.776 -156.2348,-179.634 -275.7214,-400.87 -526.49219,-504.088 C 616.71456,10070.647 304.83536,10024.322 27.151056,9910.1479 -305.65164,9798.7511 -655.45044,9701.2315 -1018.5815,9706.1946 Z m -1060.2296,2825.4774 c 97.2123,96.352 54.1285,235.271 -28.1262,327.454 -101.6814,120.8 -246.2246,210.378 -354.0352,327.262 -568.3257,567.329 -842.1014,1285.66 -1081.8234,1984.488 -187.4281,565.935 -252.8007,1152.186 -343.5899,1732.404 -152.0835,881.236 -398.62,1767.229 -918.6024,2552.878 -83.3984,120.092 -204.0043,247.792 -378.657,268.575 -133.1431,-62.503 -152.483,-204.961 -121.6442,-317.902 30.0003,-119.148 80.4468,-234.106 99.2306,-355.36 172.7152,-798.313 190.794,-1624.483 513.836,-2396.734 220.598,-464.937 399.0495,-942.485 585.6082,-1417.347 139.8649,-348.592 280.3948,-698.399 465.6837,-1032.42 350.6315,-604.793 767.1253,-1210.823 1413.693,-1630.329 40.9084,-28.091 95.0151,-45.386 148.4268,-42.969 z m -2602.1348,1115.769 c 5.7055,31.098 -21.0006,69.51 -27.0245,103.129 -189.6547,568.745 -552.7036,1082.366 -806.6305,1630.047 148.8344,-528.725 251.119,-1090.389 636.1222,-1544.216 60.5537,-65.585 117.3456,-137.989 195.9663,-188.818 l 1.495,-0.144 0.072,0 z m 5446.97186,182.176 c 103.95165,59.381 83.223,180.584 28.4895,260.261 -81.3395,122.587 -204.5242,221.087 -302.212,334.407 -668.1221,719.006 -1233.1228,1505.492 -1668.78306,2339.185 -321.29,629.427 -569.8151,1282.02 -859.4021,1921.551 -193.4314,448.427 -377.4847,917.613 -760.2775,1283.056 -60.554,51.448 -114.3425,112.492 -189.2102,149.638 -58.5254,15.299 -79.3047,-48.757 -60.0893,-84.345 33.552,-125.637 118.7128,-235.939 170.3,-356.363 381.4847,-704.587 923.7296,-1354.884 1152.4586,-2112.227 88.7532,-246.887 193.3575,-489.973 293.2193,-733.985 253.047,-601.949 526.34526,-1199.731 866.19846,-1771.874 287.4999,-456.397 647.150896,-903.912 1172.9097,-1191.683 44.9143,-25.789 101.8643,-39.342 156.3986,-37.621 z m -2414.56626,793.303 c -517.0112,888.074 -825.4698,1844.771 -1159.0843,2787.853 -9.896,-371.442 143.42,-725.979 250.8574,-1081.465 252.5677,-679.145 627.5876,-1321.343 1035.2328,-1944.276 -42.3353,79.295 -84.6706,158.592 -127.0059,237.888 z m 2759.7583,1138.294 c 72.4382,565.751 294.6232,1123.883 223.7024,1698.037 -36.8087,252.48 -120.9867,498.277 -202.4517,742.806 -151.26009,425.882 -333.07084,844.43 -542.02404,1253.017 -399.7939,764.817 -928.6816,1499.507 -1673.06406,2066.968 -421.1059,272.718 -949.2876,444.461 -1486.7635,437.259 536.1168,-529.145 768.5509,-1210.382 1214.339,-1786.508 138.09,-175.278 240.1252,-368.317 346.0367,-557.996 319.42406,-593.829 539.98826,-1219.289 786.90086,-1835.229 352.3991,-709.954 743.4677,-1421.547 1333.32434,-2018.354 z m -6864.0857,277.241 c -163.3958,599.191 -25.5384,1220.909 -159.8691,1822.785 -19.7219,39.871 -38.4445,104.238 -98.7711,108.547 -43.5646,-22.957 -30.5883,-78.506 -46.6934,-115.875 -130.7464,-614.603 56.072,-1237.82 302.1103,-1815.493 7.5362,-16.754 11.1933,-29.648 3.2233,0.03 z" />
	    <path
	       id="logo_full_body" fill="var(--color-body)"
	       d="m 13961.771,9049.9023 c -969.061,6.6348 -1970.468,-43.7602 -2895.221,299.162 -711.96,249.8188 -1261.6172,830.4497 -1606.6919,1487.1867 -177.8876,292.863 -482.3049,497.711 -816.9245,565.416 -296.0837,76.911 -624.4895,152.285 -822.6408,406.87 -398.3957,444.494 -463.7155,1188.139 -71.4237,1656.815 146.3614,149.876 378.9886,123.901 557.2877,54.332 203.6917,-55.94 430.1278,-65.766 622.315,33.071 562.4143,157.171 1176.2702,-99.089 1545.9052,-531.546 333.782,-369.748 589.467,-837.986 1049.016,-1071.009 490.037,-258.34 1060.799,-202.296 1594.761,-194.168 581.729,14.117 1172.742,-21.244 1729.654,-201.99 643.137,-161.419 1274.245,-373.574 1928.378,-489.013 8.774,274.767 -219.506,472.513 -420.013,623.742 -645.847,463.766 -1419.378,706.337 -2068.754,1164.68 -1009.156,621.867 -1879.332,1434.05 -2820.999,2147.696 -1222.427,876.093 -2501.3453,1684.601 -3613.0993,2704.318 -718.9076,599.47 -1518.7542,1155.227 -2446.1555,1363.788 -443.3697,88.867 -886.4159,204.013 -1341.4132,207.837 101.3652,-935.952 345.9254,-1863.77 284.4766,-2811.687 -22.644,-365.792 -83.399,-732.289 -203.5379,-1078.818 -137.6743,-318.378 -514.6067,-531.52 -856.1529,-426.586 -299.5245,74.944 -524.1061,344.954 -577.0716,644.487 -147.2471,522.423 -66.8893,1069.705 -86.2041,1603.72 11.4095,1199.03 -153.6254,2389.208 -248.6294,3582.118 -30.5207,499.762 -35.0382,1028.141 186.9845,1489.229 107.3574,192.43 355.0145,322.823 568.1934,225.519 224.9556,-79.426 345.4058,-300.47 462.7682,-491.304 500.7048,-637.622 1358.199,-940.313 2152.8746,-831.308 540.8743,28.464 1110.5509,9.484 1599.6268,-250.148 695.8587,-319.07 1238.5071,-881.804 1722.0639,-1460.662 844.9778,-866.498 1953.1539,-1395.081 2899.7599,-2133.051 815.05,-618.406 1643.522,-1221.116 2513.542,-1760.453 772.95,-515.147 1496.441,-1108.556 2125.472,-1793.352 1032.544,-1025.075 2130.163,-1981.223 3216.372,-2948.12 286.66,-283.928 579.601,-610.684 643.665,-1023.7284 16.741,-301.0553 -245.072,-607.899 -560.213,-567.0296 -406.232,0.5861 -802.839,134.5956 -1210.629,100.5633 -1585.936,34.1641 -3152.618,-304.5642 -4737.342,-296.577 z" />
	    <path
	       id="logo_full_ink" fill="var(--color-ink)"
	       d="m 20068.472,3569.5278 c -264.151,24.5761 -434.919,301.0776 -425.383,550.1859 -93.705,245.5585 -285.485,476.3321 -242.306,754.7869 -0.116,210.2472 133.942,397.1435 131.376,605.5116 -42.782,271.6638 74.622,563.996 -66.166,819.1328 -116.909,292.4011 -176.114,632.4251 -42.998,930.1524 63.719,138.666 144.42,278.3347 130.903,436.9599 6.763,220.617 44.017,446.8365 166.219,635.1316 62.273,114.6838 65.143,246.6425 53.487,372.7302 13.383,305.9266 57.889,614.8367 162.305,903.496 66.232,162.4114 199.726,347.7801 395.797,335.1842 213.362,-18.0026 357.077,-228.914 363.431,-431.3863 35.231,-250.6608 22.203,-511.1667 121.158,-749.0246 89.606,-401.4694 -96.52,-803.9395 -24.327,-1205.926 38.18,-296.809 92.85,-605.4653 3.842,-898.3799 5.912,-154.0434 48.481,-316.9861 -26.189,-462.0517 -49.671,-151.0076 -19.125,-310.9333 34.206,-455.8718 83.85,-309.1058 44.854,-648.8687 -119.43,-925.2447 -32.36,-71.2365 -98.984,-143.2029 -55.54,-223.1795 87.376,-325.5149 -21.779,-706.6245 -302.943,-903.9548 -75.784,-51.8054 -165.208,-85.2491 -257.442,-88.2522 z" />
	  </g>
	 </symbol>

	 <symbol id="logo_short" viewBox="0 0 961.55129 2112.9717">
	 	<title>Kniew Logo</title>
		 	<g transform="matrix(0,0.1,0.1,0,-398.11474,-57.897927)">
		 		<path
			       id="logo_short_head"
			       d="m 4312.9456,7408.7804 c -377.8924,24.8995 -726.3627,190.0474 -1083.7646,302.7666 -207.755,74.4725 -433.3342,87.6938 -635.9105,177.8969 -160.3111,81.7043 -278.7939,226.664 -412.1183,341.9616 -41.1714,0.2079 -32.1727,60.0652 -68.4268,71.6295 -378.2084,358.3668 -734.358,742.4024 -1048.3582,1161.3476 -166.14398,212.5778 -276.46508,468.327 -337.98768,732.1544 -38.516,221.362 -35.9255,447.358 -60.6349,670.351 -9.9295,288.072 78.1522,568.963 183.2058,832.582 72.733,179.155 168.83988,347.274 251.89808,520.905 35.3252,118.024 62.4343,254.904 172.061,325.969 310.8106,271.296 665.9686,485.409 1034.5402,662.94 170.2454,72.262 342.1255,140.584 508.1578,222.768 194.6241,88.469 406.0998,131.64 618.445,137.44 292.9257,18.283 593.3473,30.991 877.6482,-57.737 161.4464,-49.574 316.5916,-117.963 475.5055,-175.273 304.3006,-119.37 610.2981,-264.462 839.7807,-508.377 190.9866,-189.282 346.3295,-415.174 456.3883,-662.934 134.1345,-254.682 239.2359,-539.467 216.9504,-833.675 -0.2058,-417.23 37.4237,-849.677 -104.1615,-1249.661 -44.0338,-118.4384 -121.2564,-233.3431 -116.7757,-363.8729 29.2821,-18.3346 70.2074,-7.1192 99.3608,-31.7203 108.5393,-61.2788 211.1935,-134.8252 329.2656,-176.8543 140.1126,-56.0652 291.1741,-67.3906 438.4212,-88.3879 169.2357,-38.3745 358.543,-67.4518 516.7085,25.3236 168.0499,72.9503 380.1217,109.575 538.873,-5.6872 68.5749,-52.3601 77.43,-190.0773 -18.5248,-216.7457 -154.9829,-67.4978 -319.1931,-117.9208 -456.8021,-221.063 -101.2909,-67.2477 -191.3458,-164.7284 -316.6766,-180.7042 -113.5501,-21.9307 -244.9924,-49.7779 -305.914,-163.0363 -113.7555,-171.0051 -202.5052,-383.2321 -398.7975,-471.4997 -164.5887,-86.9475 -340.5839,-168.3416 -529.4202,-166.7878 -127.4091,-21.3243 -222.6903,-122.784 -288.7663,-229.5696 -151.4206,-161.8998 -381.8056,-175.6679 -581.1592,-231.2478 -260.343,-67.3903 -521.2264,-157.7689 -793.0112,-151.2015 z m -593.7675,1261.2963 c 77.5997,10.1355 59.6236,139.9992 -11.3992,148.1118 -120.0503,88.6114 -233.1589,186.9432 -346.9833,283.6938 -157.9086,140.1428 -290.1884,312.2948 -370.9819,510.6911 -197.6908,416.2456 -294.0943,871.2626 -402.4579,1317.6976 -110.8729,383.223 -284.566,765.321 -584.3796,1031.302 -45.245,34.798 -109.2856,96.974 -167.3669,57.683 -72.6009,-70.164 -20.3752,-176.311 2.7798,-256.784 84.5541,-292.961 142.2667,-593.043 192.0616,-893.909 60.9716,-293.372 176.7494,-577.432 358.4973,-814.258 222.9585,-332.3283 425.4635,-685.3512 715.1038,-963.4295 171.4604,-167.9804 363.2916,-321.312 581.6174,-418.4382 11.0835,-1.5846 22.3108,-2.7643 33.5089,-2.3606 z m -1508.0856,495.8746 c -207.6372,458.7328 -522.7745,868.0807 -653.1107,1361.8157 -62.0368,241.438 -41.7245,502.233 -141.7147,733.334 -12.5351,34.846 -20.8873,-27.209 -29.7729,-41.993 -97.2198,-280.667 -73.3902,-602.233 67.2327,-863.42 139.7428,-324.697 291.1213,-646.7904 484.6511,-941.6401 81.7025,-96.6719 181.0709,-196.1648 279.0606,-262.3368 -2.1153,4.7467 -4.2307,9.4935 -6.3461,14.2402 z m 3193.5459,91.5569 c 76.1018,61.4654 13.047,194.4388 -74.7635,199.8167 -237.4368,169.0164 -390.5488,433.4014 -629.041,601.2991 -218.1522,202.275 -342.8221,481.001 -508.7534,724.85 -138.2438,217.357 -258.542,446.077 -369.1127,679.186 -146.686,264.857 -366.1356,475.334 -589.9849,670.963 -56.4295,51.042 -120.1226,113.706 -177.5664,151.083 83.1768,-291.474 337.864,-478.456 473.6862,-739.951 283.5043,-458.351 547.5203,-929.087 832.8913,-1386.222 155.3942,-266.873 359.9589,-507.203 616.085,-676.5106 130.6386,-93.2093 270.9509,-184.5856 424.8926,-225.7578 l 1.6668,1.2436 z m -1306.3717,233.5869 c -145.5345,211.6462 -326.5619,398.483 -445.5526,629.0819 -147.7972,299.555 -262.8103,614.957 -409.9691,914.904 21.7998,-365.271 206.4054,-692.663 410.6243,-982.832 132.2319,-198.1077 256.0164,-409.187 435.7729,-566.4813 9.5419,-4.9402 21.5307,-10.81 9.1245,5.3274 z m 1601.7571,344.9944 c 113.3205,58.6095 112.7724,207.5895 102.2392,319.4615 -2.2261,352.361 63.1411,717.466 -55.6341,1058.169 -96.4066,306.38 -296.5144,562.107 -503.7181,797.77 -130.9346,179.333 -259.8206,372.069 -455.1414,483.843 -273.3128,195.751 -552.9304,396.836 -878.3297,489.618 -314.6538,99.002 -646.7733,140.746 -975.3646,118.76 70.2544,-33.145 151.3027,-27.598 222.2755,-60.317 247.8184,-80.364 455.1064,-257.834 610.9378,-467.141 233.0044,-238.299 482.0747,-479.949 604.8319,-800.745 263.8492,-564.506 594.2643,-1095.701 977.8804,-1582.419 89.4263,-138.921 174.5836,-307.1654 340.1376,-361.3508 3.2951,1.4504 6.5904,2.9009 9.8855,4.3513 z" />
			    <path
			       id="logo_short_body"
			       d="m 20341.859,7496.9434 c -266.29,30.008 -534.035,55.5651 -802.203,43.4949 -613.766,19.9499 -1227.581,49.9565 -1841.504,51.1839 -355.979,7.1281 -711.994,-18.7815 -1064.566,-65.4322 -588.013,-19.2704 -1173.346,98.0397 -1761.339,47.5001 -393.915,-23.3427 -796.576,-60.2066 -1183.744,38.7965 -377.293,69.0812 -772.786,71.8373 -1130.415,223.9203 -306.563,155.7881 -516.869,458.4746 -844.172,579.5074 -172.399,66.4748 -359.83,50.2687 -540.382,68.9114 -221.93,16.366 -464.905,60.4545 -624.108,229.9399 -98.591,104.2519 -161.366,271.6563 -88.341,406.3906 76.713,131.4355 289.526,178.3649 394.015,54.4473 38.098,-49.9192 106.685,-6.5505 158.565,-17.2031 376.142,20.282 760.23,112.5857 1133.552,16.8125 413.85,-113.1052 744.729,-399.1671 1104.265,-618.3086 251.438,-142.2669 546.956,-150.0464 827.126,-178.2719 582.08,-44.8441 1168.176,-21.5628 1749.62,-82.6922 540.956,-43.5845 1082.821,-77.9559 1625.33,-95.2441 223.151,-15.0377 447.083,-53.8348 667.686,-73.4481 5.694,60.2192 -60.73,91.8213 -83.703,141.7723 -122.722,166.5966 -280.243,321.6631 -485.371,377.352 -236.529,83.1168 -469.934,174.5127 -702.021,269.1636 -317.364,124.3681 -645.234,217.8756 -975.434,300.5641 -320.51,81.7911 -641.767,165.9396 -947.237,294.7527 -712.743,271.1074 -1431.702,529.5453 -2167.206,731.6553 -420.466,150.903 -856.022,273.952 -1242.782,503.473 -253.46,115.262 -505.541,237.479 -774.591,312.606 -261.456,99.261 -511.095,227.165 -774.542,321.65 -303.7386,115.377 -621.0605,197.248 -944.4542,233.302 -332.4027,57.183 -667.1688,97.408 -1001.0943,144.295 -285.2883,53.542 -573.7667,113.066 -840.1796,230.502 -17.7012,23.006 -63.2607,18.896 -44.7909,-16.979 15.8837,-212.907 158.3347,-409.922 111.4939,-628.138 -34.7003,-87.837 -12.6761,-181.702 -8.9725,-272.813 22.595,-273.913 85.6085,-543.618 98.662,-818.224 -19.4942,-218.797 -298.9116,-349.1719 -487.2714,-249.18 -163.3415,82.651 -226.2698,288.955 -179.0684,458.543 13.7361,64.088 54.6297,120.238 45.8677,188.19 0.444,182.341 -31.3459,362.803 -48.3022,543.905 -32.6328,234.289 -66.124,472.409 -152.2753,693.541 -103.0495,143.35 -153.5358,317.726 -185.3684,489.205 -21.9358,179.486 8.567,387.556 151.9894,511.655 112.2592,72.414 260.8382,21.111 346.7473,-68.829 356.4533,-263.433 779.6109,-433.454 1219.3938,-488.594 298.91,-42.903 601.1278,-29.657 901.8245,-32.8 524.4539,-8.438 1060.3246,-57.078 1547.5346,-265.408 338.509,-138.553 663.372,-309.942 1008.59,-431.931 219.374,-110.946 433.014,-244.64 677.91,-291.66 416.139,-116.526 842.617,-212.518 1234.259,-401.146 635.441,-244.956 1277.753,-475.401 1897.241,-759.494 433.612,-125.427 860.388,-274.0176 1277.194,-447.3504 401.082,-162.5435 788.486,-356.6661 1187.153,-524.5289 597.995,-223.7635 1229.038,-374.3042 1785.324,-697.6092 236.184,-122.9097 489.078,-211.5989 746.503,-276.7084 202.992,-94.8567 420.121,-211.874 522.563,-421.9279 33.514,-73.0263 46.507,-186.266 -35.144,-232.1657 -85.163,-39.3368 -182.458,-26.472 -272.724,-43.7475 -62.234,-4.9696 -124.673,-7.2601 -187.103,-7.1976 z" />
			    <path
			       id="logo_short_ink"
			       d="m 21183.082,4077.2598 c -85.751,28.104 -202.776,13.0216 -250.83,108.289 -43.389,62.498 -33.788,142.6051 -48.756,212.0448 -55.996,107.9779 -185.121,186.6133 -178.078,321.1393 -5.155,156.1806 103.408,291.8943 219.285,379.001 -49.615,91.1017 -61.54,205.6512 -13.41,299.354 4.79,55.0424 34.926,112.0589 24.598,165.5625 -42.783,62.7844 -86.095,128.2129 -105.366,201.5234 -84.793,109.4695 -116.382,272.9068 -33.119,392.168 25.651,62.9423 83.983,103.8203 134.178,143.0527 28.243,76.6374 -5.048,159.1241 8.824,238.3063 8.13,136.3099 78.187,266.2706 185.7,349.1006 31.941,73.2307 -38.474,142.1935 -29.771,217.4001 -0.671,104.0452 14.855,207.5099 18.275,311.3776 16.949,131.1077 70.63,275.3478 191.394,343.3936 117.406,54.3191 267.016,-33.5877 280.503,-161.5242 18.948,-116.1442 -41.525,-240.352 19.457,-349.9477 53.226,-183.302 46.831,-392.978 -61.693,-555.6317 -36.277,-69.3108 -23.793,-148.926 -0.462,-219.6445 15.327,-68.1622 -3.318,-139.0947 3.955,-206.2363 32.447,-95.5465 82.376,-217.6449 7.127,-305.9082 -45.716,-37.5278 -50.899,-112.1478 -4.745,-150.988 44.654,-94.778 -27.471,-186.9324 -44.1,-277.8298 -13.388,-153.4538 128.349,-261.7432 135.686,-410.9795 19.253,-158.2367 -56.738,-320.3082 -188.409,-409.3482 -23.382,-13.5198 -31.402,-32.7662 -3.108,-45.5225 122.167,-109.0943 150.023,-330.9578 16.957,-442.5098 -78.761,-72.1209 -170.634,-149.102 -284.092,-145.6425 z" />
		 	</g>
	 </symbol>
	 <symbol id="logo_shortest" viewBox="0 0 592.65729 731.20576">
	 	<title>Kniew Logo - Short - Head Only</title>
	 	<path transform="matrix(0.1,0,0,-0.1,-364.89832,2048.3718)"
       id="logo_shortest_head"
       d="m 5520.2891,13171.809 c -88.2276,-1.416 -157.0487,87.819 -145.8942,172.484 -48.5566,231.47 -241.4702,391.667 -331.9181,603.465 -20.0464,109.747 -28.3676,232.312 -112.0334,315.797 -109.1335,139.701 -282.5879,200.19 -421.6273,301.64 -107.4175,112.863 -136.1797,272.558 -211.0617,404.912 -64.2703,172.257 -58.0204,377.655 -189.3017,519.668 -74.2773,74.111 -183.524,125.865 -209.8838,236.431 -98.3303,245.006 -110.0742,514.849 -208.0908,759.999 -94.2128,364.929 -15.8412,748.68 113.3829,1094.743 58.9485,190.008 118.2033,380.119 190.7325,565.42 39.6589,118.728 48.9722,244.646 73.2522,366.366 62.9013,175.744 216.8996,292.549 339.5958,424.941 69.3914,34.421 115.2656,98.382 170.8613,150.315 189.9856,195.061 376.5883,395.475 594.0912,560.659 176.5914,157.162 363.7774,302.935 564.5071,427.93 127.531,98.183 263.005,188.379 412.6777,248.734 204.1023,118.895 449.934,75.877 671.0918,132.461 128.912,29.361 263.3187,35.462 393.2747,9.708 266.1415,-25.997 526.3198,-103.361 764.1788,-225.37 128.9752,-60.94 251.7744,-136.81 379.5927,-198.097 123.2323,28.526 232.0041,-70.136 287.1,-170.818 85.2568,-112.817 191.9393,-212.073 248.2845,-344.239 139.405,-231.249 309.7342,-450.172 386.1007,-713.153 108.6306,-261.4 253.1907,-516.239 284.3076,-802.063 3.8659,-186.547 12.4105,-373.086 12.0343,-559.661 -3.3222,-217.718 -41.3787,-436.031 -127.4081,-636.797 -129.927,-358.808 -276.0528,-719.658 -511.3053,-1023.8 -226.6853,-261.047 -537.5556,-423.259 -830.9408,-596.137 -341.5208,-243.5 -710.0979,-208.12 -1077.1924,-242.876 -395.7917,-18.362 -796.0601,75.121 -1142.127,268.021 -41.8524,15.505 -80.6835,-21.623 -85.3053,-62.054 -26.7576,-56.926 -59.756,-112.834 -59.8667,-177.833 -45.7385,-248.821 -144.6919,-485.734 -175.0527,-737.911 -29.1169,-202.091 -7.0511,-412.376 76.2222,-599.721 53.6302,-132.567 64.3956,-300.371 -26.1217,-419.554 -23.907,-29.767 -55.6754,-55.975 -96.157,-53.61 z m 1361.6953,2228.478 c 358.9587,4.663 738.969,65.534 1029.0561,291.435 168.1,127.427 343.3485,245.969 507.0742,378.743 158.7868,161.474 246.5588,375.058 381.665,554.308 123.3085,208.478 191.0116,443.423 293.7687,661.479 54.3481,217.256 71.6021,441.823 85.4211,664.664 3.2507,110.133 1.8563,221.125 -17.2879,329.92 -105.9109,-191.713 -150.021,-425.881 -322.5174,-574.51 -296.1881,-227.87 -532.8931,-538.624 -879.2622,-696.747 -230.6141,-98.36 -460.0548,-203.461 -666.2765,-347.629 -264.1555,-175.621 -521.3383,-363.682 -750.5032,-583.887 -83.9167,-85.125 -183.7344,-150.683 -282.3554,-217.158 -115.5353,-81.004 -236.171,-170.211 -301.0853,-298.594 -15.9901,-91.82 88.4287,-155.09 170.1819,-142.748 129.9663,-2.602 260.6351,11.448 389.8269,-8.402 120.635,-6.855 241.4391,-11.876 362.294,-10.874 z m -1376.543,357.113 c 98.5675,48.045 124.041,170.28 213.9054,229.057 174.5401,176.621 369.7948,334.223 521.5605,532.169 200.1278,200.252 471.6991,300.201 699.7828,461.94 218.0191,137.851 454.2905,242.842 681.2599,364.231 182.5125,106.295 334.9514,256.71 462.9261,423.382 117.7285,139.245 232.6468,281.219 360.1239,411.821 -169.0639,17.29 -312.5548,-93.395 -438.5274,-190.835 -369.5878,-275.623 -774.8128,-497.526 -1163.1689,-744.429 -249.8487,-175.666 -510.3476,-335.651 -766.1757,-502.043 -270.7748,-214.287 -459.8511,-508.678 -651.876,-790.726 -33.4548,-67.284 -10.5792,-194.371 80.1894,-194.567 z m 209.5703,1447.246 c 192.9821,120.84 383.6181,245.76 578.5877,363.219 286.9789,154.481 607.6473,238.206 887.3811,406.633 19.322,21.836 -27.8694,4.824 -38.7654,6.619 -300.4972,-34.752 -580.7524,-166.584 -828.3128,-335.818 -188.7644,-126.897 -371.5067,-262.766 -558.3281,-392.268 -20.6282,-17.144 -58.5193,-51.428 -62.593,-63.814 z m -815.1523,229.135 c 149.7698,81.421 225.4211,243.771 338.606,364.364 135.6261,168.736 310.3328,308.174 512.7979,387.437 325.1066,164.653 675.3517,274.868 1031.9038,346.992 349.8605,84.69 696.4872,208.038 991.3184,419.183 142.1502,94.352 295.6542,202.094 355.5457,369.155 8.1416,60.354 -63.5167,72.85 -108.7297,70.817 -123.8747,-2.99 -240.6166,-52.027 -362.5766,-69.517 -239.2227,-43.716 -477.3567,-93.387 -718.0583,-128.773 -292.9483,-34.32 -550.8734,-193.399 -788.0084,-358.675 -295.2197,-214.986 -612.6173,-407.435 -859.7223,-680.453 -120.0064,-132.379 -225.5872,-277.149 -331.6916,-420.612 -53.5008,-83.202 -100.7687,-185.685 -77.3752,-286.076 3.0614,-6.327 7.9314,-14.25 15.9903,-13.842 z m 315.039,1441.201 c 226.507,74.083 417.1095,224.788 637.6544,312.442 294.7956,156.037 576.6561,359.788 913.0912,414.287 214.4004,46.125 440.4788,59.809 641.4386,152.443 24.6554,52.977 -50.0887,74.729 -87.9173,85.778 -107.1043,33.375 -215.6409,68.28 -327.4787,80.11 -222.4783,11.096 -432.806,-79.11 -634.3529,-161.857 -232.0769,-103.747 -458.1082,-220.899 -682.1619,-340.652 -201.1025,-123.938 -380.2686,-296.3 -480.789,-512.338 -2.9287,-13.657 2.869,-33.396 20.5156,-30.213 z m -786.1406,92.346 c 1.4674,-0.842 -4.2561,-3.084 0,0 z" />

	 </symbol>

	 <symbol id="logo_vertical_name" viewBox="0 0 2025.0995 3395.7437">

	 	<g
	     transform="matrix(0,0.1,0.1,0,-304.17439,724.83662)">
	    <path
	       id="lvn_w"
	       d="m 25300.17,17690.146 c -262.931,12.071 -519.927,77.621 -781.951,98.805 -147.589,29.403 -281.912,101.617 -417.767,164.464 -291.634,142.878 -543.835,353.25 -800.895,550.899 -82.049,62.625 -171.416,116.101 -245.376,189.221 -74.793,80.472 -115.524,197.916 -92.23,308.168 8.771,43.801 33.799,87.598 76.297,104.12 50.396,22.088 110.759,10.836 153.639,-22.947 86.416,-57.274 144.466,-152.492 239.407,-197.296 40.229,-18.211 86.908,-10.063 126.298,-30.892 33.12,-15.967 61.887,-39.689 93.841,-57.917 219.59,-136.905 438.515,-275.609 666.67,-397.305 183.515,-80.212 385.685,-86.781 581.144,-109.232 225.966,-27.468 451.036,-82.275 679.983,-66.926 82.619,4.786 165.99,19.704 240.911,57.153 126.76,61.126 233.345,167.605 292.123,298.279 41.777,100.708 45.388,212.079 47.516,319.919 2.179,181.706 -29.111,368.183 -118.667,527.12 -47.691,83.298 -110.823,161.064 -194.494,208.037 -21.926,10.995 -45.23,24.465 -70.534,19.694 -32.294,-3.92 -64.289,-15.42 -97.113,-9.773 -112.067,5.963 -222.304,67.287 -280.489,166.974 -42.967,71.455 -64.791,159.814 -46.427,242.815 20.01,74.308 83.678,127.378 150.938,155.764 68.365,29.879 143.576,32.363 215.388,48.104 49.114,9.239 87.391,44.697 125.242,75.527 24.731,21.555 51.677,40.055 79.571,56.972 55.967,38.287 104.052,90.531 130.962,154.338 57.591,123.447 57.45,270.829 9.111,397.387 -65.26,210.756 -150.766,418.283 -282.496,595.089 -72.854,99.135 -157.011,190.586 -254.086,265.051 -18.405,4.608 -28.13,-16.732 -37.059,-29.23 -42.208,-62.732 -90.84,-126.306 -160.089,-158.768 -57.778,-25.03 -122.063,-17.487 -182.848,-12.797 -46.784,3.851 -93.7,9.983 -138.279,25.777 -99.577,32.967 -189.086,100.01 -245.035,191.206 -77.244,120.97 -114.101,262.162 -172.718,392.462 -38.877,88.562 -84.653,177.012 -154.701,243.997 -54.557,43.756 -126.483,48.934 -188.03,77.639 -25.891,11.724 -57.757,21.981 -83.83,5.022 -40.229,-25.097 -42.239,-78.107 -50.591,-120.489 -8.016,-57.473 -20.267,-114.141 -29.708,-171.365 -27.651,-155.766 -61.369,-312.189 -127.013,-456.378 -82.403,-192.361 -196.646,-373.763 -351.654,-512.99 -75.639,-64.3 -177.516,-102.532 -276.014,-84.17 -101.854,22.234 -181.513,109.789 -212.701,209.361 -54.038,161.619 -59.922,335.605 -45.247,504.439 29.176,298.411 157.406,590.452 373.202,795.749 99.678,91.987 233.01,138.083 365.257,148.312 18.806,1.815 45.722,0.242 53.926,21.875 7.624,27.771 11.06,57.886 28.7,81.464 63.223,119.092 152.724,227.451 269.621,293.75 68.487,37.047 151.629,47.241 225.43,21.018 79.22,-25.86 145.505,-86.647 183.475,-162.017 77.254,-132.63 113.065,-287.889 205.295,-411.922 43.072,-58.044 105.013,-97.156 168.189,-128.791 75.026,-39.639 150.543,-78.779 221.421,-126.021 357.228,-222.658 668.467,-518.358 926.485,-854.608 102.572,-127.343 213.523,-251.36 282.708,-402.248 123.884,-267.213 146.055,-584.265 52.834,-864.985 -31.94,-95.726 -83.648,-183.992 -149.521,-259.195 -30.622,-36.16 -65.132,-68.834 -97.737,-102.774 -23.479,-46.827 -9.31,-102.997 15.38,-146.077 51.742,-96.116 143.118,-161.065 197.503,-255.324 64.703,-105.182 105.02,-223.556 141.455,-341.454 67.513,-235 83.925,-488.737 25.942,-727.706 -22.536,-89.518 -66.201,-173.442 -127.607,-241.336 -107.788,-124.839 -248.609,-212.178 -387.175,-296.337 -88.257,-52.816 -176.842,-105.19 -265.716,-156.946 -148.233,-75.201 -315.832,-102.258 -480.066,-99.755 z m -1829.406,3976.684 c 152.398,9.505 280.779,142.694 306.458,293.917 25.189,158.048 60.792,317.855 43.031,478.884 -3.214,34.756 -13.579,75.619 -47.496,91.377 -32.894,14.611 -70.21,8.687 -104.355,2.431 -72.267,-15.01 -137.234,-56.715 -187.245,-111.572 -56.658,-61.187 -100.556,-134.2 -133.15,-211.425 -51.323,-126.497 -67.556,-270.499 -32.928,-403.784 20.229,-65.336 70.817,-126.737 139.351,-138.589 5.412,-0.855 10.871,-1.253 16.334,-1.239 z m 1773.062,260.563 c 13.579,15.977 -0.07,37.05 -10.366,50.578 -57.878,96.892 -126.402,192.28 -223.13,251.574 -13.704,8.265 -32.011,16.756 -47.186,9.705 2.051,-21.941 21.936,-35.329 29.965,-54.654 58.856,-90.392 120.744,-183.128 209.79,-245.04 12.376,-7.418 26.414,-12.657 40.927,-12.163 z m -942.29,870.502 c 25.513,-2.544 39.211,29.481 31.397,51.148 -20.954,40.246 -41.355,84.529 -80.359,109.767 -18.665,13.643 -45.385,17.624 -64.461,2.634 -27.972,-19.275 -39.71,-60.838 -22.04,-91.207 20.077,-46.205 70.426,-70.499 117.928,-71.538 5.834,-0.506 11.691,-0.865 17.535,-0.804 z" />
	    <path
	       id="lvh_e"
	       d="m 25035.759,13515.879 c -227.74,45.144 -428.47,173.261 -617.559,305.085 -161.89,112.913 -308.994,246.178 -448.055,387.052 -120.801,122.184 -239.38,246.978 -353.879,375.3 -233.884,307.325 -353.033,683.194 -474.829,1047.06 -168.685,532.265 -284.172,1091.732 -253.678,1654.029 15.835,181.674 57.076,368.915 164.861,517.788 75.699,47.61 167.835,18.496 246.124,-5.927 256.302,-89.615 453.932,-311.549 553.304,-565.626 257.708,-600.976 311.071,-1262.326 407.502,-1903.788 30.133,-208.824 71.647,-417.077 145.819,-614.607 31.623,-82.795 65.287,-165.122 105.863,-243.714 35.063,-64.498 88.733,-119.251 156.276,-146.823 197.634,-113.097 385.701,-259.453 613.411,-301.853 221.198,-47.838 469.241,-25.55 656.469,113.553 162.153,129.341 237.6,336.229 285.302,534.191 96.02,417.805 41.247,853.435 -51.816,1266.282 -68.352,299.69 -164.23,592.35 -224.476,893.998 -10.652,68.911 -21.436,144.439 7.456,209.954 43.126,54.327 130.813,31.5 162.231,-24.545 46.7,-55.596 93.572,-111.223 144.571,-162.658 86.713,-108.847 106.106,-252.089 139.594,-383.889 120.262,-531.387 134.539,-1082.856 89.855,-1624.751 -15.75,-226.55 -79.86,-448.554 -179.961,-650.794 -96.488,-191.999 -228.289,-368.146 -395.45,-500.863 -169.049,-123.728 -386.056,-156.187 -588.937,-134.702 -98.431,3.387 -192.259,-36.153 -289.998,-39.752 z m -1174.056,1841.184 c 38.07,473.099 -81.767,949.648 -295.914,1367.171 -84.123,186.193 -134.448,393.723 -267.878,552.214 -64.362,38.203 -144.024,-52.757 -107.363,-116.154 69.64,-429.014 218.531,-838.687 372.105,-1242.26 83.065,-195.552 183.644,-383.145 298.068,-561.22 l 0.982,0.28 0,0 z m 2423.205,1498.538 0.337,-0.517 -0.337,0.517 z"
	        />
	    <path
	       id="lvh_i_dot"
	       d="m 22632.314,13839.539 c -200.888,-61.644 -314.854,-316.448 -231.035,-521.865 28.778,-182.207 132.998,-368.82 308.384,-415.1 186.256,8.753 298.202,230.209 307.098,410.948 7.432,229.759 -135.925,479.76 -353.34,527.943 l -31.107,-1.926 z"
	       />
	    <path
	       id="lvh_i"
	       d="m 25352.41,12410.416 c -335.585,-1.095 -656.688,113.738 -970.952,221.847 -221.994,77.77 -467.269,73.375 -678.837,184.629 -127.521,81.847 -280.6,128.731 -381.682,248.585 -89.353,127.133 -58.994,324.054 62.532,417.969 65.341,39.966 147.937,6.548 199.867,-41.746 76.323,-56.34 166.03,-91.867 256.089,-118.675 151.204,-44.703 308.872,-53.928 464.345,-72.724 308.831,-41.981 609.476,-128.085 913.142,-196.796 193.55,-44.096 394.367,-60.899 591.33,-33.088 108.16,16.414 217.543,38.549 316.993,86.735 82.494,39.744 143.431,116.491 174.39,203.325 24.957,61.244 51.326,131.223 112.428,163.504 41.099,-16.22 37.926,-68.622 43.284,-105.621 34.267,-241.264 -59.972,-488.517 -218.989,-665.208 -95.042,-112.006 -223.613,-198.344 -367.934,-223.122 -169.134,-40.621 -341.848,-70.344 -516.006,-69.614 z"
	        />
	    <path
	       id="lvh_n"
	       d="m 24020.224,9423.3506 c -71.91,11.7608 -132.175,66.5678 -164.729,132.9646 -14.517,27.0877 -26.188,55.6659 -38.145,84.0332 -78.988,-76.3297 -166.81,-146.8486 -269.537,-183.9992 -94.439,-25.2028 -195.318,-1.3443 -279.65,46.3011 -101.931,58.188 -193.021,137.14 -266.671,230.9649 -47.833,67.9712 -71.174,150.6798 -85.222,232.7277 -18.631,91.6921 -37.019,184.3251 -38.196,278.4041 2.141,109.604 38.948,215.331 89.869,310.07 33.553,63.857 74.594,125.493 130.739,169.771 77.723,47.201 172.991,51.096 259.148,31.418 115.885,-27.046 217.647,-105.269 284.802,-206.55 70.999,-87.705 140.063,-178.424 191.484,-280.444 21.18,-17.147 53.231,-17.595 68.561,-42.851 38.242,-50.221 49.664,-116.516 49.104,-179.232 0.512,-72.096 -7.931,-146.3087 13.805,-216.1513 24.053,-51.3197 100.235,-62.257 136.482,-19.3824 34.961,38.977 45.044,93.3904 53.697,144.1596 21.156,103.2781 65.04,204.4271 138.97,278.1561 54.843,53.356 139.158,75.581 209.901,46.152 51.812,-20.804 96.556,-61.19 153.079,-68.325 9.368,-0.508 21.531,-5.461 29.25,-1.203 -150.864,117.134 -287.396,254.404 -447.357,358.602 -185.616,131.268 -373.559,260.763 -541.445,416.707 -157.202,140.224 -306.616,292.923 -424.291,471.406 -64.356,105.309 -112.193,224.795 -120.474,350.482 -7.952,133.747 67.876,266.309 180.952,327.685 110.695,66.088 242.833,84.967 368.302,69.395 151.841,-17.987 293.684,-81.418 441.354,-118.499 253.044,-63.169 507.656,-120.893 756.853,-199.662 118.852,-34.662 241.218,-52.938 362.363,-76.373 65.354,-12.481 131.309,-21.452 197.604,-26.127 81.321,-6.469 162.939,-7.073 244.351,-11.541 107.815,-6.628 216.464,-20.072 324.181,-5.093 46.805,7.169 94.182,19.602 134.536,46.203 36.162,31.556 46.697,82.51 75.845,119.766 18.469,25.048 47.519,44.961 78.947,40.923 42.802,-4.138 79.874,-34.489 102.686,-71.264 21.784,-36.909 25.669,-85.085 7.642,-124.469 -21.821,-56.29 -59.831,-103.134 -94.533,-151.037 -67.371,-85.317 -158.4,-153.715 -262.742,-178.356 -99.591,-24.99 -202.784,-22.714 -304.482,-22.614 -260.716,4.557 -518.72,47.909 -778.04,71.856 -152.232,16.495 -300.462,58.094 -450.374,88.364 -106.022,19.243 -211.892,40.508 -315.475,71.266 -129.758,32.372 -259.168,66.54 -386.976,106.533 -100.134,28.15 -200.136,57.907 -302.513,75.571 -25.611,2.387 -55.194,0.661 -74.725,-18.733 1.163,-8.172 10.362,-11.573 13.589,-18.864 26.121,-33.73 49.641,-70.007 80.671,-99.22 65.145,-65.699 140.588,-118.596 210.593,-178.246 52.763,-42.818 108.345,-81.387 165.596,-117.207 120.086,-83.906 222.034,-191.768 329.057,-292.278 76.364,-72.357 155.996,-141.504 243.366,-198.966 101.507,-70.077 205.883,-138.127 292.134,-228.795 94.512,-95.24 178.551,-201.431 277.093,-292.347 68.133,-66.147 138.741,-129.641 204.743,-198.115 15.771,-27.377 11.235,-60.783 12.996,-90.872 16.233,-14.631 38.728,-6.44 57.952,-8.742 237.657,-2.455 470.469,-71.38 708.629,-63.609 86.318,3.961 172.917,4.124 259.09,-3.14 52.001,-2.243 106.025,6.747 156.11,-12.16 33.644,-12.388 62.333,-38.2689 78.398,-71.6293 23.716,-46.4445 24.768,-108.3203 -7.436,-150.796 -30.396,-40.5491 -79.888,-58.9721 -127.43,-64.6018 -86.673,-12.0797 -175.972,3.1746 -261.131,-21.6647 -142.632,-31.3968 -288.774,-45.436 -434.492,-42.4657 -91.127,2.227 -181.745,13.9231 -271.59,29.3641 -98.897,16.1131 -198.393,32.4602 -298.797,30.5045 -97.463,0.6369 -195.961,2.0974 -291.324,25.5702 -139.887,30.7188 -271.806,94.9749 -389.08,179.6845 -31.098,19.4294 -70.389,33.0951 -105.779,18.2126 -40.698,-16.6205 -65.607,-60.0455 -73.005,-103.4865 -18.79,-74.5682 -35.026,-150.4421 -65.898,-220.8844 -28.409,-67.9318 -67.714,-133.8728 -126.253,-177.5926 -22.614,-15.7143 -49.209,-26.86 -76.732,-25.6293 z m -610.586,332.5893 c 63.645,-0.6742 129.987,0.4247 188.722,29.3209 21.922,9.7719 42.997,21.6055 62.792,35.4917 -46.221,74.1456 -62.148,162.5626 -81.149,247.3215 -16.615,81.57 -35.289,165.871 -82.738,234.704 -74.782,107.358 -193.479,182.829 -320.924,193.91 -57.885,-0.287 -109.7,-44.809 -129.619,-100.164 -27.159,-69.464 -19.754,-149.18 7.553,-217.303 39.747,-115.961 81.554,-234.1278 155.069,-332.0883 47.266,-62.3336 125.34,-93.7049 200.294,-91.1928 z" />
	    <path
	       id="lvh_k"
	       d="m 24138.112,5775.6354 c -184.004,43.2025 -338.048,187.1074 -488.149,319.7568 -377.713,358.4892 -678.61,824.576 -1025.678,1226.4184 -424.572,512.2445 -868.266,1019.8732 -1170.91,1664.6704 -87.519,175.6121 -122.467,387.6756 -111.282,593.7179 2.138,145.9975 3.372,302.287 64.548,431.1241 57.909,79.641 154.583,83.856 232.171,57.443 168.054,-56.228 296.672,-233.6795 359.582,-434.0953 21.588,-68.3932 38.819,-139.0791 69.458,-202.2546 129.612,-295.5383 328.349,-526.2498 501.306,-779.3297 213.628,-299.5803 415.184,-613.5032 598.062,-944.2122 149.44,-181.0289 332.338,-314.7413 466.861,-516.029 161.38,-197.3583 331.93,-397.5854 545.136,-499.392 128.841,-43.8539 262.955,17.7536 372.561,102.7424 407.711,222.5011 841.633,367.0101 1235.037,632.3338 88.544,60.0175 177.52,125.8634 247.116,218.6546 78.579,157.9366 21.966,401.4622 -119.274,466.2154 -80.461,39.0789 -179.985,31.9269 -242.843,117.1857 -110.217,168.4594 -148.77,420.4243 -69.813,620.0691 85.412,178.5669 270.374,252.5843 425.917,200.1856 226.166,-59.6847 406.204,-302.3288 463.442,-581.9696 76.101,-311.5802 75.528,-653.364 -3.008,-964.0045 -67.587,-250.9268 -176.43,-483.3826 -313.539,-683.0819 -192.458,-239.906 -457.797,-340.315 -703.055,-462.1426 -350.915,-168.0848 -689.3,-380.3657 -1051.629,-508.5608 -91.259,-31.4791 -183.883,-61.7365 -277.64,-76.4251 -1.464,0.4893 -2.934,0.6549 -4.377,0.9801 z"
	       />
	    <path
	       id="lvh_head"
	       d="m -1018.5815,9706.1946 c -990.4886,102.5521 -1774.7086,669.4604 -2690.6756,946.9124 -403.2816,144.38 -675.6405,448.949 -899.2614,750.842 -203.1657,283.191 -416.7292,561.005 -634.8461,836.359 -412.0432,523.522 -818.4126,1053.052 -1135.8382,1621.74 -562.176,976.727 -903.7275,2056.456 -866.3849,3144.444 16.0942,1318.272 358.8038,2632.654 992.5728,3840.444 410.247,664.464 1151.1965,1115.972 1830.5735,1577.648 521.0295,344.659 1074.3627,692.109 1733.7877,822.971 403.4396,80.089 828.6986,45.987 1226.0561,-41.876 623.97166,-143.464 1188.81356,-427.036 1692.93766,-759.556 955.84734,-650.073 1577.93204,-1593.113 1869.91204,-2582.156 181.7986,-556.21 270.3463,-1130.703 304.0888,-1705.636 39.3663,-663.467 20.2331,-1328.001 14.4952,-1991.885 -18.1325,-434.017 -110.3046,-866.082 -272.7424,-1278.442 -1.3164,-211.704 182.3389,-385.186 382.7773,-496.883 157.2701,-85.405 324.7024,-158.529 497.4852,-219.652 490.5134,-165.584 1089.0295,-167.738 1537.4614,86.519 273.4858,141.293 696.1723,1.047 752.0438,-268.882 54.9355,-194.105 -114.9126,-382.583 -323.9125,-454.685 -221.8066,-99.399 -422.2366,-230.082 -592.2353,-384.625 -275.7412,-219.911 -581.2182,-412.819 -893.8221,-593.961 -326.9637,-316.762 -344.8752,-774.309 -674.9006,-1089.384 -159.4623,-146.492 -362.5886,-255.748 -581.2614,-331.152 -299.6982,-109.096 -637.5705,-200.214 -837.4654,-430.776 -156.2348,-179.634 -275.7214,-400.87 -526.49219,-504.088 C 616.71456,10070.647 304.83536,10024.322 27.151056,9910.1479 -305.65164,9798.7511 -655.45044,9701.2315 -1018.5815,9706.1946 Z m -1060.2296,2825.4774 c 97.2123,96.352 54.1285,235.271 -28.1262,327.454 -101.6814,120.8 -246.2246,210.378 -354.0352,327.262 -568.3257,567.329 -842.1014,1285.66 -1081.8234,1984.488 -187.4281,565.935 -252.8007,1152.186 -343.5899,1732.404 -152.0835,881.236 -398.62,1767.229 -918.6024,2552.878 -83.3984,120.092 -204.0043,247.792 -378.657,268.575 -133.1431,-62.503 -152.483,-204.961 -121.6442,-317.902 30.0003,-119.148 80.4468,-234.106 99.2306,-355.36 172.7152,-798.313 190.794,-1624.483 513.836,-2396.734 220.598,-464.937 399.0495,-942.485 585.6082,-1417.347 139.8649,-348.592 280.3948,-698.399 465.6837,-1032.42 350.6315,-604.793 767.1253,-1210.823 1413.693,-1630.329 40.9084,-28.091 95.0151,-45.386 148.4268,-42.969 z m -2602.1348,1115.769 c 5.7055,31.098 -21.0006,69.51 -27.0245,103.129 -189.6547,568.745 -552.7036,1082.366 -806.6305,1630.047 148.8344,-528.725 251.119,-1090.389 636.1222,-1544.216 60.5537,-65.585 117.3456,-137.989 195.9663,-188.818 l 1.495,-0.144 0.072,0 z m 5446.97186,182.176 c 103.95165,59.381 83.223,180.584 28.4895,260.261 -81.3395,122.587 -204.5242,221.087 -302.212,334.407 -668.1221,719.006 -1233.1228,1505.492 -1668.78306,2339.185 -321.29,629.427 -569.8151,1282.02 -859.4021,1921.551 -193.4314,448.427 -377.4847,917.613 -760.2775,1283.056 -60.554,51.448 -114.3425,112.492 -189.2102,149.638 -58.5254,15.299 -79.3047,-48.757 -60.0893,-84.345 33.552,-125.637 118.7128,-235.939 170.3,-356.363 381.4847,-704.587 923.7296,-1354.884 1152.4586,-2112.227 88.7532,-246.887 193.3575,-489.973 293.2193,-733.985 253.047,-601.949 526.34526,-1199.731 866.19846,-1771.874 287.4999,-456.397 647.150896,-903.912 1172.9097,-1191.683 44.9143,-25.789 101.8643,-39.342 156.3986,-37.621 z m -2414.56626,793.303 c -517.0112,888.074 -825.4698,1844.771 -1159.0843,2787.853 -9.896,-371.442 143.42,-725.979 250.8574,-1081.465 252.5677,-679.145 627.5876,-1321.343 1035.2328,-1944.276 -42.3353,79.295 -84.6706,158.592 -127.0059,237.888 z m 2759.7583,1138.294 c 72.4382,565.751 294.6232,1123.883 223.7024,1698.037 -36.8087,252.48 -120.9867,498.277 -202.4517,742.806 -151.26009,425.882 -333.07084,844.43 -542.02404,1253.017 -399.7939,764.817 -928.6816,1499.507 -1673.06406,2066.968 -421.1059,272.718 -949.2876,444.461 -1486.7635,437.259 536.1168,-529.145 768.5509,-1210.382 1214.339,-1786.508 138.09,-175.278 240.1252,-368.317 346.0367,-557.996 319.42406,-593.829 539.98826,-1219.289 786.90086,-1835.229 352.3991,-709.954 743.4677,-1421.547 1333.32434,-2018.354 z m -6864.0857,277.241 c -163.3958,599.191 -25.5384,1220.909 -159.8691,1822.785 -19.7219,39.871 -38.4445,104.238 -98.7711,108.547 -43.5646,-22.957 -30.5883,-78.506 -46.6934,-115.875 -130.7464,-614.603 56.072,-1237.82 302.1103,-1815.493 7.5362,-16.754 11.1933,-29.648 3.2233,0.03 z" />
	    <path
	       id="lvh_body"
	       d="m 13961.771,9049.9023 c -969.061,6.6348 -1970.468,-43.7602 -2895.221,299.162 -711.96,249.8188 -1261.6172,830.4497 -1606.6919,1487.1867 -177.8876,292.863 -482.3049,497.711 -816.9245,565.416 -296.0837,76.911 -624.4895,152.285 -822.6408,406.87 -398.3957,444.494 -463.7155,1188.139 -71.4237,1656.815 146.3614,149.876 378.9886,123.901 557.2877,54.332 203.6917,-55.94 430.1278,-65.766 622.315,33.071 562.4143,157.171 1176.2702,-99.089 1545.9052,-531.546 333.782,-369.748 589.467,-837.986 1049.016,-1071.009 490.037,-258.34 1060.799,-202.296 1594.761,-194.168 581.729,14.117 1172.742,-21.244 1729.654,-201.99 643.137,-161.419 1274.245,-373.574 1928.378,-489.013 8.774,274.767 -219.506,472.513 -420.013,623.742 -645.847,463.766 -1419.378,706.337 -2068.754,1164.68 -1009.156,621.867 -1879.332,1434.05 -2820.999,2147.696 -1222.427,876.093 -2501.3453,1684.601 -3613.0993,2704.318 -718.9076,599.47 -1518.7542,1155.227 -2446.1555,1363.788 -443.3697,88.867 -886.4159,204.013 -1341.4132,207.837 101.3652,-935.952 345.9254,-1863.77 284.4766,-2811.687 -22.644,-365.792 -83.399,-732.289 -203.5379,-1078.818 -137.6743,-318.378 -514.6067,-531.52 -856.1529,-426.586 -299.5245,74.944 -524.1061,344.954 -577.0716,644.487 -147.2471,522.423 -66.8893,1069.705 -86.2041,1603.72 11.4095,1199.03 -153.6254,2389.208 -248.6294,3582.118 -30.5207,499.762 -35.0382,1028.141 186.9845,1489.229 107.3574,192.43 355.0145,322.823 568.1934,225.519 224.9556,-79.426 345.4058,-300.47 462.7682,-491.304 500.7048,-637.622 1358.199,-940.313 2152.8746,-831.308 540.8743,28.464 1110.5509,9.484 1599.6268,-250.148 695.8587,-319.07 1238.5071,-881.804 1722.0639,-1460.662 844.9778,-866.498 1953.1539,-1395.081 2899.7599,-2133.051 815.05,-618.406 1643.522,-1221.116 2513.542,-1760.453 772.95,-515.147 1496.441,-1108.556 2125.472,-1793.352 1032.544,-1025.075 2130.163,-1981.223 3216.372,-2948.12 286.66,-283.928 579.601,-610.684 643.665,-1023.7284 16.741,-301.0553 -245.072,-607.899 -560.213,-567.0296 -406.232,0.5861 -802.839,134.5956 -1210.629,100.5633 -1585.936,34.1641 -3152.618,-304.5642 -4737.342,-296.577 z" />
	    <path
	       id="lvh_ink"
	       d="m 20068.472,3569.5278 c -264.151,24.5761 -434.919,301.0776 -425.383,550.1859 -93.705,245.5585 -285.485,476.3321 -242.306,754.7869 -0.116,210.2472 133.942,397.1435 131.376,605.5116 -42.782,271.6638 74.622,563.996 -66.166,819.1328 -116.909,292.4011 -176.114,632.4251 -42.998,930.1524 63.719,138.666 144.42,278.3347 130.903,436.9599 6.763,220.617 44.017,446.8365 166.219,635.1316 62.273,114.6838 65.143,246.6425 53.487,372.7302 13.383,305.9266 57.889,614.8367 162.305,903.496 66.232,162.4114 199.726,347.7801 395.797,335.1842 213.362,-18.0026 357.077,-228.914 363.431,-431.3863 35.231,-250.6608 22.203,-511.1667 121.158,-749.0246 89.606,-401.4694 -96.52,-803.9395 -24.327,-1205.926 38.18,-296.809 92.85,-605.4653 3.842,-898.3799 5.912,-154.0434 48.481,-316.9861 -26.189,-462.0517 -49.671,-151.0076 -19.125,-310.9333 34.206,-455.8718 83.85,-309.1058 44.854,-648.8687 -119.43,-925.2447 -32.36,-71.2365 -98.984,-143.2029 -55.54,-223.1795 87.376,-325.5149 -21.779,-706.6245 -302.943,-903.9548 -75.784,-51.8054 -165.208,-85.2491 -257.442,-88.2522 z" />
	    <path
	       id="lvh_k_line"
	       d="m 21589.044,6267.0142 c 141.994,-1.2231 280.277,-38.0536 418.677,-66.4773 289.422,-66.7137 539.05,-244.4761 763.438,-436.2227 346.977,-326.1665 746.13,-584.7761 1127.646,-865.001 293.894,-228.2658 565.474,-488.0501 880.45,-686.9598 202.658,-146.606 444.089,-224.1954 645.648,-372.5356 62.596,-48.3705 -68.979,-16.2773 131.097,-199.5066 200.068,-183.234 400.083,-366.4657 600.135,-549.6949 94.246,-86.3124 251.054,-31.9806 377.848,-32.1672 98.34,-13.0709 180.072,85.0742 174.849,181.371 -20.01,132.1183 -111.44,236.6294 -200.892,327.4473 -339.008,309.2717 -681.581,615.1058 -1003.837,942.983 -196.322,219.0403 -422.137,408.8482 -663.375,573.6246 -271.53,172.5091 -530.111,365.2904 -784.48,563.0953 -295.445,236.0457 -641.302,405.1182 -905.022,682.2752 -150.894,185.1532 -320.26,365.1477 -537.459,467.2073 -152.633,83.0438 -330.413,89.1175 -499.239,80.0102 -248.023,-34.8645 -515.641,61.9535 -671.907,265.9029 -36.627,61.0384 -74.226,131.7426 -144.439,157.1487 -66.545,31.1227 -143.813,-10.5827 -177.321,-72.136 -69.293,-147.4842 -70.773,-316.6977 -58.374,-476.3419 m 526.557,-484.0225 -263.282,242.0085 m 0,0 c 44.973,223.8236 -208.01,43.4745 -263.275,242.014" />
	  </g>
	 </symbol>

	 <symbol id="not_found"  viewBox="0 -25 127 275">
	 	<g id="not_found_body_container">
	 		<path
		         id="not_found_body"
		         d="m 68.238233,28.231126 c -1.89774,0.139307 -3.7948,0.293907 -5.6876,0.489594 -1.02119,0.08602 -2.02614,0.29498 -3.02727,0.506207 -1.04973,0.213538 -2.04672,0.610894 -3.03946,1.003199 -1.30387,0.523293 -2.55596,1.164196 -3.83161,1.751 -1.07843,0.541051 -2.19168,1.017518 -3.22965,1.635297 -1.23653,0.725415 -2.32944,1.658944 -3.4559,2.538531 -0.95727,0.81159 -1.94438,1.597646 -2.77977,2.539493 -0.73336,0.810262 -1.4087,1.671156 -2.11671,2.503475 -0.79415,1.004661 -1.62787,1.97916 -2.38428,3.012938 -0.94473,1.300538 -1.6064,2.774369 -2.31885,4.207766 -0.46007,1.001552 -0.97278,1.984062 -1.3118,3.035966 -0.52048,1.487817 -0.77925,3.052658 -0.93764,4.616706 -0.12327,1.07116 -0.19492,2.149627 -0.18856,3.228137 -0.0134,1.378237 -0.0123,2.75653 -0.0132,4.134815 -1.29524,1.477609 -2.62876,2.925852 -3.81784,4.492039 -0.68635,0.912072 -1.21312,1.938255 -1.58646,3.015774 -0.40901,1.29614 -0.60531,2.654455 -0.62724,4.012027 -0.0224,1.099691 -0.0239,2.207779 0.10027,3.301163 0.11679,1.113508 0.61179,2.148735 1.31095,3.013265 0.50938,0.7222 1.58389,1.20849 2.36837,0.60909 0.76201,-0.5282 0.87717,-1.506161 0.83398,-2.359373 -0.0235,-1.390329 -0.0913,-2.784289 0.0332,-4.171875 0.10397,-0.996205 0.37043,-1.972856 0.80515,-2.87598 0.34592,-0.748277 0.80835,-1.495603 1.53144,-1.930533 l 0.0286,-0.01966 3.23633,4.787109 c 1.43074,1.853932 2.92355,3.658425 4.40625,5.470703 0.50987,0.658739 1.05325,1.608369 2.01758,1.521489 l 1.23046,0.0312 c 0.53767,-0.64831 0.43642,-1.551695 0.2998,-2.321985 -0.15536,-0.950626 -0.29309,-1.909122 -0.27829,-2.874847 0.022,-1.037934 0.14064,-2.071874 0.20698,-3.107755 l 0.24027,-3.16612 c 0.30328,-0.357754 0.92302,-0.162842 1.08398,0.240234 0.73298,0.852612 1.08328,1.939355 1.54508,2.945297 0.54755,1.258402 1.22075,2.456502 1.93148,3.628922 0.50694,0.870474 1.40151,1.555058 2.43946,1.568359 0.72385,0.118456 1.29548,0.629437 1.68061,1.225742 0.5208,0.623794 1.49141,1.233273 2.27178,0.719293 0.50247,-0.420411 0.31049,-1.154057 -0.0322,-1.607574 -0.40053,-0.847188 -0.87507,-1.67941 -1.05696,-2.608945 -0.1736,-1.137438 -0.0937,-2.29594 0.0659,-3.430161 0.13206,-0.91961 0.30157,-1.848698 0.68603,-2.700699 0.40369,-0.778766 1.31595,-1.189435 2.1703,-1.13457 0.95506,0.122255 1.91371,0.234268 2.86293,0.405115 0.28883,0.07129 0.64302,0.04863 0.88864,0.209924 -0.3129,0.809209 -0.46735,1.875002 0.0907,2.624768 0.65095,0.814269 1.80025,1.026345 2.78585,0.869244 0.90507,-0.106296 1.8208,-0.379606 2.73454,-0.21131 0.85073,0.14964 1.64463,0.655811 2.10291,1.393439 0.52297,0.913244 0.56404,1.996167 0.66973,3.018453 0.23322,3.225656 0.20367,6.462296 0.17286,9.694076 -0.0744,2.93438 -0.14629,5.87158 -0.40234,8.79688 -0.1057,1.06083 -0.25393,2.12434 -0.59554,3.13828 -0.4792,1.364012 -1.20399,2.622162 -1.86832,3.901192 -0.51654,0.96547 -1.04563,1.92516 -1.59949,2.86966 -0.67914,1.11133 -1.42078,2.18447 -2.05774,3.32134 -0.54206,1.00888 -0.87328,2.11246 -1.10362,3.23017 -0.27783,1.20792 -0.53439,2.43919 -1.10341,3.55108 -0.57506,1.18165 -1.24544,2.31354 -1.92228,3.43891 -0.58226,0.98329 -1.21728,1.9368 -1.76414,2.94007 -0.8894,1.67027 -1.50069,3.46692 -2.20085,5.22008 -0.69171,1.78958 -1.39948,3.57323 -2.08135,5.36644 -1.20804,3.46166 -2.42415,6.92048 -3.65974,10.37242 -0.83776,2.34754 -1.69419,4.68838 -2.53961,7.03317 -1.32421,3.34568 -2.73132,6.65759 -4.11021,9.9809 -0.3746,0.92444 -0.82696,1.81756 -1.36831,2.65582 -0.60464,0.91998 -0.94569,1.97226 -1.31174,3.00135 -0.40561,1.15296 -0.90867,2.26721 -1.39529,3.38732 -0.68574,1.43689 -1.4944,2.81003 -2.27532,4.1962 -1.20411,2.10843 -2.40791,4.21737 -3.58875,6.33881 -0.91536,1.74841 -1.82671,3.49943 -2.77084,5.23237 -0.85989,1.46803 -1.71436,2.9395 -2.51405,4.44145 -0.53305,0.98173 -1.0819,1.95494 -1.67971,2.89895 -0.56118,0.92702 -1.1438,1.84746 -1.54828,2.85706 -0.81949,1.94554 -1.62721,3.89619 -2.45396,5.83857 -1.07091,2.37838 -2.15481,4.75144 -3.15346,7.16143 -0.43576,1.01358 -0.83565,2.04686 -1.39105,3.00334 -0.33698,0.55141 -0.74014,1.06028 -1.13825,1.56893 -0.5889,-0.69511 -1.11573,-1.56432 -0.98828,-2.51367 0.14365,-0.94391 0.79518,-1.71266 0.96624,-2.64898 0.39275,-1.74825 0.9075,-3.46623 1.419,-5.18263 0.35547,-0.99148 0.54707,-2.02383 0.62257,-3.07269 0.14428,-1.11046 0.69895,-2.0973 1.07359,-3.13648 0.98139,-2.78859 1.93721,-5.58624 2.8893,-8.385 0.81855,-2.744 1.62779,-5.49075 2.42773,-8.24024 1.63074,-4.98763 3.34524,-9.94729 5.01925,-14.92046 0.34313,-1.06344 0.75301,-2.10641 1.03461,-3.18872 0.20907,-0.8819 0.58125,-1.79988 0.40588,-2.71562 -0.29748,-0.92631 -1.27023,-1.31389 -2.11163,-1.59254 -0.88517,-0.40703 -1.47007,-1.37911 -1.36959,-2.35609 0.0673,-1.08479 0.33577,-2.14257 0.52376,-3.20996 0.25389,-1.28659 0.50755,-2.57597 0.88325,-3.83363 0.30198,-1.07861 0.73973,-2.11329 1.16526,-3.14782 0.76652,-1.78364 1.61775,-3.529 2.40625,-5.30274 0.42472,-1.04304 0.81924,-2.09954 1.29882,-3.11914 0.68032,-1.2663 1.40931,-2.50577 2.11877,-3.75584 0.5409,-0.91209 1.04366,-1.84743 1.60975,-2.74416 0.51714,-0.76156 1.21955,-1.37282 1.95508,-1.91601 0.88214,-0.76226 1.24163,-1.90589 1.47981,-3.0063 l 1.72136,-6.42534 c 0.19813,-1.25339 0.33458,-2.51951 0.32867,-3.78978 0.008,-0.79985 0.003,-1.59979 0.005,-2.39967 l -2.3125,-0.93946 c -0.93133,0.38213 -1.55249,1.26573 -1.84953,2.20044 -0.37496,1.03281 -0.60402,2.11092 -0.88648,3.17113 -0.44856,1.65081 -1.01755,3.26566 -1.50227,4.90578 -0.28839,1.07412 -0.51256,2.16818 -0.90039,3.21289 -0.3999,0.95294 -0.96813,1.82335 -1.49355,2.70993 -0.72086,1.16101 -1.44332,2.32113 -2.20919,3.45321 -0.58702,0.87519 -1.15699,1.76251 -1.79791,2.59993 -0.67248,0.86533 -1.2342,1.80627 -1.76409,2.76355 -0.72048,1.28174 -1.57314,2.49345 -2.15713,3.84838 -0.39926,1.04179 -0.68193,2.12279 -1.02311,3.18412 -0.74134,2.44209 -1.44715,4.89479 -2.16049,7.34517 -0.24755,0.99014 -0.35018,2.01665 -0.26949,3.03525 0.12799,1.458 0.27867,2.91403 0.43746,4.36905 0.0795,0.98873 -0.24171,1.94414 -0.53225,2.87395 -0.41847,1.32493 -0.81592,2.65637 -1.20798,3.98933 -0.31661,1.43519 -0.55973,2.88484 -0.78646,4.33655 -0.67547,4.20996 -1.34929,8.42018 -2.02409,12.63025 -0.27912,1.35061 -0.57476,2.6976 -0.88672,4.04101 -0.50796,1.79576 -1.11452,3.56092 -1.71846,5.32606 -0.48118,1.40503 -0.93636,2.8273 -1.61253,4.15405 -0.47734,0.90704 -0.7838,1.88601 -1.06564,2.86756 -0.24218,0.91731 -0.63047,1.78526 -0.91282,2.68905 -0.30963,0.9758 -0.38605,2.00503 -0.52682,3.01417 -0.0792,0.98511 -0.3973,1.9263 -0.74898,2.84276 -0.93565,2.55959 -1.87157,5.11907 -2.8073301,7.67862 -0.15792,0.26382 -0.16494,0.69581 -0.52929,0.77148 -0.53522,0.46915 -0.55377,1.23981 -0.88191,1.83474 -0.38599,0.95918 -0.6818,1.95148 -0.9257,2.9555 -0.33804,1.30925 -0.66192,2.62401 -1.106,3.90255 -0.76485,2.2701 -1.52098,4.551 -2.54412,6.72112 -0.44898,0.94647 -0.89739,1.89698 -1.1829,2.90836 -0.38369,1.33971 -0.67664,2.70308 -0.99001,4.06034 -0.21209,1.02741 -0.49392,2.05667 -0.4611,3.11456 -0.0429,0.42248 0.20266,0.84725 -0.0119,1.2474 -0.31274002,1.06635 -0.75616002,2.09281 -0.99907002,3.17986 -0.27053,1.06305 -0.32698,2.16742 -0.26058,3.25917 0.0797,1.01713 0.1622,2.26501 1.09066002,2.88984 0.75453,0.53884 1.75218,0.36459 2.52321,-0.0415 0.84648,-0.43207 1.63399,-0.97572 2.3761,-1.56769 0.72082,-0.57029 1.42842,-1.22857 1.78542,-2.09508 0.41225,-1.07683 0.57951,-2.22478 0.9056,-3.3275 0.37451,-1.35213 0.88282,-2.66174 1.3346301,-3.9889 0.39488,-1.02303 0.73648,-2.06801 1.21485,-3.05664 0.68785,-1.48603 1.50802,-2.90989 2.11354,-4.43377 0.61883,-1.56272 1.34587,-3.0789 2.03489,-4.61115 0.72531,-1.54581 1.52852,-3.05305 2.29385,-4.57892 0.55671,-1.14108 1.03396,-2.31862 1.55576,-3.47577 0.42161,-0.95135 1.00588,-1.81485 1.49705,-2.72855 0.45864,-0.86697 0.79241,-1.79339 1.27694,-2.64781 0.80464,-1.45216 1.67429,-2.86712 2.47306,-4.32268 0.54561,-0.99201 1.08209,-1.99073 1.56798,-3.01358 0.4009,-0.92758 0.94014,-1.78347 1.37443,-2.69363 0.3527,-0.98697 0.83918,-1.91258 1.45964,-2.75731 0.65595,-0.86255 0.78309,-1.96092 1.17968,-2.94149 0.38907,-1.02111 0.91733,-1.98048 1.38435,-2.96664 0.5068,-1.00099 0.94617,-2.03794 1.53585,-2.99473 1.17627,-1.99736 2.4097,-3.96049 3.60376,-5.94724 l 2.23711,-3.68361 c 1.28055,-2.34124 2.44162,-4.74486 3.66012,-7.11846 0.7493,-1.48298 1.5219,-2.95392 2.324,-4.40906 0.63255,-1.16829 1.25001,-2.34535 1.866,-3.52201 0.51206,-0.93481 1.38361,-1.60448 1.87249,-2.55306 0.51195,-0.9146 1.01341,-1.83626 1.47753,-2.77605 0.5928,-1.25107 1.10438,-2.54998 1.39202,-3.9077 0.28427,-1.25698 0.45074,-2.53667 0.69746,-3.80111 0.17225,-1.03702 0.40691,-2.06178 0.68799,-3.07451 0.46377,-1.72599 0.96853,-3.4407 1.47551,-5.15444 0.67319,-2.09053 1.39678,-4.16418 2.13315,-6.23316 0.46265,-1.28597 0.89794,-2.5821 1.37832,-3.86149 0.39463,-1.01035 0.83138,-2.00417 1.17408,-3.03426 0.52566,-1.54707 1.01596,-3.10672 1.57823,-4.64098 0.54717,-1.47759 1.25677,-2.88676 1.98098,-4.28371 1.2835,-2.41323 2.67102,-4.7698 3.93686,-7.19255 0.71316,-1.35606 1.37547,-2.73831 2.06814,-4.10493 1.39063,-2.81433 2.77294,-5.6328 4.16235,-8.44775 0.56259,-1.2698 1.07988,-2.56832 1.395323,-3.92395 0.477259,-1.83288 0.802785,-3.700692 1.243052,-5.542342 0.3944,-1.68986 0.808978,-3.37499 1.211234,-5.06301 0.177939,-1.02761 0.29467,-2.07185 0.230561,-3.11568 -0.259031,-2.35567 -0.545217,-4.70932 -0.816498,-7.06401 -0.08674,-1.087691 -0.201153,-2.176957 -0.146484,-3.269529 0.03768,-1.084996 0.107528,-2.168647 0.153793,-3.253087 0.04394,-0.918903 -0.08495,-1.834087 -0.229965,-2.7391 -0.16721,-1.082422 -0.119982,-2.179512 -0.178739,-3.269662 0.02439,-1.037331 -0.649573,-1.98282 -1.573217,-2.411979 -0.19548,-0.108448 0.0198,-0.316647 0.03125,-0.464843 0.342483,-0.585214 0.859009,-1.045294 1.22884,-1.613267 1.064997,-1.341799 2.152038,-2.665638 3.247723,-3.982436 0.60471,-0.782512 1.08529,-1.650249 1.524569,-2.533733 0.55451,-1.146683 0.993192,-2.343187 1.45004,-3.530721 0.314742,-0.972244 0.30535,-2.006547 0.349377,-3.016831 0.04337,-1.254705 -0.01279,-2.509828 -0.03492,-3.764419 -0.07313,-1.028267 -0.323998,-2.032225 -0.62899,-3.013783 -0.43567,-1.327771 -0.885237,-2.650976 -1.370924,-3.961433 -0.383527,-1.122263 -0.90166,-2.193778 -1.503993,-3.214237 -0.487164,-0.841666 -0.958647,-1.711182 -1.185547,-2.664062 -0.189205,-0.970629 0.14178,-2.006794 -0.249745,-2.941464 -0.401209,-0.932797 -1.367042,-1.399802 -2.229341,-1.819639 -0.920449,-0.436687 -1.851469,-0.861887 -2.820859,-1.178668 -0.92919,-0.311459 -1.90613,-0.479035 -2.88756,-0.45476 l -0.67968,0.03125 z m 0.625,7.447265 c 0.48849,0.125703 0.95549,0.31698 1.42968,0.486328 -0.0385,0.828822 -0.59215,1.537497 -1.24753,1.999988 -0.80654,0.537218 -1.64093,1.036965 -2.40661,1.634266 -1.64464,1.317222 -3.17254,2.770564 -4.7189,4.199731 -0.63313,-0.774668 -0.74848,-1.906529 -0.30134,-2.7993 0.34746,-0.87633 0.8466,-1.690334 1.42917,-2.429904 0.69347,-0.903044 1.56489,-1.658951 2.51739,-2.277886 0.87163,-0.578546 1.91669,-1.025249 2.98251,-0.86417 l 0.18048,0.02913 z m -8.18164,0.630859 c -0.71613,0.886806 -1.54068,1.741326 -1.89104,2.853352 -0.38643,1.042089 -0.47787,2.158591 -0.54517,3.25938 -0.0147,1.001898 -0.35767,2.116842 -1.33148,2.576342 -0.92111,0.490356 -1.96462,0.677738 -2.95435,0.985079 -0.8354,0.229806 -1.68857,0.383772 -2.53578,0.562176 -0.25311,0.686634 -1.44656,0.05647 -0.97254,-0.535362 0.50944,-0.987606 1.00201,-1.995759 1.69782,-2.869359 0.86859,-1.151041 1.84397,-2.218809 2.89302,-3.20748 0.90418,-0.874872 1.85834,-1.695689 2.79577,-2.534284 0.86558,-0.67998 1.75982,-1.431339 2.875,-1.632812 l 0.44921,-0.05664 z m -7.72852,-0.125 c -0.54565,1.005094 -1.33439,1.844899 -2.04687,2.730469 l -2.16797,2.642578 c -0.57358,1.076818 -1.18538,2.137741 -1.63376,3.275323 -0.44958,1.052119 -0.81275,2.137697 -1.19046,3.216865 -0.38319,0.903835 -0.94022,1.71972 -1.55635,2.47954 -0.627,0.793121 -1.25102,1.624963 -1.55107,2.604444 -0.36255,1.138765 -0.54489,2.322851 -0.79749,3.488451 -0.2243,1.00972 -0.38196,2.03962 -0.67517,3.03108 -0.2347,0.574117 -0.72723,1.100261 -1.37305,1.16211 -0.78299,-0.378047 -1.26436,-1.177498 -1.48553,-1.992247 -0.23602,-0.912211 -0.37273,-1.852039 -0.39272,-2.794807 10e-6,-1.022022 0.093,-2.053363 0.4039,-3.031203 0.30359,-1.009522 0.80072,-1.946192 1.34242,-2.845962 0.63597,-1.040318 1.28156,-2.076096 1.97601,-3.078617 0.78411,-1.104928 1.59848,-2.188248 2.4116,-3.271914 0.91468,-1.183883 1.78286,-2.406647 2.77039,-3.531933 0.73911,-0.840892 1.57567,-1.590134 2.44899,-2.288652 0.86903,-0.668846 1.73101,-1.403219 2.78249,-1.765022 0.2607,-0.107497 0.53937,-0.144519 0.81472,-0.194565 l -0.0801,0.164062 z m 21.109376,0.585938 c 0.163568,0.291474 0.309574,0.60008 0.550781,0.837891 -0.352232,-0.01542 -0.672367,-0.172368 -0.996097,-0.294922 -0.22039,-0.287694 0.0652,-0.749656 0.414066,-0.722657 z m -1.306636,4.339844 c 0.48994,1.270218 0.8469,2.584798 1.22656,3.890625 0.288409,1.010814 0.298812,2.119532 -0.084,3.107422 -0.37726,1.057139 -0.83058,2.130162 -1.64962,2.925991 -0.67573,0.739336 -1.40195,1.435596 -2.19661,2.046613 -0.62928,0.509892 -1.4398,0.692429 -2.15181,1.052786 -0.0139,0.157741 -0.30098,0.249744 -0.26758,0.02734 -0.29399,-0.853285 -0.22146,-1.794531 -0.59767,-2.629297 -0.32926,-0.853692 -0.88765,-1.640927 -0.96483,-2.575781 0.002,-0.881311 -0.31246,-1.80386 -0.01,-2.658203 0.3617,-0.809481 1.15115,-1.293151 1.88722,-1.720539 0.99658,-0.6075 1.98724,-1.233124 2.88601,-1.981021 0.6226,-0.500374 1.23917,-1.008241 1.85959,-1.511331 l 0.0625,0.02539 z m -13.79102,7.361328 c -0.022,0.855173 -0.0223,1.767161 -0.47324,2.526622 -0.2329,0.413659 -0.76841,0.877635 -1.25137,0.565175 -0.78471,-0.143748 -1.48735,0.363493 -2.0332,0.865234 -0.79429,0.677898 -1.47692,1.474551 -2.07123,2.331228 -0.83965,1.216617 -1.73742,2.391708 -2.6358,3.565257 -0.64904,-0.525323 -0.87486,-1.376068 -0.99048,-2.167043 -0.20581,-1.293262 -0.38746,-2.600169 -0.32788,-3.913036 0.1298,-1.070189 1.00113,-1.909298 2.00777,-2.203999 1.01048,-0.412483 2.06732,-0.695622 3.10551,-1.028422 1.25788,-0.35618 2.48536,-0.838842 3.78211,-1.041493 l 0.90734,-0.161633 c -0.007,0.220704 -0.013,0.441407 -0.0195,0.66211 z m 19.570312,0.326172 c 0.167488,0.935346 0.06679,1.890085 -0.05469,2.824218 -0.170807,1.091324 -0.454012,2.167543 -0.8849,3.185897 -0.418368,1.051891 -0.977351,2.044591 -1.617334,2.976891 -0.668982,0.98384 -1.456406,1.878904 -2.249718,2.762994 -0.88474,0.936144 -1.80473,1.846499 -2.83645,2.621467 -0.79437,0.586425 -1.64824,1.11394 -2.57069,1.473984 -0.87429,0.362649 -1.81778,0.514413 -2.75538,0.600873 -0.9736,0.04049 -2.04427,0.305711 -2.94285,-0.190435 -0.27533,-0.02776 -0.004,-0.295463 -0.0423,-0.427338 0.3043,-0.845107 1.12603,-1.310571 1.71573,-1.935699 0.7889,-0.742535 1.58579,-1.47617 2.41383,-2.175121 0.83177,-0.704393 1.74939,-1.299141 2.64263,-1.921587 0.9872,-0.669185 1.98888,-1.316919 2.96726,-1.999269 0.75823,-0.673718 1.38936,-1.476269 1.930142,-2.331646 0.957235,-1.492338 1.903675,-2.992185 2.800323,-4.52187 0.336482,-0.554674 0.740971,-1.141398 1.394531,-1.339844 l 0.08984,0.396485 z M 62.546823,49.12761 c 0.1339,0.421148 0.1546,0.941261 0.54883,1.220703 l 1.1289,3.097656 c 0.022,1.041811 0.18282,2.227361 -0.52217,3.099083 -0.59525,0.777778 -1.55041,1.142188 -2.46286,1.397968 -1.24439,0.340378 -2.51201,0.587359 -3.77278,0.858418 -0.89704,0.135548 -1.81229,0.483061 -2.72265,0.257812 0.0896,-0.860428 0.49938,-1.676384 1.11168,-2.28356 0.68579,-0.640594 1.45755,-1.183887 2.20926,-1.744169 0.87264,-0.659729 1.81502,-1.24226 2.57749,-2.034771 0.75117,-0.807442 1.04226,-1.898694 1.4486,-2.895914 0.12386,-0.324679 0.24799,-0.649249 0.37367,-0.973226 l 0.082,0 z m -17.3125,6.460937 c 0.45438,0.742618 0.88326,1.578771 0.80492,2.476864 0.0279,0.600062 -0.57012,1.264582 -1.18969,1.009465 -0.0451,-0.103696 -0.32372,-0.117503 -0.13541,-0.311088 0.18251,-0.927208 0.17427,-1.880861 0.38346,-2.804147 0.0247,-0.123698 0.0495,-0.247396 0.0742,-0.371094 l 0.0625,0 z m 14.43945,6.609375 c -0.2843,0.959647 -1.15313,1.67926 -2.12338,1.871436 -0.95478,0.207528 -1.93567,0.0624 -2.88894,-0.07938 l -0.18029,-0.03021 c -0.0715,-0.07349 -0.59453,-0.01808 -0.21632,-0.220249 0.64063,-0.746955 1.5392,-1.235956 2.5085,-1.39458 0.96647,-0.252923 1.95375,-0.417842 2.9434,-0.549357 -0.0143,0.134114 -0.0286,0.268229 -0.043,0.402343 z m -14,2.601563 c 0.70351,0.0047 1.41047,0.354642 1.79102,0.955078 l -0.51953,1.53125 c -0.82953,-0.40125 -1.5015,-1.102316 -1.88672,-1.9375 0.14073,-0.223491 0.26461,-0.65245 0.61523,-0.548828 z m 5.02149,1.201172 c 0.77452,0.54866 1.57807,1.057854 2.42578,1.486328 0.58187,0.548701 0.64761,1.412852 0.55859,2.162109 -0.25626,1.726204 -0.54428,3.448656 -0.7207,5.185547 -0.0729,0.576172 -0.14583,1.152344 -0.21875,1.728516 -0.9289,-0.663634 -1.2085,-1.833682 -1.7676,-2.771142 l -0.37888,-0.71128 1.24609,-1.681641 c -0.6595,-0.841359 -1.46495,-1.657066 -1.67383,-2.746094 -0.17551,-0.821545 -0.19783,-1.745588 0.25643,-2.484723 l 0.0943,-0.156598 c 0.0182,-0.07847 0.14019,-0.029 0.17856,-0.01102 z m -10.82031,1.291015 c 0.71521,0.69487 1.3797,1.438753 2.05273,2.173828 0.48812,0.848344 0.91582,1.732245 1.24609,2.654297 0.22601,1.053436 0.40529,2.121734 0.42509,3.201209 0.0168,0.599458 0.009,1.199308 -0.005,1.798791 -0.68107,0.128479 -1.41102,-0.300216 -1.63477,-0.955078 l -2.22461,-2.933593 c -0.46424,-0.927123 -0.97016,-1.835965 -1.34961,-2.802735 l -0.49609,-1.910156 c 0.32162,-0.730623 1.06538,-1.195275 1.83398,-1.326172 l 0.15235,0.09961 z" />
	 	</g>
	 	<g id= "not_found_bino_container">
	 		<path
		         id="not_found_bino"
		         d="m 111.252,1.3147752 c -1.08059,0.195049 -2.13344,0.523881 -3.1543,0.925781 -1.02832,0.502828 -2.07717,0.978167 -3.02344,1.628906 -0.81998,0.626472 -1.11406,1.693493 -1.09765,2.685547 -0.0298,0.983856 0.0395,1.995693 -0.25782,2.9472664 -0.35832,1.0633544 -1.27565,1.7815294 -2.18666,2.3633934 -0.89745,0.581277 -1.866321,1.040086 -2.800341,1.557948 -1.00897,0.519875 -1.95099,1.157331 -2.84776,1.850989 -1.04437,0.783472 -2.05895,1.607087 -3.0514,2.455119 -0.8634,0.742775 -1.67087,1.545167 -2.48012,2.34566 -1.39191,1.360891 -2.7673,2.739489 -4.19212,4.066034 -1.49744,1.336295 -2.99925,2.667668 -4.5041,3.995622 -0.72469,0.684202 -1.39397,1.428011 -1.97633,2.237364 -0.49611,0.649993 -1.06054,1.447961 -0.79515,2.30951 0.2778,0.64504 0.89934,1.097506 1.10351,1.78711 0.11361,0.258727 0.0756,0.564739 0.12891,0.818359 0.48243,0.251428 0.50979,0.908544 0.53517,1.393577 0.0276,0.830683 0.23397,1.637576 0.51561,2.41697 0.62184,1.661682 1.36525,3.281124 1.8418,4.994141 0.24516,0.961086 0.31337,1.992715 0.83398,2.861328 0.58383,0.94092 1.73422,1.241493 2.77763,1.222788 1.30186,0.06337 2.60643,0.02937 3.90944,0.03687 4.13751,-0.0058 8.27503,-0.01165 12.412541,-0.01747 l 4.14649,0.251953 c 1.06103,0.285994 1.9977,0.913341 3.07031,1.164063 1.10202,0.195731 2.2316,0.184833 3.34031,0.05182 0.97845,-0.103438 1.91663,-0.413169 2.84906,-0.711808 0.88953,-0.285594 1.81497,-0.454234 2.74889,-0.488954 0.82113,-0.04442 1.60738,-0.404376 2.22385,-0.940903 0.96184,-0.915602 1.80319,-1.946943 2.65717,-2.961108 0.56776,-0.714875 1.16715,-1.443231 1.45506,-2.323736 0.49861,-1.519345 0.61718,-3.127039 0.73147,-4.7122 0.0756,-1.407355 0.18962,-2.816291 0.14376,-4.226575 -0.0315,-1.273961 -0.2679,-2.532289 -0.58085,-3.764552 -0.50174,-2.062609 -1.05796,-4.111589 -1.58283,-6.168413 l -1.66167,-6.413727 c -0.41232,-1.309439 -0.77449,-2.642121 -1.36361,-3.886899 -0.46545,-1.051278 -1.04475,-2.049123 -1.67501,-3.009474 -1.06973,-1.6570978 -2.22453,-3.2564708 -3.36177,-4.8672998 -0.70225,-0.877661 -1.42107,-1.741539 -2.15625,-2.591797 -0.62485,-0.610349 -1.35798,-1.236975 -2.27029,-1.298702 -0.13444,-0.005 -0.27075,0.01593 -0.40549,0.0155 z m 1.25586,5.783203 c 0.64394,0.820687 1.19848,1.7048124 1.76367,2.5800784 0.56141,0.9647224 1.0883,1.9478104 1.57323,2.9532334 0.62555,1.257492 1.12196,2.57349 1.5634,3.905418 0.29017,0.899687 0.66215,1.82676 0.88485,2.717521 -0.04,0.02417 -0.24971,-3.36e-4 -0.16406,-0.08008 -0.91635,-0.15899 -1.88695,-0.369481 -2.7951,-0.05455 -0.8747,0.294513 -1.71347,1.197433 -1.45536,2.172772 0.30233,0.979456 1.7114,1.041168 2.4017,0.444218 0.7809,-0.584359 1.47419,-1.283696 2.31165,-1.790957 0.28819,0.482072 0.186,1.084876 0.35264,1.611647 0.36515,2.082173 0.85601,4.139343 1.3108,6.203089 0.60673,2.721514 1.29011,5.425051 1.94789,8.134482 0.18831,0.949979 0.0298,1.925695 -0.21498,2.849447 -0.24866,0.952892 -0.55727,1.923686 -1.17565,2.707193 -0.32817,0.37375 -0.75195,0.651232 -1.20898,0.841797 -0.7759,-0.602785 -1.51944,-1.24712 -2.21875,-1.9375 -0.78977,-1.208644 -1.61698,-2.397201 -2.28187,-3.68158 -0.59431,-1.124866 -1.18649,-2.255418 -1.62877,-3.450718 -0.43621,-1.118894 -0.77173,-2.273021 -1.1421,-3.414577 l -0.80468,-3.203124 c -0.42134,-2.409624 -0.80519,-4.825956 -1.13881,-7.249297 -0.15814,-1.084674 -0.2357,-2.177742 -0.29591,-3.271541 -0.057,-1.490572 0.0207,-2.981943 0.0359,-4.47272 0.0253,-1.404199 0.081,-2.8076474 0.1195,-4.2115208 0.0672,-0.70413 0.25019,-1.56895 0.98829,-1.857422 l 1.27148,1.554688 z m -7.99024,8.2890628 2.2832,7.929688 1.83204,7.61914 c 0.31085,1.124517 0.62565,2.248734 1.02232,3.346705 l 1.48549,4.321263 c 0.6848,1.406939 1.43223,2.78164 2.17187,4.160156 0.21487,0.413736 0.41518,0.834407 0.60157,1.261719 -0.95924,0.247637 -1.9506,0.3238 -2.93736,0.362592 -2.36026,0.0086 -4.72065,0.02843 -7.0808,-0.0092 -3.41071,-0.03287 -6.821221,-0.08237 -10.231841,-0.122934 l -3.72657,-0.201172 c -0.96031,-0.06697 -1.9071,-0.750682 -2.09179,-1.726562 -0.22927,-0.976782 -0.25039,-1.987415 -0.45561,-2.96881 -0.18502,-1.021449 -0.46224,-2.023657 -0.74152,-3.022511 -0.29762,-1.058104 -0.65043,-2.10135 -0.90747,-3.170379 -0.24433,-0.936931 -0.0368,-1.955474 0.55577,-2.721113 0.61831,-0.858733 1.31356,-1.659464 2.02448,-2.442244 0.76144,-0.848525 1.56618,-1.658629 2.41062,-2.424679 1.02476,-0.964229 2.08412,-1.890856 3.1473,-2.812257 l 8.021111,-6.875506 c 0.72864,-0.527683 1.46199,-1.106398 2.35352,-1.324219 l 0.26367,0.820312 z m 12.40234,11.22461 c -0.81193,0.27972 -1.59591,0.631201 -2.38476,0.96875 -0.26656,0.900547 0.0868,1.964058 0.89453,2.466796 0.92528,0.02709 1.87701,-0.323404 2.48657,-1.035176 0.44785,-0.587266 0.43965,-1.498285 -0.0616,-2.051362 -0.22955,-0.260091 -0.58748,-0.412248 -0.93471,-0.349008 z" />
	 	</g>
	 </symbol>

	 <symbol id="secure_page" viewBox="0 0 620.6344 743.09278">
	 	<g id="secure_page_path" transform="matrix(0.1,0,0,-0.1,-364.89832,2048.3718)" />
	 	 <path id="secure_page_path"
		     d="m 592.24588,548.18448 0,-69.93762 c 0,-58.50592 -50.84469,-105.94101 -113.55399,-105.94101 -62.7093,0 -113.55398,47.43592 -113.55398,105.94101 l 0,69.93762 c -9.53676,2.89683 -19.07352,5.89711 -28.3885,9.51814 l 0,158.91152 c 90.84851,35.30485 193.03645,35.30485 283.88497,0 l 0,-158.91152 c -9.31498,-3.62103 -18.85174,-6.62131 -28.3885,-9.51814 z m -85.16549,141.94441 -56.77699,0 10.59068,-59.28145 c -6.32088,-4.86253 -10.59068,-11.94899 -10.59068,-20.17431 0,-14.63973 12.69764,-26.48526 28.38849,-26.48526 15.69086,0 28.3885,11.84636 28.3885,26.48526 0,8.22532 -4.26981,15.31178 -10.59068,20.17431 l 10.59068,59.28145 z m 56.77699,-149.21212 c -56.02824,-12.41497 -114.27523,-12.41497 -170.33098,0 l 0,-62.66991 c 0,-43.81488 38.20294,-79.45576 85.16549,-79.45576 46.96256,0 85.16549,35.64171 85.16549,79.45576 l 0,62.66991 z M 187.13059,731.19091 c -8.82276,0.1416 -15.70487,-8.7819 -14.58942,-17.2484 -4.85566,-23.147 -24.14702,-39.1667 -33.19181,-60.3465 -2.00464,-10.9747 -2.83676,-23.2312 -11.20334,-31.5797 -10.91335,-13.9701 -28.258785,-20.019 -42.162725,-30.164 -10.74175,-11.2863 -13.61797,-27.2558 -21.10617,-40.4912 -6.42703,-17.2257 -5.80204,-37.7655 -18.93017,-51.9668 -7.42773,-7.4111 -18.3524,-12.5865 -20.98838,-23.6431 -9.83303,-24.5006 -11.00742,-51.4849 -20.80908,-75.9999 -9.42128,-36.4929 -1.58412,-74.868 11.33829,-109.4743 5.89485,-19.0008 11.82033,-38.0119 19.07325,-56.542 3.96589,-11.8728 4.89722,-24.4646 7.32522,-36.6366 6.29013,-17.5744 21.68996,-29.2549 33.95958,-42.4941 6.93914,-3.4421 11.52656,-9.8382 17.08613,-15.0315 18.998555,-19.5061 37.658825,-39.5475 59.409115,-56.065897 17.65914,-15.7162 36.37774,-30.2935 56.45071,-42.793 12.7531,-9.8183 26.3005,-18.8379 41.26777,-24.8734 20.41023,-11.8895004 44.9934,-7.5877004 67.10918,-13.2461004 12.8912,-2.93609996 26.33187,-3.54619996 39.32747,-0.9708 26.61415,2.5997 52.63198,10.3361004 76.41788,22.5370004 12.89752,6.094 25.17744,13.681 37.95927,19.8097 12.32323,-2.8526 23.20041,7.0136 28.71,17.0818 8.52568,11.2817 19.19393,21.2073 24.82845,34.4239 13.9405,23.124897 30.97342,45.017197 38.61007,71.315297 10.86306,26.14 25.31907,51.6239 28.43076,80.2063 0.38659,18.6547 1.24105,37.3086 1.20343,55.9661 -0.33222,21.7718 -4.13787,43.6031 -12.74081,63.6797 -12.9927,35.8808 -27.60528,71.9658 -51.13053,102.38 -22.66853,26.1047 -53.75556,42.3259 -83.09408,59.6137 -34.15208,24.35 -71.00979,20.812 -107.71924,24.2876 -39.57917,1.8362 -79.60601,-7.5121 -114.2127,-26.8021 -4.18524,-1.5505 -8.06835,2.1623 -8.53053,6.2054 -2.67576,5.6926 -5.9756,11.2834 -5.98667,17.7833 -4.57385,24.8821 -14.46919,48.5734 -17.50527,73.7911 -2.91169,20.2091 -0.70511,41.2376 7.62222,59.9721 5.36302,13.2567 6.43956,30.0371 -2.61217,41.9554 -2.3907,2.9767 -5.56754,5.5975 -9.6157,5.361 z m 136.16953,-222.8478 c 35.89587,-0.4663 73.8969,-6.5534 102.90561,-29.1435 16.81,-12.7427 34.33485,-24.5969 50.70742,-37.8743 15.87868,-16.1474 24.65588,-37.5058 38.1665,-55.4308 12.33085,-20.8478 19.10116,-44.3423 29.37687,-66.1479 5.43481,-21.7256 7.16021,-44.1823 8.54211,-66.4664 0.32507,-11.0133 0.18563,-22.1125 -1.72879,-32.992 -10.59109,19.1713 -15.0021,42.5881 -32.25174,57.451 -29.61881,22.787 -53.28931,53.8624 -87.92622,69.6747 -23.06141,9.836 -46.00548,20.3461 -66.62765,34.7629 -26.41555,17.5621 -52.13383,36.3682 -75.05032,58.3887 -8.39167,8.5125 -18.37344,15.0683 -28.23554,21.7158 -11.55353,8.1004 -23.6171,17.0211 -30.10853,29.8594 -1.59901,9.182 8.84287,15.509 17.01819,14.2748 12.99663,0.2602 26.06351,-1.1448 38.98269,0.8402 12.0635,0.6855 24.14391,1.1876 36.2294,1.0874 z m -137.6543,-35.7113 c 9.85675,-4.8045 12.4041,-17.028 21.39054,-22.9057 17.45401,-17.6621 36.97948,-33.4223 52.15605,-53.2169 20.01278,-20.0252 47.16991,-30.0201 69.97828,-46.194 21.80191,-13.7851 45.42905,-24.2842 68.12599,-36.4231 18.25125,-10.6295 33.49514,-25.671 46.29261,-42.3382 11.77285,-13.9245 23.26468,-28.1219 36.01239,-41.1821 -16.90639,-1.729 -31.25548,9.3395 -43.85274,19.0835 -36.95878,27.5623 -77.48128,49.7526 -116.31689,74.4429 -24.98487,17.5666 -51.03476,33.5651 -76.61757,50.2043 -27.07748,21.4287 -45.98511,50.8678 -65.1876,79.0726 -3.34548,6.7284 -1.05792,19.4371 8.01894,19.4567 z m 20.95703,-144.7246 c 19.29821,-12.084 38.36181,-24.576 57.85877,-36.3219 28.69789,-15.4481 60.76473,-23.8206 88.73811,-40.6633 1.9322,-2.1836 -2.78694,-0.4824 -3.87654,-0.6619 -30.04972,3.4752 -58.07524,16.6584 -82.83128,33.5818 -18.87644,12.6897 -37.15067,26.2766 -55.83281,39.2268 -2.06282,1.7144 -5.85193,5.1428 -6.2593,6.3814 z m -81.51523,-22.9135 c 14.97698,-8.1421 22.54211,-24.3771 33.8606,-36.4364 13.56261,-16.8736 31.03328,-30.8174 51.27979,-38.7437 32.51066,-16.4653 67.53517,-27.4868 103.19038,-34.6992 34.98605,-8.469 69.64872,-20.8038 99.13184,-41.9183 14.21502,-9.4352 29.56542,-20.2094 35.55457,-36.9155 0.81416,-6.0354 -6.35167,-7.285 -10.87297,-7.0817 -12.38747,0.299 -24.06166,5.2027 -36.25766,6.9517 -23.92227,4.3716 -47.73567,9.3387 -71.80583,12.8773 -29.29483,3.432 -55.08734,19.3399 -78.80084,35.8675 -29.52197,21.4986 -61.26173,40.7435 -85.97223,68.0453 -12.00064,13.2379 -22.55872,27.7149 -33.16916,42.0612 -5.35008,8.3202 -10.07687,18.5685 -7.73752,28.6076 0.30614,0.6327 0.79314,1.425 1.59903,1.3842 z m 31.5039,-144.1201 c 22.6507,-7.4083 41.71095,-22.4788 63.76544,-31.2442 29.47956,-15.6037 57.66561,-35.978797 91.30912,-41.428697 21.44004,-4.6125 44.04788,-5.9809 64.14386,-15.2443 2.46554,-5.2977 -5.00887,-7.4729 -8.79173,-8.5778 -10.71043,-3.3375 -21.56409,-6.828 -32.74787,-8.011 -22.24783,-1.1096 -43.2806,7.911 -63.43529,16.1857 -23.20769,10.3747 -45.81082,22.0899 -68.21619,34.065197 -20.11025,12.3938 -38.02686,29.63 -48.0789,51.2338 -0.29287,1.3657 0.2869,3.3396 2.05156,3.0213 z m -78.614055,-9.2346 c 0.14674,0.0842 -0.42561,0.3084 0,0 z"
		      />

	 </symbol>



    <symbol id="broken_page" viewBox="0 0 60 250">
      <title>Page is broken</title>
      <g id="broken_body_container">
      <path
         id="broken_body"
         d="m 34.424212,234.04541 c -4.98644,-5.29799 0.55094,-13.85788 -0.92504,-20.54818 -0.0548,-7.73232 -0.14335,-15.66271 0.40716,-23.45819 -0.66548,-7.44991 -0.67687,-14.59325 -0.84478,-21.90793 -0.61864,-12.16744 -2.781451,-24.1097 -4.164896,-36.18961 -1.722937,-7.75664 -6.994578,-13.70177 -3.613677,-21.70416 1.828806,-7.5716 4.755922,-14.889895 4.606605,-22.919906 -0.538744,-4.387377 -3.540695,-15.473089 3.664658,-9.446829 1.37428,10.471197 -0.98667,20.803313 -3.833941,30.793605 -3.407866,8.83248 1.831418,16.82151 3.963831,25.09829 1.55112,16.52519 4.57869,32.9697 4.0323,49.63287 -0.25335,10.24977 1.01135,20.45426 0.77247,30.67968 -1.08799,3.06926 -1.74359,17.12562 2.13308,9.86229 0.24848,-8.74248 1.88854,-17.2773 2.8622,-26.09315 1.19071,-4.82456 1.91211,-9.40058 1.71323,-14.42896 0.52005,-9.56511 0.43472,-18.85028 1.75952,-28.12906 0.40676,-6.8006 0.54097,-13.03701 1.0355,-20.30653 0.61863,-9.47019 -1.36258,-18.99497 0.24642,-28.52792 0.78227,-8.244502 0.23296,-16.78198 1.78665,-25.027139 0.71194,-8.893068 -2.07364,-17.507302 -3.58814,-26.169023 0.38084,-7.837496 -2.29352,-9.803729 -9.58907,-7.901208 -5.003108,-4.002719 15.66749,-7.533706 4.08781,-5.679981 -6.02868,1.472649 -17.094129,-3.66495 -16.059783,6.74435 1.765836,4.505097 15.459533,0.694755 7.046823,5.592553 -2.788387,0.150561 -2.901887,4.752308 -5.092918,6.821208 2.034768,6.050722 -5.299635,-3.086671 -8.664321,-2.008716 C 12.719167,51.406947 2.8780863,48.074878 0.33226134,38.363314 -1.5605987,30.10038 4.9394873,22.399585 12.07942,19.212738 16.880348,9.3699245 26.657153,1.2102771 37.728302,0.27419562 47.863682,-1.726149 54.549202,7.5803005 56.073972,16.41169 c 1.55931,8.731377 -2.28392,17.43174 -8.7497,23.19015 8.53906,0.275857 0.50338,12.823444 4.08362,18.436778 0.38805,9.314784 4.43006,18.435431 1.94114,27.846848 -1.34122,15.152674 -2.56481,30.460324 -1.24864,45.645314 -0.73571,11.19475 -1.29782,22.36797 -2.46969,33.50531 -0.86905,10.86645 0.22016,21.92398 -1.74498,32.65959 -2.29656,9.23183 -2.4464,18.8936 -2.96692,28.33228 2.52752,9.70272 -3.39009,8.29871 -10.49459,8.01745 z M 26.924216,54.771385 c -3.569517,-1.851826 -1.750823,0.829961 0,0 z m -4.5,-0.493716 c -2.053043,-2.605952 -0.997475,1.442478 0,0 z M 20.753484,49.433182 C 17.8086,41.09181 18.207155,32.731319 19.987639,24.337159 c 2.270701,-8.350994 -8.368702,0.220657 -6.056325,5.350176 -0.980255,6.329017 -2.581764,21.805482 6.822166,19.745847 z m -10.31117,-5.22552 C 7.8190745,38.833858 11.870743,28.319789 9.4549465,25.740858 -0.03881666,29.328294 3.9552043,44.528304 10.657216,45.553523 l -0.214903,-1.345861 z m 13.228747,-4.41105 c 1.384545,-4.678871 -3.783695,-1.38283 -0.960746,1.344225 l 0.96074,-1.344225 z m 20.305091,-3.01806 c 8.91568,-4.805736 11.55779,-17.793896 6.24979,-26.179478 -4.53571,-5.8516412 4.60332,7.883852 -0.79438,10.238261 -1.77147,7.163758 -11.36081,13.539799 -14.16852,16.417461 2.92029,-0.423994 6.00249,1.101949 8.71311,-0.476244 z m -14.741843,-1.61919 c 7.110033,-4.903529 15.821833,-8.816893 16.508063,-18.597027 -6.10124,4.58714 -14.479065,7.708544 -20.513531,13.000734 -2.783756,1.879006 2.313879,6.2824 4.005468,5.596293 z m -0.63393,-13.479987 c 5.451573,-4.26386 16.302663,-9.08727 14.548343,-17.0120892 -5.32378,1.572368 -5.57172,9.8570182 -11.18146,11.5142432 -4.937062,-1.449655 -9.866412,9.117063 -3.366883,5.497846 z m -9.534151,-5.351581 c 5.849447,0.769752 6.670104,-11.5856142 1.354508,-3.274243 -1.18496,0.745369 -5.023668,6.152467 -1.354508,3.274243 z M 29.45141,13.674233 c 5.268412,-0.04918 8.104352,-10.8190032 1.548928,-3.422764 -0.31432,0.588818 -5.765393,4.691948 -1.548928,3.422764 z" />
     </g>
     <g id = "broken_nib_container">
    <path
         id="broken_nib"
         d="m 35.822713,246.88892 c 1.792531,-0.47824 3.033088,-2.18913 4.082339,-3.81459 1.111943,-1.7019 2.286186,-3.60771 4.135452,-4.26881 0.616391,-0.20788 1.322773,-0.15041 1.652288,-0.91823 0.925668,-1.28499 0.935844,-3.19686 0.217431,-4.60615 -0.994708,-2.09313 -3.198099,-3.46958 -5.258163,-2.89638 -2.085063,0.1543 -4.245867,0.42924 -6.114717,1.58769 -1.002003,0.60689 -1.838794,1.79475 -1.749802,3.16256 0.05025,0.7492 0.187256,1.55017 0.651855,2.10739 1.201354,1.90735 0.995351,4.37138 1.262034,6.58765 0.131516,1.1078 0.436366,2.23512 1.121283,3.05887 z" />
     </g>
     <g id ="broken_ink_container">
     <path
         id="broken_ink"
         d="m 34.773656,247.47705 c 0.809208,0.0668 1.479472,-0.24682 2.115542,-0.47385 0.620908,-0.23517 0.585736,-0.82118 0.866792,-1.22287 0.269512,-0.86961 -1.119568,-1.64982 -2.261184,-1.3449 -0.613882,0.26117 -1.281899,0.54587 -1.727468,0.9537 -0.423037,0.42538 0.06533,0.88681 -0.0036,1.33331 -0.07467,0.4437 0.649924,0.53382 1.009887,0.75461 z" />
     </g>
  </symbol>



</svg>
