<?xml version="1.0" encoding="UTF-8" standalone="no"?>
<svg
   xmlns:dc="http://purl.org/dc/elements/1.1/"
   xmlns:cc="http://creativecommons.org/ns#"
   xmlns:rdf="http://www.w3.org/1999/02/22-rdf-syntax-ns#"
   xmlns:svg="http://www.w3.org/2000/svg"
   xmlns="http://www.w3.org/2000/svg"
   id="svg2"
   preserveAspectRatio="xMidYMid meet"
   viewBox="0 0 961.55129 2112.9717"
   height="2112.9717pt"
   width="961.55127pt"
   version="1.0">
  <defs
     id="defs32">
    <filter
       y="-0.75"
       x="-0.75"
       width="2"
       height="2"
       id="sofGlow">
      <!-- Thicken out the original shape -->
      <feMorphology
         id="feMorphology5"
         result="thicken"
         in="SourceAlpha"
         radius="2"
         operator="dilate" />
      <!-- Use a gaussian blur to create the soft blurriness of the glow -->
      <feGaussianBlur
         id="feGaussianBlur7"
         result="blurred"
         stdDeviation="2"
         in="thicken" />
      <!-- Change the colour -->
      <feFlood
         id="feFlood9"
         result="glowColor"
         flood-color="lightgrey" />
      <!-- Color in the glows -->
      <feComposite
         id="feComposite11"
         result="softGlow_colored"
         operator="in"
         in2="blurred"
         in="glowColor" />
      <!--  Layer the effects together -->
      <feMerge
         id="feMerge13">
        <feMergeNode
           id="feMergeNode15"
           in="softGlow_colored" />
        <feMergeNode
           id="feMergeNode17"
           in="SourceGraphic" />
      </feMerge>
    </filter>
  </defs>
  <metadata
     id="metadata4">
    <rdf:RDF>
      <cc:Work
         rdf:about="">
        <dc:format>image/svg+xml</dc:format>
        <dc:type
           rdf:resource="http://purl.org/dc/dcmitype/StillImage" />
        <dc:title></dc:title>
      </cc:Work>
    </rdf:RDF>
  </metadata>
  <g
     style="stroke:none;"
     id="g6"
     transform="matrix(0,0.1,0.1,0,-398.11474,-57.897927)">
    <path
       style="fill:black;fill-opacity:1"
       id="path22"
       d="m 4312.9456,7408.7804 c -377.8924,24.8995 -726.3627,190.0474 -1083.7646,302.7666 -207.755,74.4725 -433.3342,87.6938 -635.9105,177.8969 -160.3111,81.7043 -278.7939,226.664 -412.1183,341.9616 -41.1714,0.2079 -32.1727,60.0652 -68.4268,71.6295 -378.2084,358.3668 -734.358,742.4024 -1048.3582,1161.3476 -166.14398,212.5778 -276.46508,468.327 -337.98768,732.1544 -38.516,221.362 -35.9255,447.358 -60.6349,670.351 -9.9295,288.072 78.1522,568.963 183.2058,832.582 72.733,179.155 168.83988,347.274 251.89808,520.905 35.3252,118.024 62.4343,254.904 172.061,325.969 310.8106,271.296 665.9686,485.409 1034.5402,662.94 170.2454,72.262 342.1255,140.584 508.1578,222.768 194.6241,88.469 406.0998,131.64 618.445,137.44 292.9257,18.283 593.3473,30.991 877.6482,-57.737 161.4464,-49.574 316.5916,-117.963 475.5055,-175.273 304.3006,-119.37 610.2981,-264.462 839.7807,-508.377 190.9866,-189.282 346.3295,-415.174 456.3883,-662.934 134.1345,-254.682 239.2359,-539.467 216.9504,-833.675 -0.2058,-417.23 37.4237,-849.677 -104.1615,-1249.661 -44.0338,-118.4384 -121.2564,-233.3431 -116.7757,-363.8729 29.2821,-18.3346 70.2074,-7.1192 99.3608,-31.7203 108.5393,-61.2788 211.1935,-134.8252 329.2656,-176.8543 140.1126,-56.0652 291.1741,-67.3906 438.4212,-88.3879 169.2357,-38.3745 358.543,-67.4518 516.7085,25.3236 168.0499,72.9503 380.1217,109.575 538.873,-5.6872 68.5749,-52.3601 77.43,-190.0773 -18.5248,-216.7457 -154.9829,-67.4978 -319.1931,-117.9208 -456.8021,-221.063 -101.2909,-67.2477 -191.3458,-164.7284 -316.6766,-180.7042 -113.5501,-21.9307 -244.9924,-49.7779 -305.914,-163.0363 -113.7555,-171.0051 -202.5052,-383.2321 -398.7975,-471.4997 -164.5887,-86.9475 -340.5839,-168.3416 -529.4202,-166.7878 -127.4091,-21.3243 -222.6903,-122.784 -288.7663,-229.5696 -151.4206,-161.8998 -381.8056,-175.6679 -581.1592,-231.2478 -260.343,-67.3903 -521.2264,-157.7689 -793.0112,-151.2015 z m -593.7675,1261.2963 c 77.5997,10.1355 59.6236,139.9992 -11.3992,148.1118 -120.0503,88.6114 -233.1589,186.9432 -346.9833,283.6938 -157.9086,140.1428 -290.1884,312.2948 -370.9819,510.6911 -197.6908,416.2456 -294.0943,871.2626 -402.4579,1317.6976 -110.8729,383.223 -284.566,765.321 -584.3796,1031.302 -45.245,34.798 -109.2856,96.974 -167.3669,57.683 -72.6009,-70.164 -20.3752,-176.311 2.7798,-256.784 84.5541,-292.961 142.2667,-593.043 192.0616,-893.909 60.9716,-293.372 176.7494,-577.432 358.4973,-814.258 222.9585,-332.3283 425.4635,-685.3512 715.1038,-963.4295 171.4604,-167.9804 363.2916,-321.312 581.6174,-418.4382 11.0835,-1.5846 22.3108,-2.7643 33.5089,-2.3606 z m -1508.0856,495.8746 c -207.6372,458.7328 -522.7745,868.0807 -653.1107,1361.8157 -62.0368,241.438 -41.7245,502.233 -141.7147,733.334 -12.5351,34.846 -20.8873,-27.209 -29.7729,-41.993 -97.2198,-280.667 -73.3902,-602.233 67.2327,-863.42 139.7428,-324.697 291.1213,-646.7904 484.6511,-941.6401 81.7025,-96.6719 181.0709,-196.1648 279.0606,-262.3368 -2.1153,4.7467 -4.2307,9.4935 -6.3461,14.2402 z m 3193.5459,91.5569 c 76.1018,61.4654 13.047,194.4388 -74.7635,199.8167 -237.4368,169.0164 -390.5488,433.4014 -629.041,601.2991 -218.1522,202.275 -342.8221,481.001 -508.7534,724.85 -138.2438,217.357 -258.542,446.077 -369.1127,679.186 -146.686,264.857 -366.1356,475.334 -589.9849,670.963 -56.4295,51.042 -120.1226,113.706 -177.5664,151.083 83.1768,-291.474 337.864,-478.456 473.6862,-739.951 283.5043,-458.351 547.5203,-929.087 832.8913,-1386.222 155.3942,-266.873 359.9589,-507.203 616.085,-676.5106 130.6386,-93.2093 270.9509,-184.5856 424.8926,-225.7578 l 1.6668,1.2436 z m -1306.3717,233.5869 c -145.5345,211.6462 -326.5619,398.483 -445.5526,629.0819 -147.7972,299.555 -262.8103,614.957 -409.9691,914.904 21.7998,-365.271 206.4054,-692.663 410.6243,-982.832 132.2319,-198.1077 256.0164,-409.187 435.7729,-566.4813 9.5419,-4.9402 21.5307,-10.81 9.1245,5.3274 z m 1601.7571,344.9944 c 113.3205,58.6095 112.7724,207.5895 102.2392,319.4615 -2.2261,352.361 63.1411,717.466 -55.6341,1058.169 -96.4066,306.38 -296.5144,562.107 -503.7181,797.77 -130.9346,179.333 -259.8206,372.069 -455.1414,483.843 -273.3128,195.751 -552.9304,396.836 -878.3297,489.618 -314.6538,99.002 -646.7733,140.746 -975.3646,118.76 70.2544,-33.145 151.3027,-27.598 222.2755,-60.317 247.8184,-80.364 455.1064,-257.834 610.9378,-467.141 233.0044,-238.299 482.0747,-479.949 604.8319,-800.745 263.8492,-564.506 594.2643,-1095.701 977.8804,-1582.419 89.4263,-138.921 174.5836,-307.1654 340.1376,-361.3508 3.2951,1.4504 6.5904,2.9009 9.8855,4.3513 z" />
    <path
       style="fill:black;fill-opacity:1"
       id="path24"
       d="m 20341.859,7496.9434 c -266.29,30.008 -534.035,55.5651 -802.203,43.4949 -613.766,19.9499 -1227.581,49.9565 -1841.504,51.1839 -355.979,7.1281 -711.994,-18.7815 -1064.566,-65.4322 -588.013,-19.2704 -1173.346,98.0397 -1761.339,47.5001 -393.915,-23.3427 -796.576,-60.2066 -1183.744,38.7965 -377.293,69.0812 -772.786,71.8373 -1130.415,223.9203 -306.563,155.7881 -516.869,458.4746 -844.172,579.5074 -172.399,66.4748 -359.83,50.2687 -540.382,68.9114 -221.93,16.366 -464.905,60.4545 -624.108,229.9399 -98.591,104.2519 -161.366,271.6563 -88.341,406.3906 76.713,131.4355 289.526,178.3649 394.015,54.4473 38.098,-49.9192 106.685,-6.5505 158.565,-17.2031 376.142,20.282 760.23,112.5857 1133.552,16.8125 413.85,-113.1052 744.729,-399.1671 1104.265,-618.3086 251.438,-142.2669 546.956,-150.0464 827.126,-178.2719 582.08,-44.8441 1168.176,-21.5628 1749.62,-82.6922 540.956,-43.5845 1082.821,-77.9559 1625.33,-95.2441 223.151,-15.0377 447.083,-53.8348 667.686,-73.4481 5.694,60.2192 -60.73,91.8213 -83.703,141.7723 -122.722,166.5966 -280.243,321.6631 -485.371,377.352 -236.529,83.1168 -469.934,174.5127 -702.021,269.1636 -317.364,124.3681 -645.234,217.8756 -975.434,300.5641 -320.51,81.7911 -641.767,165.9396 -947.237,294.7527 -712.743,271.1074 -1431.702,529.5453 -2167.206,731.6553 -420.466,150.903 -856.022,273.952 -1242.782,503.473 -253.46,115.262 -505.541,237.479 -774.591,312.606 -261.456,99.261 -511.095,227.165 -774.542,321.65 -303.7386,115.377 -621.0605,197.248 -944.4542,233.302 -332.4027,57.183 -667.1688,97.408 -1001.0943,144.295 -285.2883,53.542 -573.7667,113.066 -840.1796,230.502 -17.7012,23.006 -63.2607,18.896 -44.7909,-16.979 15.8837,-212.907 158.3347,-409.922 111.4939,-628.138 -34.7003,-87.837 -12.6761,-181.702 -8.9725,-272.813 22.595,-273.913 85.6085,-543.618 98.662,-818.224 -19.4942,-218.797 -298.9116,-349.1719 -487.2714,-249.18 -163.3415,82.651 -226.2698,288.955 -179.0684,458.543 13.7361,64.088 54.6297,120.238 45.8677,188.19 0.444,182.341 -31.3459,362.803 -48.3022,543.905 -32.6328,234.289 -66.124,472.409 -152.2753,693.541 -103.0495,143.35 -153.5358,317.726 -185.3684,489.205 -21.9358,179.486 8.567,387.556 151.9894,511.655 112.2592,72.414 260.8382,21.111 346.7473,-68.829 356.4533,-263.433 779.6109,-433.454 1219.3938,-488.594 298.91,-42.903 601.1278,-29.657 901.8245,-32.8 524.4539,-8.438 1060.3246,-57.078 1547.5346,-265.408 338.509,-138.553 663.372,-309.942 1008.59,-431.931 219.374,-110.946 433.014,-244.64 677.91,-291.66 416.139,-116.526 842.617,-212.518 1234.259,-401.146 635.441,-244.956 1277.753,-475.401 1897.241,-759.494 433.612,-125.427 860.388,-274.0176 1277.194,-447.3504 401.082,-162.5435 788.486,-356.6661 1187.153,-524.5289 597.995,-223.7635 1229.038,-374.3042 1785.324,-697.6092 236.184,-122.9097 489.078,-211.5989 746.503,-276.7084 202.992,-94.8567 420.121,-211.874 522.563,-421.9279 33.514,-73.0263 46.507,-186.266 -35.144,-232.1657 -85.163,-39.3368 -182.458,-26.472 -272.724,-43.7475 -62.234,-4.9696 -124.673,-7.2601 -187.103,-7.1976 z" />
    <path
       style="fill:black;fill-opacity:1"
       id="path26"
       d="m 21183.082,4077.2598 c -85.751,28.104 -202.776,13.0216 -250.83,108.289 -43.389,62.498 -33.788,142.6051 -48.756,212.0448 -55.996,107.9779 -185.121,186.6133 -178.078,321.1393 -5.155,156.1806 103.408,291.8943 219.285,379.001 -49.615,91.1017 -61.54,205.6512 -13.41,299.354 4.79,55.0424 34.926,112.0589 24.598,165.5625 -42.783,62.7844 -86.095,128.2129 -105.366,201.5234 -84.793,109.4695 -116.382,272.9068 -33.119,392.168 25.651,62.9423 83.983,103.8203 134.178,143.0527 28.243,76.6374 -5.048,159.1241 8.824,238.3063 8.13,136.3099 78.187,266.2706 185.7,349.1006 31.941,73.2307 -38.474,142.1935 -29.771,217.4001 -0.671,104.0452 14.855,207.5099 18.275,311.3776 16.949,131.1077 70.63,275.3478 191.394,343.3936 117.406,54.3191 267.016,-33.5877 280.503,-161.5242 18.948,-116.1442 -41.525,-240.352 19.457,-349.9477 53.226,-183.302 46.831,-392.978 -61.693,-555.6317 -36.277,-69.3108 -23.793,-148.926 -0.462,-219.6445 15.327,-68.1622 -3.318,-139.0947 3.955,-206.2363 32.447,-95.5465 82.376,-217.6449 7.127,-305.9082 -45.716,-37.5278 -50.899,-112.1478 -4.745,-150.988 44.654,-94.778 -27.471,-186.9324 -44.1,-277.8298 -13.388,-153.4538 128.349,-261.7432 135.686,-410.9795 19.253,-158.2367 -56.738,-320.3082 -188.409,-409.3482 -23.382,-13.5198 -31.402,-32.7662 -3.108,-45.5225 122.167,-109.0943 150.023,-330.9578 16.957,-442.5098 -78.761,-72.1209 -170.634,-149.102 -284.092,-145.6425 z" />
  </g>
</svg>
