<?xml version="1.0" encoding="UTF-8" standalone="no"?>
<svg
   xmlns:dc="http://purl.org/dc/elements/1.1/"
   xmlns:cc="http://creativecommons.org/ns#"
   xmlns:rdf="http://www.w3.org/1999/02/22-rdf-syntax-ns#"
   xmlns:svg="http://www.w3.org/2000/svg"
   xmlns="http://www.w3.org/2000/svg"
   id="svg2"
   preserveAspectRatio="xMidYMid meet"
   viewBox="0 0 2025.0995 3395.7437"
   height="3395.7437pt"
   width="2025.0995pt"
   version="1.0">
  <defs
     id="defs32">
    <linearGradient
       spreadMethod="repeat"
       x2="0"
       y1="1"
       x1="1"
       id="grad1">
      <stop
         id="stop5"
         stop-opacity="0"
         stop-color="#000"
         offset=".25" />
      <stop
         id="stop7"
         stop-opacity=".2"
         stop-color="#fff"
         offset=".25" />
      <stop
         id="stop9"
         stop-opacity=".2"
         stop-color="#fff"
         offset=".5" />
      <stop
         id="stop11"
         stop-opacity="0"
         stop-color="#000"
         offset=".5" />
      <stop
         id="stop13"
         stop-opacity="0"
         stop-color="#000"
         offset=".75" />
      <stop
         id="stop15"
         stop-opacity=".2"
         stop-color="#fff"
         offset=".75" />
    </linearGradient>
    <linearGradient
       spreadMethod="repeat"
       y1="1"
       id="grad2">
      <stop
         id="stop18"
         stop-opacity="0"
         stop-color="#000"
         offset=".25" />
      <stop
         id="stop20"
         stop-opacity=".3"
         stop-color="#fff"
         offset=".25" />
      <stop
         id="stop22"
         stop-opacity=".3"
         stop-color="#fff"
         offset=".5" />
      <stop
         id="stop24"
         stop-opacity="0"
         stop-color="#000"
         offset=".5" />
      <stop
         id="stop26"
         stop-opacity="0"
         stop-color="#000"
         offset=".75" />
      <stop
         id="stop28"
         stop-opacity=".3"
         stop-color="#fff"
         offset=".75" />
    </linearGradient>
    <pattern
       patternUnits="userSpaceOnUse"
       height="25%"
       width="100%"
       y="0"
       x="0"
       id="Pattern">
      <rect
         fill="rgb(89, 218, 251)"
         height="25%"
         width="100%"
         y="0"
         x="0"
         id="rect-gx" />
      <rect
         fill="url(#grad1)"
         height="25%"
         width="100%"
         y="0"
         x="0"
         id="rect-g2" />
      <rect
         fill="url(#grad2)"
         height="25%"
         width="100%"
         y="0"
         x="0"
         id="rect-g3" />
    </pattern>
  </defs>
  <metadata
     id="metadata4">
Created by potrace 1.15, written by Peter Selinger 2001-2017
<rdf:RDF>
  <cc:Work
     rdf:about="">
    <dc:format>image/svg+xml</dc:format>
    <dc:type
       rdf:resource="http://purl.org/dc/dcmitype/StillImage" />
    <dc:title></dc:title>
  </cc:Work>
</rdf:RDF>
</metadata>
  <g
     style="stroke:none"
     id="g6"
     transform="matrix(0,0.1,0.1,0,-304.17439,724.83662)">
    <path
       style="fill:#59dafb;fill-opacity:1"
       id="path10"
       d="m 25300.17,17690.146 c -262.931,12.071 -519.927,77.621 -781.951,98.805 -147.589,29.403 -281.912,101.617 -417.767,164.464 -291.634,142.878 -543.835,353.25 -800.895,550.899 -82.049,62.625 -171.416,116.101 -245.376,189.221 -74.793,80.472 -115.524,197.916 -92.23,308.168 8.771,43.801 33.799,87.598 76.297,104.12 50.396,22.088 110.759,10.836 153.639,-22.947 86.416,-57.274 144.466,-152.492 239.407,-197.296 40.229,-18.211 86.908,-10.063 126.298,-30.892 33.12,-15.967 61.887,-39.689 93.841,-57.917 219.59,-136.905 438.515,-275.609 666.67,-397.305 183.515,-80.212 385.685,-86.781 581.144,-109.232 225.966,-27.468 451.036,-82.275 679.983,-66.926 82.619,4.786 165.99,19.704 240.911,57.153 126.76,61.126 233.345,167.605 292.123,298.279 41.777,100.708 45.388,212.079 47.516,319.919 2.179,181.706 -29.111,368.183 -118.667,527.12 -47.691,83.298 -110.823,161.064 -194.494,208.037 -21.926,10.995 -45.23,24.465 -70.534,19.694 -32.294,-3.92 -64.289,-15.42 -97.113,-9.773 -112.067,5.963 -222.304,67.287 -280.489,166.974 -42.967,71.455 -64.791,159.814 -46.427,242.815 20.01,74.308 83.678,127.378 150.938,155.764 68.365,29.879 143.576,32.363 215.388,48.104 49.114,9.239 87.391,44.697 125.242,75.527 24.731,21.555 51.677,40.055 79.571,56.972 55.967,38.287 104.052,90.531 130.962,154.338 57.591,123.447 57.45,270.829 9.111,397.387 -65.26,210.756 -150.766,418.283 -282.496,595.089 -72.854,99.135 -157.011,190.586 -254.086,265.051 -18.405,4.608 -28.13,-16.732 -37.059,-29.23 -42.208,-62.732 -90.84,-126.306 -160.089,-158.768 -57.778,-25.03 -122.063,-17.487 -182.848,-12.797 -46.784,3.851 -93.7,9.983 -138.279,25.777 -99.577,32.967 -189.086,100.01 -245.035,191.206 -77.244,120.97 -114.101,262.162 -172.718,392.462 -38.877,88.562 -84.653,177.012 -154.701,243.997 -54.557,43.756 -126.483,48.934 -188.03,77.639 -25.891,11.724 -57.757,21.981 -83.83,5.022 -40.229,-25.097 -42.239,-78.107 -50.591,-120.489 -8.016,-57.473 -20.267,-114.141 -29.708,-171.365 -27.651,-155.766 -61.369,-312.189 -127.013,-456.378 -82.403,-192.361 -196.646,-373.763 -351.654,-512.99 -75.639,-64.3 -177.516,-102.532 -276.014,-84.17 -101.854,22.234 -181.513,109.789 -212.701,209.361 -54.038,161.619 -59.922,335.605 -45.247,504.439 29.176,298.411 157.406,590.452 373.202,795.749 99.678,91.987 233.01,138.083 365.257,148.312 18.806,1.815 45.722,0.242 53.926,21.875 7.624,27.771 11.06,57.886 28.7,81.464 63.223,119.092 152.724,227.451 269.621,293.75 68.487,37.047 151.629,47.241 225.43,21.018 79.22,-25.86 145.505,-86.647 183.475,-162.017 77.254,-132.63 113.065,-287.889 205.295,-411.922 43.072,-58.044 105.013,-97.156 168.189,-128.791 75.026,-39.639 150.543,-78.779 221.421,-126.021 357.228,-222.658 668.467,-518.358 926.485,-854.608 102.572,-127.343 213.523,-251.36 282.708,-402.248 123.884,-267.213 146.055,-584.265 52.834,-864.985 -31.94,-95.726 -83.648,-183.992 -149.521,-259.195 -30.622,-36.16 -65.132,-68.834 -97.737,-102.774 -23.479,-46.827 -9.31,-102.997 15.38,-146.077 51.742,-96.116 143.118,-161.065 197.503,-255.324 64.703,-105.182 105.02,-223.556 141.455,-341.454 67.513,-235 83.925,-488.737 25.942,-727.706 -22.536,-89.518 -66.201,-173.442 -127.607,-241.336 -107.788,-124.839 -248.609,-212.178 -387.175,-296.337 -88.257,-52.816 -176.842,-105.19 -265.716,-156.946 -148.233,-75.201 -315.832,-102.258 -480.066,-99.755 z m -1829.406,3976.684 c 152.398,9.505 280.779,142.694 306.458,293.917 25.189,158.048 60.792,317.855 43.031,478.884 -3.214,34.756 -13.579,75.619 -47.496,91.377 -32.894,14.611 -70.21,8.687 -104.355,2.431 -72.267,-15.01 -137.234,-56.715 -187.245,-111.572 -56.658,-61.187 -100.556,-134.2 -133.15,-211.425 -51.323,-126.497 -67.556,-270.499 -32.928,-403.784 20.229,-65.336 70.817,-126.737 139.351,-138.589 5.412,-0.855 10.871,-1.253 16.334,-1.239 z m 1773.062,260.563 c 13.579,15.977 -0.07,37.05 -10.366,50.578 -57.878,96.892 -126.402,192.28 -223.13,251.574 -13.704,8.265 -32.011,16.756 -47.186,9.705 2.051,-21.941 21.936,-35.329 29.965,-54.654 58.856,-90.392 120.744,-183.128 209.79,-245.04 12.376,-7.418 26.414,-12.657 40.927,-12.163 z m -942.29,870.502 c 25.513,-2.544 39.211,29.481 31.397,51.148 -20.954,40.246 -41.355,84.529 -80.359,109.767 -18.665,13.643 -45.385,17.624 -64.461,2.634 -27.972,-19.275 -39.71,-60.838 -22.04,-91.207 20.077,-46.205 70.426,-70.499 117.928,-71.538 5.834,-0.506 11.691,-0.865 17.535,-0.804 z" />
    <path
       id="path12"
       d="m 25035.759,13515.879 c -227.74,45.144 -428.47,173.261 -617.559,305.085 -161.89,112.913 -308.994,246.178 -448.055,387.052 -120.801,122.184 -239.38,246.978 -353.879,375.3 -233.884,307.325 -353.033,683.194 -474.829,1047.06 -168.685,532.265 -284.172,1091.732 -253.678,1654.029 15.835,181.674 57.076,368.915 164.861,517.788 75.699,47.61 167.835,18.496 246.124,-5.927 256.302,-89.615 453.932,-311.549 553.304,-565.626 257.708,-600.976 311.071,-1262.326 407.502,-1903.788 30.133,-208.824 71.647,-417.077 145.819,-614.607 31.623,-82.795 65.287,-165.122 105.863,-243.714 35.063,-64.498 88.733,-119.251 156.276,-146.823 197.634,-113.097 385.701,-259.453 613.411,-301.853 221.198,-47.838 469.241,-25.55 656.469,113.553 162.153,129.341 237.6,336.229 285.302,534.191 96.02,417.805 41.247,853.435 -51.816,1266.282 -68.352,299.69 -164.23,592.35 -224.476,893.998 -10.652,68.911 -21.436,144.439 7.456,209.954 43.126,54.327 130.813,31.5 162.231,-24.545 46.7,-55.596 93.572,-111.223 144.571,-162.658 86.713,-108.847 106.106,-252.089 139.594,-383.889 120.262,-531.387 134.539,-1082.856 89.855,-1624.751 -15.75,-226.55 -79.86,-448.554 -179.961,-650.794 -96.488,-191.999 -228.289,-368.146 -395.45,-500.863 -169.049,-123.728 -386.056,-156.187 -588.937,-134.702 -98.431,3.387 -192.259,-36.153 -289.998,-39.752 z m -1174.056,1841.184 c 38.07,473.099 -81.767,949.648 -295.914,1367.171 -84.123,186.193 -134.448,393.723 -267.878,552.214 -64.362,38.203 -144.024,-52.757 -107.363,-116.154 69.64,-429.014 218.531,-838.687 372.105,-1242.26 83.065,-195.552 183.644,-383.145 298.068,-561.22 l 0.982,0.28 0,0 z m 2423.205,1498.538 0.337,-0.517 -0.337,0.517 z"
       style="fill:#59dafb;fill-opacity:1" />
    <path
       id="path14"
       d="m 22632.314,13839.539 c -200.888,-61.644 -314.854,-316.448 -231.035,-521.865 28.778,-182.207 132.998,-368.82 308.384,-415.1 186.256,8.753 298.202,230.209 307.098,410.948 7.432,229.759 -135.925,479.76 -353.34,527.943 l -31.107,-1.926 z"
       style="fill:#59dafb;fill-opacity:1" />
    <path
       id="path16"
       d="m 25352.41,12410.416 c -335.585,-1.095 -656.688,113.738 -970.952,221.847 -221.994,77.77 -467.269,73.375 -678.837,184.629 -127.521,81.847 -280.6,128.731 -381.682,248.585 -89.353,127.133 -58.994,324.054 62.532,417.969 65.341,39.966 147.937,6.548 199.867,-41.746 76.323,-56.34 166.03,-91.867 256.089,-118.675 151.204,-44.703 308.872,-53.928 464.345,-72.724 308.831,-41.981 609.476,-128.085 913.142,-196.796 193.55,-44.096 394.367,-60.899 591.33,-33.088 108.16,16.414 217.543,38.549 316.993,86.735 82.494,39.744 143.431,116.491 174.39,203.325 24.957,61.244 51.326,131.223 112.428,163.504 41.099,-16.22 37.926,-68.622 43.284,-105.621 34.267,-241.264 -59.972,-488.517 -218.989,-665.208 -95.042,-112.006 -223.613,-198.344 -367.934,-223.122 -169.134,-40.621 -341.848,-70.344 -516.006,-69.614 z"
       style="fill:#59dafb;fill-opacity:1" />
    <path
       style="fill:#59dafb;fill-opacity:1"
       id="path18"
       d="m 24020.224,9423.3506 c -71.91,11.7608 -132.175,66.5678 -164.729,132.9646 -14.517,27.0877 -26.188,55.6659 -38.145,84.0332 -78.988,-76.3297 -166.81,-146.8486 -269.537,-183.9992 -94.439,-25.2028 -195.318,-1.3443 -279.65,46.3011 -101.931,58.188 -193.021,137.14 -266.671,230.9649 -47.833,67.9712 -71.174,150.6798 -85.222,232.7277 -18.631,91.6921 -37.019,184.3251 -38.196,278.4041 2.141,109.604 38.948,215.331 89.869,310.07 33.553,63.857 74.594,125.493 130.739,169.771 77.723,47.201 172.991,51.096 259.148,31.418 115.885,-27.046 217.647,-105.269 284.802,-206.55 70.999,-87.705 140.063,-178.424 191.484,-280.444 21.18,-17.147 53.231,-17.595 68.561,-42.851 38.242,-50.221 49.664,-116.516 49.104,-179.232 0.512,-72.096 -7.931,-146.3087 13.805,-216.1513 24.053,-51.3197 100.235,-62.257 136.482,-19.3824 34.961,38.977 45.044,93.3904 53.697,144.1596 21.156,103.2781 65.04,204.4271 138.97,278.1561 54.843,53.356 139.158,75.581 209.901,46.152 51.812,-20.804 96.556,-61.19 153.079,-68.325 9.368,-0.508 21.531,-5.461 29.25,-1.203 -150.864,117.134 -287.396,254.404 -447.357,358.602 -185.616,131.268 -373.559,260.763 -541.445,416.707 -157.202,140.224 -306.616,292.923 -424.291,471.406 -64.356,105.309 -112.193,224.795 -120.474,350.482 -7.952,133.747 67.876,266.309 180.952,327.685 110.695,66.088 242.833,84.967 368.302,69.395 151.841,-17.987 293.684,-81.418 441.354,-118.499 253.044,-63.169 507.656,-120.893 756.853,-199.662 118.852,-34.662 241.218,-52.938 362.363,-76.373 65.354,-12.481 131.309,-21.452 197.604,-26.127 81.321,-6.469 162.939,-7.073 244.351,-11.541 107.815,-6.628 216.464,-20.072 324.181,-5.093 46.805,7.169 94.182,19.602 134.536,46.203 36.162,31.556 46.697,82.51 75.845,119.766 18.469,25.048 47.519,44.961 78.947,40.923 42.802,-4.138 79.874,-34.489 102.686,-71.264 21.784,-36.909 25.669,-85.085 7.642,-124.469 -21.821,-56.29 -59.831,-103.134 -94.533,-151.037 -67.371,-85.317 -158.4,-153.715 -262.742,-178.356 -99.591,-24.99 -202.784,-22.714 -304.482,-22.614 -260.716,4.557 -518.72,47.909 -778.04,71.856 -152.232,16.495 -300.462,58.094 -450.374,88.364 -106.022,19.243 -211.892,40.508 -315.475,71.266 -129.758,32.372 -259.168,66.54 -386.976,106.533 -100.134,28.15 -200.136,57.907 -302.513,75.571 -25.611,2.387 -55.194,0.661 -74.725,-18.733 1.163,-8.172 10.362,-11.573 13.589,-18.864 26.121,-33.73 49.641,-70.007 80.671,-99.22 65.145,-65.699 140.588,-118.596 210.593,-178.246 52.763,-42.818 108.345,-81.387 165.596,-117.207 120.086,-83.906 222.034,-191.768 329.057,-292.278 76.364,-72.357 155.996,-141.504 243.366,-198.966 101.507,-70.077 205.883,-138.127 292.134,-228.795 94.512,-95.24 178.551,-201.431 277.093,-292.347 68.133,-66.147 138.741,-129.641 204.743,-198.115 15.771,-27.377 11.235,-60.783 12.996,-90.872 16.233,-14.631 38.728,-6.44 57.952,-8.742 237.657,-2.455 470.469,-71.38 708.629,-63.609 86.318,3.961 172.917,4.124 259.09,-3.14 52.001,-2.243 106.025,6.747 156.11,-12.16 33.644,-12.388 62.333,-38.2689 78.398,-71.6293 23.716,-46.4445 24.768,-108.3203 -7.436,-150.796 -30.396,-40.5491 -79.888,-58.9721 -127.43,-64.6018 -86.673,-12.0797 -175.972,3.1746 -261.131,-21.6647 -142.632,-31.3968 -288.774,-45.436 -434.492,-42.4657 -91.127,2.227 -181.745,13.9231 -271.59,29.3641 -98.897,16.1131 -198.393,32.4602 -298.797,30.5045 -97.463,0.6369 -195.961,2.0974 -291.324,25.5702 -139.887,30.7188 -271.806,94.9749 -389.08,179.6845 -31.098,19.4294 -70.389,33.0951 -105.779,18.2126 -40.698,-16.6205 -65.607,-60.0455 -73.005,-103.4865 -18.79,-74.5682 -35.026,-150.4421 -65.898,-220.8844 -28.409,-67.9318 -67.714,-133.8728 -126.253,-177.5926 -22.614,-15.7143 -49.209,-26.86 -76.732,-25.6293 z m -610.586,332.5893 c 63.645,-0.6742 129.987,0.4247 188.722,29.3209 21.922,9.7719 42.997,21.6055 62.792,35.4917 -46.221,74.1456 -62.148,162.5626 -81.149,247.3215 -16.615,81.57 -35.289,165.871 -82.738,234.704 -74.782,107.358 -193.479,182.829 -320.924,193.91 -57.885,-0.287 -109.7,-44.809 -129.619,-100.164 -27.159,-69.464 -19.754,-149.18 7.553,-217.303 39.747,-115.961 81.554,-234.1278 155.069,-332.0883 47.266,-62.3336 125.34,-93.7049 200.294,-91.1928 z" />
    <path
       id="path20"
       d="m 24138.112,5775.6354 c -184.004,43.2025 -338.048,187.1074 -488.149,319.7568 -377.713,358.4892 -678.61,824.576 -1025.678,1226.4184 -424.572,512.2445 -868.266,1019.8732 -1170.91,1664.6704 -87.519,175.6121 -122.467,387.6756 -111.282,593.7179 2.138,145.9975 3.372,302.287 64.548,431.1241 57.909,79.641 154.583,83.856 232.171,57.443 168.054,-56.228 296.672,-233.6795 359.582,-434.0953 21.588,-68.3932 38.819,-139.0791 69.458,-202.2546 129.612,-295.5383 328.349,-526.2498 501.306,-779.3297 213.628,-299.5803 415.184,-613.5032 598.062,-944.2122 149.44,-181.0289 332.338,-314.7413 466.861,-516.029 161.38,-197.3583 331.93,-397.5854 545.136,-499.392 128.841,-43.8539 262.955,17.7536 372.561,102.7424 407.711,222.5011 841.633,367.0101 1235.037,632.3338 88.544,60.0175 177.52,125.8634 247.116,218.6546 78.579,157.9366 21.966,401.4622 -119.274,466.2154 -80.461,39.0789 -179.985,31.9269 -242.843,117.1857 -110.217,168.4594 -148.77,420.4243 -69.813,620.0691 85.412,178.5669 270.374,252.5843 425.917,200.1856 226.166,-59.6847 406.204,-302.3288 463.442,-581.9696 76.101,-311.5802 75.528,-653.364 -3.008,-964.0045 -67.587,-250.9268 -176.43,-483.3826 -313.539,-683.0819 -192.458,-239.906 -457.797,-340.315 -703.055,-462.1426 -350.915,-168.0848 -689.3,-380.3657 -1051.629,-508.5608 -91.259,-31.4791 -183.883,-61.7365 -277.64,-76.4251 -1.464,0.4893 -2.934,0.6549 -4.377,0.9801 z"
       style="fill:#59dafb;fill-opacity:1;stroke-width:8;stroke-miterlimit:4;stroke-dasharray:none" />
    <path
       style="fill:url(#Pattern);fill-opacity:1"
       id="path22"
       d="m -1018.5815,9706.1946 c -990.4886,102.5521 -1774.7086,669.4604 -2690.6756,946.9124 -403.2816,144.38 -675.6405,448.949 -899.2614,750.842 -203.1657,283.191 -416.7292,561.005 -634.8461,836.359 -412.0432,523.522 -818.4126,1053.052 -1135.8382,1621.74 -562.176,976.727 -903.7275,2056.456 -866.3849,3144.444 16.0942,1318.272 358.8038,2632.654 992.5728,3840.444 410.247,664.464 1151.1965,1115.972 1830.5735,1577.648 521.0295,344.659 1074.3627,692.109 1733.7877,822.971 403.4396,80.089 828.6986,45.987 1226.0561,-41.876 623.97166,-143.464 1188.81356,-427.036 1692.93766,-759.556 955.84734,-650.073 1577.93204,-1593.113 1869.91204,-2582.156 181.7986,-556.21 270.3463,-1130.703 304.0888,-1705.636 39.3663,-663.467 20.2331,-1328.001 14.4952,-1991.885 -18.1325,-434.017 -110.3046,-866.082 -272.7424,-1278.442 -1.3164,-211.704 182.3389,-385.186 382.7773,-496.883 157.2701,-85.405 324.7024,-158.529 497.4852,-219.652 490.5134,-165.584 1089.0295,-167.738 1537.4614,86.519 273.4858,141.293 696.1723,1.047 752.0438,-268.882 54.9355,-194.105 -114.9126,-382.583 -323.9125,-454.685 -221.8066,-99.399 -422.2366,-230.082 -592.2353,-384.625 -275.7412,-219.911 -581.2182,-412.819 -893.8221,-593.961 -326.9637,-316.762 -344.8752,-774.309 -674.9006,-1089.384 -159.4623,-146.492 -362.5886,-255.748 -581.2614,-331.152 -299.6982,-109.096 -637.5705,-200.214 -837.4654,-430.776 -156.2348,-179.634 -275.7214,-400.87 -526.49219,-504.088 C 616.71456,10070.647 304.83536,10024.322 27.151056,9910.1479 -305.65164,9798.7511 -655.45044,9701.2315 -1018.5815,9706.1946 Z m -1060.2296,2825.4774 c 97.2123,96.352 54.1285,235.271 -28.1262,327.454 -101.6814,120.8 -246.2246,210.378 -354.0352,327.262 -568.3257,567.329 -842.1014,1285.66 -1081.8234,1984.488 -187.4281,565.935 -252.8007,1152.186 -343.5899,1732.404 -152.0835,881.236 -398.62,1767.229 -918.6024,2552.878 -83.3984,120.092 -204.0043,247.792 -378.657,268.575 -133.1431,-62.503 -152.483,-204.961 -121.6442,-317.902 30.0003,-119.148 80.4468,-234.106 99.2306,-355.36 172.7152,-798.313 190.794,-1624.483 513.836,-2396.734 220.598,-464.937 399.0495,-942.485 585.6082,-1417.347 139.8649,-348.592 280.3948,-698.399 465.6837,-1032.42 350.6315,-604.793 767.1253,-1210.823 1413.693,-1630.329 40.9084,-28.091 95.0151,-45.386 148.4268,-42.969 z m -2602.1348,1115.769 c 5.7055,31.098 -21.0006,69.51 -27.0245,103.129 -189.6547,568.745 -552.7036,1082.366 -806.6305,1630.047 148.8344,-528.725 251.119,-1090.389 636.1222,-1544.216 60.5537,-65.585 117.3456,-137.989 195.9663,-188.818 l 1.495,-0.144 0.072,0 z m 5446.97186,182.176 c 103.95165,59.381 83.223,180.584 28.4895,260.261 -81.3395,122.587 -204.5242,221.087 -302.212,334.407 -668.1221,719.006 -1233.1228,1505.492 -1668.78306,2339.185 -321.29,629.427 -569.8151,1282.02 -859.4021,1921.551 -193.4314,448.427 -377.4847,917.613 -760.2775,1283.056 -60.554,51.448 -114.3425,112.492 -189.2102,149.638 -58.5254,15.299 -79.3047,-48.757 -60.0893,-84.345 33.552,-125.637 118.7128,-235.939 170.3,-356.363 381.4847,-704.587 923.7296,-1354.884 1152.4586,-2112.227 88.7532,-246.887 193.3575,-489.973 293.2193,-733.985 253.047,-601.949 526.34526,-1199.731 866.19846,-1771.874 287.4999,-456.397 647.150896,-903.912 1172.9097,-1191.683 44.9143,-25.789 101.8643,-39.342 156.3986,-37.621 z m -2414.56626,793.303 c -517.0112,888.074 -825.4698,1844.771 -1159.0843,2787.853 -9.896,-371.442 143.42,-725.979 250.8574,-1081.465 252.5677,-679.145 627.5876,-1321.343 1035.2328,-1944.276 -42.3353,79.295 -84.6706,158.592 -127.0059,237.888 z m 2759.7583,1138.294 c 72.4382,565.751 294.6232,1123.883 223.7024,1698.037 -36.8087,252.48 -120.9867,498.277 -202.4517,742.806 -151.26009,425.882 -333.07084,844.43 -542.02404,1253.017 -399.7939,764.817 -928.6816,1499.507 -1673.06406,2066.968 -421.1059,272.718 -949.2876,444.461 -1486.7635,437.259 536.1168,-529.145 768.5509,-1210.382 1214.339,-1786.508 138.09,-175.278 240.1252,-368.317 346.0367,-557.996 319.42406,-593.829 539.98826,-1219.289 786.90086,-1835.229 352.3991,-709.954 743.4677,-1421.547 1333.32434,-2018.354 z m -6864.0857,277.241 c -163.3958,599.191 -25.5384,1220.909 -159.8691,1822.785 -19.7219,39.871 -38.4445,104.238 -98.7711,108.547 -43.5646,-22.957 -30.5883,-78.506 -46.6934,-115.875 -130.7464,-614.603 56.072,-1237.82 302.1103,-1815.493 7.5362,-16.754 11.1933,-29.648 3.2233,0.03 z" />
    <path
       style="fill:url(#Pattern);fill-opacity:1"
       id="path24"
       d="m 13961.771,9049.9023 c -969.061,6.6348 -1970.468,-43.7602 -2895.221,299.162 -711.96,249.8188 -1261.6172,830.4497 -1606.6919,1487.1867 -177.8876,292.863 -482.3049,497.711 -816.9245,565.416 -296.0837,76.911 -624.4895,152.285 -822.6408,406.87 -398.3957,444.494 -463.7155,1188.139 -71.4237,1656.815 146.3614,149.876 378.9886,123.901 557.2877,54.332 203.6917,-55.94 430.1278,-65.766 622.315,33.071 562.4143,157.171 1176.2702,-99.089 1545.9052,-531.546 333.782,-369.748 589.467,-837.986 1049.016,-1071.009 490.037,-258.34 1060.799,-202.296 1594.761,-194.168 581.729,14.117 1172.742,-21.244 1729.654,-201.99 643.137,-161.419 1274.245,-373.574 1928.378,-489.013 8.774,274.767 -219.506,472.513 -420.013,623.742 -645.847,463.766 -1419.378,706.337 -2068.754,1164.68 -1009.156,621.867 -1879.332,1434.05 -2820.999,2147.696 -1222.427,876.093 -2501.3453,1684.601 -3613.0993,2704.318 -718.9076,599.47 -1518.7542,1155.227 -2446.1555,1363.788 -443.3697,88.867 -886.4159,204.013 -1341.4132,207.837 101.3652,-935.952 345.9254,-1863.77 284.4766,-2811.687 -22.644,-365.792 -83.399,-732.289 -203.5379,-1078.818 -137.6743,-318.378 -514.6067,-531.52 -856.1529,-426.586 -299.5245,74.944 -524.1061,344.954 -577.0716,644.487 -147.2471,522.423 -66.8893,1069.705 -86.2041,1603.72 11.4095,1199.03 -153.6254,2389.208 -248.6294,3582.118 -30.5207,499.762 -35.0382,1028.141 186.9845,1489.229 107.3574,192.43 355.0145,322.823 568.1934,225.519 224.9556,-79.426 345.4058,-300.47 462.7682,-491.304 500.7048,-637.622 1358.199,-940.313 2152.8746,-831.308 540.8743,28.464 1110.5509,9.484 1599.6268,-250.148 695.8587,-319.07 1238.5071,-881.804 1722.0639,-1460.662 844.9778,-866.498 1953.1539,-1395.081 2899.7599,-2133.051 815.05,-618.406 1643.522,-1221.116 2513.542,-1760.453 772.95,-515.147 1496.441,-1108.556 2125.472,-1793.352 1032.544,-1025.075 2130.163,-1981.223 3216.372,-2948.12 286.66,-283.928 579.601,-610.684 643.665,-1023.7284 16.741,-301.0553 -245.072,-607.899 -560.213,-567.0296 -406.232,0.5861 -802.839,134.5956 -1210.629,100.5633 -1585.936,34.1641 -3152.618,-304.5642 -4737.342,-296.577 z" />
    <path
       style="fill:url(#Pattern);fill-opacity:1"
       id="path26"
       d="m 20068.472,3569.5278 c -264.151,24.5761 -434.919,301.0776 -425.383,550.1859 -93.705,245.5585 -285.485,476.3321 -242.306,754.7869 -0.116,210.2472 133.942,397.1435 131.376,605.5116 -42.782,271.6638 74.622,563.996 -66.166,819.1328 -116.909,292.4011 -176.114,632.4251 -42.998,930.1524 63.719,138.666 144.42,278.3347 130.903,436.9599 6.763,220.617 44.017,446.8365 166.219,635.1316 62.273,114.6838 65.143,246.6425 53.487,372.7302 13.383,305.9266 57.889,614.8367 162.305,903.496 66.232,162.4114 199.726,347.7801 395.797,335.1842 213.362,-18.0026 357.077,-228.914 363.431,-431.3863 35.231,-250.6608 22.203,-511.1667 121.158,-749.0246 89.606,-401.4694 -96.52,-803.9395 -24.327,-1205.926 38.18,-296.809 92.85,-605.4653 3.842,-898.3799 5.912,-154.0434 48.481,-316.9861 -26.189,-462.0517 -49.671,-151.0076 -19.125,-310.9333 34.206,-455.8718 83.85,-309.1058 44.854,-648.8687 -119.43,-925.2447 -32.36,-71.2365 -98.984,-143.2029 -55.54,-223.1795 87.376,-325.5149 -21.779,-706.6245 -302.943,-903.9548 -75.784,-51.8054 -165.208,-85.2491 -257.442,-88.2522 z" />
    <path
       style="fill:#59dafb;fill-opacity:1;stroke:none"
       id="path24-3"
       d="m 21589.044,6267.0142 c 141.994,-1.2231 280.277,-38.0536 418.677,-66.4773 289.422,-66.7137 539.05,-244.4761 763.438,-436.2227 346.977,-326.1665 746.13,-584.7761 1127.646,-865.001 293.894,-228.2658 565.474,-488.0501 880.45,-686.9598 202.658,-146.606 444.089,-224.1954 645.648,-372.5356 62.596,-48.3705 -68.979,-16.2773 131.097,-199.5066 200.068,-183.234 400.083,-366.4657 600.135,-549.6949 94.246,-86.3124 251.054,-31.9806 377.848,-32.1672 98.34,-13.0709 180.072,85.0742 174.849,181.371 -20.01,132.1183 -111.44,236.6294 -200.892,327.4473 -339.008,309.2717 -681.581,615.1058 -1003.837,942.983 -196.322,219.0403 -422.137,408.8482 -663.375,573.6246 -271.53,172.5091 -530.111,365.2904 -784.48,563.0953 -295.445,236.0457 -641.302,405.1182 -905.022,682.2752 -150.894,185.1532 -320.26,365.1477 -537.459,467.2073 -152.633,83.0438 -330.413,89.1175 -499.239,80.0102 -248.023,-34.8645 -515.641,61.9535 -671.907,265.9029 -36.627,61.0384 -74.226,131.7426 -144.439,157.1487 -66.545,31.1227 -143.813,-10.5827 -177.321,-72.136 -69.293,-147.4842 -70.773,-316.6977 -58.374,-476.3419 m 526.557,-484.0225 -263.282,242.0085 m 0,0 c 44.973,223.8236 -208.01,43.4745 -263.275,242.014" />
  </g>
</svg>
