<?xml version="1.0" encoding="UTF-8" standalone="no"?>
<svg
   xmlns:dc="http://purl.org/dc/elements/1.1/"
   xmlns:cc="http://creativecommons.org/ns#"
   xmlns:rdf="http://www.w3.org/1999/02/22-rdf-syntax-ns#"
   xmlns:svg="http://www.w3.org/2000/svg"
   xmlns="http://www.w3.org/2000/svg"
   xmlns:sodipodi="http://sodipodi.sourceforge.net/DTD/sodipodi-0.dtd"
   xmlns:inkscape="http://www.inkscape.org/namespaces/inkscape"
   version="1.0"
   width="592.65729pt"
   height="731.20575pt"
   viewBox="0 0 592.65729 731.20576"
   preserveAspectRatio="xMidYMid meet"
   id="svg2"
   inkscape:version="0.91 r13725"
   sodipodi:docname="logo_shortest.svg">
  <sodipodi:namedview
     pagecolor="#ffffff"
     bordercolor="#666666"
     borderopacity="1"
     objecttolerance="10"
     gridtolerance="10"
     guidetolerance="10"
     inkscape:pageopacity="0"
     inkscape:pageshadow="2"
     inkscape:window-width="2491"
     inkscape:window-height="1410"
     id="namedview7"
     showgrid="false"
     inkscape:zoom="1.0328146"
     inkscape:cx="46.661962"
     inkscape:cy="410.73913"
     inkscape:window-x="69"
     inkscape:window-y="30"
     inkscape:window-maximized="1"
     inkscape:current-layer="svg2" />
  <defs
     id="defs28" />
  <metadata
     id="metadata4">
Created by potrace 1.15, written by Peter Selinger 2001-2017
<rdf:RDF>
  <cc:Work
     rdf:about="">
    <dc:format>image/svg+xml</dc:format>
    <dc:type
       rdf:resource="http://purl.org/dc/dcmitype/StillImage" />
    <dc:title />
  </cc:Work>
</rdf:RDF>
</metadata>
  <g
     style="fill:#000000;fill-opacity:1"
     transform="matrix(0.1,0,0,-0.1,-364.89832,2048.3718)"
     id="g6">
    <path
       style="fill-opacity:1"
       id="path24"
       d="M 5513.7891 13174.111 C 5433.8546 13180.029 5369.6156 13257.945 5373.123 13336.965 C 5345.9019 13460.995 5277.7035 13570.43 5208.698 13675.139 C 5142.8505 13774.809 5070.6108 13873.774 5036.4709 13989.806 C 5018.3814 14075.752 5001.1091 14165.723 4948.7658 14238.487 C 4868.3555 14341.206 4757.0546 14413.049 4646.3892 14479.161 C 4576.5979 14521.468 4503.9433 14566.467 4458.7226 14636.485 C 4358.1958 14816.533 4280.9513 15009.838 4233.2672 15210.571 C 4209.8507 15297.547 4184.4062 15387.157 4129.0996 15459.941 C 4067.6431 15536.245 3979.2095 15588.029 3927.3724 15672.502 C 3874.9046 15764.124 3856.1364 15869.309 3828.7657 15970 C 3779.6401 16166.722 3730.2661 16363.401 3678.8399 16559.525 C 3633.3738 16774.499 3648.2518 16998.389 3697.0099 17211.414 C 3760.2792 17486.481 3862.2914 17750.274 3947.8628 18018.712 C 3994.1781 18160.592 4033.2163 18305.014 4060.0786 18451.889 C 4077.7309 18533.115 4111.7669 18611.516 4164.8057 18675.991 C 4248.4313 18785.37 4353.6267 18875.192 4452.167 18970.506 C 4564.91 19075.734 4674.6308 19184.16 4782.2567 19294.599 C 5172.9836 19678.005 5606.3668 20020.255 6081.7085 20292.964 C 6230.5368 20371.953 6397.6523 20412.967 6565.3683 20422.516 C 6709.4147 20438.04 6852.1575 20464.133 6996.3512 20478.239 C 7166.9728 20484.834 7335.8963 20452.198 7501.7927 20416.022 C 7746.0171 20357.268 7975.4599 20250.443 8195.124 20130.611 C 8248.611 20102.154 8302.1603 20073.814 8355.748 20045.547 C 8461.426 20057.66 8568.4462 19998.594 8621.9512 19908.059 C 8747.1776 19747.2 8870.6588 19583.99 8971.9104 19406.64 C 9086.3571 19219.24 9203.366 19031.127 9280.2943 18824.447 C 9361.3198 18621.012 9456.8048 18422.808 9520.1298 18212.725 C 9559.5123 18073.644 9567.7713 17928.232 9568.7399 17784.395 C 9570.5466 17645.265 9574.7684 17505.978 9567.4512 17366.936 C 9560.0501 17229.323 9539.8516 17091.702 9497.0007 16960.396 C 9458.9551 16839.619 9411.0878 16722.267 9365.0939 16604.379 C 9281.1766 16396.275 9188.6736 16190.94 9074.9776 15997.224 C 8975.3841 15832.981 8848.0995 15683.814 8692.3864 15570.313 C 8514.3301 15435.301 8318.8383 15326.161 8128.243 15210.342 C 7998.398 15133.273 7863.5525 15058.52 7714.5795 15026.391 C 7528.5999 14983.951 7337.1781 14978.111 7147.6111 14964.862 C 6929.5183 14952.555 6708.2794 14952.753 6493.9463 14999.939 C 6283.2916 15043.523 6081.082 15122.091 5890.2129 15220.467 C 5846.8141 15230.957 5803.6693 15195.568 5794.3819 15154.139 C 5757.9336 15057.355 5732.2717 14956.954 5710.7255 14855.928 C 5687.8716 14754.339 5659.7807 14654.055 5633.4969 14553.332 C 5591.1344 14387.87 5552.6644 14218.794 5556.3359 14046.951 C 5561.4401 13883.878 5606.8316 13725.154 5664.2965 13573.483 C 5698.5197 13458.763 5684.3937 13326.874 5613.9513 13228.323 C 5588.8751 13199.149 5554.1004 13172.895 5513.7891 13174.111 z M 6893.498 15402.303 C 7140.954 15405.837 7390.9115 15439.254 7622.5332 15529.65 C 7795.8482 15600.817 7943.9555 15718.11 8094.2375 15827.406 C 8227.0009 15926.547 8367.1701 16019.535 8476.5035 16145.7 C 8576.697 16266.709 8653.2179 16404.537 8738.3686 16535.982 C 8804.2422 16640.086 8866.5012 16747.004 8914.2131 16860.815 C 8969.2154 16986.11 9019.5135 17113.416 9069.3785 17240.819 C 9095.3726 17309.797 9114.0825 17381.417 9125.2298 17454.281 C 9145.7767 17576.258 9157.1355 17699.555 9167.8139 17822.711 C 9178.0043 17973.715 9176.3938 18125.536 9162.5312 18276.256 C 9078.8882 18122.797 9027.1433 17952.513 8926.4199 17808.361 C 8849.3381 17709.905 8748.1447 17634.909 8656.8919 17550.598 C 8524.3687 17434.777 8398.2024 17311.554 8260.3691 17201.9 C 8161.6863 17124.257 8055.185 17055.836 7940.2199 17004.854 C 7731.4781 16904.255 7517.1752 16811.774 7325.0144 16680.733 C 7008.8725 16479.139 6721.7037 16236.62 6439.0312 15991.371 C 6301.5884 15882.441 6148.8849 15790.84 6029.1293 15661.066 C 5996.2313 15623.008 5964.8094 15577.317 5965.1403 15525.043 C 5976.3274 15460.887 6043.4986 15416.172 6106.8952 15422.666 C 6232.4195 15418.062 6358.2132 15423.674 6483.5855 15414.46 C 6620.1666 15408.869 6756.7589 15401.713 6893.498 15402.303 z M 5508.6602 15763.588 C 5578.04 15805.497 5617.6804 15878.999 5672.6895 15936.023 C 5829.7915 16100.946 6003.2146 16249.486 6158.1381 16416.558 C 6257.8973 16519.494 6363.8497 16618.924 6488.7137 16690.928 C 6651.5588 16792.955 6817.7873 16889.474 6984.2366 16985.467 C 7203.5194 17108.048 7431.3239 17214.754 7649.4586 17339.42 C 7789.684 17424.995 7913.6581 17536.638 8014.5308 17666.224 C 8156.8108 17835.011 8287.4638 18013.796 8439.9316 18173.838 C 8422.5276 18186.384 8400.5895 18176.566 8381.1364 18177.889 C 8271.3066 18167.5 8171.0278 18115.67 8078.7458 18058.324 C 7662.7094 17809.664 7227.1416 17593.35 6825.7922 17320.463 C 6596.4215 17166.559 6365.5947 17014.293 6146.0404 16846.463 C 5997.7545 16729.746 5868.1901 16589.728 5761.396 16434.24 C 5645.8714 16272.742 5529.3064 16111.473 5428.2163 15940.39 C 5407.6282 15894.366 5406.8077 15834.544 5441.5899 15795.012 C 5456.7854 15777.618 5477.4675 15765.284 5499.8086 15759.582 C 5502.7591 15760.917 5505.7096 15762.253 5508.6602 15763.588 z M 5691.4277 17071.592 C 5792.835 17092.589 5887.6591 17136.109 5980.8075 17180.074 C 6182.5747 17277.87 6377.2309 17389.381 6574.6841 17495.424 C 6691.5086 17558.933 6809.5831 17620.107 6928.0537 17680.471 C 7050.7187 17745.09 7172.4787 17815.454 7274.2129 17910.695 C 7320.6551 17967.643 7295.5774 18065.552 7227.0473 18092.598 C 7179.6146 18113.39 7126.7581 18104.091 7076.6947 18104.116 C 6784.8203 18092.625 6497.8114 18004.728 6244.4134 17860.589 C 6102.7593 17777.312 5971.1985 17677.447 5849.3063 17567.431 C 5754.0711 17479.458 5665.2047 17383.484 5593.1114 17275.437 C 5568.6665 17233.566 5561.8064 17177.66 5588.6971 17135.232 C 5609.349 17098.861 5648.3538 17070.407 5691.4277 17071.592 z M 4903.8242 17414.932 C 4992.1803 17448.721 5061.0299 17516.548 5126.2637 17582.65 C 5244.91 17702.306 5359.853 17829.04 5503.274 17919.91 C 5651.1439 18011.614 5817.6491 18065.748 5974.3668 18139.544 C 6171.33 18228.018 6370.2989 18312.977 6575.8065 18379.805 C 6846.6799 18472.31 7122.0312 18557.684 7376.0592 18691.809 C 7556.6538 18787.474 7723.6882 18906.621 7883.54 19033.426 C 7946.0461 19084.9 8009.9378 19136.396 8059.8379 19200.735 C 8089.3736 19239.592 8115.0055 19283.744 8122.514 19332.537 C 8119.3306 19368.57 8080.8783 19392.749 8046.5563 19388.273 C 7985.5251 19389.795 7925.9099 19374.321 7865.9633 19365.261 C 7706.9837 19334.566 7549.3318 19296.791 7389.1794 19272.363 C 7150.0393 19229.186 6908.6008 19193.709 6675.1272 19124.617 C 6489.834 19056.242 6323.2713 18948.172 6155.2112 18846.375 C 5929.0938 18704.71 5701.2953 18563.677 5494.7466 18393.964 C 5355.2067 18277.691 5231.2288 18143.35 5123.0352 17997.592 C 5041.691 17889.768 4965.3214 17777.723 4901.1356 17658.769 C 4871.131 17594.56 4851.9672 17521.338 4866.9805 17450.617 C 4871.429 17433.552 4884.0772 17414.359 4903.8242 17414.932 z M 5214.916 18878.061 C 5435.6431 18958.943 5634.8482 19085.973 5845.5193 19188.372 C 6080.4252 19309.983 6306.2313 19451.747 6555.0895 19544.29 C 6812.7514 19631.79 7089.8825 19640.768 7346.4395 19732.268 C 7365.1998 19740.107 7386.8497 19745.584 7400.6275 19761.343 C 7414.0065 19790.191 7386.1616 19824.215 7356.0613 19823.43 C 7220.009 19869.652 7080.3984 19915.259 6935.2759 19916.853 C 6796.3351 19916.627 6662.5182 19872.497 6533.5847 19824.84 C 6342.7841 19751.334 6158.6804 19661.887 5975.4103 19571.575 C 5821.0982 19494.029 5668.7604 19411.008 5528.2214 19310.219 C 5388.1454 19202.948 5270.5797 19063.527 5199.5195 18901.283 C 5196.6971 18891.523 5202.1803 18875.08 5214.916 18878.061 z " />
  </g>
</svg>
