<?xml version="1.0" encoding="UTF-8" standalone="no"?>
<svg
   xmlns:dc="http://purl.org/dc/elements/1.1/"
   xmlns:cc="http://creativecommons.org/ns#"
   xmlns:rdf="http://www.w3.org/1999/02/22-rdf-syntax-ns#"
   xmlns:svg="http://www.w3.org/2000/svg"
   xmlns="http://www.w3.org/2000/svg"
   xmlns:sodipodi="http://sodipodi.sourceforge.net/DTD/sodipodi-0.dtd"
   xmlns:inkscape="http://www.inkscape.org/namespaces/inkscape"
   id="svg2"
   preserveAspectRatio="xMidYMid meet"
   viewBox="0 0 6751.2919 2821.5974"
   height="2821.5974pt"
   width="6751.292pt"
   version="1.0"
   inkscape:version="0.91 r13725"
   sodipodi:docname="logo.svg">
  <sodipodi:namedview
     pagecolor="#ffffff"
     bordercolor="#666666"
     borderopacity="1"
     objecttolerance="10"
     gridtolerance="10"
     guidetolerance="10"
     inkscape:pageopacity="0"
     inkscape:pageshadow="2"
     inkscape:window-width="2491"
     inkscape:window-height="1410"
     id="namedview33"
     showgrid="false"
     inkscape:zoom="0.13138148"
     inkscape:cx="3892.2473"
     inkscape:cy="809.2669"
     inkscape:window-x="69"
     inkscape:window-y="30"
     inkscape:window-maximized="1"
     inkscape:current-layer="svg2" />
  <defs
     id="defs32">
    <linearGradient
       spreadMethod="repeat"
       x2="0"
       y1="1"
       x1="1"
       id="grad1">
      <stop
         id="stop5"
         stop-opacity="0"
         stop-color="#000"
         offset=".25" />
      <stop
         id="stop7"
         stop-opacity=".2"
         stop-color="#fff"
         offset=".25" />
      <stop
         id="stop9"
         stop-opacity=".2"
         stop-color="#fff"
         offset=".5" />
      <stop
         id="stop11"
         stop-opacity="0"
         stop-color="#000"
         offset=".5" />
      <stop
         id="stop13"
         stop-opacity="0"
         stop-color="#000"
         offset=".75" />
      <stop
         id="stop15"
         stop-opacity=".2"
         stop-color="#fff"
         offset=".75" />
    </linearGradient>
    <linearGradient
       spreadMethod="repeat"
       y1="1"
       id="grad2">
      <stop
         id="stop18"
         stop-opacity="0"
         stop-color="#000"
         offset=".25" />
      <stop
         id="stop20"
         stop-opacity=".3"
         stop-color="#fff"
         offset=".25" />
      <stop
         id="stop22"
         stop-opacity=".3"
         stop-color="#fff"
         offset=".5" />
      <stop
         id="stop24"
         stop-opacity="0"
         stop-color="#000"
         offset=".5" />
      <stop
         id="stop26"
         stop-opacity="0"
         stop-color="#000"
         offset=".75" />
      <stop
         id="stop28"
         stop-opacity=".3"
         stop-color="#fff"
         offset=".75" />
    </linearGradient>
    <pattern
       patternUnits="userSpaceOnUse"
       height="25"
       width="100"
       y="0"
       x="0"
       id="Pattern">
      <rect
         fill="rgb(89, 218, 251)"
         height="25"
         width="100"
         y="0"
         x="0"
         id="rect-gx" />
      <rect
         fill="url(#grad1)"
         height="25"
         width="100"
         y="0"
         x="0"
         id="rect-g2" />
      <rect
         fill="url(#grad2)"
         height="25"
         width="100"
         y="0"
         x="0"
         id="rect-g3" />
    </pattern>
  </defs>
  <metadata
     id="metadata4">
Created by potrace 1.15, written by Peter Selinger 2001-2017
<rdf:RDF>
  <cc:Work
     rdf:about="">
    <dc:format>image/svg+xml</dc:format>
    <dc:type
       rdf:resource="http://purl.org/dc/dcmitype/StillImage" />
    <dc:title />
  </cc:Work>
</rdf:RDF>
</metadata>
  <g
     style="stroke:none"
     id="g6"
     transform="matrix(0,0.1,0.1,0,-356.95278,724.83672)">
    <path
       style="fill:url(#Pattern);fill-opacity:1"
       id="path10"
       d="m 16489.16,53382.108 c -852.931,38.205 -1686.597,245.695 -2536.59,312.739 -478.792,93.056 -914.503,321.647 -1355.224,520.533 -946.07,452.286 -1764.111,1118.117 -2598.0064,1743.722 -266.1624,198.23 -556.042,367.507 -795.9629,598.915 -242.6511,254.722 -374.7424,626.471 -299.1465,975.472 28.4187,138.604 109.6089,277.273 247.4844,329.533 163.464,69.91 359.1965,34.311 498.3416,-72.613 280.3449,-181.281 468.6738,-482.691 776.6878,-624.511 130.519,-57.645 281.879,-31.856 409.634,-97.772 107.52,-50.597 200.786,-125.648 304.408,-183.292 712.345,-433.396 1422.549,-872.424 2162.554,-1257.585 595.346,-253.891 1251.183,-274.645 1885.265,-345.754 732.944,-86.972 1463.15,-260.402 2205.748,-211.804 268.069,15.151 538.467,62.326 781.561,180.877 411.139,193.469 756.887,530.513 947.603,944.127 135.464,318.832 147.232,671.292 154.091,1012.625 7.072,575.101 -94.448,1165.367 -384.946,1668.437 -154.674,263.692 -359.486,509.787 -630.895,658.497 -71.109,34.779 -146.714,77.456 -228.781,62.322 -104.763,-12.389 -208.558,-48.842 -315.072,-30.876 -363.502,18.793 -721.109,212.938 -909.797,528.48 -139.445,226.153 -210.259,505.805 -150.703,768.547 64.937,235.19 271.466,403.125 489.639,493.041 221.805,94.556 465.762,102.352 698.698,152.246 159.387,29.245 283.499,141.48 406.267,239.034 80.214,68.22 167.728,126.786 258.112,180.374 181.606,121.161 337.621,286.533 424.904,488.52 186.804,390.734 186.27,857.226 29.496,1257.777 -211.638,667.133 -489.039,1323.97 -916.368,1883.592 -236.368,313.8 -509.403,603.275 -824.254,838.937 -59.691,14.583 -91.203,-52.979 -120.224,-92.513 -136.88,-198.594 -294.65,-399.77 -519.343,-502.536 -187.382,-79.23 -395.921,-55.369 -593.103,-40.522 -151.759,12.215 -303.952,31.596 -448.507,81.638 -323.056,104.305 -613.345,316.526 -794.928,605.212 -250.542,382.865 -370.116,829.818 -560.28,1242.196 -126.084,280.334 -274.545,560.294 -501.824,772.289 -177.014,138.469 -410.26,154.911 -609.946,245.764 -83.938,37.089 -187.352,69.596 -271.94,15.88 -130.499,-79.422 -136.986,-247.176 -164.102,-381.367 -25.963,-181.894 -65.718,-361.294 -96.393,-542.401 -89.663,-492.992 -199.043,-988.126 -411.988,-1444.518 -267.294,-608.857 -637.858,-1183.047 -1140.756,-1623.724 -245.374,-203.493 -575.804,-324.52 -895.321,-266.416 -330.4544,70.353 -588.8131,347.49 -690.0386,662.637 -175.2468,511.571 -194.3665,1062.253 -146.7167,1596.66 94.6002,944.587 510.5871,1868.891 1210.6083,2518.739 323.333,291.149 755.871,437.022 1184.854,469.41 61.001,5.775 148.347,0.07 174.955,69.262 24.735,87.907 35.845,183.248 93.059,257.85 205.109,376.988 495.495,719.93 874.63,929.799 222.207,117.2 491.92,149.531 731.199,66.537 257.091,-81.847 472.076,-274.275 595.245,-512.804 250.601,-419.84 366.762,-911.261 665.349,-1303.856 140.337,-183.733 341.31,-307.535 546.21,-407.602 243.423,-125.555 488.369,-249.388 718.263,-398.913 1158.807,-704.784 2168.526,-1640.738 3005.437,-2705.111 332.752,-403 692.648,-795.526 917.047,-1273.117 401.888,-845.81 473.809,-1849.324 171.408,-2737.917 -103.609,-302.964 -271.371,-582.334 -485.068,-820.396 -99.267,-114.461 -211.229,-217.827 -317.062,-325.305 -76.148,-148.171 -30.149,-325.931 49.944,-462.398 167.869,-304.18 464.235,-509.815 640.688,-808.108 209.888,-332.96 340.672,-707.577 458.865,-1080.775 219.014,-743.815 272.227,-1546.969 84.183,-2303.337 -73.128,-283.385 -214.785,-548.999 -413.977,-763.883 -349.634,-395.155 -806.425,-671.603 -1255.915,-937.968 -286.381,-167.199 -573.714,-332.985 -861.994,-496.766 -480.888,-238.015 -1024.546,-323.748 -1557.266,-315.76 z m -5934.43,12587.104 c 494.338,30.013 910.82,451.693 994.095,930.27 81.695,500.271 197.233,1006.068 139.567,1515.782 -10.369,109.994 -44.017,239.299 -154.038,289.221 -106.723,46.283 -227.742,27.492 -338.484,7.735 -234.446,-47.51 -445.241,-179.525 -607.401,-353.177 -183.847,-193.638 -326.137,-424.751 -431.957,-669.179 -166.4711,-400.424 -219.169,-856.204 -106.807,-1278.088 65.573,-206.795 229.727,-401.161 452.032,-438.677 17.526,-2.684 35.264,-3.969 52.993,-3.887 z m 5751.662,824.719 c 44.013,50.541 -0.02,117.243 -33.576,160.06 -187.878,306.724 -410.141,608.616 -723.901,796.345 -44.453,26.114 -103.829,53.027 -153.102,30.657 6.68,-69.381 71.226,-111.813 97.276,-173.032 190.895,-286.029 391.635,-579.577 680.514,-775.55 40.102,-23.51 85.744,-40.04 132.789,-38.48 z m -3056.683,2755.285 c 82.688,-8.006 127.173,93.367 101.79,161.953 -68.001,127.371 -134.124,267.527 -260.738,347.431 -60.474,43.119 -147.171,55.769 -209.06,8.34 -90.674,-61.051 -128.784,-192.616 -71.465,-288.729 65.125,-146.228 228.48,-223.126 382.538,-226.414 18.938,-1.583 37.921,-2.743 56.935,-2.581 z" />
    <path
       id="path12"
       d="m 15856.306,40462.11 c -760.847,147.149 -1431.499,564.77 -2063.149,994.465 -540.802,368.075 -1032.217,802.441 -1496.809,1261.654 -403.586,398.311 -799.696,805.089 -1182.206,1223.388 -781.337,1001.79 -1179.2933,2226.99 -1586.2358,3413.06 -563.5351,1735.058 -949.3717,3558.742 -847.5099,5391.659 52.9728,592.198 190.7089,1202.53 550.7508,1687.835 252.9309,155.177 560.6998,60.267 822.2349,-19.335 856.252,-292.1 1516.451,-1015.554 1848.437,-1843.762 860.927,-1959.016 1039.2,-4114.814 1361.345,-6205.786 100.685,-680.675 239.344,-1359.527 487.199,-2003.428 105.592,-269.861 218.061,-538.238 353.687,-794.383 117.102,-210.263 296.391,-388.782 521.988,-478.601 660.243,-368.702 1288.592,-845.762 2049.208,-983.981 738.992,-155.962 1567.649,-83.27 2193.158,370.14 541.688,421.639 793.677,1096.006 953.006,1741.306 320.848,1361.92 137.848,2781.947 -173.003,4127.67 -228.363,976.908 -548.682,1930.879 -749.98,2914.196 -35.511,224.612 -71.583,470.839 24.916,684.375 144.075,177.089 437.023,102.68 541.975,-79.997 156.048,-181.247 312.633,-362.57 483.006,-530.225 289.617,-354.794 354.483,-821.747 466.37,-1251.36 401.735,-1732.181 449.449,-3529.779 300.199,-5296.209 -52.743,-738.446 -266.852,-1462.113 -601.238,-2121.391 -322.388,-625.853 -762.619,-1200.047 -1321.11,-1632.642 -564.717,-403.341 -1289.687,-509.127 -1967.474,-439.094 -328.805,11.034 -642.342,-117.854 -968.765,-129.554 z m -3922.25,6001.672 c 127.228,1542.162 -273.141,3095.559 -988.54,4456.56 -281.095,606.97 -449.191,1283.419 -894.938,1800.077 -215.0194,124.506 -481.0763,-172.034 -358.6644,-378.665 232.7106,-1398.434 730.0444,-2733.843 1243.1714,-4049.394 277.424,-637.453 613.428,-1248.913 995.758,-1829.363 l 3.213,0.785 0,0 z m 8095.28,4884.791 0.537,-1.689 -0.537,1.689 z"
       style="fill:url(#Pattern);fill-opacity:1" />
    <path
       id="path14"
       d="m 7624.3504,41413.363 c -411.1236,-123.09 -644.378,-631.942 -472.8344,-1042.169 58.8795,-363.886 272.2077,-736.541 631.1409,-828.939 381.2279,17.444 610.3067,459.703 628.5526,820.646 15.1858,458.826 -278.1983,958.097 -723.206,1054.288 l -63.6531,-3.826 z"
       style="fill:url(#Pattern);fill-opacity:1" />
    <path
       id="path16"
       d="m 16427.744,36728.165 c -1240.172,-3.79 -2426.795,410.244 -3588.361,800.041 -820.64,280.469 -1726.872,264.628 -2508.792,665.723 -471.1981,295.24 -1037.0555,464.277 -1410.5842,896.614 -330.2947,458.23 -218.1256,1168.381 230.966,1507.313 241.7318,143.938 546.8483,23.471 738.6266,-150.617 282.3676,-203.174 613.8646,-331.384 946.6446,-427.923 558.684,-161.286 1141.543,-194.502 1715.97,-262.342 1141.445,-151.477 2252.623,-461.903 3374.894,-709.835 715.262,-158.864 1457.329,-219.588 2185.447,-119.092 399.767,59.147 803.981,138.838 1171.48,312.6 304.882,143.457 529.93,420.102 644.501,733.389 92.241,220.81 189.78,473.213 415.35,589.422 152.156,-58.248 140.55,-247.394 160.175,-380.684 126.826,-870.182 -221.678,-1761.752 -809.308,-2398.879 -351.254,-403.993 -826.528,-715.354 -1359.767,-804.699 -624.995,-146.531 -1263.589,-253.557 -1907.242,-251.031 z"
       style="fill:url(#Pattern);fill-opacity:1" />
    <path
       style="fill:url(#Pattern);fill-opacity:1"
       id="path18"
       d="m 11330.066,26623.776 c -258.665,42.318 -475.389,239.474 -592.524,478.332 -52.216,97.417 -94.191,200.251 -137.219,302.308 -284.099,-274.626 -599.978,-528.294 -969.4843,-661.928 -339.6989,-90.659 -702.5205,-4.843 -1005.8802,166.53 -366.6564,209.316 -694.3478,493.382 -959.2282,830.913 -172.0477,244.47 -255.9908,541.972 -306.5121,837.174 -67.0081,329.837 -133.2071,663.049 -137.441,1001.47 7.6954,394.279 140.0926,774.629 323.2888,1115.43 120.6736,229.683 268.2957,451.403 470.2599,610.726 279.5698,169.795 622.2397,183.798 932.148,113.03 416.8295,-97.32 782.907,-378.696 1024.4276,-743.068 255.4125,-315.497 503.8105,-641.82 688.7445,-1008.824 76.211,-61.7 191.45,-63.304 246.615,-154.137 137.56,-180.694 178.655,-419.173 176.64,-644.792 1.854,-259.287 -28.538,-526.323 49.639,-777.539 86.545,-184.591 360.536,-223.958 490.936,-69.698 125.74,140.156 162.008,335.938 193.122,518.568 76.107,371.497 233.984,735.415 499.883,1000.619 197.288,191.955 500.533,271.887 755.04,166.029 186.355,-74.816 347.305,-220.146 550.595,-245.802 33.675,-1.838 77.47,-19.685 105.198,-4.324 -542.656,421.402 -1033.733,915.161 -1609.16,1289.969 -667.603,472.264 -1343.65,938.053 -1947.49,1499.054 -565.4786,504.417 -1102.9165,1053.766 -1526.1985,1695.799 -231.4776,378.797 -403.5238,808.634 -433.3232,1260.807 -28.6436,481.098 244.1169,957.948 650.8533,1178.768 398.2145,237.719 873.4562,305.624 1324.7694,249.648 546.202,-64.753 1056.361,-292.91 1587.538,-426.289 910.222,-227.256 1826.044,-434.903 2722.421,-718.27 427.497,-124.697 867.661,-190.45 1303.383,-274.757 235.084,-44.879 472.308,-77.155 710.772,-93.965 292.544,-23.279 586.094,-25.435 878.969,-41.5 387.786,-23.845 778.584,-72.231 1166.055,-18.329 168.329,25.809 338.786,70.511 483.911,166.195 130.088,113.527 167.954,296.785 272.772,430.849 66.467,90.076 171.018,161.76 283.983,147.184 153.998,-14.893 287.347,-124.03 369.42,-256.344 78.335,-132.719 92.291,-306.056 27.434,-447.754 -78.45,-202.451 -215.139,-370.994 -339.983,-543.308 -242.346,-306.89 -569.765,-552.984 -945.091,-641.601 -358.23,-89.896 -729.402,-81.714 -1095.24,-81.342 -937.805,16.392 -1865.809,172.302 -2798.581,258.453 -547.593,59.354 -1080.736,208.991 -1619.984,317.892 -381.342,69.25 -762.176,145.681 -1134.753,256.395 -466.739,116.446 -932.204,239.355 -1391.968,383.23 -360.142,101.246 -719.8418,208.274 -1088.0939,271.86 -92.1186,8.561 -198.5467,2.353 -268.7943,-67.454 4.1859,-29.392 37.2458,-41.633 48.8724,-67.878 93.9828,-121.318 178.56,-251.791 290.176,-356.897 234.3489,-236.306 505.7148,-426.591 757.4908,-641.183 189.772,-154.051 389.702,-292.783 595.597,-421.656 431.998,-301.817 798.687,-689.835 1183.65,-1051.398 274.698,-260.271 561.128,-509.035 875.414,-715.757 365.122,-252.069 740.505,-496.85 1050.792,-823.013 339.924,-342.594 642.229,-724.571 996.689,-1051.669 245.096,-237.944 499.028,-466.357 736.437,-712.681 56.724,-98.479 40.408,-218.636 46.757,-326.892 58.349,-52.615 139.298,-23.134 208.472,-31.43 854.859,-8.835 1692.227,-256.779 2548.882,-228.869 310.529,14.275 621.996,14.872 931.969,-11.274 187.03,-8.04 381.329,24.28 561.468,-43.73 121.032,-44.555 224.261,-137.661 282.021,-257.669 85.341,-167.054 89.106,-389.691 -26.756,-542.455 -109.331,-145.896 -287.274,-212.159 -458.325,-232.411 -311.755,-43.432 -632.951,11.421 -939.281,-77.929 -513.074,-112.941 -1038.712,-163.418 -1562.872,-152.772 -327.754,8.039 -653.706,50.095 -976.904,105.68 -355.695,57.901 -713.635,116.704 -1074.757,109.691 -350.587,2.302 -704.858,7.563 -1047.874,91.993 -503.169,110.495 -977.667,341.624 -1399.467,646.396 -111.917,69.861 -253.278,119.039 -380.536,65.519 -146.389,-59.831 -235.958,-216.002 -262.596,-372.269 -67.582,-268.258 -125.999,-541.214 -237.043,-794.615 -102.227,-244.343 -243.536,-481.59 -454.165,-638.886 -81.269,-56.491 -176.935,-96.582 -275.98,-92.153 z M 9133.8079,27820.2 c 228.9565,-2.435 467.5673,1.522 678.833,105.498 78.8541,35.104 154.6892,77.702 225.8521,127.649 -166.2407,266.726 -223.532,584.803 -291.8365,889.711 -59.7903,293.422 -126.99,596.678 -297.6723,844.27 -268.9528,386.179 -695.9065,657.69 -1154.3152,697.56 -208.207,-1.019 -394.5938,-161.163 -466.2472,-360.335 -97.7304,-249.856 -71.0393,-536.639 27.1255,-781.662 143.0217,-417.18 293.3758,-842.292 557.8316,-1194.638 170.006,-224.242 450.8167,-337.056 720.429,-328.053 z" />
    <path
       id="path20"
       d="m 12656.113,18101.825 c -634.585,117.514 -1165.847,508.924 -1683.663,869.743 -1302.9168,975.09 -2340.7036,2242.846 -3537.7657,3335.867 -1464.5502,1393.276 -2994.7842,2774.022 -4038.5755,4527.899 -301.8454,477.64 -422.4521,1054.478 -383.802,1614.886 7.3569,397.118 11.6422,822.221 222.6397,1172.657 199.6781,216.657 533.1006,228.095 800.7441,156.232 579.683,-152.914 1023.3114,-635.6 1240.274,-1180.766 74.4217,-185.974 133.8231,-378.26 239.5835,-550.109 446.9971,-803.83 1132.4265,-1431.377 1729.0355,-2119.755 736.8214,-814.838 1432.0716,-1668.748 2062.7264,-2568.259 515.4803,-492.386 1146.36,-856.09 1610.349,-1403.57 556.581,-536.853 1144.858,-1081.433 1880.303,-1358.354 444.26,-119.291 906.78,48.303 1284.894,279.438 1406.268,605.22 2902.841,998.266 4259.857,1719.984 305.355,163.221 612.32,342.336 852.353,594.703 271.05,429.587 75.708,1092.008 -411.292,1268.147 -277.622,106.248 -620.872,86.82 -837.827,318.72 -380.117,458.21 -513.103,1143.561 -240.607,1686.587 294.531,485.692 932.476,687.017 1468.887,544.462 780.121,-162.319 1401.19,-822.269 1598.6,-1582.908 262.417,-847.501 260.412,-1777.175 -10.468,-2622.11 -233.03,-682.49 -608.413,-1314.77 -1081.241,-1857.978 -664.01,-652.542 -1579.053,-925.639 -2425.06,-1257.041 -1210.441,-457.172 -2377.529,-1034.617 -3627.224,-1383.256 -314.763,-85.617 -634.186,-167.944 -957.544,-207.89 -5.059,0.89 -10.118,1.781 -15.177,2.671 z"
       style="fill:url(#Pattern);fill-opacity:1;stroke-width:8;stroke-miterlimit:4;stroke-dasharray:none" />
    <path
       style="fill:#5edfff;fill-opacity:1"
       id="path22"
       d="M -1018.582 9706.1953 C -1672.6485 9775.799 -2275.8426 10058.4 -2867.7207 10326.982 C -3232.8513 10504.722 -3632.2988 10601.866 -3991.6893 10792.076 C -4316.0684 10997.44 -4547.2297 11312.239 -4766.8135 11620.116 C -5306.1359 12335.228 -5889.2057 13022.666 -6336.5527 13801.992 C -6761.1934 14522.961 -7089.2585 15315.008 -7194.4485 16149.827 C -7254.4306 16668.348 -7238.0573 17192.356 -7192.3321 17711.345 C -7163.5375 18048.455 -7115.53 18383.986 -7040.6948 18714.091 C -6879.2709 19436.38 -6622.0541 20137.763 -6274.6672 20791.376 C -6153.3905 21012.668 -5994.2284 21211.473 -5811.6523 21385.184 C -5394.0185 21793.006 -4893.7765 22099.591 -4414.8575 22428.142 C -3923.7865 22754.472 -3409.1651 23068.966 -2832.1066 23215.108 C -2416.7948 23318.102 -1979.1938 23313.185 -1561.6938 23225.066 C -918.6332 23096.599 -317.53839 22807.345 226.76943 22447.355 C 922.57451 21975.556 1487.4889 21312.65 1839.3313 20548.84 C 2207.724 19764.029 2371.5737 18897.251 2410.4979 18035.223 C 2442.5394 17353.067 2428.7578 16669.709 2405.1178 15987.544 C 2384.9897 15653.278 2293.2659 15329.366 2196.4253 15010.584 C 2180.981 14949.377 2157.0418 14887.741 2153.6348 14825.08 C 2195.9084 14623.171 2363.711 14475.403 2541.6338 14387.544 C 3005.1771 14124.01 3557.6644 13991.673 4087.7198 14087.814 C 4310.5278 14125.645 4508.6512 14242.206 4722.7148 14307.656 C 4944.5223 14345.162 5197.0285 14245.23 5300.9055 14038.736 C 5374.2258 13859.717 5258.7591 13643.234 5082.0807 13578.952 C 4886.2922 13477.54 4676.083 13393.665 4512.9838 13240.616 C 4232.4181 13020.017 3946.7224 12802.974 3632.4377 12632.036 C 3483.3985 12539.883 3355.9297 12409.041 3283.6132 12248.097 C 3147.4901 11992.529 3062.9779 11700.959 2854.014 11491.039 C 2625.9895 11261.665 2314.0545 11148.88 2012.7273 11051.532 C 1759.1256 10965.651 1502.502 10840.636 1341.8944 10617.957 C 1212.67 10455.18 1080.4236 10275.424 878.6843 10199.395 C 523.24059 10043.852 139.57146 9969.6294 -222.45164 9832.3501 C -480.50956 9755.2608 -748.46363 9704.4554 -1018.582 9706.1953 z M -2074.4238 12536.789 C -1983.4562 12647.917 -2033.6849 12824.499 -2148.1548 12898.934 C -2367.4978 13107.266 -2610.276 13298.051 -2776.5165 13554.776 C -3139.3934 14045.752 -3358.3187 14625.088 -3521.9384 15208.634 C -3720.5988 15871.923 -3833.3357 16556.366 -3949.6892 17237.66 C -4099.4103 17985.1 -4338.5852 18726.32 -4754.3848 19370.629 C -4842.1311 19505.507 -4942.4823 19652.208 -5102.0528 19706.11 C -5171.9025 19727.358 -5256.6554 19698.485 -5285.3477 19627.919 C -5343.2959 19525.816 -5313.5504 19402.633 -5271.6998 19300.664 C -5063.3517 18598.595 -5069.9159 17853.933 -4868.3193 17150.432 C -4795.2179 16885.989 -4682.2784 16635.421 -4570.5663 16385.631 C -4415.449 16032.674 -4268.3406 15675.906 -4143.7994 15310.896 C -3845.5901 14515.626 -3444.0202 13745.665 -2865.9454 13116.635 C -2659.7215 12895.938 -2429.3059 12692.59 -2163.2265 12547.221 C -2136.5807 12539.636 -2099.0034 12523.843 -2074.4238 12536.789 z M -4681.1309 13616.195 C -4626.4419 13646.77 -4658.3949 13715.878 -4671.5544 13761.448 C -4805.182 14289.963 -5114.3821 14747.22 -5392.6939 15207.935 C -5431.3552 15265.066 -5454.5259 15334.991 -5505.4941 15382.348 C -5541.9271 15386.673 -5531.225 15332.553 -5523.5136 15311.106 C -5461.8613 15031.322 -5416.468 14746.475 -5318.2863 14476.18 C -5224.9219 14209.732 -5077.0484 13960.284 -4876.6297 13760.471 C -4817.7343 13705.271 -4753.5372 13651.257 -4681.1309 13616.195 z M 738.66602 13833.17 C 842.49083 13846.791 872.11417 13992.968 806.38392 14063.664 C 661.71634 14286.09 443.70923 14445.865 281.68508 14654.146 C -509.34329 15549.669 -1145.3107 16579.716 -1603.8788 17682.566 C -1866.3516 18287.133 -2102.4421 18905.146 -2419.455 19484.253 C -2561.9416 19727.692 -2743.8131 19956.195 -2981.9985 20111.569 C -3037.8642 20129.486 -3071.016 20048.013 -3039.9124 20007.586 C -2963.9757 19842.834 -2877.6436 19682.934 -2788.8305 19524.824 C -2439.4962 18918.856 -2003.321 18355.407 -1766.2919 17690.751 C -1529.9837 17059.931 -1315.489 16417.113 -993.50889 15822.978 C -848.90907 15553.623 -699.07668 15286.852 -539.26138 15026.215 C -275.86952 14608.097 48.599435 14214.473 471.56574 13949.955 C 553.55901 13901.583 639.5741 13854.411 732.77344 13833.166 C 734.73763 13833.167 736.70182 13833.169 738.66602 13833.17 z M -1533.0957 14408.877 C -1837.9737 15009.913 -1913.6545 15700.475 -2242.0476 16291.414 C -2432.5135 16662.668 -2653.3793 17019.503 -2808.0566 17408.211 C -2803.6446 16917.795 -2742.788 16426.161 -2609.3414 15953.758 C -2446.0208 15489.123 -2122.3006 15106.801 -1799.5343 14744.186 C -1703.1756 14629.499 -1612.1006 14510.488 -1523.2227 14389.945 C -1526.5137 14396.256 -1529.8047 14402.566 -1533.0957 14408.877 z M 1116.873 15812.818 C 1192.7333 16304.218 1357.4556 16785.458 1346.9824 17287.512 C 1326.4461 17721.358 1156.0617 18126.99 1007.8191 18529.241 C 654.45805 19435.983 170.85732 20306.248 -509.13774 21009.765 C -825.75224 21345.768 -1197.9735 21647.222 -1639.8941 21798.245 C -1933.3235 21904.9 -2245.6871 21958.72 -2557.8418 21957.92 C -2351.9202 21731.739 -2166.368 21486.564 -2013.0351 21221.628 C -1763.4918 20812.096 -1534.5914 20387.962 -1241.0549 20007.212 C -789.7805 19321.259 -537.17802 18533.843 -215.07808 17784.782 C 46.318246 17211.258 368.27664 16664.054 754.0678 16165.23 C 865.03271 16026.056 983.52303 15892.79 1110.3145 15767.824 C 1112.5007 15782.822 1114.6868 15797.82 1116.873 15812.818 z M -5750.334 16014.248 C -5727.2362 16031.479 -5752.7363 16064.069 -5750.445 16087.406 C -5848.7619 16614.86 -5742.2062 17156.465 -5839.3638 17684.374 C -5857.2766 17771.649 -5863.9963 17867.807 -5919.0925 17941.374 C -5946.0191 17977.91 -6006.5848 18013.502 -6044.5723 17972.07 C -6100.5877 17905.973 -6100.0339 17813.117 -6119.3231 17732.494 C -6189.7148 17392.285 -6143.9928 17037.272 -6043.4002 16707.8 C -5974.9666 16484.851 -5879.5402 16271.222 -5778.6729 16061.357 C -5769.097 16046.468 -5763.4386 16024.803 -5750.334 16014.248 z " />
    <path
       style="fill:#5edfff;fill-opacity:1"
       id="path24"
       d="m 13961.771,9049.9023 c -969.061,6.6348 -1970.468,-43.7602 -2895.221,299.162 -711.96,249.8188 -1261.6172,830.4497 -1606.6919,1487.1867 -177.8876,292.863 -482.3049,497.711 -816.9245,565.416 -296.0837,76.911 -624.4895,152.285 -822.6408,406.87 -398.3957,444.494 -463.7155,1188.139 -71.4237,1656.815 146.3614,149.876 378.9886,123.901 557.2877,54.332 203.6917,-55.94 430.1278,-65.766 622.315,33.071 562.4143,157.171 1176.2702,-99.089 1545.9052,-531.546 333.782,-369.748 589.467,-837.986 1049.016,-1071.009 490.037,-258.34 1060.799,-202.296 1594.761,-194.168 581.729,14.117 1172.742,-21.244 1729.654,-201.99 643.137,-161.419 1274.245,-373.574 1928.378,-489.013 8.774,274.767 -219.506,472.513 -420.013,623.742 -645.847,463.766 -1419.378,706.337 -2068.754,1164.68 -1009.156,621.867 -1879.332,1434.05 -2820.999,2147.696 -1222.427,876.093 -2501.3453,1684.601 -3613.0993,2704.318 -718.9076,599.47 -1518.7542,1155.227 -2446.1555,1363.788 -443.3697,88.867 -886.4159,204.013 -1341.4132,207.837 101.3652,-935.952 345.9254,-1863.77 284.4766,-2811.687 -22.644,-365.792 -83.399,-732.289 -203.5379,-1078.818 -137.6743,-318.378 -514.6067,-531.52 -856.1529,-426.586 -299.5245,74.944 -524.1061,344.954 -577.0716,644.487 -147.2471,522.423 -66.8893,1069.705 -86.2041,1603.72 11.4095,1199.03 -153.6254,2389.208 -248.6294,3582.118 -30.5207,499.762 -35.0382,1028.141 186.9845,1489.229 107.3574,192.43 355.0145,322.823 568.1934,225.519 224.9556,-79.426 345.4058,-300.47 462.7682,-491.304 500.7048,-637.622 1358.199,-940.313 2152.8746,-831.308 540.8743,28.464 1110.5509,9.484 1599.6268,-250.148 695.8587,-319.07 1238.5071,-881.804 1722.0639,-1460.662 844.9778,-866.498 1953.1539,-1395.081 2899.7599,-2133.051 815.05,-618.406 1643.522,-1221.116 2513.542,-1760.453 772.95,-515.147 1496.441,-1108.556 2125.472,-1793.352 1032.544,-1025.075 2130.163,-1981.223 3216.372,-2948.12 286.66,-283.928 579.601,-610.684 643.665,-1023.7284 16.741,-301.0553 -245.072,-607.899 -560.213,-567.0296 -406.232,0.5861 -802.839,134.5956 -1210.629,100.5633 -1585.936,34.1641 -3152.618,-304.5642 -4737.342,-296.577 z" />
    <path
       style="fill:#5edfff;fill-opacity:1"
       id="path26"
       d="m 20068.472,3569.5278 c -264.151,24.5761 -434.919,301.0776 -425.383,550.1859 -93.705,245.5585 -285.485,476.3321 -242.306,754.7869 -0.116,210.2472 133.942,397.1435 131.376,605.5116 -42.782,271.6638 74.622,563.996 -66.166,819.1328 -116.909,292.4011 -176.114,632.4251 -42.998,930.1524 63.719,138.666 144.42,278.3347 130.903,436.9599 6.763,220.617 44.017,446.8365 166.219,635.1316 62.273,114.6838 65.143,246.6425 53.487,372.7302 13.383,305.9266 57.889,614.8367 162.305,903.496 66.232,162.4114 199.726,347.7801 395.797,335.1842 213.362,-18.0026 357.077,-228.914 363.431,-431.3863 35.231,-250.6608 22.203,-511.1667 121.158,-749.0246 89.606,-401.4694 -96.52,-803.9395 -24.327,-1205.926 38.18,-296.809 92.85,-605.4653 3.842,-898.3799 5.912,-154.0434 48.481,-316.9861 -26.189,-462.0517 -49.671,-151.0076 -19.125,-310.9333 34.206,-455.8718 83.85,-309.1058 44.854,-648.8687 -119.43,-925.2447 -32.36,-71.2365 -98.984,-143.2029 -55.54,-223.1795 87.376,-325.5149 -21.779,-706.6245 -302.943,-903.9548 -75.784,-51.8054 -165.208,-85.2491 -257.442,-88.2522 z" />
  </g>
</svg>
