<?xml version="1.0" encoding="UTF-8" standalone="no"?>
<svg
   xmlns:dc="http://purl.org/dc/elements/1.1/"
   xmlns:cc="http://creativecommons.org/ns#"
   xmlns:rdf="http://www.w3.org/1999/02/22-rdf-syntax-ns#"
   xmlns:svg="http://www.w3.org/2000/svg"
   xmlns="http://www.w3.org/2000/svg"
   viewBox="0 0 127 252"
   version="1.1"
   id="S1RhkzKDaz">
  <style
     id="style3">@-webkit-keyframes S1Wl3yMFDpz_SJjUfKvaG_Animation{0%{-webkit-transform: translate(0px, 0px);transform: translate(0px, 0px);}50%{-webkit-transform: translate(0px, -20px);transform: translate(0px, -20px);}100%{-webkit-transform: translate(0px, -20px);transform: translate(0px, -20px);}}@keyframes S1Wl3yMFDpz_SJjUfKvaG_Animation{0%{-webkit-transform: translate(0px, 0px);transform: translate(0px, 0px);}50%{-webkit-transform: translate(0px, -20px);transform: translate(0px, -20px);}100%{-webkit-transform: translate(0px, -20px);transform: translate(0px, -20px);}}@-webkit-keyframes S1Wl3yMFDpz_H1QZzKP6z_Animation{0%{-webkit-transform: rotate(0deg);transform: rotate(0deg);}50%{-webkit-transform: rotate(-10deg);transform: rotate(-10deg);}100%{-webkit-transform: rotate(2deg);transform: rotate(2deg);}}@keyframes S1Wl3yMFDpz_H1QZzKP6z_Animation{0%{-webkit-transform: rotate(0deg);transform: rotate(0deg);}50%{-webkit-transform: rotate(-10deg);transform: rotate(-10deg);}100%{-webkit-transform: rotate(2deg);transform: rotate(2deg);}}@-webkit-keyframes SJelnyztw6f_BJjgMtDpG_Animation{0%{-webkit-transform: scale(1, 1);transform: scale(1, 1);}50%{-webkit-transform: scale(1, 1.05);transform: scale(1, 1.05);}100%{-webkit-transform: scale(1, 1.05);transform: scale(1, 1.05);}}@keyframes SJelnyztw6f_BJjgMtDpG_Animation{0%{-webkit-transform: scale(1, 1);transform: scale(1, 1);}50%{-webkit-transform: scale(1, 1.05);transform: scale(1, 1.05);}100%{-webkit-transform: scale(1, 1.05);transform: scale(1, 1.05);}}@-webkit-keyframes SJelnyztw6f_B1qgMtPpG_Animation{0%{-webkit-transform: translate(0px, 0px);transform: translate(0px, 0px);}50%{-webkit-transform: translate(0px, -10px);transform: translate(0px, -10px);}100%{-webkit-transform: translate(0px, -10px);transform: translate(0px, -10px);}}@keyframes SJelnyztw6f_B1qgMtPpG_Animation{0%{-webkit-transform: translate(0px, 0px);transform: translate(0px, 0px);}50%{-webkit-transform: translate(0px, -10px);transform: translate(0px, -10px);}100%{-webkit-transform: translate(0px, -10px);transform: translate(0px, -10px);}}#S1RhkzKDaz *{-webkit-animation-duration: 3s;animation-duration: 3s;-webkit-animation-iteration-count: infinite;animation-iteration-count: infinite;-webkit-animation-timing-function: cubic-bezier(0, 0, 1, 1);animation-timing-function: cubic-bezier(0, 0, 1, 1);}#SJelnyztw6f{fill: #000000;}#S1Wl3yMFDpz{fill: #000000;}#SJelnyztw6f_B1qgMtPpG{-webkit-animation-name: SJelnyztw6f_B1qgMtPpG_Animation;animation-name: SJelnyztw6f_B1qgMtPpG_Animation;-webkit-transform-origin: 50% 50%;transform-origin: 50% 50%;transform-box: fill-box;-webkit-transform: translate(0px, 0px);transform: translate(0px, 0px);}#SJelnyztw6f_BJjgMtDpG{-webkit-animation-name: SJelnyztw6f_BJjgMtDpG_Animation;animation-name: SJelnyztw6f_BJjgMtDpG_Animation;-webkit-transform-origin: 50% 50%;transform-origin: 50% 50%;transform-box: fill-box;-webkit-transform: scale(1, 1);transform: scale(1, 1);}#S1Wl3yMFDpz_H1QZzKP6z{-webkit-animation-name: S1Wl3yMFDpz_H1QZzKP6z_Animation;animation-name: S1Wl3yMFDpz_H1QZzKP6z_Animation;-webkit-transform-origin: 50% 50%;transform-origin: 50% 50%;transform-box: fill-box;-webkit-transform: rotate(0deg);transform: rotate(0deg);}#S1Wl3yMFDpz_SJjUfKvaG{-webkit-animation-name: S1Wl3yMFDpz_SJjUfKvaG_Animation;animation-name: S1Wl3yMFDpz_SJjUfKvaG_Animation;-webkit-transform-origin: 50% 50%;transform-origin: 50% 50%;transform-box: fill-box;-webkit-transform: translate(0px, 0px);transform: translate(0px, 0px);}</style>
  <metadata
     id="metadata4209">
    <rdf:rdf>
      <cc:work
         rdf:about="">
        <dc:format>image/svg+xml</dc:format>
        <dc:type
           rdf:resource="http://purl.org/dc/dcmitype/StillImage" />
        <dc:title />
      </cc:work>
    </rdf:rdf>
    <rdf:RDF>
      <cc:Work
         rdf:about="">
        <dc:format>image/svg+xml</dc:format>
        <dc:type
           rdf:resource="http://purl.org/dc/dcmitype/StillImage" />
        <dc:title></dc:title>
      </cc:Work>
    </rdf:RDF>
  </metadata>
  <defs
     id="defs4207" />
  <g
     data-animator-type="0"
     data-animator-group="true"
     id="SJelnyztw6f_B1qgMtPpG">
    <g
       data-animator-type="2"
       data-animator-group="true"
       id="SJelnyztw6f_BJjgMtDpG">
      <path
         id="SJelnyztw6f"
         d="m 68.238233,28.231126 c -1.89774,0.139307 -3.7948,0.293907 -5.6876,0.489594 -1.02119,0.08602 -2.02614,0.29498 -3.02727,0.506207 -1.04973,0.213538 -2.04672,0.610894 -3.03946,1.003199 -1.30387,0.523293 -2.55596,1.164196 -3.83161,1.751 -1.07843,0.541051 -2.19168,1.017518 -3.22965,1.635297 -1.23653,0.725415 -2.32944,1.658944 -3.4559,2.538531 -0.95727,0.81159 -1.94438,1.597646 -2.77977,2.539493 -0.73336,0.810262 -1.4087,1.671156 -2.11671,2.503475 -0.79415,1.004661 -1.62787,1.97916 -2.38428,3.012938 -0.94473,1.300538 -1.6064,2.774369 -2.31885,4.207766 -0.46007,1.001552 -0.97278,1.984062 -1.3118,3.035966 -0.52048,1.487817 -0.77925,3.052658 -0.93764,4.616706 -0.12327,1.07116 -0.19492,2.149627 -0.18856,3.228137 -0.0134,1.378237 -0.0123,2.75653 -0.0132,4.134815 -1.29524,1.477609 -2.62876,2.925852 -3.81784,4.492039 -0.68635,0.912072 -1.21312,1.938255 -1.58646,3.015774 -0.40901,1.29614 -0.60531,2.654455 -0.62724,4.012027 -0.0224,1.099691 -0.0239,2.207779 0.10027,3.301163 0.11679,1.113508 0.61179,2.148735 1.31095,3.013265 0.50938,0.7222 1.58389,1.20849 2.36837,0.60909 0.76201,-0.5282 0.87717,-1.506161 0.83398,-2.359373 -0.0235,-1.390329 -0.0913,-2.784289 0.0332,-4.171875 0.10397,-0.996205 0.37043,-1.972856 0.80515,-2.87598 0.34592,-0.748277 0.80835,-1.495603 1.53144,-1.930533 l 0.0286,-0.01966 3.23633,4.787109 c 1.43074,1.853932 2.92355,3.658425 4.40625,5.470703 0.50987,0.658739 1.05325,1.608369 2.01758,1.521489 l 1.23046,0.0312 c 0.53767,-0.64831 0.43642,-1.551695 0.2998,-2.321985 -0.15536,-0.950626 -0.29309,-1.909122 -0.27829,-2.874847 0.022,-1.037934 0.14064,-2.071874 0.20698,-3.107755 l 0.24027,-3.16612 c 0.30328,-0.357754 0.92302,-0.162842 1.08398,0.240234 0.73298,0.852612 1.08328,1.939355 1.54508,2.945297 0.54755,1.258402 1.22075,2.456502 1.93148,3.628922 0.50694,0.870474 1.40151,1.555058 2.43946,1.568359 0.72385,0.118456 1.29548,0.629437 1.68061,1.225742 0.5208,0.623794 1.49141,1.233273 2.27178,0.719293 0.50247,-0.420411 0.31049,-1.154057 -0.0322,-1.607574 -0.40053,-0.847188 -0.87507,-1.67941 -1.05696,-2.608945 -0.1736,-1.137438 -0.0937,-2.29594 0.0659,-3.430161 0.13206,-0.91961 0.30157,-1.848698 0.68603,-2.700699 0.40369,-0.778766 1.31595,-1.189435 2.1703,-1.13457 0.95506,0.122255 1.91371,0.234268 2.86293,0.405115 0.28883,0.07129 0.64302,0.04863 0.88864,0.209924 -0.3129,0.809209 -0.46735,1.875002 0.0907,2.624768 0.65095,0.814269 1.80025,1.026345 2.78585,0.869244 0.90507,-0.106296 1.8208,-0.379606 2.73454,-0.21131 0.85073,0.14964 1.64463,0.655811 2.10291,1.393439 0.52297,0.913244 0.56404,1.996167 0.66973,3.018453 0.23322,3.225656 0.20367,6.462296 0.17286,9.694076 -0.0744,2.93438 -0.14629,5.87158 -0.40234,8.79688 -0.1057,1.06083 -0.25393,2.12434 -0.59554,3.13828 -0.4792,1.364012 -1.20399,2.622162 -1.86832,3.901192 -0.51654,0.96547 -1.04563,1.92516 -1.59949,2.86966 -0.67914,1.11133 -1.42078,2.18447 -2.05774,3.32134 -0.54206,1.00888 -0.87328,2.11246 -1.10362,3.23017 -0.27783,1.20792 -0.53439,2.43919 -1.10341,3.55108 -0.57506,1.18165 -1.24544,2.31354 -1.92228,3.43891 -0.58226,0.98329 -1.21728,1.9368 -1.76414,2.94007 -0.8894,1.67027 -1.50069,3.46692 -2.20085,5.22008 -0.69171,1.78958 -1.39948,3.57323 -2.08135,5.36644 -1.20804,3.46166 -2.42415,6.92048 -3.65974,10.37242 -0.83776,2.34754 -1.69419,4.68838 -2.53961,7.03317 -1.32421,3.34568 -2.73132,6.65759 -4.11021,9.9809 -0.3746,0.92444 -0.82696,1.81756 -1.36831,2.65582 -0.60464,0.91998 -0.94569,1.97226 -1.31174,3.00135 -0.40561,1.15296 -0.90867,2.26721 -1.39529,3.38732 -0.68574,1.43689 -1.4944,2.81003 -2.27532,4.1962 -1.20411,2.10843 -2.40791,4.21737 -3.58875,6.33881 -0.91536,1.74841 -1.82671,3.49943 -2.77084,5.23237 -0.85989,1.46803 -1.71436,2.9395 -2.51405,4.44145 -0.53305,0.98173 -1.0819,1.95494 -1.67971,2.89895 -0.56118,0.92702 -1.1438,1.84746 -1.54828,2.85706 -0.81949,1.94554 -1.62721,3.89619 -2.45396,5.83857 -1.07091,2.37838 -2.15481,4.75144 -3.15346,7.16143 -0.43576,1.01358 -0.83565,2.04686 -1.39105,3.00334 -0.33698,0.55141 -0.74014,1.06028 -1.13825,1.56893 -0.5889,-0.69511 -1.11573,-1.56432 -0.98828,-2.51367 0.14365,-0.94391 0.79518,-1.71266 0.96624,-2.64898 0.39275,-1.74825 0.9075,-3.46623 1.419,-5.18263 0.35547,-0.99148 0.54707,-2.02383 0.62257,-3.07269 0.14428,-1.11046 0.69895,-2.0973 1.07359,-3.13648 0.98139,-2.78859 1.93721,-5.58624 2.8893,-8.385 0.81855,-2.744 1.62779,-5.49075 2.42773,-8.24024 1.63074,-4.98763 3.34524,-9.94729 5.01925,-14.92046 0.34313,-1.06344 0.75301,-2.10641 1.03461,-3.18872 0.20907,-0.8819 0.58125,-1.79988 0.40588,-2.71562 -0.29748,-0.92631 -1.27023,-1.31389 -2.11163,-1.59254 -0.88517,-0.40703 -1.47007,-1.37911 -1.36959,-2.35609 0.0673,-1.08479 0.33577,-2.14257 0.52376,-3.20996 0.25389,-1.28659 0.50755,-2.57597 0.88325,-3.83363 0.30198,-1.07861 0.73973,-2.11329 1.16526,-3.14782 0.76652,-1.78364 1.61775,-3.529 2.40625,-5.30274 0.42472,-1.04304 0.81924,-2.09954 1.29882,-3.11914 0.68032,-1.2663 1.40931,-2.50577 2.11877,-3.75584 0.5409,-0.91209 1.04366,-1.84743 1.60975,-2.74416 0.51714,-0.76156 1.21955,-1.37282 1.95508,-1.91601 0.88214,-0.76226 1.24163,-1.90589 1.47981,-3.0063 l 1.72136,-6.42534 c 0.19813,-1.25339 0.33458,-2.51951 0.32867,-3.78978 0.008,-0.79985 0.003,-1.59979 0.005,-2.39967 l -2.3125,-0.93946 c -0.93133,0.38213 -1.55249,1.26573 -1.84953,2.20044 -0.37496,1.03281 -0.60402,2.11092 -0.88648,3.17113 -0.44856,1.65081 -1.01755,3.26566 -1.50227,4.90578 -0.28839,1.07412 -0.51256,2.16818 -0.90039,3.21289 -0.3999,0.95294 -0.96813,1.82335 -1.49355,2.70993 -0.72086,1.16101 -1.44332,2.32113 -2.20919,3.45321 -0.58702,0.87519 -1.15699,1.76251 -1.79791,2.59993 -0.67248,0.86533 -1.2342,1.80627 -1.76409,2.76355 -0.72048,1.28174 -1.57314,2.49345 -2.15713,3.84838 -0.39926,1.04179 -0.68193,2.12279 -1.02311,3.18412 -0.74134,2.44209 -1.44715,4.89479 -2.16049,7.34517 -0.24755,0.99014 -0.35018,2.01665 -0.26949,3.03525 0.12799,1.458 0.27867,2.91403 0.43746,4.36905 0.0795,0.98873 -0.24171,1.94414 -0.53225,2.87395 -0.41847,1.32493 -0.81592,2.65637 -1.20798,3.98933 -0.31661,1.43519 -0.55973,2.88484 -0.78646,4.33655 -0.67547,4.20996 -1.34929,8.42018 -2.02409,12.63025 -0.27912,1.35061 -0.57476,2.6976 -0.88672,4.04101 -0.50796,1.79576 -1.11452,3.56092 -1.71846,5.32606 -0.48118,1.40503 -0.93636,2.8273 -1.61253,4.15405 -0.47734,0.90704 -0.7838,1.88601 -1.06564,2.86756 -0.24218,0.91731 -0.63047,1.78526 -0.91282,2.68905 -0.30963,0.9758 -0.38605,2.00503 -0.52682,3.01417 -0.0792,0.98511 -0.3973,1.9263 -0.74898,2.84276 -0.93565,2.55959 -1.87157,5.11907 -2.8073301,7.67862 -0.15792,0.26382 -0.16494,0.69581 -0.52929,0.77148 -0.53522,0.46915 -0.55377,1.23981 -0.88191,1.83474 -0.38599,0.95918 -0.6818,1.95148 -0.9257,2.9555 -0.33804,1.30925 -0.66192,2.62401 -1.106,3.90255 -0.76485,2.2701 -1.52098,4.551 -2.54412,6.72112 -0.44898,0.94647 -0.89739,1.89698 -1.1829,2.90836 -0.38369,1.33971 -0.67664,2.70308 -0.99001,4.06034 -0.21209,1.02741 -0.49392,2.05667 -0.4611,3.11456 -0.0429,0.42248 0.20266,0.84725 -0.0119,1.2474 -0.31274002,1.06635 -0.75616002,2.09281 -0.99907002,3.17986 -0.27053,1.06305 -0.32698,2.16742 -0.26058,3.25917 0.0797,1.01713 0.1622,2.26501 1.09066002,2.88984 0.75453,0.53884 1.75218,0.36459 2.52321,-0.0415 0.84648,-0.43207 1.63399,-0.97572 2.3761,-1.56769 0.72082,-0.57029 1.42842,-1.22857 1.78542,-2.09508 0.41225,-1.07683 0.57951,-2.22478 0.9056,-3.3275 0.37451,-1.35213 0.88282,-2.66174 1.3346301,-3.9889 0.39488,-1.02303 0.73648,-2.06801 1.21485,-3.05664 0.68785,-1.48603 1.50802,-2.90989 2.11354,-4.43377 0.61883,-1.56272 1.34587,-3.0789 2.03489,-4.61115 0.72531,-1.54581 1.52852,-3.05305 2.29385,-4.57892 0.55671,-1.14108 1.03396,-2.31862 1.55576,-3.47577 0.42161,-0.95135 1.00588,-1.81485 1.49705,-2.72855 0.45864,-0.86697 0.79241,-1.79339 1.27694,-2.64781 0.80464,-1.45216 1.67429,-2.86712 2.47306,-4.32268 0.54561,-0.99201 1.08209,-1.99073 1.56798,-3.01358 0.4009,-0.92758 0.94014,-1.78347 1.37443,-2.69363 0.3527,-0.98697 0.83918,-1.91258 1.45964,-2.75731 0.65595,-0.86255 0.78309,-1.96092 1.17968,-2.94149 0.38907,-1.02111 0.91733,-1.98048 1.38435,-2.96664 0.5068,-1.00099 0.94617,-2.03794 1.53585,-2.99473 1.17627,-1.99736 2.4097,-3.96049 3.60376,-5.94724 l 2.23711,-3.68361 c 1.28055,-2.34124 2.44162,-4.74486 3.66012,-7.11846 0.7493,-1.48298 1.5219,-2.95392 2.324,-4.40906 0.63255,-1.16829 1.25001,-2.34535 1.866,-3.52201 0.51206,-0.93481 1.38361,-1.60448 1.87249,-2.55306 0.51195,-0.9146 1.01341,-1.83626 1.47753,-2.77605 0.5928,-1.25107 1.10438,-2.54998 1.39202,-3.9077 0.28427,-1.25698 0.45074,-2.53667 0.69746,-3.80111 0.17225,-1.03702 0.40691,-2.06178 0.68799,-3.07451 0.46377,-1.72599 0.96853,-3.4407 1.47551,-5.15444 0.67319,-2.09053 1.39678,-4.16418 2.13315,-6.23316 0.46265,-1.28597 0.89794,-2.5821 1.37832,-3.86149 0.39463,-1.01035 0.83138,-2.00417 1.17408,-3.03426 0.52566,-1.54707 1.01596,-3.10672 1.57823,-4.64098 0.54717,-1.47759 1.25677,-2.88676 1.98098,-4.28371 1.2835,-2.41323 2.67102,-4.7698 3.93686,-7.19255 0.71316,-1.35606 1.37547,-2.73831 2.06814,-4.10493 1.39063,-2.81433 2.77294,-5.6328 4.16235,-8.44775 0.56259,-1.2698 1.07988,-2.56832 1.395323,-3.92395 0.477259,-1.83288 0.802785,-3.700692 1.243052,-5.542342 0.3944,-1.68986 0.808978,-3.37499 1.211234,-5.06301 0.177939,-1.02761 0.29467,-2.07185 0.230561,-3.11568 -0.259031,-2.35567 -0.545217,-4.70932 -0.816498,-7.06401 -0.08674,-1.087691 -0.201153,-2.176957 -0.146484,-3.269529 0.03768,-1.084996 0.107528,-2.168647 0.153793,-3.253087 0.04394,-0.918903 -0.08495,-1.834087 -0.229965,-2.7391 -0.16721,-1.082422 -0.119982,-2.179512 -0.178739,-3.269662 0.02439,-1.037331 -0.649573,-1.98282 -1.573217,-2.411979 -0.19548,-0.108448 0.0198,-0.316647 0.03125,-0.464843 0.342483,-0.585214 0.859009,-1.045294 1.22884,-1.613267 1.064997,-1.341799 2.152038,-2.665638 3.247723,-3.982436 0.60471,-0.782512 1.08529,-1.650249 1.524569,-2.533733 0.55451,-1.146683 0.993192,-2.343187 1.45004,-3.530721 0.314742,-0.972244 0.30535,-2.006547 0.349377,-3.016831 0.04337,-1.254705 -0.01279,-2.509828 -0.03492,-3.764419 -0.07313,-1.028267 -0.323998,-2.032225 -0.62899,-3.013783 -0.43567,-1.327771 -0.885237,-2.650976 -1.370924,-3.961433 -0.383527,-1.122263 -0.90166,-2.193778 -1.503993,-3.214237 -0.487164,-0.841666 -0.958647,-1.711182 -1.185547,-2.664062 -0.189205,-0.970629 0.14178,-2.006794 -0.249745,-2.941464 -0.401209,-0.932797 -1.367042,-1.399802 -2.229341,-1.819639 -0.920449,-0.436687 -1.851469,-0.861887 -2.820859,-1.178668 -0.92919,-0.311459 -1.90613,-0.479035 -2.88756,-0.45476 l -0.67968,0.03125 z m 0.625,7.447265 c 0.48849,0.125703 0.95549,0.31698 1.42968,0.486328 -0.0385,0.828822 -0.59215,1.537497 -1.24753,1.999988 -0.80654,0.537218 -1.64093,1.036965 -2.40661,1.634266 -1.64464,1.317222 -3.17254,2.770564 -4.7189,4.199731 -0.63313,-0.774668 -0.74848,-1.906529 -0.30134,-2.7993 0.34746,-0.87633 0.8466,-1.690334 1.42917,-2.429904 0.69347,-0.903044 1.56489,-1.658951 2.51739,-2.277886 0.87163,-0.578546 1.91669,-1.025249 2.98251,-0.86417 l 0.18048,0.02913 z m -8.18164,0.630859 c -0.71613,0.886806 -1.54068,1.741326 -1.89104,2.853352 -0.38643,1.042089 -0.47787,2.158591 -0.54517,3.25938 -0.0147,1.001898 -0.35767,2.116842 -1.33148,2.576342 -0.92111,0.490356 -1.96462,0.677738 -2.95435,0.985079 -0.8354,0.229806 -1.68857,0.383772 -2.53578,0.562176 -0.25311,0.686634 -1.44656,0.05647 -0.97254,-0.535362 0.50944,-0.987606 1.00201,-1.995759 1.69782,-2.869359 0.86859,-1.151041 1.84397,-2.218809 2.89302,-3.20748 0.90418,-0.874872 1.85834,-1.695689 2.79577,-2.534284 0.86558,-0.67998 1.75982,-1.431339 2.875,-1.632812 l 0.44921,-0.05664 z m -7.72852,-0.125 c -0.54565,1.005094 -1.33439,1.844899 -2.04687,2.730469 l -2.16797,2.642578 c -0.57358,1.076818 -1.18538,2.137741 -1.63376,3.275323 -0.44958,1.052119 -0.81275,2.137697 -1.19046,3.216865 -0.38319,0.903835 -0.94022,1.71972 -1.55635,2.47954 -0.627,0.793121 -1.25102,1.624963 -1.55107,2.604444 -0.36255,1.138765 -0.54489,2.322851 -0.79749,3.488451 -0.2243,1.00972 -0.38196,2.03962 -0.67517,3.03108 -0.2347,0.574117 -0.72723,1.100261 -1.37305,1.16211 -0.78299,-0.378047 -1.26436,-1.177498 -1.48553,-1.992247 -0.23602,-0.912211 -0.37273,-1.852039 -0.39272,-2.794807 10e-6,-1.022022 0.093,-2.053363 0.4039,-3.031203 0.30359,-1.009522 0.80072,-1.946192 1.34242,-2.845962 0.63597,-1.040318 1.28156,-2.076096 1.97601,-3.078617 0.78411,-1.104928 1.59848,-2.188248 2.4116,-3.271914 0.91468,-1.183883 1.78286,-2.406647 2.77039,-3.531933 0.73911,-0.840892 1.57567,-1.590134 2.44899,-2.288652 0.86903,-0.668846 1.73101,-1.403219 2.78249,-1.765022 0.2607,-0.107497 0.53937,-0.144519 0.81472,-0.194565 l -0.0801,0.164062 z m 21.109376,0.585938 c 0.163568,0.291474 0.309574,0.60008 0.550781,0.837891 -0.352232,-0.01542 -0.672367,-0.172368 -0.996097,-0.294922 -0.22039,-0.287694 0.0652,-0.749656 0.414066,-0.722657 z m -1.306636,4.339844 c 0.48994,1.270218 0.8469,2.584798 1.22656,3.890625 0.288409,1.010814 0.298812,2.119532 -0.084,3.107422 -0.37726,1.057139 -0.83058,2.130162 -1.64962,2.925991 -0.67573,0.739336 -1.40195,1.435596 -2.19661,2.046613 -0.62928,0.509892 -1.4398,0.692429 -2.15181,1.052786 -0.0139,0.157741 -0.30098,0.249744 -0.26758,0.02734 -0.29399,-0.853285 -0.22146,-1.794531 -0.59767,-2.629297 -0.32926,-0.853692 -0.88765,-1.640927 -0.96483,-2.575781 0.002,-0.881311 -0.31246,-1.80386 -0.01,-2.658203 0.3617,-0.809481 1.15115,-1.293151 1.88722,-1.720539 0.99658,-0.6075 1.98724,-1.233124 2.88601,-1.981021 0.6226,-0.500374 1.23917,-1.008241 1.85959,-1.511331 l 0.0625,0.02539 z m -13.79102,7.361328 c -0.022,0.855173 -0.0223,1.767161 -0.47324,2.526622 -0.2329,0.413659 -0.76841,0.877635 -1.25137,0.565175 -0.78471,-0.143748 -1.48735,0.363493 -2.0332,0.865234 -0.79429,0.677898 -1.47692,1.474551 -2.07123,2.331228 -0.83965,1.216617 -1.73742,2.391708 -2.6358,3.565257 -0.64904,-0.525323 -0.87486,-1.376068 -0.99048,-2.167043 -0.20581,-1.293262 -0.38746,-2.600169 -0.32788,-3.913036 0.1298,-1.070189 1.00113,-1.909298 2.00777,-2.203999 1.01048,-0.412483 2.06732,-0.695622 3.10551,-1.028422 1.25788,-0.35618 2.48536,-0.838842 3.78211,-1.041493 l 0.90734,-0.161633 c -0.007,0.220704 -0.013,0.441407 -0.0195,0.66211 z m 19.570312,0.326172 c 0.167488,0.935346 0.06679,1.890085 -0.05469,2.824218 -0.170807,1.091324 -0.454012,2.167543 -0.8849,3.185897 -0.418368,1.051891 -0.977351,2.044591 -1.617334,2.976891 -0.668982,0.98384 -1.456406,1.878904 -2.249718,2.762994 -0.88474,0.936144 -1.80473,1.846499 -2.83645,2.621467 -0.79437,0.586425 -1.64824,1.11394 -2.57069,1.473984 -0.87429,0.362649 -1.81778,0.514413 -2.75538,0.600873 -0.9736,0.04049 -2.04427,0.305711 -2.94285,-0.190435 -0.27533,-0.02776 -0.004,-0.295463 -0.0423,-0.427338 0.3043,-0.845107 1.12603,-1.310571 1.71573,-1.935699 0.7889,-0.742535 1.58579,-1.47617 2.41383,-2.175121 0.83177,-0.704393 1.74939,-1.299141 2.64263,-1.921587 0.9872,-0.669185 1.98888,-1.316919 2.96726,-1.999269 0.75823,-0.673718 1.38936,-1.476269 1.930142,-2.331646 0.957235,-1.492338 1.903675,-2.992185 2.800323,-4.52187 0.336482,-0.554674 0.740971,-1.141398 1.394531,-1.339844 l 0.08984,0.396485 z M 62.546823,49.12761 c 0.1339,0.421148 0.1546,0.941261 0.54883,1.220703 l 1.1289,3.097656 c 0.022,1.041811 0.18282,2.227361 -0.52217,3.099083 -0.59525,0.777778 -1.55041,1.142188 -2.46286,1.397968 -1.24439,0.340378 -2.51201,0.587359 -3.77278,0.858418 -0.89704,0.135548 -1.81229,0.483061 -2.72265,0.257812 0.0896,-0.860428 0.49938,-1.676384 1.11168,-2.28356 0.68579,-0.640594 1.45755,-1.183887 2.20926,-1.744169 0.87264,-0.659729 1.81502,-1.24226 2.57749,-2.034771 0.75117,-0.807442 1.04226,-1.898694 1.4486,-2.895914 0.12386,-0.324679 0.24799,-0.649249 0.37367,-0.973226 l 0.082,0 z m -17.3125,6.460937 c 0.45438,0.742618 0.88326,1.578771 0.80492,2.476864 0.0279,0.600062 -0.57012,1.264582 -1.18969,1.009465 -0.0451,-0.103696 -0.32372,-0.117503 -0.13541,-0.311088 0.18251,-0.927208 0.17427,-1.880861 0.38346,-2.804147 0.0247,-0.123698 0.0495,-0.247396 0.0742,-0.371094 l 0.0625,0 z m 14.43945,6.609375 c -0.2843,0.959647 -1.15313,1.67926 -2.12338,1.871436 -0.95478,0.207528 -1.93567,0.0624 -2.88894,-0.07938 l -0.18029,-0.03021 c -0.0715,-0.07349 -0.59453,-0.01808 -0.21632,-0.220249 0.64063,-0.746955 1.5392,-1.235956 2.5085,-1.39458 0.96647,-0.252923 1.95375,-0.417842 2.9434,-0.549357 -0.0143,0.134114 -0.0286,0.268229 -0.043,0.402343 z m -14,2.601563 c 0.70351,0.0047 1.41047,0.354642 1.79102,0.955078 l -0.51953,1.53125 c -0.82953,-0.40125 -1.5015,-1.102316 -1.88672,-1.9375 0.14073,-0.223491 0.26461,-0.65245 0.61523,-0.548828 z m 5.02149,1.201172 c 0.77452,0.54866 1.57807,1.057854 2.42578,1.486328 0.58187,0.548701 0.64761,1.412852 0.55859,2.162109 -0.25626,1.726204 -0.54428,3.448656 -0.7207,5.185547 -0.0729,0.576172 -0.14583,1.152344 -0.21875,1.728516 -0.9289,-0.663634 -1.2085,-1.833682 -1.7676,-2.771142 l -0.37888,-0.71128 1.24609,-1.681641 c -0.6595,-0.841359 -1.46495,-1.657066 -1.67383,-2.746094 -0.17551,-0.821545 -0.19783,-1.745588 0.25643,-2.484723 l 0.0943,-0.156598 c 0.0182,-0.07847 0.14019,-0.029 0.17856,-0.01102 z m -10.82031,1.291015 c 0.71521,0.69487 1.3797,1.438753 2.05273,2.173828 0.48812,0.848344 0.91582,1.732245 1.24609,2.654297 0.22601,1.053436 0.40529,2.121734 0.42509,3.201209 0.0168,0.599458 0.009,1.199308 -0.005,1.798791 -0.68107,0.128479 -1.41102,-0.300216 -1.63477,-0.955078 l -2.22461,-2.933593 c -0.46424,-0.927123 -0.97016,-1.835965 -1.34961,-2.802735 l -0.49609,-1.910156 c 0.32162,-0.730623 1.06538,-1.195275 1.83398,-1.326172 l 0.15235,0.09961 z" />
    </g>
  </g>
  <g
     data-animator-type="0"
     data-animator-group="true"
     id="S1Wl3yMFDpz_SJjUfKvaG">
    <g
       data-animator-type="1"
       data-animator-group="true"
       id="S1Wl3yMFDpz_H1QZzKP6z">
      <path
         id="S1Wl3yMFDpz"
         d="m 111.252,1.3147752 c -1.08059,0.195049 -2.13344,0.523881 -3.1543,0.925781 -1.02832,0.502828 -2.07717,0.978167 -3.02344,1.628906 -0.81998,0.626472 -1.11406,1.693493 -1.09765,2.685547 -0.0298,0.983856 0.0395,1.995693 -0.25782,2.9472664 -0.35832,1.0633544 -1.27565,1.7815294 -2.18666,2.3633934 -0.89745,0.581277 -1.866321,1.040086 -2.800341,1.557948 -1.00897,0.519875 -1.95099,1.157331 -2.84776,1.850989 -1.04437,0.783472 -2.05895,1.607087 -3.0514,2.455119 -0.8634,0.742775 -1.67087,1.545167 -2.48012,2.34566 -1.39191,1.360891 -2.7673,2.739489 -4.19212,4.066034 -1.49744,1.336295 -2.99925,2.667668 -4.5041,3.995622 -0.72469,0.684202 -1.39397,1.428011 -1.97633,2.237364 -0.49611,0.649993 -1.06054,1.447961 -0.79515,2.30951 0.2778,0.64504 0.89934,1.097506 1.10351,1.78711 0.11361,0.258727 0.0756,0.564739 0.12891,0.818359 0.48243,0.251428 0.50979,0.908544 0.53517,1.393577 0.0276,0.830683 0.23397,1.637576 0.51561,2.41697 0.62184,1.661682 1.36525,3.281124 1.8418,4.994141 0.24516,0.961086 0.31337,1.992715 0.83398,2.861328 0.58383,0.94092 1.73422,1.241493 2.77763,1.222788 1.30186,0.06337 2.60643,0.02937 3.90944,0.03687 4.13751,-0.0058 8.27503,-0.01165 12.412541,-0.01747 l 4.14649,0.251953 c 1.06103,0.285994 1.9977,0.913341 3.07031,1.164063 1.10202,0.195731 2.2316,0.184833 3.34031,0.05182 0.97845,-0.103438 1.91663,-0.413169 2.84906,-0.711808 0.88953,-0.285594 1.81497,-0.454234 2.74889,-0.488954 0.82113,-0.04442 1.60738,-0.404376 2.22385,-0.940903 0.96184,-0.915602 1.80319,-1.946943 2.65717,-2.961108 0.56776,-0.714875 1.16715,-1.443231 1.45506,-2.323736 0.49861,-1.519345 0.61718,-3.127039 0.73147,-4.7122 0.0756,-1.407355 0.18962,-2.816291 0.14376,-4.226575 -0.0315,-1.273961 -0.2679,-2.532289 -0.58085,-3.764552 -0.50174,-2.062609 -1.05796,-4.111589 -1.58283,-6.168413 l -1.66167,-6.413727 c -0.41232,-1.309439 -0.77449,-2.642121 -1.36361,-3.886899 -0.46545,-1.051278 -1.04475,-2.049123 -1.67501,-3.009474 -1.06973,-1.6570978 -2.22453,-3.2564708 -3.36177,-4.8672998 -0.70225,-0.877661 -1.42107,-1.741539 -2.15625,-2.591797 -0.62485,-0.610349 -1.35798,-1.236975 -2.27029,-1.298702 -0.13444,-0.005 -0.27075,0.01593 -0.40549,0.0155 z m 1.25586,5.783203 c 0.64394,0.820687 1.19848,1.7048124 1.76367,2.5800784 0.56141,0.9647224 1.0883,1.9478104 1.57323,2.9532334 0.62555,1.257492 1.12196,2.57349 1.5634,3.905418 0.29017,0.899687 0.66215,1.82676 0.88485,2.717521 -0.04,0.02417 -0.24971,-3.36e-4 -0.16406,-0.08008 -0.91635,-0.15899 -1.88695,-0.369481 -2.7951,-0.05455 -0.8747,0.294513 -1.71347,1.197433 -1.45536,2.172772 0.30233,0.979456 1.7114,1.041168 2.4017,0.444218 0.7809,-0.584359 1.47419,-1.283696 2.31165,-1.790957 0.28819,0.482072 0.186,1.084876 0.35264,1.611647 0.36515,2.082173 0.85601,4.139343 1.3108,6.203089 0.60673,2.721514 1.29011,5.425051 1.94789,8.134482 0.18831,0.949979 0.0298,1.925695 -0.21498,2.849447 -0.24866,0.952892 -0.55727,1.923686 -1.17565,2.707193 -0.32817,0.37375 -0.75195,0.651232 -1.20898,0.841797 -0.7759,-0.602785 -1.51944,-1.24712 -2.21875,-1.9375 -0.78977,-1.208644 -1.61698,-2.397201 -2.28187,-3.68158 -0.59431,-1.124866 -1.18649,-2.255418 -1.62877,-3.450718 -0.43621,-1.118894 -0.77173,-2.273021 -1.1421,-3.414577 l -0.80468,-3.203124 c -0.42134,-2.409624 -0.80519,-4.825956 -1.13881,-7.249297 -0.15814,-1.084674 -0.2357,-2.177742 -0.29591,-3.271541 -0.057,-1.490572 0.0207,-2.981943 0.0359,-4.47272 0.0253,-1.404199 0.081,-2.8076474 0.1195,-4.2115208 0.0672,-0.70413 0.25019,-1.56895 0.98829,-1.857422 l 1.27148,1.554688 z m -7.99024,8.2890628 2.2832,7.929688 1.83204,7.61914 c 0.31085,1.124517 0.62565,2.248734 1.02232,3.346705 l 1.48549,4.321263 c 0.6848,1.406939 1.43223,2.78164 2.17187,4.160156 0.21487,0.413736 0.41518,0.834407 0.60157,1.261719 -0.95924,0.247637 -1.9506,0.3238 -2.93736,0.362592 -2.36026,0.0086 -4.72065,0.02843 -7.0808,-0.0092 -3.41071,-0.03287 -6.821221,-0.08237 -10.231841,-0.122934 l -3.72657,-0.201172 c -0.96031,-0.06697 -1.9071,-0.750682 -2.09179,-1.726562 -0.22927,-0.976782 -0.25039,-1.987415 -0.45561,-2.96881 -0.18502,-1.021449 -0.46224,-2.023657 -0.74152,-3.022511 -0.29762,-1.058104 -0.65043,-2.10135 -0.90747,-3.170379 -0.24433,-0.936931 -0.0368,-1.955474 0.55577,-2.721113 0.61831,-0.858733 1.31356,-1.659464 2.02448,-2.442244 0.76144,-0.848525 1.56618,-1.658629 2.41062,-2.424679 1.02476,-0.964229 2.08412,-1.890856 3.1473,-2.812257 l 8.021111,-6.875506 c 0.72864,-0.527683 1.46199,-1.106398 2.35352,-1.324219 l 0.26367,0.820312 z m 12.40234,11.22461 c -0.81193,0.27972 -1.59591,0.631201 -2.38476,0.96875 -0.26656,0.900547 0.0868,1.964058 0.89453,2.466796 0.92528,0.02709 1.87701,-0.323404 2.48657,-1.035176 0.44785,-0.587266 0.43965,-1.498285 -0.0616,-2.051362 -0.22955,-0.260091 -0.58748,-0.412248 -0.93471,-0.349008 z" />
    </g>
  </g>
  <script
     id="script14">(function(){var a=document.querySelector('#S1RhkzKDaz'),b=a.querySelectorAll('style'),c=function(d){b.forEach(function(f){var g=f.textContent;g&amp;&amp;(f.textContent=g.replace(/transform-box:[^;\r\n]*/gi,'transform-box: '+d))})};c('initial'),window.requestAnimationFrame(function(){return c('fill-box')})})();</script>
</svg>
