<?xml version="1.0" encoding="UTF-8" standalone="no"?>
<svg
   xmlns:dc="http://purl.org/dc/elements/1.1/"
   xmlns:cc="http://creativecommons.org/ns#"
   xmlns:rdf="http://www.w3.org/1999/02/22-rdf-syntax-ns#"
   xmlns:svg="http://www.w3.org/2000/svg"
   xmlns="http://www.w3.org/2000/svg"
   id="svg2"
   preserveAspectRatio="xMidYMid meet"
   viewBox="0 0 620.6344 743.09278"
   height="743.09277pt"
   width="620.6344pt"
   version="1.0">
  <defs
     id="defs28" />
  <metadata
     id="metadata4">
Created by potrace 1.15, written by Peter Selinger 2001-2017
<rdf:RDF>
  <cc:Work
     rdf:about="">
    <dc:format>image/svg+xml</dc:format>
    <dc:type
       rdf:resource="http://purl.org/dc/dcmitype/StillImage" />
    <dc:title></dc:title>
  </cc:Work>
</rdf:RDF>
</metadata>
  <g
     id="g6"
     transform="matrix(0.1,0,0,-0.1,-364.89832,2048.3718)"
     style="fill:#000000;fill-opacity:1" />
  <path
     d="m 592.24588,548.18448 0,-69.93762 c 0,-58.50592 -50.84469,-105.94101 -113.55399,-105.94101 -62.7093,0 -113.55398,47.43592 -113.55398,105.94101 l 0,69.93762 c -9.53676,2.89683 -19.07352,5.89711 -28.3885,9.51814 l 0,158.91152 c 90.84851,35.30485 193.03645,35.30485 283.88497,0 l 0,-158.91152 c -9.31498,-3.62103 -18.85174,-6.62131 -28.3885,-9.51814 z m -85.16549,141.94441 -56.77699,0 10.59068,-59.28145 c -6.32088,-4.86253 -10.59068,-11.94899 -10.59068,-20.17431 0,-14.63973 12.69764,-26.48526 28.38849,-26.48526 15.69086,0 28.3885,11.84636 28.3885,26.48526 0,8.22532 -4.26981,15.31178 -10.59068,20.17431 l 10.59068,59.28145 z m 56.77699,-149.21212 c -56.02824,-12.41497 -114.27523,-12.41497 -170.33098,0 l 0,-62.66991 c 0,-43.81488 38.20294,-79.45576 85.16549,-79.45576 46.96256,0 85.16549,35.64171 85.16549,79.45576 l 0,62.66991 z M 187.13059,731.19091 c -8.82276,0.1416 -15.70487,-8.7819 -14.58942,-17.2484 -4.85566,-23.147 -24.14702,-39.1667 -33.19181,-60.3465 -2.00464,-10.9747 -2.83676,-23.2312 -11.20334,-31.5797 -10.91335,-13.9701 -28.258785,-20.019 -42.162725,-30.164 -10.74175,-11.2863 -13.61797,-27.2558 -21.10617,-40.4912 -6.42703,-17.2257 -5.80204,-37.7655 -18.93017,-51.9668 -7.42773,-7.4111 -18.3524,-12.5865 -20.98838,-23.6431 -9.83303,-24.5006 -11.00742,-51.4849 -20.80908,-75.9999 -9.42128,-36.4929 -1.58412,-74.868 11.33829,-109.4743 5.89485,-19.0008 11.82033,-38.0119 19.07325,-56.542 3.96589,-11.8728 4.89722,-24.4646 7.32522,-36.6366 6.29013,-17.5744 21.68996,-29.2549 33.95958,-42.4941 6.93914,-3.4421 11.52656,-9.8382 17.08613,-15.0315 18.998555,-19.5061 37.658825,-39.5475 59.409115,-56.065897 17.65914,-15.7162 36.37774,-30.2935 56.45071,-42.793 12.7531,-9.8183 26.3005,-18.8379 41.26777,-24.8734 20.41023,-11.8895004 44.9934,-7.5877004 67.10918,-13.2461004 12.8912,-2.93609996 26.33187,-3.54619996 39.32747,-0.9708 26.61415,2.5997 52.63198,10.3361004 76.41788,22.5370004 12.89752,6.094 25.17744,13.681 37.95927,19.8097 12.32323,-2.8526 23.20041,7.0136 28.71,17.0818 8.52568,11.2817 19.19393,21.2073 24.82845,34.4239 13.9405,23.124897 30.97342,45.017197 38.61007,71.315297 10.86306,26.14 25.31907,51.6239 28.43076,80.2063 0.38659,18.6547 1.24105,37.3086 1.20343,55.9661 -0.33222,21.7718 -4.13787,43.6031 -12.74081,63.6797 -12.9927,35.8808 -27.60528,71.9658 -51.13053,102.38 -22.66853,26.1047 -53.75556,42.3259 -83.09408,59.6137 -34.15208,24.35 -71.00979,20.812 -107.71924,24.2876 -39.57917,1.8362 -79.60601,-7.5121 -114.2127,-26.8021 -4.18524,-1.5505 -8.06835,2.1623 -8.53053,6.2054 -2.67576,5.6926 -5.9756,11.2834 -5.98667,17.7833 -4.57385,24.8821 -14.46919,48.5734 -17.50527,73.7911 -2.91169,20.2091 -0.70511,41.2376 7.62222,59.9721 5.36302,13.2567 6.43956,30.0371 -2.61217,41.9554 -2.3907,2.9767 -5.56754,5.5975 -9.6157,5.361 z m 136.16953,-222.8478 c 35.89587,-0.4663 73.8969,-6.5534 102.90561,-29.1435 16.81,-12.7427 34.33485,-24.5969 50.70742,-37.8743 15.87868,-16.1474 24.65588,-37.5058 38.1665,-55.4308 12.33085,-20.8478 19.10116,-44.3423 29.37687,-66.1479 5.43481,-21.7256 7.16021,-44.1823 8.54211,-66.4664 0.32507,-11.0133 0.18563,-22.1125 -1.72879,-32.992 -10.59109,19.1713 -15.0021,42.5881 -32.25174,57.451 -29.61881,22.787 -53.28931,53.8624 -87.92622,69.6747 -23.06141,9.836 -46.00548,20.3461 -66.62765,34.7629 -26.41555,17.5621 -52.13383,36.3682 -75.05032,58.3887 -8.39167,8.5125 -18.37344,15.0683 -28.23554,21.7158 -11.55353,8.1004 -23.6171,17.0211 -30.10853,29.8594 -1.59901,9.182 8.84287,15.509 17.01819,14.2748 12.99663,0.2602 26.06351,-1.1448 38.98269,0.8402 12.0635,0.6855 24.14391,1.1876 36.2294,1.0874 z m -137.6543,-35.7113 c 9.85675,-4.8045 12.4041,-17.028 21.39054,-22.9057 17.45401,-17.6621 36.97948,-33.4223 52.15605,-53.2169 20.01278,-20.0252 47.16991,-30.0201 69.97828,-46.194 21.80191,-13.7851 45.42905,-24.2842 68.12599,-36.4231 18.25125,-10.6295 33.49514,-25.671 46.29261,-42.3382 11.77285,-13.9245 23.26468,-28.1219 36.01239,-41.1821 -16.90639,-1.729 -31.25548,9.3395 -43.85274,19.0835 -36.95878,27.5623 -77.48128,49.7526 -116.31689,74.4429 -24.98487,17.5666 -51.03476,33.5651 -76.61757,50.2043 -27.07748,21.4287 -45.98511,50.8678 -65.1876,79.0726 -3.34548,6.7284 -1.05792,19.4371 8.01894,19.4567 z m 20.95703,-144.7246 c 19.29821,-12.084 38.36181,-24.576 57.85877,-36.3219 28.69789,-15.4481 60.76473,-23.8206 88.73811,-40.6633 1.9322,-2.1836 -2.78694,-0.4824 -3.87654,-0.6619 -30.04972,3.4752 -58.07524,16.6584 -82.83128,33.5818 -18.87644,12.6897 -37.15067,26.2766 -55.83281,39.2268 -2.06282,1.7144 -5.85193,5.1428 -6.2593,6.3814 z m -81.51523,-22.9135 c 14.97698,-8.1421 22.54211,-24.3771 33.8606,-36.4364 13.56261,-16.8736 31.03328,-30.8174 51.27979,-38.7437 32.51066,-16.4653 67.53517,-27.4868 103.19038,-34.6992 34.98605,-8.469 69.64872,-20.8038 99.13184,-41.9183 14.21502,-9.4352 29.56542,-20.2094 35.55457,-36.9155 0.81416,-6.0354 -6.35167,-7.285 -10.87297,-7.0817 -12.38747,0.299 -24.06166,5.2027 -36.25766,6.9517 -23.92227,4.3716 -47.73567,9.3387 -71.80583,12.8773 -29.29483,3.432 -55.08734,19.3399 -78.80084,35.8675 -29.52197,21.4986 -61.26173,40.7435 -85.97223,68.0453 -12.00064,13.2379 -22.55872,27.7149 -33.16916,42.0612 -5.35008,8.3202 -10.07687,18.5685 -7.73752,28.6076 0.30614,0.6327 0.79314,1.425 1.59903,1.3842 z m 31.5039,-144.1201 c 22.6507,-7.4083 41.71095,-22.4788 63.76544,-31.2442 29.47956,-15.6037 57.66561,-35.978797 91.30912,-41.428697 21.44004,-4.6125 44.04788,-5.9809 64.14386,-15.2443 2.46554,-5.2977 -5.00887,-7.4729 -8.79173,-8.5778 -10.71043,-3.3375 -21.56409,-6.828 -32.74787,-8.011 -22.24783,-1.1096 -43.2806,7.911 -63.43529,16.1857 -23.20769,10.3747 -45.81082,22.0899 -68.21619,34.065197 -20.11025,12.3938 -38.02686,29.63 -48.0789,51.2338 -0.29287,1.3657 0.2869,3.3396 2.05156,3.0213 z m -78.614055,-9.2346 c 0.14674,0.0842 -0.42561,0.3084 0,0 z"
     id="path5488" />
</svg>
